<svg width="882" height="100" viewBox="0 0 882 100" fill="none" xmlns="http://www.w3.org/2000/svg">
<rect width="882" height="100" rx="10" fill="white" fill-opacity="0.8"/>
<rect x="0.5" y="0.5" width="881" height="99" rx="9.5" stroke="black" stroke-opacity="0.1" stroke-linecap="round"/>
<path d="M367.728 32H369.366L365.558 22.242H364.396L360.588 32H362.212L363.024 29.788H366.93L367.728 32ZM363.514 28.43L364.984 24.426L366.44 28.43H363.514ZM374.121 32.182C376.529 32.182 377.789 30.908 377.789 28.402V22.242H376.291V28.29C376.291 30.026 375.647 30.726 374.121 30.726C372.595 30.726 371.965 30.04 371.965 28.304V22.242H370.467V28.472C370.467 30.936 371.727 32.182 374.121 32.182ZM382.346 32H383.858V23.628H387.022V22.242H379.196V23.628H382.346V32ZM392.234 32.182C394.964 32.182 396.826 30.166 396.826 27.128C396.826 24.076 394.978 22.06 392.234 22.06C389.49 22.06 387.628 24.076 387.628 27.128C387.628 30.166 389.49 32.182 392.234 32.182ZM392.234 30.754C390.344 30.754 389.126 29.368 389.126 27.128C389.126 24.874 390.344 23.488 392.234 23.488C394.124 23.488 395.328 24.888 395.328 27.128C395.328 29.354 394.124 30.754 392.234 30.754ZM398.533 28.346H402.467V27.268H398.533V28.346ZM407.477 32.168C409.479 32.168 410.781 31.02 410.781 29.256C410.781 27.884 410.123 27.128 408.009 26.316C406.511 25.742 405.979 25.336 405.979 24.608C405.979 23.936 406.567 23.39 407.379 23.39C408.093 23.39 408.723 23.796 409.087 24.538L410.333 23.768C409.731 22.634 408.709 22.06 407.421 22.06C405.657 22.06 404.481 23.096 404.481 24.65C404.481 26.022 405.195 26.75 407.211 27.52C408.751 28.122 409.283 28.584 409.283 29.382C409.283 30.264 408.625 30.838 407.505 30.838C406.301 30.838 405.475 30.124 405.335 28.934L403.837 29.298C404.117 31.034 405.573 32.168 407.477 32.168ZM414.653 32H416.165V23.628H419.329V22.242H411.503V23.628H414.653V32ZM424.541 32.182C427.271 32.182 429.133 30.166 429.133 27.128C429.133 24.076 427.285 22.06 424.541 22.06C421.797 22.06 419.935 24.076 419.935 27.128C419.935 30.166 421.797 32.182 424.541 32.182ZM424.541 30.754C422.651 30.754 421.433 29.368 421.433 27.128C421.433 24.874 422.651 23.488 424.541 23.488C426.431 23.488 427.635 24.888 427.635 27.128C427.635 29.354 426.431 30.754 424.541 30.754ZM431.162 32H432.646V27.884H434.214C436.342 27.884 437.504 26.876 437.504 25.028C437.504 23.208 436.356 22.242 434.214 22.242H431.162V32ZM432.646 26.498V23.628H434.06C435.404 23.628 435.992 24.062 435.992 25.056C435.992 26.036 435.39 26.498 434.06 26.498H432.646ZM448.829 32H450.467L446.659 22.242H445.497L441.689 32H443.313L444.125 29.788H448.031L448.829 32ZM444.615 28.43L446.085 24.426L447.541 28.43H444.615ZM452.039 32H453.537V27.688H458.213V26.302H453.537V23.628H458.857V22.242H452.039V32ZM463.133 32H464.645V23.628H467.809V22.242H459.983V23.628H463.133V32ZM469.402 32H475.856V30.614H470.9V27.688H475.45V26.302H470.9V23.628H475.856V22.242H469.402V32ZM485.155 32L482.509 27.674C483.727 27.31 484.385 26.4 484.385 25.014C484.385 23.264 483.349 22.242 481.095 22.242H478.043V32H479.527V27.856H480.409H481.025L483.405 32H485.155ZM479.527 26.484V23.628H480.941C482.215 23.628 482.873 24.006 482.873 25.042C482.873 26.078 482.215 26.484 480.941 26.484H479.527ZM492.377 32H493.889V23.628H497.053V22.242H489.227V23.628H492.377V32ZM498.646 32H500.144V22.242H498.646V32ZM510.473 22.242L507.729 29.438L504.999 22.242H502.843V32H504.341V24.314L507.001 31.16H508.457L511.131 24.314V32H512.629V22.242H510.473ZM515.339 32H521.793V30.614H516.837V27.688H521.387V26.302H516.837V23.628H521.793V22.242H515.339V32Z" fill="#3E898B"/>
<rect x="212" y="49" width="321" height="36" rx="4" fill="#C4C4C4" fill-opacity="0.1"/>
<rect x="212.5" y="49.5" width="320" height="35" rx="3.5" stroke="#071435" stroke-opacity="0.1" stroke-linecap="round"/>
<path d="M221.322 71.2L223.824 68.338L221.322 65.386C221.154 65.194 220.95 65.098 220.71 65.098C220.614 65.098 220.542 65.104 220.494 65.116L220.188 65.188C220.14 65.2 220.056 65.206 219.936 65.206C219.54 65.206 219.342 65.014 219.342 64.63C219.342 64.222 219.588 64.018 220.08 64.018H220.134C220.146 64.018 220.446 64.042 221.034 64.09C221.334 64.114 221.586 64.126 221.79 64.126C221.994 64.126 222.288 64.108 222.672 64.072C223.056 64.036 223.344 64.018 223.536 64.018C224.028 64.018 224.274 64.222 224.274 64.63C224.274 65.014 224.046 65.206 223.59 65.206C223.494 65.206 223.404 65.194 223.32 65.17L223.05 65.098H222.942C222.894 65.098 222.87 65.11 222.87 65.134C222.894 65.206 222.948 65.29 223.032 65.386L224.67 67.366L226.38 65.386C226.488 65.266 226.542 65.182 226.542 65.134C226.53 65.11 226.5 65.098 226.452 65.098C226.392 65.098 226.29 65.116 226.146 65.152C226.014 65.188 225.912 65.206 225.84 65.206C225.408 65.206 225.192 65.002 225.192 64.594C225.192 64.198 225.444 64 225.948 64C225.924 64 226.242 64.03 226.902 64.09C227.166 64.114 227.448 64.126 227.748 64.126C228.048 64.126 228.366 64.108 228.702 64.072C229.038 64.036 229.278 64.018 229.422 64.018C229.95 64.018 230.214 64.222 230.214 64.63C230.214 65.026 230.01 65.224 229.602 65.224C229.506 65.224 229.368 65.2 229.188 65.152C229.008 65.104 228.87 65.08 228.774 65.08C228.486 65.08 228.09 65.368 227.586 65.944L225.498 68.32L228.306 71.632C228.474 71.836 228.678 71.938 228.918 71.938C228.99 71.938 229.098 71.926 229.242 71.902C229.398 71.878 229.512 71.866 229.584 71.866C230.016 71.866 230.232 72.058 230.232 72.442C230.232 72.862 229.98 73.072 229.476 73.072H229.332L228.63 72.982C228.438 72.958 228.15 72.946 227.766 72.946C227.442 72.946 227.118 72.964 226.794 73L226.146 73.072H225.948C225.384 73.072 225.102 72.88 225.102 72.496C225.102 72.076 225.324 71.866 225.768 71.866C225.924 71.866 226.146 71.89 226.434 71.938C226.458 71.95 226.5 71.956 226.56 71.956C226.68 71.956 226.74 71.908 226.74 71.812C226.74 71.776 226.722 71.74 226.686 71.704L226.632 71.632L224.634 69.292L222.6 71.632C222.516 71.728 222.474 71.8 222.474 71.848C222.474 71.908 222.534 71.938 222.654 71.938C222.738 71.938 222.864 71.926 223.032 71.902C223.2 71.878 223.326 71.866 223.41 71.866C223.926 71.866 224.184 72.076 224.184 72.496C224.184 72.88 223.926 73.072 223.41 73.072H223.158L222.438 73C222.078 72.964 221.76 72.946 221.484 72.946C221.268 72.946 221.01 72.964 220.71 73C220.302 73.048 220.002 73.072 219.81 73.072C219.306 73.072 219.054 72.868 219.054 72.46C219.054 72.064 219.27 71.866 219.702 71.866C219.774 71.866 219.882 71.878 220.026 71.902C220.17 71.914 220.278 71.92 220.35 71.92C220.578 71.92 220.902 71.68 221.322 71.2ZM233.989 65.728L236.059 71.812L238.255 65.818C238.315 65.65 238.345 65.518 238.345 65.422C238.345 65.218 238.207 65.116 237.931 65.116C237.787 65.116 237.673 65.128 237.589 65.152C237.397 65.176 237.271 65.188 237.211 65.188C236.815 65.188 236.617 64.996 236.617 64.612C236.617 64.204 236.875 64 237.391 64C237.463 64 237.583 64.012 237.751 64.036L238.399 64.126C238.567 64.15 238.747 64.162 238.939 64.162C239.143 64.162 239.443 64.138 239.839 64.09C240.235 64.042 240.535 64.018 240.739 64.018C241.255 64.018 241.513 64.216 241.513 64.612C241.513 64.996 241.315 65.188 240.919 65.188C240.799 65.188 240.709 65.176 240.649 65.152C240.493 65.116 240.385 65.098 240.325 65.098C240.097 65.098 239.863 65.404 239.623 66.016L237.175 72.136C236.635 73.492 236.125 74.476 235.645 75.088C234.829 76.132 233.809 76.654 232.585 76.654C231.853 76.654 231.235 76.468 230.731 76.096C230.239 75.724 229.993 75.274 229.993 74.746C229.993 74.374 230.101 74.068 230.317 73.828C230.533 73.6 230.815 73.486 231.163 73.486C231.439 73.486 231.667 73.564 231.847 73.72C232.027 73.888 232.117 74.092 232.117 74.332C232.117 74.716 231.943 74.962 231.595 75.07C231.775 75.334 232.117 75.466 232.621 75.466C233.257 75.466 233.827 75.226 234.331 74.746C234.847 74.278 235.105 73.75 235.105 73.162C235.105 72.862 234.943 72.304 234.619 71.488L232.639 66.484C232.639 66.484 232.567 66.292 232.423 65.908C232.219 65.368 231.985 65.098 231.721 65.098C231.649 65.098 231.517 65.116 231.325 65.152C231.145 65.188 231.025 65.206 230.965 65.206C230.545 65.206 230.335 65.014 230.335 64.63C230.335 64.222 230.611 64.018 231.163 64.018C231.343 64.018 231.481 64.024 231.577 64.036L232.297 64.126C232.309 64.126 232.357 64.126 232.441 64.126C232.525 64.138 232.597 64.144 232.657 64.144C233.089 64.144 233.551 64.12 234.043 64.072C234.415 64.036 234.661 64.018 234.781 64.018C235.285 64.018 235.537 64.216 235.537 64.612C235.537 65.008 235.309 65.206 234.853 65.206C234.781 65.206 234.667 65.194 234.511 65.17C234.355 65.134 234.241 65.116 234.169 65.116C234.001 65.116 233.917 65.2 233.917 65.368C233.917 65.464 233.941 65.584 233.989 65.728ZM242.333 71.146L248.201 65.206H245.447C244.547 65.206 243.983 65.236 243.755 65.296C243.527 65.344 243.413 65.482 243.413 65.71C243.413 65.806 243.425 65.914 243.449 66.034C243.509 66.346 243.539 66.64 243.539 66.916C243.539 67.372 243.341 67.6 242.945 67.6C242.537 67.6 242.333 67.336 242.333 66.808C242.333 66.58 242.339 66.424 242.351 66.34C242.399 65.98 242.423 65.722 242.423 65.566C242.423 65.446 242.399 65.272 242.351 65.044C242.315 64.804 242.297 64.624 242.297 64.504C242.297 64.132 242.597 63.946 243.197 63.946C243.389 63.946 243.647 63.952 243.971 63.964C244.343 63.988 244.601 64 244.745 64L245.825 64.018H248.885C249.665 64.018 250.055 64.294 250.055 64.846C250.055 65.098 249.827 65.452 249.371 65.908L243.539 71.794H247.823C248.531 71.794 248.885 71.59 248.885 71.182V70.84C248.885 70.636 248.873 70.462 248.849 70.318C248.825 69.862 248.813 69.646 248.813 69.67C248.813 69.466 248.873 69.298 248.993 69.166C249.113 69.022 249.263 68.95 249.443 68.95C249.827 68.95 250.019 69.178 250.019 69.634C250.019 69.838 250.007 70.048 249.983 70.264C249.935 70.696 249.911 71.008 249.911 71.2C249.911 71.332 249.923 71.524 249.947 71.776C249.983 72.028 250.001 72.22 250.001 72.352C250.001 72.82 249.737 73.048 249.209 73.036L248.111 73H242.927C242.627 73 242.381 72.91 242.189 72.73C241.997 72.55 241.901 72.322 241.901 72.046C241.901 71.734 242.045 71.434 242.333 71.146ZM253.229 73.306C252.917 73.306 252.653 73.198 252.437 72.982C252.221 72.754 252.113 72.484 252.113 72.172C252.113 71.86 252.221 71.596 252.437 71.38C252.653 71.152 252.917 71.038 253.229 71.038C253.541 71.038 253.805 71.152 254.021 71.38C254.237 71.596 254.345 71.86 254.345 72.172C254.345 72.484 254.237 72.754 254.021 72.982C253.805 73.198 253.541 73.306 253.229 73.306ZM264.145 73.234C263.161 73.234 262.555 72.808 262.327 71.956C261.715 72.856 260.755 73.306 259.447 73.306C258.475 73.306 257.695 73.066 257.107 72.586C256.531 72.106 256.243 71.464 256.243 70.66C256.243 69.664 256.669 68.932 257.521 68.464C257.845 68.284 258.121 68.17 258.349 68.122C258.589 68.062 259.063 67.99 259.771 67.906C260.779 67.798 261.433 67.648 261.733 67.456C262.045 67.264 262.201 66.91 262.201 66.394C262.201 65.902 262.027 65.518 261.679 65.242C261.343 64.954 260.869 64.81 260.257 64.81C259.717 64.81 259.213 64.96 258.745 65.26C258.565 65.38 258.475 65.506 258.475 65.638C258.475 65.686 258.529 65.746 258.637 65.818C258.805 65.938 258.889 66.142 258.889 66.43C258.889 66.67 258.799 66.868 258.619 67.024C258.451 67.18 258.235 67.258 257.971 67.258C257.659 67.258 257.395 67.15 257.179 66.934C256.975 66.718 256.873 66.454 256.873 66.142C256.873 65.47 257.203 64.894 257.863 64.414C258.535 63.934 259.345 63.694 260.293 63.694C262.477 63.694 263.569 64.744 263.569 66.844V70.48C263.569 71.056 263.581 71.398 263.605 71.506C263.677 71.926 263.881 72.136 264.217 72.136C264.637 72.136 264.847 71.752 264.847 70.984V70.102C264.847 69.718 265.033 69.526 265.405 69.526C265.801 69.526 265.999 69.814 265.999 70.39V70.48L265.981 71.506C265.957 72.658 265.345 73.234 264.145 73.234ZM262.147 69.652L262.165 68.374C261.901 68.614 261.619 68.782 261.319 68.878C261.031 68.974 260.509 69.058 259.753 69.13C258.385 69.262 257.701 69.766 257.701 70.642C257.701 71.098 257.863 71.458 258.187 71.722C258.523 71.986 258.973 72.118 259.537 72.118C260.341 72.118 260.971 71.902 261.427 71.47C261.895 71.026 262.135 70.42 262.147 69.652ZM269.319 64.558V65.062C270.039 64.15 270.999 63.694 272.199 63.694C272.847 63.694 273.459 63.862 274.035 64.198C274.611 64.522 275.001 64.93 275.205 65.422C275.373 65.83 275.457 66.364 275.457 67.024V70.444C275.457 70.96 275.463 71.266 275.475 71.362C275.535 71.77 275.697 71.974 275.961 71.974C276.069 71.974 276.207 71.962 276.375 71.938C276.555 71.902 276.681 71.884 276.753 71.884C276.909 71.884 277.041 71.938 277.149 72.046C277.269 72.154 277.329 72.286 277.329 72.442C277.329 72.622 277.257 72.772 277.113 72.892C276.969 73.012 276.795 73.072 276.591 73.072C276.423 73.072 276.147 73.048 275.763 73C275.379 72.952 275.019 72.928 274.683 72.928C274.371 72.928 274.113 72.94 273.909 72.964C273.309 73.036 272.991 73.072 272.955 73.072C272.475 73.072 272.235 72.862 272.235 72.442C272.235 72.07 272.439 71.884 272.847 71.884C272.943 71.884 273.051 71.896 273.171 71.92C273.399 71.968 273.543 71.992 273.603 71.992C273.891 71.992 274.047 71.662 274.071 71.002L274.107 70.084L274.125 68.986V67.618C274.125 66.982 274.095 66.544 274.035 66.304C273.927 65.848 273.693 65.494 273.333 65.242C272.937 64.966 272.487 64.828 271.983 64.828C271.023 64.828 270.333 65.17 269.913 65.854C269.625 66.322 269.481 67.12 269.481 68.248V70.642C269.481 71.17 269.517 71.53 269.589 71.722C269.661 71.914 269.793 72.01 269.985 72.01C270.081 72.01 270.213 71.986 270.381 71.938C270.549 71.89 270.687 71.866 270.795 71.866C271.167 71.866 271.353 72.07 271.353 72.478C271.353 72.874 271.113 73.072 270.633 73.072C270.537 73.072 270.225 73.036 269.697 72.964C269.433 72.928 269.139 72.91 268.815 72.91C268.563 72.91 268.227 72.934 267.807 72.982C267.279 73.042 266.979 73.072 266.907 73.072C266.403 73.072 266.151 72.868 266.151 72.46C266.151 72.076 266.343 71.884 266.727 71.884C266.787 71.884 266.895 71.902 267.051 71.938C267.219 71.974 267.381 71.992 267.537 71.992C267.897 71.992 268.083 71.644 268.095 70.948L268.131 68.95V66.772L268.095 66.142C268.071 65.734 268.017 65.458 267.933 65.314C267.861 65.158 267.729 65.08 267.537 65.08C267.453 65.08 267.327 65.098 267.159 65.134C267.003 65.158 266.883 65.17 266.799 65.17C266.367 65.17 266.151 64.978 266.151 64.594C266.151 64.198 266.421 64 266.961 64C267.033 64 267.093 64.006 267.141 64.018L267.807 64.09C267.999 64.09 268.167 64.078 268.311 64.054C268.623 64.03 268.785 64.018 268.797 64.018C269.145 64.018 269.319 64.198 269.319 64.558ZM280.466 65.728L282.536 71.812L284.732 65.818C284.792 65.65 284.822 65.518 284.822 65.422C284.822 65.218 284.684 65.116 284.408 65.116C284.264 65.116 284.15 65.128 284.066 65.152C283.874 65.176 283.748 65.188 283.688 65.188C283.292 65.188 283.094 64.996 283.094 64.612C283.094 64.204 283.352 64 283.868 64C283.94 64 284.06 64.012 284.228 64.036L284.876 64.126C285.044 64.15 285.224 64.162 285.416 64.162C285.62 64.162 285.92 64.138 286.316 64.09C286.712 64.042 287.012 64.018 287.216 64.018C287.732 64.018 287.99 64.216 287.99 64.612C287.99 64.996 287.792 65.188 287.396 65.188C287.276 65.188 287.186 65.176 287.126 65.152C286.97 65.116 286.862 65.098 286.802 65.098C286.574 65.098 286.34 65.404 286.1 66.016L283.652 72.136C283.112 73.492 282.602 74.476 282.122 75.088C281.306 76.132 280.286 76.654 279.062 76.654C278.33 76.654 277.712 76.468 277.208 76.096C276.715 75.724 276.469 75.274 276.469 74.746C276.469 74.374 276.577 74.068 276.793 73.828C277.01 73.6 277.292 73.486 277.64 73.486C277.916 73.486 278.144 73.564 278.324 73.72C278.504 73.888 278.594 74.092 278.594 74.332C278.594 74.716 278.42 74.962 278.072 75.07C278.252 75.334 278.594 75.466 279.098 75.466C279.734 75.466 280.304 75.226 280.808 74.746C281.324 74.278 281.582 73.75 281.582 73.162C281.582 72.862 281.42 72.304 281.096 71.488L279.116 66.484C279.116 66.484 279.044 66.292 278.9 65.908C278.696 65.368 278.462 65.098 278.198 65.098C278.126 65.098 277.994 65.116 277.802 65.152C277.622 65.188 277.502 65.206 277.442 65.206C277.022 65.206 276.811 65.014 276.811 64.63C276.811 64.222 277.088 64.018 277.64 64.018C277.82 64.018 277.958 64.024 278.054 64.036L278.774 64.126C278.786 64.126 278.834 64.126 278.918 64.126C279.002 64.138 279.074 64.144 279.134 64.144C279.566 64.144 280.028 64.12 280.52 64.072C280.892 64.036 281.138 64.018 281.258 64.018C281.762 64.018 282.014 64.216 282.014 64.612C282.014 65.008 281.786 65.206 281.33 65.206C281.258 65.206 281.144 65.194 280.988 65.17C280.832 65.134 280.718 65.116 280.646 65.116C280.478 65.116 280.394 65.2 280.394 65.368C280.394 65.464 280.418 65.584 280.466 65.728ZM293.4 70.516L293.436 69.364C293.448 68.872 293.664 68.626 294.084 68.626C294.504 68.626 294.714 68.902 294.714 69.454C294.714 70.762 294.546 71.674 294.21 72.19C293.754 72.886 293.004 73.234 291.96 73.234C291 73.234 290.316 72.928 289.908 72.316C289.608 71.872 289.458 71.116 289.458 70.048V65.728C289.458 65.476 289.344 65.35 289.116 65.35H288.54C288.348 65.35 288.186 65.29 288.054 65.17C287.934 65.038 287.874 64.882 287.874 64.702C287.874 64.534 287.934 64.384 288.054 64.252C288.186 64.12 288.33 64.054 288.486 64.054H289.188C289.392 64.054 289.494 63.94 289.494 63.712V61.858C289.494 61.402 289.728 61.174 290.196 61.174C290.628 61.174 290.844 61.402 290.844 61.858V63.784C290.844 63.964 290.952 64.054 291.168 64.054H293.13C293.586 64.054 293.814 64.264 293.814 64.684C293.814 65.128 293.568 65.35 293.076 65.35H291.096C290.928 65.35 290.844 65.476 290.844 65.728V70.156C290.844 71.416 291.258 72.046 292.086 72.046C292.926 72.046 293.364 71.536 293.4 70.516ZM298.483 61.408L298.411 64.9C298.891 64.444 299.329 64.132 299.725 63.964C300.121 63.784 300.589 63.694 301.129 63.694C302.161 63.694 302.989 63.988 303.613 64.576C304.237 65.164 304.549 65.938 304.549 66.898V69.904C304.549 70.612 304.555 71.002 304.567 71.074C304.615 71.674 304.771 71.974 305.035 71.974C305.131 71.974 305.269 71.95 305.449 71.902C305.521 71.89 305.617 71.884 305.737 71.884C306.181 71.884 306.403 72.082 306.403 72.478C306.403 72.874 306.115 73.072 305.539 73.072C305.383 73.072 305.155 73.054 304.855 73.018C304.351 72.958 303.943 72.928 303.631 72.928C303.319 72.928 303.079 72.94 302.911 72.964C302.407 73.036 302.095 73.072 301.975 73.072C301.759 73.072 301.579 73.012 301.435 72.892C301.291 72.76 301.219 72.598 301.219 72.406C301.219 72.25 301.279 72.118 301.399 72.01C301.531 71.902 301.681 71.848 301.849 71.848C301.981 71.848 302.137 71.878 302.317 71.938C302.425 71.974 302.527 71.992 302.623 71.992C302.983 71.992 303.169 71.602 303.181 70.822C303.181 70.678 303.187 70.396 303.199 69.976L303.217 69.202V68.23C303.217 67.006 303.097 66.184 302.857 65.764C302.509 65.14 301.897 64.828 301.021 64.828C300.073 64.828 299.383 65.152 298.951 65.8C298.651 66.244 298.495 66.958 298.483 67.942L298.465 69.238C298.465 69.31 298.459 69.43 298.447 69.598C298.447 69.754 298.447 69.868 298.447 69.94C298.447 70.624 298.453 71.02 298.465 71.128C298.525 71.716 298.699 72.01 298.987 72.01C299.083 72.01 299.215 71.992 299.383 71.956C299.563 71.908 299.695 71.884 299.779 71.884C300.163 71.884 300.355 72.07 300.355 72.442C300.355 72.862 300.091 73.072 299.563 73.072C299.395 73.072 299.143 73.054 298.807 73.018C298.351 72.97 297.961 72.946 297.637 72.946C297.433 72.946 297.151 72.964 296.791 73C296.311 73.048 296.005 73.072 295.873 73.072C295.381 73.072 295.135 72.856 295.135 72.424C295.135 72.064 295.363 71.884 295.819 71.884C295.975 71.884 296.089 71.896 296.161 71.92C296.365 71.956 296.509 71.974 296.593 71.974C296.785 71.974 296.911 71.794 296.971 71.434C297.043 71.062 297.085 70.312 297.097 69.184L297.115 65.962C297.115 64.162 297.079 63.028 297.007 62.56C296.935 62.08 296.767 61.84 296.503 61.84C296.419 61.84 296.293 61.858 296.125 61.894C295.957 61.93 295.825 61.948 295.729 61.948C295.321 61.948 295.117 61.756 295.117 61.372C295.117 61.204 295.189 61.06 295.333 60.94C295.477 60.82 295.651 60.76 295.855 60.76C295.915 60.76 296.119 60.778 296.467 60.814C296.695 60.838 296.941 60.85 297.205 60.85C297.313 60.85 297.463 60.838 297.655 60.814C297.847 60.79 297.985 60.778 298.069 60.778C298.345 60.778 298.483 60.976 298.483 61.372V61.408ZM310.034 67.78V70.12C310.034 70.72 310.04 71.074 310.052 71.182C310.112 71.722 310.274 71.992 310.538 71.992C310.598 71.992 310.748 71.962 310.988 71.902C311.048 71.878 311.138 71.866 311.258 71.866C311.714 71.866 311.942 72.064 311.942 72.46C311.942 72.628 311.864 72.772 311.708 72.892C311.564 73.012 311.378 73.072 311.15 73.072C310.958 73.072 310.664 73.048 310.268 73C309.884 72.94 309.596 72.91 309.404 72.91C309.092 72.91 308.744 72.934 308.36 72.982C307.892 73.042 307.58 73.072 307.424 73.072C306.944 73.072 306.704 72.868 306.704 72.46C306.704 72.064 306.908 71.866 307.316 71.866C307.412 71.866 307.55 71.884 307.73 71.92C307.922 71.956 308.066 71.974 308.162 71.974C308.45 71.974 308.624 71.59 308.684 70.822C308.684 70.774 308.684 70.252 308.684 69.256V67.78C308.684 66.784 308.684 66.262 308.684 66.214C308.624 65.458 308.444 65.08 308.144 65.08C308.048 65.08 307.91 65.104 307.73 65.152C307.562 65.188 307.436 65.206 307.352 65.206C306.92 65.206 306.704 65.014 306.704 64.63C306.704 64.222 306.968 64.018 307.496 64.018C307.724 64.018 307.886 64.024 307.982 64.036C308.366 64.084 308.612 64.108 308.72 64.108C308.816 64.108 308.96 64.096 309.152 64.072C309.356 64.036 309.506 64.018 309.602 64.018C309.95 64.018 310.124 64.252 310.124 64.72C310.124 64.768 310.118 64.84 310.106 64.936C310.094 65.032 310.088 65.104 310.088 65.152C310.076 65.248 310.064 65.62 310.052 66.268C310.04 66.76 310.034 67.264 310.034 67.78ZM309.098 63.064C308.822 63.064 308.582 62.968 308.378 62.776C308.186 62.572 308.09 62.332 308.09 62.056C308.09 61.78 308.186 61.546 308.378 61.354C308.582 61.162 308.822 61.066 309.098 61.066C309.374 61.066 309.608 61.162 309.8 61.354C310.004 61.546 310.106 61.78 310.106 62.056C310.106 62.332 310.004 62.572 309.8 62.776C309.608 62.968 309.374 63.064 309.098 63.064ZM315.444 64.558V65.062C316.164 64.15 317.124 63.694 318.324 63.694C318.972 63.694 319.584 63.862 320.16 64.198C320.736 64.522 321.126 64.93 321.33 65.422C321.498 65.83 321.582 66.364 321.582 67.024V70.444C321.582 70.96 321.588 71.266 321.6 71.362C321.66 71.77 321.822 71.974 322.086 71.974C322.194 71.974 322.332 71.962 322.5 71.938C322.68 71.902 322.806 71.884 322.878 71.884C323.034 71.884 323.166 71.938 323.274 72.046C323.394 72.154 323.454 72.286 323.454 72.442C323.454 72.622 323.382 72.772 323.238 72.892C323.094 73.012 322.92 73.072 322.716 73.072C322.548 73.072 322.272 73.048 321.888 73C321.504 72.952 321.144 72.928 320.808 72.928C320.496 72.928 320.238 72.94 320.034 72.964C319.434 73.036 319.116 73.072 319.08 73.072C318.6 73.072 318.36 72.862 318.36 72.442C318.36 72.07 318.564 71.884 318.972 71.884C319.068 71.884 319.176 71.896 319.296 71.92C319.524 71.968 319.668 71.992 319.728 71.992C320.016 71.992 320.172 71.662 320.196 71.002L320.232 70.084L320.25 68.986V67.618C320.25 66.982 320.22 66.544 320.16 66.304C320.052 65.848 319.818 65.494 319.458 65.242C319.062 64.966 318.612 64.828 318.108 64.828C317.148 64.828 316.458 65.17 316.038 65.854C315.75 66.322 315.606 67.12 315.606 68.248V70.642C315.606 71.17 315.642 71.53 315.714 71.722C315.786 71.914 315.918 72.01 316.11 72.01C316.206 72.01 316.338 71.986 316.506 71.938C316.674 71.89 316.812 71.866 316.92 71.866C317.292 71.866 317.478 72.07 317.478 72.478C317.478 72.874 317.238 73.072 316.758 73.072C316.662 73.072 316.35 73.036 315.822 72.964C315.558 72.928 315.264 72.91 314.94 72.91C314.688 72.91 314.352 72.934 313.932 72.982C313.404 73.042 313.104 73.072 313.032 73.072C312.528 73.072 312.276 72.868 312.276 72.46C312.276 72.076 312.468 71.884 312.852 71.884C312.912 71.884 313.02 71.902 313.176 71.938C313.344 71.974 313.506 71.992 313.662 71.992C314.022 71.992 314.208 71.644 314.22 70.948L314.256 68.95V66.772L314.22 66.142C314.196 65.734 314.142 65.458 314.058 65.314C313.986 65.158 313.854 65.08 313.662 65.08C313.578 65.08 313.452 65.098 313.284 65.134C313.128 65.158 313.008 65.17 312.924 65.17C312.492 65.17 312.276 64.978 312.276 64.594C312.276 64.198 312.546 64 313.086 64C313.158 64 313.218 64.006 313.266 64.018L313.932 64.09C314.124 64.09 314.292 64.078 314.436 64.054C314.748 64.03 314.91 64.018 314.922 64.018C315.27 64.018 315.444 64.198 315.444 64.558ZM328.417 63.694C328.729 63.694 329.083 63.742 329.479 63.838C329.539 62.662 330.223 62.074 331.531 62.074C332.083 62.074 332.545 62.218 332.917 62.506C333.289 62.794 333.475 63.16 333.475 63.604C333.475 63.892 333.379 64.138 333.187 64.342C333.007 64.546 332.791 64.648 332.539 64.648C332.347 64.648 332.179 64.582 332.035 64.45C331.891 64.318 331.819 64.162 331.819 63.982C331.819 63.79 331.951 63.592 332.215 63.388C332.023 63.148 331.777 63.028 331.477 63.028C330.841 63.028 330.517 63.424 330.505 64.216C331.417 64.828 331.873 65.65 331.873 66.682C331.873 67.51 331.561 68.2 330.937 68.752C330.313 69.304 329.533 69.58 328.597 69.58C327.937 69.58 327.253 69.424 326.545 69.112C326.353 69.028 326.191 68.986 326.059 68.986C325.891 68.986 325.741 69.064 325.609 69.22C325.477 69.364 325.411 69.538 325.411 69.742C325.411 70.366 326.041 70.678 327.301 70.678H327.409C327.505 70.678 327.613 70.672 327.733 70.66C327.853 70.66 327.925 70.66 327.949 70.66C329.089 70.66 330.013 70.768 330.721 70.984C331.381 71.188 331.903 71.506 332.287 71.938C332.671 72.37 332.863 72.856 332.863 73.396C332.863 74.272 332.455 74.962 331.639 75.466C330.835 75.982 329.743 76.24 328.363 76.24C326.983 76.24 325.897 76 325.105 75.52C324.325 75.04 323.935 74.38 323.935 73.54C323.935 72.568 324.481 71.878 325.573 71.47C324.601 71.086 324.115 70.51 324.115 69.742C324.115 68.902 324.601 68.326 325.573 68.014C325.261 67.594 325.105 67.102 325.105 66.538C325.105 65.722 325.417 65.044 326.041 64.504C326.677 63.964 327.469 63.694 328.417 63.694ZM328.471 64.882C327.943 64.882 327.493 65.038 327.121 65.35C326.749 65.662 326.545 66.052 326.509 66.52C326.509 66.52 326.509 66.556 326.509 66.628C326.509 67.156 326.689 67.582 327.049 67.906C327.409 68.23 327.877 68.392 328.453 68.392C329.053 68.392 329.539 68.23 329.911 67.906C330.295 67.582 330.487 67.168 330.487 66.664C330.487 66.148 330.295 65.722 329.911 65.386C329.527 65.05 329.047 64.882 328.471 64.882ZM328.489 71.866C327.529 71.866 326.773 72.01 326.221 72.298C325.669 72.586 325.393 72.976 325.393 73.468C325.393 73.96 325.663 74.344 326.203 74.62C326.743 74.908 327.469 75.052 328.381 75.052C329.341 75.052 330.097 74.908 330.649 74.62C331.213 74.332 331.495 73.948 331.495 73.468C331.495 72.964 331.231 72.574 330.703 72.298C330.175 72.01 329.437 71.866 328.489 71.866ZM335.723 73.306C335.411 73.306 335.147 73.198 334.931 72.982C334.715 72.754 334.607 72.484 334.607 72.172C334.607 71.86 334.715 71.596 334.931 71.38C335.147 71.152 335.411 71.038 335.723 71.038C336.035 71.038 336.299 71.152 336.515 71.38C336.731 71.596 336.839 71.86 336.839 72.172C336.839 72.484 336.731 72.754 336.515 72.982C336.299 73.198 336.035 73.306 335.723 73.306ZM343.291 68.842L343.237 63.622C343.225 63.01 343.159 62.602 343.039 62.398C342.931 62.194 342.709 62.092 342.373 62.092C342.253 62.092 342.079 62.11 341.851 62.146C341.623 62.17 341.449 62.182 341.329 62.182C340.861 62.182 340.627 61.972 340.627 61.552C340.627 61.132 340.849 60.922 341.293 60.922C341.437 60.922 341.659 60.94 341.959 60.976C342.271 61 342.511 61.012 342.679 61.012C343.063 61.012 343.381 61 343.633 60.976C344.005 60.94 344.233 60.922 344.317 60.922C344.581 60.922 344.743 61 344.803 61.156C344.851 61.264 344.875 61.45 344.875 61.714C344.875 61.75 344.869 61.894 344.857 62.146C344.797 63.43 344.767 64.594 344.767 65.638V67.672C344.767 68.044 344.773 68.542 344.785 69.166C344.809 69.922 344.821 70.42 344.821 70.66C344.833 71.488 345.109 71.902 345.649 71.902C345.781 71.902 345.979 71.89 346.243 71.866C346.507 71.83 346.705 71.812 346.837 71.812C347.413 71.812 347.701 72.022 347.701 72.442C347.701 72.862 347.437 73.072 346.909 73.072C346.705 73.072 346.513 73.06 346.333 73.036C345.325 72.904 344.557 72.838 344.029 72.838C343.501 72.838 342.853 72.892 342.085 73C341.653 73.06 341.347 73.09 341.167 73.09C340.651 73.09 340.393 72.874 340.393 72.442C340.393 72.022 340.687 71.812 341.275 71.812C341.455 71.812 341.641 71.83 341.833 71.866C342.121 71.89 342.301 71.902 342.373 71.902C342.793 71.902 343.051 71.74 343.147 71.416C343.243 71.08 343.291 70.222 343.291 68.842ZM355.984 61.876V68.086H358.108C358.504 68.086 358.702 68.29 358.702 68.698C358.702 69.106 358.492 69.31 358.072 69.31H355.984V70.408C355.984 71.404 356.254 71.902 356.794 71.902C356.938 71.902 357.136 71.89 357.388 71.866C357.64 71.842 357.766 71.83 357.766 71.83C358.27 71.83 358.522 72.034 358.522 72.442C358.522 72.862 358.306 73.072 357.874 73.072C357.61 73.072 357.256 73.036 356.812 72.964C356.44 72.904 355.978 72.874 355.426 72.874C355.09 72.874 354.586 72.91 353.914 72.982C353.242 73.054 352.738 73.09 352.402 73.09C351.946 73.09 351.718 72.886 351.718 72.478C351.718 72.046 351.994 71.83 352.546 71.83C352.666 71.83 352.84 71.842 353.068 71.866C353.308 71.89 353.488 71.902 353.608 71.902C354.208 71.902 354.508 71.404 354.508 70.408V69.31H348.928C348.376 69.31 348.1 69.07 348.1 68.59C348.1 68.398 348.166 68.206 348.298 68.014L353.068 62.092C353.572 61.468 353.944 61.066 354.184 60.886C354.424 60.694 354.7 60.598 355.012 60.598C355.66 60.598 355.984 61.024 355.984 61.876ZM349.846 68.086H354.508L354.634 62.2L349.846 68.086ZM364.025 63.694C365.213 63.694 366.101 64.156 366.689 65.08V63.262C366.689 62.782 366.677 62.488 366.653 62.38C366.593 62.008 366.425 61.822 366.149 61.822C366.053 61.822 365.915 61.84 365.735 61.876C365.567 61.912 365.435 61.93 365.339 61.93C364.895 61.93 364.673 61.738 364.673 61.354C364.673 60.958 364.973 60.76 365.573 60.76C365.669 60.76 365.843 60.772 366.095 60.796C366.479 60.832 366.677 60.85 366.689 60.85C366.797 60.85 366.953 60.838 367.157 60.814C367.361 60.79 367.517 60.778 367.625 60.778C367.961 60.778 368.129 61.018 368.129 61.498V61.696C368.117 61.732 368.105 62.05 368.093 62.65C368.093 62.722 368.075 63.184 368.039 64.036C368.015 64.636 368.003 65.092 368.003 65.404V67.168L368.039 70.174C368.051 70.966 368.087 71.458 368.147 71.65C368.207 71.842 368.351 71.938 368.579 71.938C368.735 71.938 368.855 71.926 368.939 71.902C369.131 71.878 369.263 71.866 369.335 71.866C369.779 71.866 370.001 72.064 370.001 72.46C370.001 72.868 369.731 73.072 369.191 73.072C369.071 73.072 368.885 73.054 368.633 73.018C368.393 72.994 368.213 72.982 368.093 72.982C368.057 72.982 367.919 72.994 367.679 73.018C367.535 73.054 367.409 73.072 367.301 73.072C366.977 73.072 366.815 72.856 366.815 72.424V72.334L366.833 72.028C366.197 72.88 365.273 73.306 364.061 73.306C362.837 73.306 361.853 72.862 361.109 71.974C360.365 71.086 359.993 69.922 359.993 68.482C359.993 67.03 360.359 65.872 361.091 65.008C361.823 64.132 362.801 63.694 364.025 63.694ZM366.581 70.048C366.629 69.652 366.653 69.142 366.653 68.518C366.653 67.714 366.623 67.168 366.563 66.88C366.455 66.28 366.197 65.812 365.789 65.476C365.309 65.08 364.757 64.882 364.133 64.882C363.293 64.882 362.633 65.2 362.153 65.836C361.685 66.472 361.451 67.342 361.451 68.446C361.451 69.586 361.697 70.486 362.189 71.146C362.681 71.794 363.353 72.118 364.205 72.118C364.853 72.118 365.393 71.932 365.825 71.56C366.257 71.176 366.509 70.672 366.581 70.048ZM377.23 69.382C377.23 69.286 377.236 69.202 377.248 69.13C376.792 69.838 376.09 70.192 375.142 70.192C374.566 70.192 374.098 70 373.738 69.616C373.39 69.22 373.216 68.71 373.216 68.086C373.216 66.994 373.612 66.034 374.404 65.206C375.196 64.366 376.114 63.946 377.158 63.946C377.398 63.946 377.662 63.982 377.95 64.054L378.31 64.144C378.358 64.168 378.418 64.18 378.49 64.18C378.55 64.18 378.652 64.15 378.796 64.09C378.988 64.006 379.126 63.964 379.21 63.964C379.39 63.964 379.48 64.042 379.48 64.198C379.48 64.234 379.468 64.3 379.444 64.396L379.354 64.738L378.328 68.572C378.292 68.716 378.274 68.83 378.274 68.914C378.274 69.13 378.388 69.238 378.616 69.238C379.06 69.238 379.474 68.95 379.858 68.374C380.398 67.57 380.668 66.64 380.668 65.584C380.668 64.588 380.338 63.76 379.678 63.1C379.03 62.44 378.208 62.11 377.212 62.11C375.808 62.11 374.584 62.674 373.54 63.802C372.508 64.918 371.992 66.232 371.992 67.744C371.992 68.92 372.37 69.904 373.126 70.696C373.882 71.476 374.83 71.866 375.97 71.866C376.642 71.866 377.194 71.788 377.626 71.632C378.07 71.464 378.622 71.14 379.282 70.66C379.522 70.48 379.72 70.39 379.876 70.39C380.104 70.39 380.218 70.498 380.218 70.714C380.218 70.942 380.062 71.176 379.75 71.416C378.562 72.352 377.254 72.82 375.826 72.82C374.374 72.82 373.162 72.34 372.19 71.38C371.23 70.408 370.75 69.196 370.75 67.744C370.75 65.992 371.398 64.468 372.694 63.172C374.002 61.864 375.544 61.21 377.32 61.21C378.664 61.21 379.756 61.606 380.596 62.398C381.448 63.19 381.874 64.222 381.874 65.494C381.874 66.922 381.352 68.17 380.308 69.238C379.672 69.886 379.006 70.21 378.31 70.21C377.998 70.21 377.74 70.132 377.536 69.976C377.332 69.82 377.23 69.622 377.23 69.382ZM377.608 66.934L378.094 65.134C377.734 64.954 377.386 64.864 377.05 64.864C376.354 64.864 375.742 65.17 375.214 65.782C374.698 66.394 374.44 67.108 374.44 67.924C374.44 68.752 374.8 69.166 375.52 69.166C376.516 69.166 377.212 68.422 377.608 66.934ZM385.949 64.54V65.062C386.381 64.546 386.789 64.192 387.173 64C387.557 63.796 388.037 63.694 388.613 63.694C389.789 63.694 390.653 64.15 391.205 65.062C391.613 64.558 392.027 64.204 392.447 64C392.867 63.796 393.407 63.694 394.067 63.694C394.751 63.694 395.363 63.838 395.903 64.126C396.503 64.45 396.917 64.906 397.145 65.494C397.301 65.89 397.379 66.514 397.379 67.366V69.112L397.361 70.462C397.361 70.954 397.367 71.254 397.379 71.362C397.439 71.794 397.595 72.01 397.847 72.01C397.931 72.01 398.057 71.992 398.225 71.956C398.393 71.92 398.519 71.902 398.603 71.902C399.023 71.902 399.233 72.082 399.233 72.442C399.233 72.862 398.993 73.072 398.513 73.072C398.333 73.072 398.057 73.048 397.685 73C397.325 72.964 397.049 72.946 396.857 72.946C396.653 72.946 396.353 72.964 395.957 73C395.573 73.048 395.279 73.072 395.075 73.072C394.571 73.072 394.319 72.862 394.319 72.442C394.319 72.082 394.511 71.902 394.895 71.902C394.943 71.902 395.063 71.914 395.255 71.938C395.327 71.962 395.423 71.974 395.543 71.974C395.747 71.974 395.873 71.872 395.921 71.668C395.981 71.464 396.017 70.954 396.029 70.138L396.047 69.04V67.852C396.047 67.024 395.981 66.424 395.849 66.052C395.729 65.668 395.495 65.368 395.147 65.152C394.799 64.936 394.403 64.828 393.959 64.828C393.107 64.828 392.513 65.122 392.177 65.71C391.913 66.178 391.781 66.994 391.781 68.158V69.436C391.781 70.564 391.805 71.272 391.853 71.56C391.913 71.836 392.057 71.974 392.285 71.974C392.357 71.974 392.459 71.962 392.591 71.938C392.735 71.902 392.843 71.884 392.915 71.884C393.083 71.884 393.221 71.944 393.329 72.064C393.449 72.172 393.509 72.31 393.509 72.478C393.509 72.874 393.227 73.072 392.663 73.072C392.483 73.072 392.213 73.048 391.853 73C391.505 72.952 391.241 72.928 391.061 72.928C390.809 72.928 390.533 72.952 390.233 73C389.933 73.048 389.669 73.072 389.441 73.072C388.949 73.072 388.703 72.868 388.703 72.46C388.703 72.088 388.883 71.902 389.243 71.902C389.375 71.902 389.477 71.914 389.549 71.938C389.717 71.974 389.843 71.992 389.927 71.992C390.215 71.992 390.365 71.686 390.377 71.074L390.395 70.228C390.407 69.964 390.413 69.706 390.413 69.454C390.425 69.238 390.431 69.124 390.431 69.112V67.618C390.431 66.574 390.287 65.848 389.999 65.44C389.723 65.032 389.225 64.828 388.505 64.828C387.713 64.828 387.107 65.116 386.687 65.692C386.339 66.16 386.165 66.976 386.165 68.14V70.534C386.165 71.014 386.171 71.296 386.183 71.38C386.231 71.788 386.363 71.992 386.579 71.992C386.639 71.992 386.765 71.968 386.957 71.92C386.981 71.92 387.017 71.914 387.065 71.902C387.113 71.902 387.155 71.902 387.191 71.902C387.659 71.902 387.893 72.1 387.893 72.496C387.893 72.88 387.623 73.072 387.083 73.072C386.879 73.072 386.627 73.054 386.327 73.018C385.919 72.97 385.571 72.946 385.283 72.946C385.139 72.946 384.875 72.964 384.491 73C383.975 73.048 383.663 73.072 383.555 73.072C383.075 73.072 382.835 72.868 382.835 72.46C382.835 72.088 383.063 71.902 383.519 71.902C383.543 71.902 383.579 71.902 383.627 71.902C383.675 71.914 383.711 71.92 383.735 71.92L384.185 72.01C384.197 72.022 384.221 72.028 384.257 72.028C384.581 72.028 384.755 71.734 384.779 71.146L384.815 70.12V67.366C384.815 66.346 384.785 65.71 384.725 65.458C384.677 65.206 384.533 65.08 384.293 65.08C384.245 65.08 384.077 65.11 383.789 65.17C383.669 65.194 383.573 65.206 383.501 65.206C383.057 65.206 382.835 65.014 382.835 64.63C382.835 64.222 383.081 64.018 383.573 64.018C383.705 64.018 383.885 64.03 384.113 64.054C384.341 64.078 384.539 64.09 384.707 64.09C384.767 64.09 384.833 64.084 384.905 64.072C384.977 64.072 385.019 64.072 385.031 64.072L385.463 64.018H385.517C385.805 64.018 385.949 64.192 385.949 64.54ZM407.688 73.234C406.704 73.234 406.098 72.808 405.87 71.956C405.258 72.856 404.298 73.306 402.99 73.306C402.018 73.306 401.238 73.066 400.65 72.586C400.074 72.106 399.786 71.464 399.786 70.66C399.786 69.664 400.212 68.932 401.064 68.464C401.388 68.284 401.664 68.17 401.892 68.122C402.132 68.062 402.606 67.99 403.314 67.906C404.322 67.798 404.976 67.648 405.276 67.456C405.588 67.264 405.744 66.91 405.744 66.394C405.744 65.902 405.57 65.518 405.222 65.242C404.886 64.954 404.412 64.81 403.8 64.81C403.26 64.81 402.756 64.96 402.288 65.26C402.108 65.38 402.018 65.506 402.018 65.638C402.018 65.686 402.072 65.746 402.18 65.818C402.348 65.938 402.432 66.142 402.432 66.43C402.432 66.67 402.342 66.868 402.162 67.024C401.994 67.18 401.778 67.258 401.514 67.258C401.202 67.258 400.938 67.15 400.722 66.934C400.518 66.718 400.416 66.454 400.416 66.142C400.416 65.47 400.746 64.894 401.406 64.414C402.078 63.934 402.888 63.694 403.836 63.694C406.02 63.694 407.112 64.744 407.112 66.844V70.48C407.112 71.056 407.124 71.398 407.148 71.506C407.22 71.926 407.424 72.136 407.76 72.136C408.18 72.136 408.39 71.752 408.39 70.984V70.102C408.39 69.718 408.576 69.526 408.948 69.526C409.344 69.526 409.542 69.814 409.542 70.39V70.48L409.524 71.506C409.5 72.658 408.888 73.234 407.688 73.234ZM405.69 69.652L405.708 68.374C405.444 68.614 405.162 68.782 404.862 68.878C404.574 68.974 404.052 69.058 403.296 69.13C401.928 69.262 401.244 69.766 401.244 70.642C401.244 71.098 401.406 71.458 401.73 71.722C402.066 71.986 402.516 72.118 403.08 72.118C403.884 72.118 404.514 71.902 404.97 71.47C405.438 71.026 405.678 70.42 405.69 69.652ZM413.024 67.78V70.12C413.024 70.72 413.03 71.074 413.042 71.182C413.102 71.722 413.264 71.992 413.528 71.992C413.588 71.992 413.738 71.962 413.978 71.902C414.038 71.878 414.128 71.866 414.248 71.866C414.704 71.866 414.932 72.064 414.932 72.46C414.932 72.628 414.854 72.772 414.698 72.892C414.554 73.012 414.368 73.072 414.14 73.072C413.948 73.072 413.654 73.048 413.258 73C412.874 72.94 412.586 72.91 412.394 72.91C412.082 72.91 411.734 72.934 411.35 72.982C410.882 73.042 410.57 73.072 410.414 73.072C409.934 73.072 409.694 72.868 409.694 72.46C409.694 72.064 409.898 71.866 410.306 71.866C410.402 71.866 410.54 71.884 410.72 71.92C410.912 71.956 411.056 71.974 411.152 71.974C411.44 71.974 411.614 71.59 411.674 70.822C411.674 70.774 411.674 70.252 411.674 69.256V67.78C411.674 66.784 411.674 66.262 411.674 66.214C411.614 65.458 411.434 65.08 411.134 65.08C411.038 65.08 410.9 65.104 410.72 65.152C410.552 65.188 410.426 65.206 410.342 65.206C409.91 65.206 409.694 65.014 409.694 64.63C409.694 64.222 409.958 64.018 410.486 64.018C410.714 64.018 410.876 64.024 410.972 64.036C411.356 64.084 411.602 64.108 411.71 64.108C411.806 64.108 411.95 64.096 412.142 64.072C412.346 64.036 412.496 64.018 412.592 64.018C412.94 64.018 413.114 64.252 413.114 64.72C413.114 64.768 413.108 64.84 413.096 64.936C413.084 65.032 413.078 65.104 413.078 65.152C413.066 65.248 413.054 65.62 413.042 66.268C413.03 66.76 413.024 67.264 413.024 67.78ZM412.088 63.064C411.812 63.064 411.572 62.968 411.368 62.776C411.176 62.572 411.08 62.332 411.08 62.056C411.08 61.78 411.176 61.546 411.368 61.354C411.572 61.162 411.812 61.066 412.088 61.066C412.364 61.066 412.598 61.162 412.79 61.354C412.994 61.546 413.096 61.78 413.096 62.056C413.096 62.332 412.994 62.572 412.79 62.776C412.598 62.968 412.364 63.064 412.088 63.064ZM418.489 65.476L418.507 71.074C418.519 71.686 418.681 71.992 418.993 71.992C419.065 71.992 419.215 71.962 419.443 71.902C419.587 71.878 419.683 71.866 419.731 71.866C420.127 71.866 420.325 72.07 420.325 72.478C420.325 72.874 420.079 73.072 419.587 73.072C419.395 73.072 419.089 73.048 418.669 73C418.249 72.952 417.925 72.928 417.697 72.928C417.505 72.928 417.217 72.952 416.833 73C416.449 73.048 416.167 73.072 415.987 73.072H415.897C415.393 73.072 415.141 72.856 415.141 72.424C415.141 72.052 415.345 71.866 415.753 71.866C415.777 71.866 415.819 71.866 415.879 71.866C415.951 71.878 416.005 71.884 416.041 71.884C416.341 71.932 416.515 71.956 416.563 71.956C416.779 71.956 416.911 71.866 416.959 71.686C417.019 71.494 417.055 71.008 417.067 70.228L417.085 68.968L417.139 66.178L417.121 62.974C417.109 62.614 417.091 62.374 417.067 62.254C416.983 61.978 416.815 61.84 416.563 61.84C416.527 61.84 416.371 61.864 416.095 61.912C415.963 61.936 415.855 61.948 415.771 61.948C415.363 61.948 415.159 61.756 415.159 61.372C415.159 60.976 415.399 60.778 415.879 60.778C416.011 60.778 416.125 60.784 416.221 60.796L416.653 60.85C416.845 60.874 417.007 60.886 417.139 60.886C417.259 60.886 417.439 60.868 417.679 60.832C417.919 60.784 418.099 60.76 418.219 60.76C418.495 60.76 418.633 60.934 418.633 61.282C418.633 61.402 418.627 61.492 418.615 61.552C418.531 62.476 418.489 63.784 418.489 65.476ZM423.935 64.54V65.062C424.367 64.546 424.775 64.192 425.159 64C425.543 63.796 426.023 63.694 426.599 63.694C427.775 63.694 428.639 64.15 429.191 65.062C429.599 64.558 430.013 64.204 430.433 64C430.853 63.796 431.393 63.694 432.053 63.694C432.737 63.694 433.349 63.838 433.889 64.126C434.489 64.45 434.903 64.906 435.131 65.494C435.287 65.89 435.365 66.514 435.365 67.366V69.112L435.347 70.462C435.347 70.954 435.353 71.254 435.365 71.362C435.425 71.794 435.581 72.01 435.833 72.01C435.917 72.01 436.043 71.992 436.211 71.956C436.379 71.92 436.505 71.902 436.589 71.902C437.009 71.902 437.219 72.082 437.219 72.442C437.219 72.862 436.979 73.072 436.499 73.072C436.319 73.072 436.043 73.048 435.671 73C435.311 72.964 435.035 72.946 434.843 72.946C434.639 72.946 434.339 72.964 433.943 73C433.559 73.048 433.265 73.072 433.061 73.072C432.557 73.072 432.305 72.862 432.305 72.442C432.305 72.082 432.497 71.902 432.881 71.902C432.929 71.902 433.049 71.914 433.241 71.938C433.313 71.962 433.409 71.974 433.529 71.974C433.733 71.974 433.859 71.872 433.907 71.668C433.967 71.464 434.003 70.954 434.015 70.138L434.033 69.04V67.852C434.033 67.024 433.967 66.424 433.835 66.052C433.715 65.668 433.481 65.368 433.133 65.152C432.785 64.936 432.389 64.828 431.945 64.828C431.093 64.828 430.499 65.122 430.163 65.71C429.899 66.178 429.767 66.994 429.767 68.158V69.436C429.767 70.564 429.791 71.272 429.839 71.56C429.899 71.836 430.043 71.974 430.271 71.974C430.343 71.974 430.445 71.962 430.577 71.938C430.721 71.902 430.829 71.884 430.901 71.884C431.069 71.884 431.207 71.944 431.315 72.064C431.435 72.172 431.495 72.31 431.495 72.478C431.495 72.874 431.213 73.072 430.649 73.072C430.469 73.072 430.199 73.048 429.839 73C429.491 72.952 429.227 72.928 429.047 72.928C428.795 72.928 428.519 72.952 428.219 73C427.919 73.048 427.655 73.072 427.427 73.072C426.935 73.072 426.689 72.868 426.689 72.46C426.689 72.088 426.869 71.902 427.229 71.902C427.361 71.902 427.463 71.914 427.535 71.938C427.703 71.974 427.829 71.992 427.913 71.992C428.201 71.992 428.351 71.686 428.363 71.074L428.381 70.228C428.393 69.964 428.399 69.706 428.399 69.454C428.411 69.238 428.417 69.124 428.417 69.112V67.618C428.417 66.574 428.273 65.848 427.985 65.44C427.709 65.032 427.211 64.828 426.491 64.828C425.699 64.828 425.093 65.116 424.673 65.692C424.325 66.16 424.151 66.976 424.151 68.14V70.534C424.151 71.014 424.157 71.296 424.169 71.38C424.217 71.788 424.349 71.992 424.565 71.992C424.625 71.992 424.751 71.968 424.943 71.92C424.967 71.92 425.003 71.914 425.051 71.902C425.099 71.902 425.141 71.902 425.177 71.902C425.645 71.902 425.879 72.1 425.879 72.496C425.879 72.88 425.609 73.072 425.069 73.072C424.865 73.072 424.613 73.054 424.313 73.018C423.905 72.97 423.557 72.946 423.269 72.946C423.125 72.946 422.861 72.964 422.477 73C421.961 73.048 421.649 73.072 421.541 73.072C421.061 73.072 420.821 72.868 420.821 72.46C420.821 72.088 421.049 71.902 421.505 71.902C421.529 71.902 421.565 71.902 421.613 71.902C421.661 71.914 421.697 71.92 421.721 71.92L422.171 72.01C422.183 72.022 422.207 72.028 422.243 72.028C422.567 72.028 422.741 71.734 422.765 71.146L422.801 70.12V67.366C422.801 66.346 422.771 65.71 422.711 65.458C422.663 65.206 422.519 65.08 422.279 65.08C422.231 65.08 422.063 65.11 421.775 65.17C421.655 65.194 421.559 65.206 421.487 65.206C421.043 65.206 420.821 65.014 420.821 64.63C420.821 64.222 421.067 64.018 421.559 64.018C421.691 64.018 421.871 64.03 422.099 64.054C422.327 64.078 422.525 64.09 422.693 64.09C422.753 64.09 422.819 64.084 422.891 64.072C422.963 64.072 423.005 64.072 423.017 64.072L423.449 64.018H423.503C423.791 64.018 423.935 64.192 423.935 64.54ZM445.674 73.234C444.69 73.234 444.084 72.808 443.856 71.956C443.244 72.856 442.284 73.306 440.976 73.306C440.004 73.306 439.224 73.066 438.636 72.586C438.06 72.106 437.772 71.464 437.772 70.66C437.772 69.664 438.198 68.932 439.05 68.464C439.374 68.284 439.65 68.17 439.878 68.122C440.118 68.062 440.592 67.99 441.3 67.906C442.308 67.798 442.962 67.648 443.262 67.456C443.574 67.264 443.73 66.91 443.73 66.394C443.73 65.902 443.556 65.518 443.208 65.242C442.872 64.954 442.398 64.81 441.786 64.81C441.246 64.81 440.742 64.96 440.274 65.26C440.094 65.38 440.004 65.506 440.004 65.638C440.004 65.686 440.058 65.746 440.166 65.818C440.334 65.938 440.418 66.142 440.418 66.43C440.418 66.67 440.328 66.868 440.148 67.024C439.98 67.18 439.764 67.258 439.5 67.258C439.188 67.258 438.924 67.15 438.708 66.934C438.504 66.718 438.402 66.454 438.402 66.142C438.402 65.47 438.732 64.894 439.392 64.414C440.064 63.934 440.874 63.694 441.822 63.694C444.006 63.694 445.098 64.744 445.098 66.844V70.48C445.098 71.056 445.11 71.398 445.134 71.506C445.206 71.926 445.41 72.136 445.746 72.136C446.166 72.136 446.376 71.752 446.376 70.984V70.102C446.376 69.718 446.562 69.526 446.934 69.526C447.33 69.526 447.528 69.814 447.528 70.39V70.48L447.51 71.506C447.486 72.658 446.874 73.234 445.674 73.234ZM443.676 69.652L443.694 68.374C443.43 68.614 443.148 68.782 442.848 68.878C442.56 68.974 442.038 69.058 441.282 69.13C439.914 69.262 439.23 69.766 439.23 70.642C439.23 71.098 439.392 71.458 439.716 71.722C440.052 71.986 440.502 72.118 441.066 72.118C441.87 72.118 442.5 71.902 442.956 71.47C443.424 71.026 443.664 70.42 443.676 69.652ZM451.893 63.694C452.697 63.694 453.369 63.904 453.909 64.324V64.252C453.909 63.808 454.101 63.586 454.485 63.586C454.881 63.586 455.079 63.778 455.079 64.162C455.079 64.234 455.067 64.414 455.043 64.702C454.995 64.942 454.971 65.182 454.971 65.422C454.971 65.566 454.989 65.776 455.025 66.052C455.073 66.328 455.097 66.538 455.097 66.682C455.097 67.138 454.899 67.366 454.503 67.366C454.119 67.366 453.921 67.174 453.909 66.79L453.891 66.196C453.879 65.836 453.669 65.53 453.261 65.278C452.865 65.014 452.397 64.882 451.857 64.882C451.305 64.882 450.843 65.026 450.471 65.314C450.099 65.59 449.913 65.938 449.913 66.358C449.913 67.126 450.441 67.582 451.497 67.726L452.541 67.87C454.581 68.146 455.601 68.992 455.601 70.408C455.601 71.272 455.271 71.974 454.611 72.514C453.951 73.042 453.087 73.306 452.019 73.306C451.023 73.306 450.159 73.024 449.427 72.46C449.439 72.58 449.445 72.694 449.445 72.802C449.445 73.234 449.241 73.45 448.833 73.45C448.389 73.45 448.167 73.204 448.167 72.712C448.167 72.796 448.203 72.484 448.275 71.776C448.299 71.608 448.311 71.44 448.311 71.272C448.311 70.984 448.287 70.714 448.239 70.462C448.191 70.21 448.167 70.012 448.167 69.868C448.167 69.448 448.359 69.238 448.743 69.238C448.995 69.238 449.151 69.298 449.211 69.418C449.283 69.538 449.325 69.856 449.337 70.372C449.349 70.888 449.619 71.308 450.147 71.632C450.675 71.956 451.347 72.118 452.163 72.118C452.751 72.118 453.237 71.968 453.621 71.668C454.005 71.368 454.197 70.99 454.197 70.534C454.197 69.718 453.549 69.244 452.253 69.112C451.017 68.98 450.075 68.74 449.427 68.392C448.779 68.032 448.455 67.408 448.455 66.52C448.455 65.68 448.773 65.002 449.409 64.486C450.045 63.958 450.873 63.694 451.893 63.694ZM459.762 68.446L462.84 65.566C462.948 65.47 463.002 65.362 463.002 65.242C463.002 65.122 462.924 65.062 462.768 65.062C462.648 65.062 462.474 65.086 462.246 65.134C462.018 65.182 461.844 65.206 461.724 65.206C461.304 65.206 461.094 65.014 461.094 64.63C461.094 64.21 461.358 64 461.886 64C462.018 64 462.186 64.012 462.39 64.036C463.218 64.132 463.848 64.18 464.28 64.18C464.52 64.18 464.724 64.168 464.892 64.144L465.63 64.036C465.798 64.012 465.936 64 466.044 64C466.632 64 466.926 64.204 466.926 64.612C466.926 64.996 466.722 65.188 466.314 65.188C466.218 65.188 466.08 65.176 465.9 65.152C465.732 65.128 465.6 65.116 465.504 65.116C465.204 65.116 464.892 65.266 464.568 65.566L462.678 67.294C462.546 67.414 462.48 67.51 462.48 67.582C462.48 67.642 462.528 67.732 462.624 67.852L464.928 70.84C465.516 71.596 465.936 71.974 466.188 71.974C466.248 71.974 466.344 71.962 466.476 71.938C466.62 71.902 466.734 71.884 466.818 71.884C467.25 71.884 467.466 72.076 467.466 72.46C467.466 72.868 467.19 73.072 466.638 73.072C466.422 73.072 466.098 73.048 465.666 73C465.246 72.952 464.928 72.928 464.712 72.928C464.52 72.928 464.238 72.952 463.866 73C463.506 73.048 463.236 73.072 463.056 73.072C462.6 73.072 462.372 72.868 462.372 72.46C462.372 72.076 462.588 71.884 463.02 71.884C463.14 71.884 463.236 71.89 463.308 71.902C463.524 71.962 463.662 71.992 463.722 71.992C463.83 71.992 463.884 71.95 463.884 71.866C463.884 71.854 463.884 71.836 463.884 71.812C463.872 71.8 463.866 71.788 463.866 71.776L463.686 71.524L463.452 71.182L461.652 68.788C461.532 68.632 461.436 68.554 461.364 68.554C461.316 68.554 461.226 68.614 461.094 68.734L459.762 69.922V70.336C459.762 70.912 459.768 71.236 459.78 71.308C459.84 71.728 460.008 71.938 460.284 71.938C460.404 71.938 460.506 71.932 460.59 71.92C460.674 71.896 460.788 71.884 460.932 71.884C461.34 71.884 461.544 72.082 461.544 72.478C461.544 72.874 461.316 73.072 460.86 73.072C460.656 73.072 460.344 73.048 459.924 73C459.516 72.94 459.204 72.91 458.988 72.91C458.712 72.91 458.394 72.934 458.034 72.982C457.578 73.042 457.272 73.072 457.116 73.072C456.648 73.072 456.414 72.874 456.414 72.478C456.414 72.082 456.642 71.884 457.098 71.884C457.194 71.884 457.308 71.896 457.44 71.92C457.632 71.956 457.764 71.974 457.836 71.974C458.124 71.974 458.286 71.746 458.322 71.29L458.376 70.588V63.316C458.352 62.668 458.31 62.26 458.25 62.092C458.19 61.912 458.064 61.822 457.872 61.822C457.812 61.822 457.698 61.834 457.53 61.858C457.362 61.918 457.194 61.948 457.026 61.948C456.63 61.948 456.432 61.762 456.432 61.39C456.432 60.982 456.666 60.778 457.134 60.778C457.374 60.778 457.542 60.784 457.638 60.796C457.938 60.832 458.136 60.85 458.232 60.85C458.328 60.85 458.466 60.838 458.646 60.814C458.838 60.778 458.976 60.76 459.06 60.76H459.186C459.57 60.76 459.762 61.006 459.762 61.498V68.446ZM475.989 67.708C475.989 68.164 475.959 68.446 475.899 68.554C475.839 68.65 475.665 68.698 475.377 68.698H469.653C469.497 68.698 469.395 68.722 469.347 68.77C469.299 68.806 469.275 68.872 469.275 68.968C469.275 69.868 469.545 70.618 470.085 71.218C470.625 71.818 471.297 72.118 472.101 72.118C472.629 72.118 473.109 71.974 473.541 71.686C473.985 71.398 474.273 71.032 474.405 70.588L474.567 70.066C474.651 69.778 474.849 69.634 475.161 69.634C475.605 69.634 475.827 69.862 475.827 70.318C475.827 71.098 475.431 71.794 474.639 72.406C473.847 73.006 472.947 73.306 471.939 73.306C470.679 73.306 469.677 72.886 468.933 72.046C468.189 71.194 467.817 70.054 467.817 68.626C467.817 67.162 468.213 65.974 469.005 65.062C469.797 64.15 470.829 63.694 472.101 63.694C473.229 63.694 474.159 64.072 474.891 64.828C475.623 65.584 475.989 66.544 475.989 67.708ZM469.455 67.24C469.455 67.408 469.587 67.492 469.851 67.492H474.153C474.405 67.492 474.531 67.408 474.531 67.24C474.531 66.604 474.291 66.052 473.811 65.584C473.331 65.116 472.767 64.882 472.119 64.882C471.447 64.882 470.835 65.128 470.283 65.62C469.731 66.1 469.455 66.64 469.455 67.24ZM480.045 64.522V65.008C480.669 64.132 481.503 63.694 482.547 63.694C483.387 63.694 484.065 63.934 484.581 64.414C485.109 64.882 485.373 65.488 485.373 66.232C485.373 66.76 485.241 67.192 484.977 67.528C484.713 67.852 484.365 68.014 483.933 68.014C483.657 68.014 483.423 67.93 483.231 67.762C483.039 67.594 482.943 67.39 482.943 67.15C482.943 66.958 483.015 66.79 483.159 66.646C483.303 66.49 483.471 66.412 483.663 66.412C483.699 66.412 483.777 66.43 483.897 66.466C483.969 66.322 484.005 66.19 484.005 66.07C484.005 65.722 483.849 65.428 483.537 65.188C483.237 64.948 482.859 64.828 482.403 64.828C481.467 64.828 480.843 65.248 480.531 66.088C480.339 66.604 480.243 67.384 480.243 68.428V69.616C480.243 70.42 480.249 70.87 480.261 70.966C480.321 71.65 480.507 71.992 480.819 71.992C480.975 71.992 481.137 71.968 481.305 71.92C481.437 71.884 481.551 71.866 481.647 71.866C482.031 71.866 482.223 72.058 482.223 72.442C482.223 72.862 481.977 73.072 481.485 73.072H481.413C481.233 73.072 480.957 73.048 480.585 73C480.225 72.964 479.955 72.946 479.775 72.946C479.295 72.946 478.917 72.958 478.641 72.982L477.633 73.072C477.141 73.072 476.895 72.862 476.895 72.442C476.895 72.07 477.123 71.884 477.579 71.884C477.699 71.884 477.789 71.89 477.849 71.902L478.119 71.956C478.239 71.98 478.323 71.992 478.371 71.992C478.671 71.992 478.833 71.716 478.857 71.164L478.893 70.246L478.839 66.16C478.803 65.452 478.623 65.098 478.299 65.098C478.203 65.098 478.071 65.116 477.903 65.152C477.735 65.188 477.603 65.206 477.507 65.206C477.111 65.206 476.913 65.014 476.913 64.63C476.913 64.21 477.171 64 477.687 64C477.807 64 477.987 64.018 478.227 64.054C478.467 64.078 478.647 64.09 478.767 64.09C478.863 64.09 479.019 64.078 479.235 64.054C479.331 64.03 479.445 64.018 479.577 64.018C479.889 64.018 480.045 64.186 480.045 64.522ZM486.262 73.306C485.95 73.306 485.686 73.198 485.47 72.982C485.254 72.754 485.146 72.484 485.146 72.172C485.146 71.86 485.254 71.596 485.47 71.38C485.686 71.152 485.95 71.038 486.262 71.038C486.574 71.038 486.838 71.152 487.054 71.38C487.27 71.596 487.378 71.86 487.378 72.172C487.378 72.484 487.27 72.754 487.054 72.982C486.838 73.198 486.574 73.306 486.262 73.306ZM494.676 67.06C494.676 66.58 494.976 66.304 495.576 66.232C495.516 65.812 495.312 65.482 494.964 65.242C494.628 65.002 494.19 64.882 493.65 64.882C492.822 64.882 492.156 65.212 491.652 65.872C491.148 66.532 490.896 67.408 490.896 68.5C490.896 69.628 491.13 70.516 491.598 71.164C492.078 71.8 492.738 72.118 493.578 72.118C494.106 72.118 494.562 71.968 494.946 71.668C495.342 71.368 495.612 70.954 495.756 70.426C495.876 70.006 495.948 69.766 495.972 69.706C496.104 69.466 496.296 69.346 496.548 69.346C496.752 69.346 496.92 69.412 497.052 69.544C497.184 69.676 497.25 69.844 497.25 70.048C497.25 70.348 497.154 70.708 496.962 71.128C496.77 71.548 496.542 71.896 496.278 72.172C495.57 72.928 494.652 73.306 493.524 73.306C492.3 73.306 491.31 72.874 490.554 72.01C489.81 71.146 489.438 70.012 489.438 68.608C489.438 67.12 489.822 65.932 490.59 65.044C491.37 64.144 492.402 63.694 493.686 63.694C494.646 63.694 495.444 63.958 496.08 64.486C496.716 65.002 497.034 65.662 497.034 66.466C497.034 66.91 496.908 67.276 496.656 67.564C496.416 67.852 496.104 67.996 495.72 67.996C495.42 67.996 495.168 67.906 494.964 67.726C494.772 67.546 494.676 67.324 494.676 67.06ZM502.754 73.306C501.494 73.306 500.486 72.874 499.73 72.01C498.974 71.134 498.596 69.964 498.596 68.5C498.596 67.036 498.974 65.872 499.73 65.008C500.498 64.132 501.524 63.694 502.808 63.694C504.116 63.694 505.148 64.12 505.904 64.972C506.66 65.824 507.038 66.982 507.038 68.446C507.038 69.91 506.648 71.086 505.868 71.974C505.088 72.862 504.05 73.306 502.754 73.306ZM502.844 64.882C502.004 64.882 501.344 65.176 500.864 65.764C500.384 66.352 500.12 67.186 500.072 68.266C500.072 68.266 500.072 68.344 500.072 68.5C500.072 69.628 500.306 70.516 500.774 71.164C501.254 71.8 501.92 72.118 502.772 72.118C503.648 72.118 504.332 71.8 504.824 71.164C505.328 70.516 505.58 69.622 505.58 68.482C505.58 66.082 504.668 64.882 502.844 64.882ZM511.14 64.54V65.062C511.572 64.546 511.98 64.192 512.364 64C512.748 63.796 513.228 63.694 513.804 63.694C514.98 63.694 515.844 64.15 516.396 65.062C516.804 64.558 517.218 64.204 517.638 64C518.058 63.796 518.598 63.694 519.258 63.694C519.942 63.694 520.554 63.838 521.094 64.126C521.694 64.45 522.108 64.906 522.336 65.494C522.492 65.89 522.57 66.514 522.57 67.366V69.112L522.552 70.462C522.552 70.954 522.558 71.254 522.57 71.362C522.63 71.794 522.786 72.01 523.038 72.01C523.122 72.01 523.248 71.992 523.416 71.956C523.584 71.92 523.71 71.902 523.794 71.902C524.214 71.902 524.424 72.082 524.424 72.442C524.424 72.862 524.184 73.072 523.704 73.072C523.524 73.072 523.248 73.048 522.876 73C522.516 72.964 522.24 72.946 522.048 72.946C521.844 72.946 521.544 72.964 521.148 73C520.764 73.048 520.47 73.072 520.266 73.072C519.762 73.072 519.51 72.862 519.51 72.442C519.51 72.082 519.702 71.902 520.086 71.902C520.134 71.902 520.254 71.914 520.446 71.938C520.518 71.962 520.614 71.974 520.734 71.974C520.938 71.974 521.064 71.872 521.112 71.668C521.172 71.464 521.208 70.954 521.22 70.138L521.238 69.04V67.852C521.238 67.024 521.172 66.424 521.04 66.052C520.92 65.668 520.686 65.368 520.338 65.152C519.99 64.936 519.594 64.828 519.15 64.828C518.298 64.828 517.704 65.122 517.368 65.71C517.104 66.178 516.972 66.994 516.972 68.158V69.436C516.972 70.564 516.996 71.272 517.044 71.56C517.104 71.836 517.248 71.974 517.476 71.974C517.548 71.974 517.65 71.962 517.782 71.938C517.926 71.902 518.034 71.884 518.106 71.884C518.274 71.884 518.412 71.944 518.52 72.064C518.64 72.172 518.7 72.31 518.7 72.478C518.7 72.874 518.418 73.072 517.854 73.072C517.674 73.072 517.404 73.048 517.044 73C516.696 72.952 516.432 72.928 516.252 72.928C516 72.928 515.724 72.952 515.424 73C515.124 73.048 514.86 73.072 514.632 73.072C514.14 73.072 513.894 72.868 513.894 72.46C513.894 72.088 514.074 71.902 514.434 71.902C514.566 71.902 514.668 71.914 514.74 71.938C514.908 71.974 515.034 71.992 515.118 71.992C515.406 71.992 515.556 71.686 515.568 71.074L515.586 70.228C515.598 69.964 515.604 69.706 515.604 69.454C515.616 69.238 515.622 69.124 515.622 69.112V67.618C515.622 66.574 515.478 65.848 515.19 65.44C514.914 65.032 514.416 64.828 513.696 64.828C512.904 64.828 512.298 65.116 511.878 65.692C511.53 66.16 511.356 66.976 511.356 68.14V70.534C511.356 71.014 511.362 71.296 511.374 71.38C511.422 71.788 511.554 71.992 511.77 71.992C511.83 71.992 511.956 71.968 512.148 71.92C512.172 71.92 512.208 71.914 512.256 71.902C512.304 71.902 512.346 71.902 512.382 71.902C512.85 71.902 513.084 72.1 513.084 72.496C513.084 72.88 512.814 73.072 512.274 73.072C512.07 73.072 511.818 73.054 511.518 73.018C511.11 72.97 510.762 72.946 510.474 72.946C510.33 72.946 510.066 72.964 509.682 73C509.166 73.048 508.854 73.072 508.746 73.072C508.266 73.072 508.026 72.868 508.026 72.46C508.026 72.088 508.254 71.902 508.71 71.902C508.734 71.902 508.77 71.902 508.818 71.902C508.866 71.914 508.902 71.92 508.926 71.92L509.376 72.01C509.388 72.022 509.412 72.028 509.448 72.028C509.772 72.028 509.946 71.734 509.97 71.146L510.006 70.12V67.366C510.006 66.346 509.976 65.71 509.916 65.458C509.868 65.206 509.724 65.08 509.484 65.08C509.436 65.08 509.268 65.11 508.98 65.17C508.86 65.194 508.764 65.206 508.692 65.206C508.248 65.206 508.026 65.014 508.026 64.63C508.026 64.222 508.272 64.018 508.764 64.018C508.896 64.018 509.076 64.03 509.304 64.054C509.532 64.078 509.73 64.09 509.898 64.09C509.958 64.09 510.024 64.084 510.096 64.072C510.168 64.072 510.21 64.072 510.222 64.072L510.654 64.018H510.708C510.996 64.018 511.14 64.192 511.14 64.54Z" fill="black"/>
<path d="M41.6064 72H42.9248L43.9971 69.0029H49.4727L50.5273 72H51.8369L47.2314 59.5811H46.2207L41.6064 72ZM44.375 67.957L46.7305 61.2686L49.0947 67.957H44.375ZM57.04 72.1318C58.4463 72.1318 59.668 71.332 60.2129 70.0049L60.2568 72H61.3467V59.5811H60.1689V65.1533C59.624 63.8613 58.4023 63.0791 57.0225 63.0791C54.6582 63.0791 53.1201 65.1182 53.1201 67.5967C53.1201 70.1016 54.6582 72.1318 57.04 72.1318ZM57.2949 71.0771C55.4668 71.0771 54.2979 69.5566 54.2979 67.5967C54.2979 65.6543 55.4668 64.1426 57.2949 64.1426C59.123 64.1426 60.2568 65.6367 60.2568 67.5967C60.2568 69.583 59.123 71.0771 57.2949 71.0771ZM67.71 72.1318C69.1162 72.1318 70.3379 71.332 70.8828 70.0049L70.9268 72H72.0166V59.5811H70.8389V65.1533C70.2939 63.8613 69.0723 63.0791 67.6924 63.0791C65.3281 63.0791 63.79 65.1182 63.79 67.5967C63.79 70.1016 65.3281 72.1318 67.71 72.1318ZM67.9648 71.0771C66.1367 71.0771 64.9678 69.5566 64.9678 67.5967C64.9678 65.6543 66.1367 64.1426 67.9648 64.1426C69.793 64.1426 70.9268 65.6367 70.9268 67.5967C70.9268 69.583 69.793 71.0771 67.9648 71.0771ZM82.2383 64.6523L80.4014 59.5811H79.0742L81.4297 64.6523H82.2383ZM85.209 64.6523L83.3721 59.5811H82.0449L84.4004 64.6523H85.209ZM88.4697 72H89.6387V70.0664H88.4697V72ZM96.5469 59.5811V60.6533C96.5469 61.3213 96.1777 61.585 95.4922 61.585H93.3828V62.5254H96.5029V72H97.6895V59.5811H96.5469ZM109.001 67.9307V59.5811H107.902L101.592 68.2646V69.0381H107.806V72H109.001V69.0381H111.022V67.9307H109.001ZM103.112 67.9307L107.806 61.3564V67.9307H103.112ZM116.138 72.1318C117.544 72.1318 118.766 71.332 119.311 70.0049L119.354 72H120.444V59.5811H119.267V65.1533C118.722 63.8613 117.5 63.0791 116.12 63.0791C113.756 63.0791 112.218 65.1182 112.218 67.5967C112.218 70.1016 113.756 72.1318 116.138 72.1318ZM116.393 71.0771C114.564 71.0771 113.396 69.5566 113.396 67.5967C113.396 65.6543 114.564 64.1426 116.393 64.1426C118.221 64.1426 119.354 65.6367 119.354 67.5967C119.354 69.583 118.221 71.0771 116.393 71.0771ZM123.116 64.6523H123.925L126.28 59.5811H124.953L123.116 64.6523ZM126.087 64.6523H126.896L129.251 59.5811H127.924L126.087 64.6523ZM130.64 74.7686H131.448L133.804 69.6973H132.477L130.64 74.7686ZM143.762 72.1318C145.476 72.1318 146.882 71.2441 146.882 69.4863C146.882 66.1201 141.758 67.5264 141.758 65.3467C141.758 64.5645 142.479 64.0195 143.612 64.0195C144.685 64.0195 145.414 64.6084 145.836 65.3994L146.732 64.916C146.117 63.7559 145.036 63.0791 143.647 63.0791C141.969 63.0791 140.642 63.9316 140.642 65.4961C140.642 68.6689 145.739 67.1572 145.739 69.5391C145.739 70.4619 145.036 71.1562 143.709 71.1562C142.347 71.1562 141.477 70.3477 141.143 69.4072L140.202 69.8203C140.65 71.1562 142.03 72.1318 143.762 72.1318ZM152.041 72.1318C153.201 72.1318 154.247 71.5781 154.792 70.5059V72H155.943V63.2197H154.792V68.4053C154.792 70.1191 153.825 71.0508 152.349 71.0508C150.907 71.0508 150.151 70.1104 150.151 68.5107V63.2197H149V68.7744C149.035 70.6729 149.984 72.1318 152.041 72.1318ZM162.263 72.1318C163.88 72.1318 165.154 71.2441 165.69 69.7148L164.627 69.3105C164.275 70.4004 163.396 71.0771 162.254 71.0771C160.355 71.0771 159.485 69.4336 159.485 67.623C159.485 65.8389 160.355 64.1426 162.245 64.1426C163.37 64.1426 164.258 64.8281 164.671 65.9268L165.778 65.4961C165.128 63.9141 163.845 63.0791 162.245 63.0791C159.608 63.0791 158.308 65.3203 158.308 67.623C158.308 70.1104 159.74 72.1318 162.263 72.1318ZM167.976 72H169.153V66.9902C169.153 65.3115 170.059 64.1426 171.623 64.1426C173.161 64.1426 173.776 65.1445 173.776 66.709V72H174.954V66.4365C174.919 64.5381 173.935 63.0791 171.887 63.0791C170.727 63.0791 169.707 63.6416 169.153 64.7139V59.5811H167.976V72ZM185.439 63.0791C183.884 63.0791 182.864 63.7119 182.012 64.8896L182.899 65.54C183.506 64.6348 184.279 64.1074 185.448 64.1074C187.206 64.1074 187.883 64.9863 187.883 66.8408V66.9463H185.352C183.084 66.9463 181.669 67.667 181.669 69.4512C181.669 71.1387 182.917 72.1318 184.701 72.1318C186.011 72.1318 187.232 71.4902 187.892 70.2158L187.971 72H188.938V66.6387C188.938 64.4326 187.689 63.0791 185.439 63.0791ZM184.921 71.1387C183.603 71.1387 182.855 70.4883 182.855 69.4863C182.855 68.4316 183.682 67.8076 185.413 67.8076H187.883V68.7041C187.479 70.1455 186.45 71.1387 184.921 71.1387ZM194.457 72.1318C196.171 72.1318 197.577 71.2441 197.577 69.4863C197.577 66.1201 192.453 67.5264 192.453 65.3467C192.453 64.5645 193.174 64.0195 194.308 64.0195C195.38 64.0195 196.109 64.6084 196.531 65.3994L197.428 64.916C196.812 63.7559 195.731 63.0791 194.343 63.0791C192.664 63.0791 191.337 63.9316 191.337 65.4961C191.337 68.6689 196.435 67.1572 196.435 69.5391C196.435 70.4619 195.731 71.1562 194.404 71.1562C193.042 71.1562 192.172 70.3477 191.838 69.4072L190.897 69.8203C191.346 71.1562 192.726 72.1318 194.457 72.1318Z" fill="#071435"/>
<path d="M549.535 63.0791C547.979 63.0791 546.96 63.7119 546.107 64.8896L546.995 65.54C547.602 64.6348 548.375 64.1074 549.544 64.1074C551.302 64.1074 551.979 64.9863 551.979 66.8408V66.9463H549.447C547.18 66.9463 545.765 67.667 545.765 69.4512C545.765 71.1387 547.013 72.1318 548.797 72.1318C550.106 72.1318 551.328 71.4902 551.987 70.2158L552.066 72H553.033V66.6387C553.033 64.4326 551.785 63.0791 549.535 63.0791ZM549.017 71.1387C547.698 71.1387 546.951 70.4883 546.951 69.4863C546.951 68.4316 547.777 67.8076 549.509 67.8076H551.979V68.7041C551.574 70.1455 550.546 71.1387 549.017 71.1387ZM555.942 72H557.103V66.8057C557.103 65.1006 558.061 64.1602 559.546 64.1602C560.987 64.1602 561.743 65.1094 561.743 66.709V72H562.903V66.4365C562.868 64.5381 561.901 63.0791 559.854 63.0791C558.693 63.0791 557.656 63.6416 557.103 64.7139V63.2197H555.942V72ZM569.021 72.1318C570.427 72.1318 571.648 71.332 572.193 70.0049L572.237 72H573.327V59.5811H572.149V65.1533C571.604 63.8613 570.383 63.0791 569.003 63.0791C566.639 63.0791 565.101 65.1182 565.101 67.5967C565.101 70.1016 566.639 72.1318 569.021 72.1318ZM569.275 71.0771C567.447 71.0771 566.278 69.5566 566.278 67.5967C566.278 65.6543 567.447 64.1426 569.275 64.1426C571.104 64.1426 572.237 65.6367 572.237 67.5967C572.237 69.583 571.104 71.0771 569.275 71.0771ZM581.703 72H582.898V64.2041H585.474V63.2197H582.898V61.9629C582.898 60.9521 583.408 60.4863 584.305 60.4863C584.568 60.4863 584.841 60.583 585.122 60.7324L585.509 59.7744C585.104 59.5723 584.665 59.4492 584.199 59.4492C582.74 59.4492 581.712 60.2754 581.712 61.8574V63.2197H579.875V64.2041H581.703V72ZM590.483 72.1318C592.988 72.1318 594.755 70.1104 594.755 67.5879C594.755 65.083 592.988 63.0791 590.483 63.0791C587.987 63.0791 586.247 65.083 586.247 67.5879C586.247 70.1191 587.987 72.1318 590.483 72.1318ZM590.483 71.1211C588.585 71.1211 587.451 69.5391 587.451 67.5879C587.451 65.6455 588.585 64.0986 590.483 64.0986C592.399 64.0986 593.551 65.6543 593.551 67.5879C593.551 69.5303 592.399 71.1211 590.483 71.1211ZM597.146 72H598.271V67.5176C598.271 65.1357 599.659 64.2129 600.828 64.2129C601.18 64.2129 601.522 64.3008 601.83 64.4678L602.357 63.501C601.979 63.2197 601.479 63.0791 600.986 63.0791C599.94 63.0791 598.719 63.7031 598.279 65.0566V63.2197H597.146V72ZM605.829 72H606.928L609.327 64.8193L611.727 72H612.825L615.392 63.2197H614.144L612.21 70.2422L609.863 63.2197H608.8L606.444 70.251L604.52 63.2197H603.271L605.829 72ZM620.322 63.0791C618.767 63.0791 617.747 63.7119 616.895 64.8896L617.782 65.54C618.389 64.6348 619.162 64.1074 620.331 64.1074C622.089 64.1074 622.766 64.9863 622.766 66.8408V66.9463H620.234C617.967 66.9463 616.552 67.667 616.552 69.4512C616.552 71.1387 617.8 72.1318 619.584 72.1318C620.894 72.1318 622.115 71.4902 622.774 70.2158L622.854 72H623.82V66.6387C623.82 64.4326 622.572 63.0791 620.322 63.0791ZM619.804 71.1387C618.485 71.1387 617.738 70.4883 617.738 69.4863C617.738 68.4316 618.564 67.8076 620.296 67.8076H622.766V68.7041C622.361 70.1455 621.333 71.1387 619.804 71.1387ZM626.729 72H627.854V67.5176C627.854 65.1357 629.243 64.2129 630.412 64.2129C630.764 64.2129 631.106 64.3008 631.414 64.4678L631.941 63.501C631.563 63.2197 631.062 63.0791 630.57 63.0791C629.524 63.0791 628.303 63.7031 627.863 65.0566V63.2197H626.729V72ZM636.292 72.1318C637.698 72.1318 638.92 71.332 639.465 70.0049L639.509 72H640.599V59.5811H639.421V65.1533C638.876 63.8613 637.654 63.0791 636.274 63.0791C633.91 63.0791 632.372 65.1182 632.372 67.5967C632.372 70.1016 633.91 72.1318 636.292 72.1318ZM636.547 71.0771C634.719 71.0771 633.55 69.5566 633.55 67.5967C633.55 65.6543 634.719 64.1426 636.547 64.1426C638.375 64.1426 639.509 65.6367 639.509 67.5967C639.509 69.583 638.375 71.0771 636.547 71.0771ZM643.736 61.3828H644.949V59.5811H643.736V61.3828ZM643.763 72H644.914V63.2197H643.763V72ZM648.069 72H649.229V66.8057C649.229 65.1006 650.188 64.1602 651.673 64.1602C653.114 64.1602 653.87 65.1094 653.87 66.709V72H655.03V66.4365C654.995 64.5381 654.028 63.0791 651.98 63.0791C650.82 63.0791 649.783 63.6416 649.229 64.7139V63.2197H648.069V72ZM662.22 70.8398H660.251C659.293 70.8398 658.52 70.5762 658.502 69.7061C658.484 69.3018 658.634 68.9502 659.082 68.6162C659.601 68.9414 660.251 69.1172 660.972 69.1172C662.826 69.1172 664.232 67.9395 664.232 66.1465C664.232 65.5752 664.092 65.0391 663.828 64.5908L665.164 63.4307L664.566 62.6748L663.222 63.8613C662.659 63.3691 661.895 63.0791 660.98 63.0791C659.1 63.0791 657.702 64.3271 657.702 66.1025C657.702 66.8496 657.948 67.5088 658.379 68.0186C657.685 68.5283 657.395 69.1436 657.412 69.8115C657.43 70.7168 657.948 71.2793 658.572 71.5693L657.192 72.5186C657.14 72.7031 657.113 72.8965 657.113 73.1074C657.113 74.9883 658.854 76.0166 661.297 76.0166C663.705 76.0166 665.006 74.918 665.006 73.2305C665.006 71.6309 663.863 70.8398 662.22 70.8398ZM660.998 64.0195C662.29 64.0195 663.107 64.9072 663.107 66.1289C663.107 67.333 662.29 68.1768 660.989 68.1768C659.688 68.1768 658.862 67.3242 658.862 66.1201C658.862 64.916 659.706 64.0195 660.998 64.0195ZM661.227 75.1025C658.827 75.1025 658.203 74.0742 658.203 73.0898V72.8438L659.302 71.7979C659.434 71.8154 659.565 71.8242 659.688 71.8242H661.771C663.151 71.8242 663.89 72.3428 663.89 73.3271C663.89 74.584 662.747 75.1025 661.227 75.1025ZM674.797 63.0791C673.241 63.0791 672.222 63.7119 671.369 64.8896L672.257 65.54C672.863 64.6348 673.637 64.1074 674.806 64.1074C676.563 64.1074 677.24 64.9863 677.24 66.8408V66.9463H674.709C672.441 66.9463 671.026 67.667 671.026 69.4512C671.026 71.1387 672.274 72.1318 674.059 72.1318C675.368 72.1318 676.59 71.4902 677.249 70.2158L677.328 72H678.295V66.6387C678.295 64.4326 677.047 63.0791 674.797 63.0791ZM674.278 71.1387C672.96 71.1387 672.213 70.4883 672.213 69.4863C672.213 68.4316 673.039 67.8076 674.771 67.8076H677.24V68.7041C676.836 70.1455 675.808 71.1387 674.278 71.1387ZM683.867 72.1318C685.027 72.1318 686.073 71.5781 686.618 70.5059V72H687.77V63.2197H686.618V68.4053C686.618 70.1191 685.651 71.0508 684.175 71.0508C682.733 71.0508 681.978 70.1104 681.978 68.5107V63.2197H680.826V68.7744C680.861 70.6729 681.811 72.1318 683.867 72.1318ZM693.597 72.1318C694.089 72.1318 694.563 72.0439 694.836 71.9561L694.818 70.8926C694.572 70.9893 694.177 71.1035 693.79 71.1035C692.858 71.1035 692.366 70.5938 692.366 69.3545V64.2041H694.827V63.2197H692.366V59.8271L691.224 60.6797V63.2197H689.747V64.2041H691.206V69.5391C691.206 71.2178 692.041 72.1318 693.597 72.1318ZM700.487 72.1318C702.992 72.1318 704.759 70.1104 704.759 67.5879C704.759 65.083 702.992 63.0791 700.487 63.0791C697.991 63.0791 696.251 65.083 696.251 67.5879C696.251 70.1191 697.991 72.1318 700.487 72.1318ZM700.487 71.1211C698.589 71.1211 697.455 69.5391 697.455 67.5879C697.455 65.6455 698.589 64.0986 700.487 64.0986C702.403 64.0986 703.555 65.6543 703.555 67.5879C703.555 69.5303 702.403 71.1211 700.487 71.1211ZM707.07 66.9814H711.816V66.0762H707.07V66.9814ZM717.494 72.1318C719.208 72.1318 720.614 71.2441 720.614 69.4863C720.614 66.1201 715.49 67.5264 715.49 65.3467C715.49 64.5645 716.211 64.0195 717.345 64.0195C718.417 64.0195 719.146 64.6084 719.568 65.3994L720.465 64.916C719.85 63.7559 718.769 63.0791 717.38 63.0791C715.701 63.0791 714.374 63.9316 714.374 65.4961C714.374 68.6689 719.472 67.1572 719.472 69.5391C719.472 70.4619 718.769 71.1562 717.441 71.1562C716.079 71.1562 715.209 70.3477 714.875 69.4072L713.935 69.8203C714.383 71.1562 715.763 72.1318 717.494 72.1318ZM725.712 72.1318C726.204 72.1318 726.679 72.0439 726.951 71.9561L726.934 70.8926C726.688 70.9893 726.292 71.1035 725.905 71.1035C724.974 71.1035 724.481 70.5938 724.481 69.3545V64.2041H726.942V63.2197H724.481V59.8271L723.339 60.6797V63.2197H721.862V64.2041H723.321V69.5391C723.321 71.2178 724.156 72.1318 725.712 72.1318ZM732.603 72.1318C735.107 72.1318 736.874 70.1104 736.874 67.5879C736.874 65.083 735.107 63.0791 732.603 63.0791C730.106 63.0791 728.366 65.083 728.366 67.5879C728.366 70.1191 730.106 72.1318 732.603 72.1318ZM732.603 71.1211C730.704 71.1211 729.57 69.5391 729.57 67.5879C729.57 65.6455 730.704 64.0986 732.603 64.0986C734.519 64.0986 735.67 65.6543 735.67 67.5879C735.67 69.5303 734.519 71.1211 732.603 71.1211ZM739.282 75.6387H740.478V70.0664C741.031 71.3496 742.218 72.1318 743.615 72.1318C745.988 72.1318 747.351 70.1104 747.351 67.6143C747.351 65.127 745.988 63.0791 743.633 63.0791C742.244 63.0791 741.031 63.8613 740.478 65.1621V63.2197H739.282V75.6387ZM743.36 71.0771C741.532 71.0771 740.381 69.583 740.381 67.6143C740.381 65.6455 741.532 64.1602 743.36 64.1602C745.197 64.1602 746.182 65.6631 746.182 67.6143C746.182 69.5566 745.197 71.0771 743.36 71.0771ZM752.422 72.1318C754.136 72.1318 755.542 71.2441 755.542 69.4863C755.542 66.1201 750.418 67.5264 750.418 65.3467C750.418 64.5645 751.139 64.0195 752.272 64.0195C753.345 64.0195 754.074 64.6084 754.496 65.3994L755.393 64.916C754.777 63.7559 753.696 63.0791 752.308 63.0791C750.629 63.0791 749.302 63.9316 749.302 65.4961C749.302 68.6689 754.399 67.1572 754.399 69.5391C754.399 70.4619 753.696 71.1562 752.369 71.1562C751.007 71.1562 750.137 70.3477 749.803 69.4072L748.862 69.8203C749.311 71.1562 750.69 72.1318 752.422 72.1318ZM762.547 61.3828H763.76V59.5811H762.547V61.3828ZM762.573 72H763.725V63.2197H762.573V72ZM766.88 72H768.04V66.8057C768.04 65.1006 768.998 64.1602 770.483 64.1602C771.925 64.1602 772.681 65.1094 772.681 66.709V72H773.841V66.4365C773.806 64.5381 772.839 63.0791 770.791 63.0791C769.631 63.0791 768.594 63.6416 768.04 64.7139V63.2197H766.88V72ZM785.152 59.5811V60.6533C785.152 61.3213 784.783 61.585 784.098 61.585H781.988V62.5254H785.108V72H786.295V59.5811H785.152ZM797.606 67.9307V59.5811H796.508L790.197 68.2646V69.0381H796.411V72H797.606V69.0381H799.628V67.9307H797.606ZM791.718 67.9307L796.411 61.3564V67.9307H791.718ZM809.349 72.1318C810.755 72.1318 811.977 71.332 812.521 70.0049L812.565 72H813.655V59.5811H812.478V65.1533C811.933 63.8613 810.711 63.0791 809.331 63.0791C806.967 63.0791 805.429 65.1182 805.429 67.5967C805.429 70.1016 806.967 72.1318 809.349 72.1318ZM809.604 71.0771C807.775 71.0771 806.606 69.5566 806.606 67.5967C806.606 65.6543 807.775 64.1426 809.604 64.1426C811.432 64.1426 812.565 65.6367 812.565 67.5967C812.565 69.583 811.432 71.0771 809.604 71.0771ZM819.746 63.0791C818.19 63.0791 817.171 63.7119 816.318 64.8896L817.206 65.54C817.812 64.6348 818.586 64.1074 819.755 64.1074C821.513 64.1074 822.189 64.9863 822.189 66.8408V66.9463H819.658C817.391 66.9463 815.976 67.667 815.976 69.4512C815.976 71.1387 817.224 72.1318 819.008 72.1318C820.317 72.1318 821.539 71.4902 822.198 70.2158L822.277 72H823.244V66.6387C823.244 64.4326 821.996 63.0791 819.746 63.0791ZM819.228 71.1387C817.909 71.1387 817.162 70.4883 817.162 69.4863C817.162 68.4316 817.988 67.8076 819.72 67.8076H822.189V68.7041C821.785 70.1455 820.757 71.1387 819.228 71.1387ZM826.9 75.7617H828.166L832.982 63.2197H831.717L829.01 70.5322L825.934 63.2197H824.659L828.395 71.8945L826.9 75.7617ZM837.342 72.1318C839.056 72.1318 840.462 71.2441 840.462 69.4863C840.462 66.1201 835.338 67.5264 835.338 65.3467C835.338 64.5645 836.059 64.0195 837.192 64.0195C838.265 64.0195 838.994 64.6084 839.416 65.3994L840.312 64.916C839.697 63.7559 838.616 63.0791 837.228 63.0791C835.549 63.0791 834.222 63.9316 834.222 65.4961C834.222 68.6689 839.319 67.1572 839.319 69.5391C839.319 70.4619 838.616 71.1562 837.289 71.1562C835.927 71.1562 835.057 70.3477 834.723 69.4072L833.782 69.8203C834.23 71.1562 835.61 72.1318 837.342 72.1318Z" fill="#071435"/>
</svg>
