<svg width="355" height="204" viewBox="0 0 355 204" fill="none" xmlns="http://www.w3.org/2000/svg">
<rect width="355" height="204" rx="10" fill="white" fill-opacity="0.8"/>
<rect x="0.5" y="0.5" width="354" height="203" rx="9.5" stroke="black" stroke-opacity="0.1" stroke-linecap="round"/>
<path d="M103.728 38H105.366L101.558 28.242H100.396L96.5879 38H98.2119L99.0239 35.788H102.93L103.728 38ZM99.5139 34.43L100.984 30.426L102.44 34.43H99.5139ZM110.121 38.182C112.529 38.182 113.789 36.908 113.789 34.402V28.242H112.291V34.29C112.291 36.026 111.647 36.726 110.121 36.726C108.595 36.726 107.965 36.04 107.965 34.304V28.242H106.467V34.472C106.467 36.936 107.727 38.182 110.121 38.182ZM118.346 38H119.858V29.628H123.022V28.242H115.196V29.628H118.346V38ZM128.234 38.182C130.964 38.182 132.826 36.166 132.826 33.128C132.826 30.076 130.978 28.06 128.234 28.06C125.49 28.06 123.628 30.076 123.628 33.128C123.628 36.166 125.49 38.182 128.234 38.182ZM128.234 36.754C126.344 36.754 125.126 35.368 125.126 33.128C125.126 30.874 126.344 29.488 128.234 29.488C130.124 29.488 131.328 30.888 131.328 33.128C131.328 35.354 130.124 36.754 128.234 36.754ZM134.533 34.346H138.467V33.268H134.533V34.346ZM143.477 38.168C145.479 38.168 146.781 37.02 146.781 35.256C146.781 33.884 146.123 33.128 144.009 32.316C142.511 31.742 141.979 31.336 141.979 30.608C141.979 29.936 142.567 29.39 143.379 29.39C144.093 29.39 144.723 29.796 145.087 30.538L146.333 29.768C145.731 28.634 144.709 28.06 143.421 28.06C141.657 28.06 140.481 29.096 140.481 30.65C140.481 32.022 141.195 32.75 143.211 33.52C144.751 34.122 145.283 34.584 145.283 35.382C145.283 36.264 144.625 36.838 143.505 36.838C142.301 36.838 141.475 36.124 141.335 34.934L139.837 35.298C140.117 37.034 141.573 38.168 143.477 38.168ZM150.653 38H152.165V29.628H155.329V28.242H147.503V29.628H150.653V38ZM160.541 38.182C163.271 38.182 165.133 36.166 165.133 33.128C165.133 30.076 163.285 28.06 160.541 28.06C157.797 28.06 155.935 30.076 155.935 33.128C155.935 36.166 157.797 38.182 160.541 38.182ZM160.541 36.754C158.651 36.754 157.433 35.368 157.433 33.128C157.433 30.874 158.651 29.488 160.541 29.488C162.431 29.488 163.635 30.888 163.635 33.128C163.635 35.354 162.431 36.754 160.541 36.754ZM167.162 38H168.646V33.884H170.214C172.342 33.884 173.504 32.876 173.504 31.028C173.504 29.208 172.356 28.242 170.214 28.242H167.162V38ZM168.646 32.498V29.628H170.06C171.404 29.628 171.992 30.062 171.992 31.056C171.992 32.036 171.39 32.498 170.06 32.498H168.646ZM184.829 38H186.467L182.659 28.242H181.497L177.689 38H179.313L180.125 35.788H184.031L184.829 38ZM180.615 34.43L182.085 30.426L183.541 34.43H180.615ZM188.039 38H189.537V33.688H194.213V32.302H189.537V29.628H194.857V28.242H188.039V38ZM199.133 38H200.645V29.628H203.809V28.242H195.983V29.628H199.133V38ZM205.402 38H211.856V36.614H206.9V33.688H211.45V32.302H206.9V29.628H211.856V28.242H205.402V38ZM221.155 38L218.509 33.674C219.727 33.31 220.385 32.4 220.385 31.014C220.385 29.264 219.349 28.242 217.095 28.242H214.043V38H215.527V33.856H216.409H217.025L219.405 38H221.155ZM215.527 32.484V29.628H216.941C218.215 29.628 218.873 30.006 218.873 31.042C218.873 32.078 218.215 32.484 216.941 32.484H215.527ZM228.377 38H229.889V29.628H233.053V28.242H225.227V29.628H228.377V38ZM234.646 38H236.144V28.242H234.646V38ZM246.473 28.242L243.729 35.438L240.999 28.242H238.843V38H240.341V30.314L243.001 37.16H244.457L247.131 30.314V38H248.629V28.242H246.473ZM251.339 38H257.793V36.614H252.837V33.688H257.387V32.302H252.837V29.628H257.793V28.242H251.339V38Z" fill="#3E898B"/>
<rect x="14" y="98" width="321" height="36" rx="4" fill="#C4C4C4" fill-opacity="0.1"/>
<rect x="14.5" y="98.5" width="320" height="35" rx="3.5" stroke="#071435" stroke-opacity="0.1" stroke-linecap="round"/>
<path d="M23.322 120.2L25.824 117.338L23.322 114.386C23.154 114.194 22.95 114.098 22.71 114.098C22.614 114.098 22.542 114.104 22.494 114.116L22.188 114.188C22.14 114.2 22.056 114.206 21.936 114.206C21.54 114.206 21.342 114.014 21.342 113.63C21.342 113.222 21.588 113.018 22.08 113.018H22.134C22.146 113.018 22.446 113.042 23.034 113.09C23.334 113.114 23.586 113.126 23.79 113.126C23.994 113.126 24.288 113.108 24.672 113.072C25.056 113.036 25.344 113.018 25.536 113.018C26.028 113.018 26.274 113.222 26.274 113.63C26.274 114.014 26.046 114.206 25.59 114.206C25.494 114.206 25.404 114.194 25.32 114.17L25.05 114.098H24.942C24.894 114.098 24.87 114.11 24.87 114.134C24.894 114.206 24.948 114.29 25.032 114.386L26.67 116.366L28.38 114.386C28.488 114.266 28.542 114.182 28.542 114.134C28.53 114.11 28.5 114.098 28.452 114.098C28.392 114.098 28.29 114.116 28.146 114.152C28.014 114.188 27.912 114.206 27.84 114.206C27.408 114.206 27.192 114.002 27.192 113.594C27.192 113.198 27.444 113 27.948 113C27.924 113 28.242 113.03 28.902 113.09C29.166 113.114 29.448 113.126 29.748 113.126C30.048 113.126 30.366 113.108 30.702 113.072C31.038 113.036 31.278 113.018 31.422 113.018C31.95 113.018 32.214 113.222 32.214 113.63C32.214 114.026 32.01 114.224 31.602 114.224C31.506 114.224 31.368 114.2 31.188 114.152C31.008 114.104 30.87 114.08 30.774 114.08C30.486 114.08 30.09 114.368 29.586 114.944L27.498 117.32L30.306 120.632C30.474 120.836 30.678 120.938 30.918 120.938C30.99 120.938 31.098 120.926 31.242 120.902C31.398 120.878 31.512 120.866 31.584 120.866C32.016 120.866 32.232 121.058 32.232 121.442C32.232 121.862 31.98 122.072 31.476 122.072H31.332L30.63 121.982C30.438 121.958 30.15 121.946 29.766 121.946C29.442 121.946 29.118 121.964 28.794 122L28.146 122.072H27.948C27.384 122.072 27.102 121.88 27.102 121.496C27.102 121.076 27.324 120.866 27.768 120.866C27.924 120.866 28.146 120.89 28.434 120.938C28.458 120.95 28.5 120.956 28.56 120.956C28.68 120.956 28.74 120.908 28.74 120.812C28.74 120.776 28.722 120.74 28.686 120.704L28.632 120.632L26.634 118.292L24.6 120.632C24.516 120.728 24.474 120.8 24.474 120.848C24.474 120.908 24.534 120.938 24.654 120.938C24.738 120.938 24.864 120.926 25.032 120.902C25.2 120.878 25.326 120.866 25.41 120.866C25.926 120.866 26.184 121.076 26.184 121.496C26.184 121.88 25.926 122.072 25.41 122.072H25.158L24.438 122C24.078 121.964 23.76 121.946 23.484 121.946C23.268 121.946 23.01 121.964 22.71 122C22.302 122.048 22.002 122.072 21.81 122.072C21.306 122.072 21.054 121.868 21.054 121.46C21.054 121.064 21.27 120.866 21.702 120.866C21.774 120.866 21.882 120.878 22.026 120.902C22.17 120.914 22.278 120.92 22.35 120.92C22.578 120.92 22.902 120.68 23.322 120.2ZM35.9889 114.728L38.0589 120.812L40.2549 114.818C40.3149 114.65 40.3449 114.518 40.3449 114.422C40.3449 114.218 40.2069 114.116 39.9309 114.116C39.7869 114.116 39.6729 114.128 39.5889 114.152C39.3969 114.176 39.2709 114.188 39.2109 114.188C38.8149 114.188 38.6169 113.996 38.6169 113.612C38.6169 113.204 38.8749 113 39.3909 113C39.4629 113 39.5829 113.012 39.7509 113.036L40.3989 113.126C40.5669 113.15 40.7469 113.162 40.9389 113.162C41.1429 113.162 41.4429 113.138 41.8389 113.09C42.2349 113.042 42.5349 113.018 42.7389 113.018C43.2549 113.018 43.5129 113.216 43.5129 113.612C43.5129 113.996 43.3149 114.188 42.9189 114.188C42.7989 114.188 42.7089 114.176 42.6489 114.152C42.4929 114.116 42.3849 114.098 42.3249 114.098C42.0969 114.098 41.8629 114.404 41.6229 115.016L39.1749 121.136C38.6349 122.492 38.1249 123.476 37.6449 124.088C36.8289 125.132 35.8089 125.654 34.5849 125.654C33.8529 125.654 33.2349 125.468 32.7309 125.096C32.2389 124.724 31.9929 124.274 31.9929 123.746C31.9929 123.374 32.1009 123.068 32.3169 122.828C32.5329 122.6 32.8149 122.486 33.1629 122.486C33.4389 122.486 33.6669 122.564 33.8469 122.72C34.0269 122.888 34.1169 123.092 34.1169 123.332C34.1169 123.716 33.9429 123.962 33.5949 124.07C33.7749 124.334 34.1169 124.466 34.6209 124.466C35.2569 124.466 35.8269 124.226 36.3309 123.746C36.8469 123.278 37.1049 122.75 37.1049 122.162C37.1049 121.862 36.9429 121.304 36.6189 120.488L34.6389 115.484C34.6389 115.484 34.5669 115.292 34.4229 114.908C34.2189 114.368 33.9849 114.098 33.7209 114.098C33.6489 114.098 33.5169 114.116 33.3249 114.152C33.1449 114.188 33.0249 114.206 32.9649 114.206C32.5449 114.206 32.3349 114.014 32.3349 113.63C32.3349 113.222 32.6109 113.018 33.1629 113.018C33.3429 113.018 33.4809 113.024 33.5769 113.036L34.2969 113.126C34.3089 113.126 34.3569 113.126 34.4409 113.126C34.5249 113.138 34.5969 113.144 34.6569 113.144C35.0889 113.144 35.5509 113.12 36.0429 113.072C36.4149 113.036 36.6609 113.018 36.7809 113.018C37.2849 113.018 37.5369 113.216 37.5369 113.612C37.5369 114.008 37.3089 114.206 36.8529 114.206C36.7809 114.206 36.6669 114.194 36.5109 114.17C36.3549 114.134 36.2409 114.116 36.1689 114.116C36.0009 114.116 35.9169 114.2 35.9169 114.368C35.9169 114.464 35.9409 114.584 35.9889 114.728ZM44.3335 120.146L50.2015 114.206H47.4475C46.5475 114.206 45.9835 114.236 45.7555 114.296C45.5275 114.344 45.4135 114.482 45.4135 114.71C45.4135 114.806 45.4255 114.914 45.4495 115.034C45.5095 115.346 45.5395 115.64 45.5395 115.916C45.5395 116.372 45.3415 116.6 44.9455 116.6C44.5375 116.6 44.3335 116.336 44.3335 115.808C44.3335 115.58 44.3395 115.424 44.3515 115.34C44.3995 114.98 44.4235 114.722 44.4235 114.566C44.4235 114.446 44.3995 114.272 44.3515 114.044C44.3155 113.804 44.2975 113.624 44.2975 113.504C44.2975 113.132 44.5975 112.946 45.1975 112.946C45.3895 112.946 45.6475 112.952 45.9715 112.964C46.3435 112.988 46.6015 113 46.7455 113L47.8255 113.018H50.8855C51.6655 113.018 52.0555 113.294 52.0555 113.846C52.0555 114.098 51.8275 114.452 51.3715 114.908L45.5395 120.794H49.8235C50.5315 120.794 50.8855 120.59 50.8855 120.182V119.84C50.8855 119.636 50.8735 119.462 50.8495 119.318C50.8255 118.862 50.8135 118.646 50.8135 118.67C50.8135 118.466 50.8735 118.298 50.9935 118.166C51.1135 118.022 51.2635 117.95 51.4435 117.95C51.8275 117.95 52.0195 118.178 52.0195 118.634C52.0195 118.838 52.0075 119.048 51.9835 119.264C51.9355 119.696 51.9115 120.008 51.9115 120.2C51.9115 120.332 51.9235 120.524 51.9475 120.776C51.9835 121.028 52.0015 121.22 52.0015 121.352C52.0015 121.82 51.7375 122.048 51.2095 122.036L50.1115 122H44.9275C44.6275 122 44.3815 121.91 44.1895 121.73C43.9975 121.55 43.9015 121.322 43.9015 121.046C43.9015 120.734 44.0455 120.434 44.3335 120.146ZM55.2293 122.306C54.9173 122.306 54.6533 122.198 54.4373 121.982C54.2213 121.754 54.1133 121.484 54.1133 121.172C54.1133 120.86 54.2213 120.596 54.4373 120.38C54.6533 120.152 54.9173 120.038 55.2293 120.038C55.5413 120.038 55.8053 120.152 56.0213 120.38C56.2373 120.596 56.3453 120.86 56.3453 121.172C56.3453 121.484 56.2373 121.754 56.0213 121.982C55.8053 122.198 55.5413 122.306 55.2293 122.306ZM66.1451 122.234C65.1611 122.234 64.5551 121.808 64.3271 120.956C63.7151 121.856 62.7551 122.306 61.4471 122.306C60.4751 122.306 59.6951 122.066 59.1071 121.586C58.5311 121.106 58.2431 120.464 58.2431 119.66C58.2431 118.664 58.6691 117.932 59.5211 117.464C59.8451 117.284 60.1211 117.17 60.3491 117.122C60.5891 117.062 61.0631 116.99 61.7711 116.906C62.7791 116.798 63.4331 116.648 63.7331 116.456C64.0451 116.264 64.2011 115.91 64.2011 115.394C64.2011 114.902 64.0271 114.518 63.6791 114.242C63.3431 113.954 62.8691 113.81 62.2571 113.81C61.7171 113.81 61.2131 113.96 60.7451 114.26C60.5651 114.38 60.4751 114.506 60.4751 114.638C60.4751 114.686 60.5291 114.746 60.6371 114.818C60.8051 114.938 60.8891 115.142 60.8891 115.43C60.8891 115.67 60.7991 115.868 60.6191 116.024C60.4511 116.18 60.2351 116.258 59.9711 116.258C59.6591 116.258 59.3951 116.15 59.1791 115.934C58.9751 115.718 58.8731 115.454 58.8731 115.142C58.8731 114.47 59.2031 113.894 59.8631 113.414C60.5351 112.934 61.3451 112.694 62.2931 112.694C64.4771 112.694 65.5691 113.744 65.5691 115.844V119.48C65.5691 120.056 65.5811 120.398 65.6051 120.506C65.6771 120.926 65.8811 121.136 66.2171 121.136C66.6371 121.136 66.8471 120.752 66.8471 119.984V119.102C66.8471 118.718 67.0331 118.526 67.4051 118.526C67.8011 118.526 67.9991 118.814 67.9991 119.39V119.48L67.9811 120.506C67.9571 121.658 67.3451 122.234 66.1451 122.234ZM64.1471 118.652L64.1651 117.374C63.9011 117.614 63.6191 117.782 63.3191 117.878C63.0311 117.974 62.5091 118.058 61.7531 118.13C60.3851 118.262 59.7011 118.766 59.7011 119.642C59.7011 120.098 59.8631 120.458 60.1871 120.722C60.5231 120.986 60.9731 121.118 61.5371 121.118C62.3411 121.118 62.9711 120.902 63.4271 120.47C63.8951 120.026 64.1351 119.42 64.1471 118.652ZM71.3193 113.558V114.062C72.0393 113.15 72.9993 112.694 74.1993 112.694C74.8473 112.694 75.4593 112.862 76.0353 113.198C76.6113 113.522 77.0013 113.93 77.2053 114.422C77.3733 114.83 77.4573 115.364 77.4573 116.024V119.444C77.4573 119.96 77.4633 120.266 77.4753 120.362C77.5353 120.77 77.6973 120.974 77.9613 120.974C78.0693 120.974 78.2073 120.962 78.3753 120.938C78.5553 120.902 78.6813 120.884 78.7533 120.884C78.9093 120.884 79.0413 120.938 79.1493 121.046C79.2693 121.154 79.3293 121.286 79.3293 121.442C79.3293 121.622 79.2573 121.772 79.1133 121.892C78.9693 122.012 78.7953 122.072 78.5913 122.072C78.4233 122.072 78.1473 122.048 77.7633 122C77.3793 121.952 77.0193 121.928 76.6833 121.928C76.3713 121.928 76.1133 121.94 75.9093 121.964C75.3093 122.036 74.9913 122.072 74.9553 122.072C74.4753 122.072 74.2353 121.862 74.2353 121.442C74.2353 121.07 74.4393 120.884 74.8473 120.884C74.9433 120.884 75.0513 120.896 75.1713 120.92C75.3993 120.968 75.5433 120.992 75.6033 120.992C75.8913 120.992 76.0473 120.662 76.0713 120.002L76.1073 119.084L76.1253 117.986V116.618C76.1253 115.982 76.0953 115.544 76.0353 115.304C75.9273 114.848 75.6933 114.494 75.3333 114.242C74.9373 113.966 74.4873 113.828 73.9833 113.828C73.0233 113.828 72.3333 114.17 71.9133 114.854C71.6253 115.322 71.4813 116.12 71.4813 117.248V119.642C71.4813 120.17 71.5173 120.53 71.5893 120.722C71.6613 120.914 71.7933 121.01 71.9853 121.01C72.0813 121.01 72.2133 120.986 72.3813 120.938C72.5493 120.89 72.6873 120.866 72.7953 120.866C73.1673 120.866 73.3533 121.07 73.3533 121.478C73.3533 121.874 73.1133 122.072 72.6333 122.072C72.5373 122.072 72.2253 122.036 71.6973 121.964C71.4333 121.928 71.1393 121.91 70.8153 121.91C70.5633 121.91 70.2273 121.934 69.8073 121.982C69.2793 122.042 68.9793 122.072 68.9073 122.072C68.4033 122.072 68.1513 121.868 68.1513 121.46C68.1513 121.076 68.3433 120.884 68.7273 120.884C68.7873 120.884 68.8953 120.902 69.0513 120.938C69.2193 120.974 69.3813 120.992 69.5373 120.992C69.8973 120.992 70.0833 120.644 70.0953 119.948L70.1313 117.95V115.772L70.0953 115.142C70.0713 114.734 70.0173 114.458 69.9333 114.314C69.8613 114.158 69.7293 114.08 69.5373 114.08C69.4533 114.08 69.3273 114.098 69.1593 114.134C69.0033 114.158 68.8833 114.17 68.7993 114.17C68.3673 114.17 68.1513 113.978 68.1513 113.594C68.1513 113.198 68.4213 113 68.9613 113C69.0333 113 69.0933 113.006 69.1413 113.018L69.8073 113.09C69.9993 113.09 70.1673 113.078 70.3113 113.054C70.6233 113.03 70.7853 113.018 70.7973 113.018C71.1453 113.018 71.3193 113.198 71.3193 113.558ZM82.4655 114.728L84.5355 120.812L86.7315 114.818C86.7915 114.65 86.8215 114.518 86.8215 114.422C86.8215 114.218 86.6835 114.116 86.4075 114.116C86.2635 114.116 86.1495 114.128 86.0655 114.152C85.8735 114.176 85.7475 114.188 85.6875 114.188C85.2915 114.188 85.0935 113.996 85.0935 113.612C85.0935 113.204 85.3515 113 85.8675 113C85.9395 113 86.0595 113.012 86.2275 113.036L86.8755 113.126C87.0435 113.15 87.2235 113.162 87.4155 113.162C87.6195 113.162 87.9195 113.138 88.3155 113.09C88.7115 113.042 89.0115 113.018 89.2155 113.018C89.7315 113.018 89.9895 113.216 89.9895 113.612C89.9895 113.996 89.7915 114.188 89.3955 114.188C89.2755 114.188 89.1855 114.176 89.1255 114.152C88.9695 114.116 88.8615 114.098 88.8015 114.098C88.5735 114.098 88.3395 114.404 88.0995 115.016L85.6515 121.136C85.1115 122.492 84.6015 123.476 84.1215 124.088C83.3055 125.132 82.2855 125.654 81.0615 125.654C80.3295 125.654 79.7115 125.468 79.2075 125.096C78.7155 124.724 78.4695 124.274 78.4695 123.746C78.4695 123.374 78.5775 123.068 78.7935 122.828C79.0095 122.6 79.2915 122.486 79.6395 122.486C79.9155 122.486 80.1435 122.564 80.3235 122.72C80.5035 122.888 80.5935 123.092 80.5935 123.332C80.5935 123.716 80.4195 123.962 80.0715 124.07C80.2515 124.334 80.5935 124.466 81.0975 124.466C81.7335 124.466 82.3035 124.226 82.8075 123.746C83.3235 123.278 83.5815 122.75 83.5815 122.162C83.5815 121.862 83.4195 121.304 83.0955 120.488L81.1155 115.484C81.1155 115.484 81.0435 115.292 80.8995 114.908C80.6955 114.368 80.4615 114.098 80.1975 114.098C80.1255 114.098 79.9935 114.116 79.8015 114.152C79.6215 114.188 79.5015 114.206 79.4415 114.206C79.0215 114.206 78.8115 114.014 78.8115 113.63C78.8115 113.222 79.0875 113.018 79.6395 113.018C79.8195 113.018 79.9575 113.024 80.0535 113.036L80.7735 113.126C80.7855 113.126 80.8335 113.126 80.9175 113.126C81.0015 113.138 81.0735 113.144 81.1335 113.144C81.5655 113.144 82.0275 113.12 82.5195 113.072C82.8915 113.036 83.1375 113.018 83.2575 113.018C83.7615 113.018 84.0135 113.216 84.0135 113.612C84.0135 114.008 83.7855 114.206 83.3295 114.206C83.2575 114.206 83.1435 114.194 82.9875 114.17C82.8315 114.134 82.7175 114.116 82.6455 114.116C82.4775 114.116 82.3935 114.2 82.3935 114.368C82.3935 114.464 82.4175 114.584 82.4655 114.728ZM95.4 119.516L95.436 118.364C95.448 117.872 95.664 117.626 96.084 117.626C96.504 117.626 96.714 117.902 96.714 118.454C96.714 119.762 96.546 120.674 96.21 121.19C95.754 121.886 95.004 122.234 93.96 122.234C93 122.234 92.316 121.928 91.908 121.316C91.608 120.872 91.458 120.116 91.458 119.048V114.728C91.458 114.476 91.344 114.35 91.116 114.35H90.54C90.348 114.35 90.186 114.29 90.054 114.17C89.934 114.038 89.874 113.882 89.874 113.702C89.874 113.534 89.934 113.384 90.054 113.252C90.186 113.12 90.33 113.054 90.486 113.054H91.188C91.392 113.054 91.494 112.94 91.494 112.712V110.858C91.494 110.402 91.728 110.174 92.196 110.174C92.628 110.174 92.844 110.402 92.844 110.858V112.784C92.844 112.964 92.952 113.054 93.168 113.054H95.13C95.586 113.054 95.814 113.264 95.814 113.684C95.814 114.128 95.568 114.35 95.076 114.35H93.096C92.928 114.35 92.844 114.476 92.844 114.728V119.156C92.844 120.416 93.258 121.046 94.086 121.046C94.926 121.046 95.364 120.536 95.4 119.516ZM100.483 110.408L100.411 113.9C100.891 113.444 101.329 113.132 101.725 112.964C102.121 112.784 102.589 112.694 103.129 112.694C104.161 112.694 104.989 112.988 105.613 113.576C106.237 114.164 106.549 114.938 106.549 115.898V118.904C106.549 119.612 106.555 120.002 106.567 120.074C106.615 120.674 106.771 120.974 107.035 120.974C107.131 120.974 107.269 120.95 107.449 120.902C107.521 120.89 107.617 120.884 107.737 120.884C108.181 120.884 108.403 121.082 108.403 121.478C108.403 121.874 108.115 122.072 107.539 122.072C107.383 122.072 107.155 122.054 106.855 122.018C106.351 121.958 105.943 121.928 105.631 121.928C105.319 121.928 105.079 121.94 104.911 121.964C104.407 122.036 104.095 122.072 103.975 122.072C103.759 122.072 103.579 122.012 103.435 121.892C103.291 121.76 103.219 121.598 103.219 121.406C103.219 121.25 103.279 121.118 103.399 121.01C103.531 120.902 103.681 120.848 103.849 120.848C103.981 120.848 104.137 120.878 104.317 120.938C104.425 120.974 104.527 120.992 104.623 120.992C104.983 120.992 105.169 120.602 105.181 119.822C105.181 119.678 105.187 119.396 105.199 118.976L105.217 118.202V117.23C105.217 116.006 105.097 115.184 104.857 114.764C104.509 114.14 103.897 113.828 103.021 113.828C102.073 113.828 101.383 114.152 100.951 114.8C100.651 115.244 100.495 115.958 100.483 116.942L100.465 118.238C100.465 118.31 100.459 118.43 100.447 118.598C100.447 118.754 100.447 118.868 100.447 118.94C100.447 119.624 100.453 120.02 100.465 120.128C100.525 120.716 100.699 121.01 100.987 121.01C101.083 121.01 101.215 120.992 101.383 120.956C101.563 120.908 101.695 120.884 101.779 120.884C102.163 120.884 102.355 121.07 102.355 121.442C102.355 121.862 102.091 122.072 101.563 122.072C101.395 122.072 101.143 122.054 100.807 122.018C100.351 121.97 99.9611 121.946 99.6371 121.946C99.4331 121.946 99.1511 121.964 98.7911 122C98.3111 122.048 98.0051 122.072 97.8731 122.072C97.3811 122.072 97.1351 121.856 97.1351 121.424C97.1351 121.064 97.3631 120.884 97.8191 120.884C97.9751 120.884 98.0891 120.896 98.1611 120.92C98.3651 120.956 98.5091 120.974 98.5931 120.974C98.7851 120.974 98.9111 120.794 98.9711 120.434C99.0431 120.062 99.0851 119.312 99.0971 118.184L99.1151 114.962C99.1151 113.162 99.0791 112.028 99.0071 111.56C98.9351 111.08 98.7671 110.84 98.5031 110.84C98.4191 110.84 98.2931 110.858 98.1251 110.894C97.9571 110.93 97.8251 110.948 97.7291 110.948C97.3211 110.948 97.1171 110.756 97.1171 110.372C97.1171 110.204 97.1891 110.06 97.3331 109.94C97.4771 109.82 97.6511 109.76 97.8551 109.76C97.9151 109.76 98.1191 109.778 98.4671 109.814C98.6951 109.838 98.9411 109.85 99.2051 109.85C99.3131 109.85 99.4631 109.838 99.6551 109.814C99.8471 109.79 99.9851 109.778 100.069 109.778C100.345 109.778 100.483 109.976 100.483 110.372V110.408ZM112.034 116.78V119.12C112.034 119.72 112.04 120.074 112.052 120.182C112.112 120.722 112.274 120.992 112.538 120.992C112.598 120.992 112.748 120.962 112.988 120.902C113.048 120.878 113.138 120.866 113.258 120.866C113.714 120.866 113.942 121.064 113.942 121.46C113.942 121.628 113.864 121.772 113.708 121.892C113.564 122.012 113.378 122.072 113.15 122.072C112.958 122.072 112.664 122.048 112.268 122C111.884 121.94 111.596 121.91 111.404 121.91C111.092 121.91 110.744 121.934 110.36 121.982C109.892 122.042 109.58 122.072 109.424 122.072C108.944 122.072 108.704 121.868 108.704 121.46C108.704 121.064 108.908 120.866 109.316 120.866C109.412 120.866 109.55 120.884 109.73 120.92C109.922 120.956 110.066 120.974 110.162 120.974C110.45 120.974 110.624 120.59 110.684 119.822C110.684 119.774 110.684 119.252 110.684 118.256V116.78C110.684 115.784 110.684 115.262 110.684 115.214C110.624 114.458 110.444 114.08 110.144 114.08C110.048 114.08 109.91 114.104 109.73 114.152C109.562 114.188 109.436 114.206 109.352 114.206C108.92 114.206 108.704 114.014 108.704 113.63C108.704 113.222 108.968 113.018 109.496 113.018C109.724 113.018 109.886 113.024 109.982 113.036C110.366 113.084 110.612 113.108 110.72 113.108C110.816 113.108 110.96 113.096 111.152 113.072C111.356 113.036 111.506 113.018 111.602 113.018C111.95 113.018 112.124 113.252 112.124 113.72C112.124 113.768 112.118 113.84 112.106 113.936C112.094 114.032 112.088 114.104 112.088 114.152C112.076 114.248 112.064 114.62 112.052 115.268C112.04 115.76 112.034 116.264 112.034 116.78ZM111.098 112.064C110.822 112.064 110.582 111.968 110.378 111.776C110.186 111.572 110.09 111.332 110.09 111.056C110.09 110.78 110.186 110.546 110.378 110.354C110.582 110.162 110.822 110.066 111.098 110.066C111.374 110.066 111.608 110.162 111.8 110.354C112.004 110.546 112.106 110.78 112.106 111.056C112.106 111.332 112.004 111.572 111.8 111.776C111.608 111.968 111.374 112.064 111.098 112.064ZM117.444 113.558V114.062C118.164 113.15 119.124 112.694 120.324 112.694C120.972 112.694 121.584 112.862 122.16 113.198C122.736 113.522 123.126 113.93 123.33 114.422C123.498 114.83 123.582 115.364 123.582 116.024V119.444C123.582 119.96 123.588 120.266 123.6 120.362C123.66 120.77 123.822 120.974 124.086 120.974C124.194 120.974 124.332 120.962 124.5 120.938C124.68 120.902 124.806 120.884 124.878 120.884C125.034 120.884 125.166 120.938 125.274 121.046C125.394 121.154 125.454 121.286 125.454 121.442C125.454 121.622 125.382 121.772 125.238 121.892C125.094 122.012 124.92 122.072 124.716 122.072C124.548 122.072 124.272 122.048 123.888 122C123.504 121.952 123.144 121.928 122.808 121.928C122.496 121.928 122.238 121.94 122.034 121.964C121.434 122.036 121.116 122.072 121.08 122.072C120.6 122.072 120.36 121.862 120.36 121.442C120.36 121.07 120.564 120.884 120.972 120.884C121.068 120.884 121.176 120.896 121.296 120.92C121.524 120.968 121.668 120.992 121.728 120.992C122.016 120.992 122.172 120.662 122.196 120.002L122.232 119.084L122.25 117.986V116.618C122.25 115.982 122.22 115.544 122.16 115.304C122.052 114.848 121.818 114.494 121.458 114.242C121.062 113.966 120.612 113.828 120.108 113.828C119.148 113.828 118.458 114.17 118.038 114.854C117.75 115.322 117.606 116.12 117.606 117.248V119.642C117.606 120.17 117.642 120.53 117.714 120.722C117.786 120.914 117.918 121.01 118.11 121.01C118.206 121.01 118.338 120.986 118.506 120.938C118.674 120.89 118.812 120.866 118.92 120.866C119.292 120.866 119.478 121.07 119.478 121.478C119.478 121.874 119.238 122.072 118.758 122.072C118.662 122.072 118.35 122.036 117.822 121.964C117.558 121.928 117.264 121.91 116.94 121.91C116.688 121.91 116.352 121.934 115.932 121.982C115.404 122.042 115.104 122.072 115.032 122.072C114.528 122.072 114.276 121.868 114.276 121.46C114.276 121.076 114.468 120.884 114.852 120.884C114.912 120.884 115.02 120.902 115.176 120.938C115.344 120.974 115.506 120.992 115.662 120.992C116.022 120.992 116.208 120.644 116.22 119.948L116.256 117.95V115.772L116.22 115.142C116.196 114.734 116.142 114.458 116.058 114.314C115.986 114.158 115.854 114.08 115.662 114.08C115.578 114.08 115.452 114.098 115.284 114.134C115.128 114.158 115.008 114.17 114.924 114.17C114.492 114.17 114.276 113.978 114.276 113.594C114.276 113.198 114.546 113 115.086 113C115.158 113 115.218 113.006 115.266 113.018L115.932 113.09C116.124 113.09 116.292 113.078 116.436 113.054C116.748 113.03 116.91 113.018 116.922 113.018C117.27 113.018 117.444 113.198 117.444 113.558ZM130.417 112.694C130.729 112.694 131.083 112.742 131.479 112.838C131.539 111.662 132.223 111.074 133.531 111.074C134.083 111.074 134.545 111.218 134.917 111.506C135.289 111.794 135.475 112.16 135.475 112.604C135.475 112.892 135.379 113.138 135.187 113.342C135.007 113.546 134.791 113.648 134.539 113.648C134.347 113.648 134.179 113.582 134.035 113.45C133.891 113.318 133.819 113.162 133.819 112.982C133.819 112.79 133.951 112.592 134.215 112.388C134.023 112.148 133.777 112.028 133.477 112.028C132.841 112.028 132.517 112.424 132.505 113.216C133.417 113.828 133.873 114.65 133.873 115.682C133.873 116.51 133.561 117.2 132.937 117.752C132.313 118.304 131.533 118.58 130.597 118.58C129.937 118.58 129.253 118.424 128.545 118.112C128.353 118.028 128.191 117.986 128.059 117.986C127.891 117.986 127.741 118.064 127.609 118.22C127.477 118.364 127.411 118.538 127.411 118.742C127.411 119.366 128.041 119.678 129.301 119.678H129.409C129.505 119.678 129.613 119.672 129.733 119.66C129.853 119.66 129.925 119.66 129.949 119.66C131.089 119.66 132.013 119.768 132.721 119.984C133.381 120.188 133.903 120.506 134.287 120.938C134.671 121.37 134.863 121.856 134.863 122.396C134.863 123.272 134.455 123.962 133.639 124.466C132.835 124.982 131.743 125.24 130.363 125.24C128.983 125.24 127.897 125 127.105 124.52C126.325 124.04 125.935 123.38 125.935 122.54C125.935 121.568 126.481 120.878 127.573 120.47C126.601 120.086 126.115 119.51 126.115 118.742C126.115 117.902 126.601 117.326 127.573 117.014C127.261 116.594 127.105 116.102 127.105 115.538C127.105 114.722 127.417 114.044 128.041 113.504C128.677 112.964 129.469 112.694 130.417 112.694ZM130.471 113.882C129.943 113.882 129.493 114.038 129.121 114.35C128.749 114.662 128.545 115.052 128.509 115.52C128.509 115.52 128.509 115.556 128.509 115.628C128.509 116.156 128.689 116.582 129.049 116.906C129.409 117.23 129.877 117.392 130.453 117.392C131.053 117.392 131.539 117.23 131.911 116.906C132.295 116.582 132.487 116.168 132.487 115.664C132.487 115.148 132.295 114.722 131.911 114.386C131.527 114.05 131.047 113.882 130.471 113.882ZM130.489 120.866C129.529 120.866 128.773 121.01 128.221 121.298C127.669 121.586 127.393 121.976 127.393 122.468C127.393 122.96 127.663 123.344 128.203 123.62C128.743 123.908 129.469 124.052 130.381 124.052C131.341 124.052 132.097 123.908 132.649 123.62C133.213 123.332 133.495 122.948 133.495 122.468C133.495 121.964 133.231 121.574 132.703 121.298C132.175 121.01 131.437 120.866 130.489 120.866ZM137.723 122.306C137.411 122.306 137.147 122.198 136.931 121.982C136.715 121.754 136.607 121.484 136.607 121.172C136.607 120.86 136.715 120.596 136.931 120.38C137.147 120.152 137.411 120.038 137.723 120.038C138.035 120.038 138.299 120.152 138.515 120.38C138.731 120.596 138.839 120.86 138.839 121.172C138.839 121.484 138.731 121.754 138.515 121.982C138.299 122.198 138.035 122.306 137.723 122.306ZM145.291 117.842L145.237 112.622C145.225 112.01 145.159 111.602 145.039 111.398C144.931 111.194 144.709 111.092 144.373 111.092C144.253 111.092 144.079 111.11 143.851 111.146C143.623 111.17 143.449 111.182 143.329 111.182C142.861 111.182 142.627 110.972 142.627 110.552C142.627 110.132 142.849 109.922 143.293 109.922C143.437 109.922 143.659 109.94 143.959 109.976C144.271 110 144.511 110.012 144.679 110.012C145.063 110.012 145.381 110 145.633 109.976C146.005 109.94 146.233 109.922 146.317 109.922C146.581 109.922 146.743 110 146.803 110.156C146.851 110.264 146.875 110.45 146.875 110.714C146.875 110.75 146.869 110.894 146.857 111.146C146.797 112.43 146.767 113.594 146.767 114.638V116.672C146.767 117.044 146.773 117.542 146.785 118.166C146.809 118.922 146.821 119.42 146.821 119.66C146.833 120.488 147.109 120.902 147.649 120.902C147.781 120.902 147.979 120.89 148.243 120.866C148.507 120.83 148.705 120.812 148.837 120.812C149.413 120.812 149.701 121.022 149.701 121.442C149.701 121.862 149.437 122.072 148.909 122.072C148.705 122.072 148.513 122.06 148.333 122.036C147.325 121.904 146.557 121.838 146.029 121.838C145.501 121.838 144.853 121.892 144.085 122C143.653 122.06 143.347 122.09 143.167 122.09C142.651 122.09 142.393 121.874 142.393 121.442C142.393 121.022 142.687 120.812 143.275 120.812C143.455 120.812 143.641 120.83 143.833 120.866C144.121 120.89 144.301 120.902 144.373 120.902C144.793 120.902 145.051 120.74 145.147 120.416C145.243 120.08 145.291 119.222 145.291 117.842ZM157.984 110.876V117.086H160.108C160.504 117.086 160.702 117.29 160.702 117.698C160.702 118.106 160.492 118.31 160.072 118.31H157.984V119.408C157.984 120.404 158.254 120.902 158.794 120.902C158.938 120.902 159.136 120.89 159.388 120.866C159.64 120.842 159.766 120.83 159.766 120.83C160.27 120.83 160.522 121.034 160.522 121.442C160.522 121.862 160.306 122.072 159.874 122.072C159.61 122.072 159.256 122.036 158.812 121.964C158.44 121.904 157.978 121.874 157.426 121.874C157.09 121.874 156.586 121.91 155.914 121.982C155.242 122.054 154.738 122.09 154.402 122.09C153.946 122.09 153.718 121.886 153.718 121.478C153.718 121.046 153.994 120.83 154.546 120.83C154.666 120.83 154.84 120.842 155.068 120.866C155.308 120.89 155.488 120.902 155.608 120.902C156.208 120.902 156.508 120.404 156.508 119.408V118.31H150.928C150.376 118.31 150.1 118.07 150.1 117.59C150.1 117.398 150.166 117.206 150.298 117.014L155.068 111.092C155.572 110.468 155.944 110.066 156.184 109.886C156.424 109.694 156.7 109.598 157.012 109.598C157.66 109.598 157.984 110.024 157.984 110.876ZM151.846 117.086H156.508L156.634 111.2L151.846 117.086ZM166.025 112.694C167.213 112.694 168.101 113.156 168.689 114.08V112.262C168.689 111.782 168.677 111.488 168.653 111.38C168.593 111.008 168.425 110.822 168.149 110.822C168.053 110.822 167.915 110.84 167.735 110.876C167.567 110.912 167.435 110.93 167.339 110.93C166.895 110.93 166.673 110.738 166.673 110.354C166.673 109.958 166.973 109.76 167.573 109.76C167.669 109.76 167.843 109.772 168.095 109.796C168.479 109.832 168.677 109.85 168.689 109.85C168.797 109.85 168.953 109.838 169.157 109.814C169.361 109.79 169.517 109.778 169.625 109.778C169.961 109.778 170.129 110.018 170.129 110.498V110.696C170.117 110.732 170.105 111.05 170.093 111.65C170.093 111.722 170.075 112.184 170.039 113.036C170.015 113.636 170.003 114.092 170.003 114.404V116.168L170.039 119.174C170.051 119.966 170.087 120.458 170.147 120.65C170.207 120.842 170.351 120.938 170.579 120.938C170.735 120.938 170.855 120.926 170.939 120.902C171.131 120.878 171.263 120.866 171.335 120.866C171.779 120.866 172.001 121.064 172.001 121.46C172.001 121.868 171.731 122.072 171.191 122.072C171.071 122.072 170.885 122.054 170.633 122.018C170.393 121.994 170.213 121.982 170.093 121.982C170.057 121.982 169.919 121.994 169.679 122.018C169.535 122.054 169.409 122.072 169.301 122.072C168.977 122.072 168.815 121.856 168.815 121.424V121.334L168.833 121.028C168.197 121.88 167.273 122.306 166.061 122.306C164.837 122.306 163.853 121.862 163.109 120.974C162.365 120.086 161.993 118.922 161.993 117.482C161.993 116.03 162.359 114.872 163.091 114.008C163.823 113.132 164.801 112.694 166.025 112.694ZM168.581 119.048C168.629 118.652 168.653 118.142 168.653 117.518C168.653 116.714 168.623 116.168 168.563 115.88C168.455 115.28 168.197 114.812 167.789 114.476C167.309 114.08 166.757 113.882 166.133 113.882C165.293 113.882 164.633 114.2 164.153 114.836C163.685 115.472 163.451 116.342 163.451 117.446C163.451 118.586 163.697 119.486 164.189 120.146C164.681 120.794 165.353 121.118 166.205 121.118C166.853 121.118 167.393 120.932 167.825 120.56C168.257 120.176 168.509 119.672 168.581 119.048ZM179.23 118.382C179.23 118.286 179.236 118.202 179.248 118.13C178.792 118.838 178.09 119.192 177.142 119.192C176.566 119.192 176.098 119 175.738 118.616C175.39 118.22 175.216 117.71 175.216 117.086C175.216 115.994 175.612 115.034 176.404 114.206C177.196 113.366 178.114 112.946 179.158 112.946C179.398 112.946 179.662 112.982 179.95 113.054L180.31 113.144C180.358 113.168 180.418 113.18 180.49 113.18C180.55 113.18 180.652 113.15 180.796 113.09C180.988 113.006 181.126 112.964 181.21 112.964C181.39 112.964 181.48 113.042 181.48 113.198C181.48 113.234 181.468 113.3 181.444 113.396L181.354 113.738L180.328 117.572C180.292 117.716 180.274 117.83 180.274 117.914C180.274 118.13 180.388 118.238 180.616 118.238C181.06 118.238 181.474 117.95 181.858 117.374C182.398 116.57 182.668 115.64 182.668 114.584C182.668 113.588 182.338 112.76 181.678 112.1C181.03 111.44 180.208 111.11 179.212 111.11C177.808 111.11 176.584 111.674 175.54 112.802C174.508 113.918 173.992 115.232 173.992 116.744C173.992 117.92 174.37 118.904 175.126 119.696C175.882 120.476 176.83 120.866 177.97 120.866C178.642 120.866 179.194 120.788 179.626 120.632C180.07 120.464 180.622 120.14 181.282 119.66C181.522 119.48 181.72 119.39 181.876 119.39C182.104 119.39 182.218 119.498 182.218 119.714C182.218 119.942 182.062 120.176 181.75 120.416C180.562 121.352 179.254 121.82 177.826 121.82C176.374 121.82 175.162 121.34 174.19 120.38C173.23 119.408 172.75 118.196 172.75 116.744C172.75 114.992 173.398 113.468 174.694 112.172C176.002 110.864 177.544 110.21 179.32 110.21C180.664 110.21 181.756 110.606 182.596 111.398C183.448 112.19 183.874 113.222 183.874 114.494C183.874 115.922 183.352 117.17 182.308 118.238C181.672 118.886 181.006 119.21 180.31 119.21C179.998 119.21 179.74 119.132 179.536 118.976C179.332 118.82 179.23 118.622 179.23 118.382ZM179.608 115.934L180.094 114.134C179.734 113.954 179.386 113.864 179.05 113.864C178.354 113.864 177.742 114.17 177.214 114.782C176.698 115.394 176.44 116.108 176.44 116.924C176.44 117.752 176.8 118.166 177.52 118.166C178.516 118.166 179.212 117.422 179.608 115.934ZM187.949 113.54V114.062C188.381 113.546 188.789 113.192 189.173 113C189.557 112.796 190.037 112.694 190.613 112.694C191.789 112.694 192.653 113.15 193.205 114.062C193.613 113.558 194.027 113.204 194.447 113C194.867 112.796 195.407 112.694 196.067 112.694C196.751 112.694 197.363 112.838 197.903 113.126C198.503 113.45 198.917 113.906 199.145 114.494C199.301 114.89 199.379 115.514 199.379 116.366V118.112L199.361 119.462C199.361 119.954 199.367 120.254 199.379 120.362C199.439 120.794 199.595 121.01 199.847 121.01C199.931 121.01 200.057 120.992 200.225 120.956C200.393 120.92 200.519 120.902 200.603 120.902C201.023 120.902 201.233 121.082 201.233 121.442C201.233 121.862 200.993 122.072 200.513 122.072C200.333 122.072 200.057 122.048 199.685 122C199.325 121.964 199.049 121.946 198.857 121.946C198.653 121.946 198.353 121.964 197.957 122C197.573 122.048 197.279 122.072 197.075 122.072C196.571 122.072 196.319 121.862 196.319 121.442C196.319 121.082 196.511 120.902 196.895 120.902C196.943 120.902 197.063 120.914 197.255 120.938C197.327 120.962 197.423 120.974 197.543 120.974C197.747 120.974 197.873 120.872 197.921 120.668C197.981 120.464 198.017 119.954 198.029 119.138L198.047 118.04V116.852C198.047 116.024 197.981 115.424 197.849 115.052C197.729 114.668 197.495 114.368 197.147 114.152C196.799 113.936 196.403 113.828 195.959 113.828C195.107 113.828 194.513 114.122 194.177 114.71C193.913 115.178 193.781 115.994 193.781 117.158V118.436C193.781 119.564 193.805 120.272 193.853 120.56C193.913 120.836 194.057 120.974 194.285 120.974C194.357 120.974 194.459 120.962 194.591 120.938C194.735 120.902 194.843 120.884 194.915 120.884C195.083 120.884 195.221 120.944 195.329 121.064C195.449 121.172 195.509 121.31 195.509 121.478C195.509 121.874 195.227 122.072 194.663 122.072C194.483 122.072 194.213 122.048 193.853 122C193.505 121.952 193.241 121.928 193.061 121.928C192.809 121.928 192.533 121.952 192.233 122C191.933 122.048 191.669 122.072 191.441 122.072C190.949 122.072 190.703 121.868 190.703 121.46C190.703 121.088 190.883 120.902 191.243 120.902C191.375 120.902 191.477 120.914 191.549 120.938C191.717 120.974 191.843 120.992 191.927 120.992C192.215 120.992 192.365 120.686 192.377 120.074L192.395 119.228C192.407 118.964 192.413 118.706 192.413 118.454C192.425 118.238 192.431 118.124 192.431 118.112V116.618C192.431 115.574 192.287 114.848 191.999 114.44C191.723 114.032 191.225 113.828 190.505 113.828C189.713 113.828 189.107 114.116 188.687 114.692C188.339 115.16 188.165 115.976 188.165 117.14V119.534C188.165 120.014 188.171 120.296 188.183 120.38C188.231 120.788 188.363 120.992 188.579 120.992C188.639 120.992 188.765 120.968 188.957 120.92C188.981 120.92 189.017 120.914 189.065 120.902C189.113 120.902 189.155 120.902 189.191 120.902C189.659 120.902 189.893 121.1 189.893 121.496C189.893 121.88 189.623 122.072 189.083 122.072C188.879 122.072 188.627 122.054 188.327 122.018C187.919 121.97 187.571 121.946 187.283 121.946C187.139 121.946 186.875 121.964 186.491 122C185.975 122.048 185.663 122.072 185.555 122.072C185.075 122.072 184.835 121.868 184.835 121.46C184.835 121.088 185.063 120.902 185.519 120.902C185.543 120.902 185.579 120.902 185.627 120.902C185.675 120.914 185.711 120.92 185.735 120.92L186.185 121.01C186.197 121.022 186.221 121.028 186.257 121.028C186.581 121.028 186.755 120.734 186.779 120.146L186.815 119.12V116.366C186.815 115.346 186.785 114.71 186.725 114.458C186.677 114.206 186.533 114.08 186.293 114.08C186.245 114.08 186.077 114.11 185.789 114.17C185.669 114.194 185.573 114.206 185.501 114.206C185.057 114.206 184.835 114.014 184.835 113.63C184.835 113.222 185.081 113.018 185.573 113.018C185.705 113.018 185.885 113.03 186.113 113.054C186.341 113.078 186.539 113.09 186.707 113.09C186.767 113.09 186.833 113.084 186.905 113.072C186.977 113.072 187.019 113.072 187.031 113.072L187.463 113.018H187.517C187.805 113.018 187.949 113.192 187.949 113.54ZM209.688 122.234C208.704 122.234 208.098 121.808 207.87 120.956C207.258 121.856 206.298 122.306 204.99 122.306C204.018 122.306 203.238 122.066 202.65 121.586C202.074 121.106 201.786 120.464 201.786 119.66C201.786 118.664 202.212 117.932 203.064 117.464C203.388 117.284 203.664 117.17 203.892 117.122C204.132 117.062 204.606 116.99 205.314 116.906C206.322 116.798 206.976 116.648 207.276 116.456C207.588 116.264 207.744 115.91 207.744 115.394C207.744 114.902 207.57 114.518 207.222 114.242C206.886 113.954 206.412 113.81 205.8 113.81C205.26 113.81 204.756 113.96 204.288 114.26C204.108 114.38 204.018 114.506 204.018 114.638C204.018 114.686 204.072 114.746 204.18 114.818C204.348 114.938 204.432 115.142 204.432 115.43C204.432 115.67 204.342 115.868 204.162 116.024C203.994 116.18 203.778 116.258 203.514 116.258C203.202 116.258 202.938 116.15 202.722 115.934C202.518 115.718 202.416 115.454 202.416 115.142C202.416 114.47 202.746 113.894 203.406 113.414C204.078 112.934 204.888 112.694 205.836 112.694C208.02 112.694 209.112 113.744 209.112 115.844V119.48C209.112 120.056 209.124 120.398 209.148 120.506C209.22 120.926 209.424 121.136 209.76 121.136C210.18 121.136 210.39 120.752 210.39 119.984V119.102C210.39 118.718 210.576 118.526 210.948 118.526C211.344 118.526 211.542 118.814 211.542 119.39V119.48L211.524 120.506C211.5 121.658 210.888 122.234 209.688 122.234ZM207.69 118.652L207.708 117.374C207.444 117.614 207.162 117.782 206.862 117.878C206.574 117.974 206.052 118.058 205.296 118.13C203.928 118.262 203.244 118.766 203.244 119.642C203.244 120.098 203.406 120.458 203.73 120.722C204.066 120.986 204.516 121.118 205.08 121.118C205.884 121.118 206.514 120.902 206.97 120.47C207.438 120.026 207.678 119.42 207.69 118.652ZM215.024 116.78V119.12C215.024 119.72 215.03 120.074 215.042 120.182C215.102 120.722 215.264 120.992 215.528 120.992C215.588 120.992 215.738 120.962 215.978 120.902C216.038 120.878 216.128 120.866 216.248 120.866C216.704 120.866 216.932 121.064 216.932 121.46C216.932 121.628 216.854 121.772 216.698 121.892C216.554 122.012 216.368 122.072 216.14 122.072C215.948 122.072 215.654 122.048 215.258 122C214.874 121.94 214.586 121.91 214.394 121.91C214.082 121.91 213.734 121.934 213.35 121.982C212.882 122.042 212.57 122.072 212.414 122.072C211.934 122.072 211.694 121.868 211.694 121.46C211.694 121.064 211.898 120.866 212.306 120.866C212.402 120.866 212.54 120.884 212.72 120.92C212.912 120.956 213.056 120.974 213.152 120.974C213.44 120.974 213.614 120.59 213.674 119.822C213.674 119.774 213.674 119.252 213.674 118.256V116.78C213.674 115.784 213.674 115.262 213.674 115.214C213.614 114.458 213.434 114.08 213.134 114.08C213.038 114.08 212.9 114.104 212.72 114.152C212.552 114.188 212.426 114.206 212.342 114.206C211.91 114.206 211.694 114.014 211.694 113.63C211.694 113.222 211.958 113.018 212.486 113.018C212.714 113.018 212.876 113.024 212.972 113.036C213.356 113.084 213.602 113.108 213.71 113.108C213.806 113.108 213.95 113.096 214.142 113.072C214.346 113.036 214.496 113.018 214.592 113.018C214.94 113.018 215.114 113.252 215.114 113.72C215.114 113.768 215.108 113.84 215.096 113.936C215.084 114.032 215.078 114.104 215.078 114.152C215.066 114.248 215.054 114.62 215.042 115.268C215.03 115.76 215.024 116.264 215.024 116.78ZM214.088 112.064C213.812 112.064 213.572 111.968 213.368 111.776C213.176 111.572 213.08 111.332 213.08 111.056C213.08 110.78 213.176 110.546 213.368 110.354C213.572 110.162 213.812 110.066 214.088 110.066C214.364 110.066 214.598 110.162 214.79 110.354C214.994 110.546 215.096 110.78 215.096 111.056C215.096 111.332 214.994 111.572 214.79 111.776C214.598 111.968 214.364 112.064 214.088 112.064ZM220.489 114.476L220.507 120.074C220.519 120.686 220.681 120.992 220.993 120.992C221.065 120.992 221.215 120.962 221.443 120.902C221.587 120.878 221.683 120.866 221.731 120.866C222.127 120.866 222.325 121.07 222.325 121.478C222.325 121.874 222.079 122.072 221.587 122.072C221.395 122.072 221.089 122.048 220.669 122C220.249 121.952 219.925 121.928 219.697 121.928C219.505 121.928 219.217 121.952 218.833 122C218.449 122.048 218.167 122.072 217.987 122.072H217.897C217.393 122.072 217.141 121.856 217.141 121.424C217.141 121.052 217.345 120.866 217.753 120.866C217.777 120.866 217.819 120.866 217.879 120.866C217.951 120.878 218.005 120.884 218.041 120.884C218.341 120.932 218.515 120.956 218.563 120.956C218.779 120.956 218.911 120.866 218.959 120.686C219.019 120.494 219.055 120.008 219.067 119.228L219.085 117.968L219.139 115.178L219.121 111.974C219.109 111.614 219.091 111.374 219.067 111.254C218.983 110.978 218.815 110.84 218.563 110.84C218.527 110.84 218.371 110.864 218.095 110.912C217.963 110.936 217.855 110.948 217.771 110.948C217.363 110.948 217.159 110.756 217.159 110.372C217.159 109.976 217.399 109.778 217.879 109.778C218.011 109.778 218.125 109.784 218.221 109.796L218.653 109.85C218.845 109.874 219.007 109.886 219.139 109.886C219.259 109.886 219.439 109.868 219.679 109.832C219.919 109.784 220.099 109.76 220.219 109.76C220.495 109.76 220.633 109.934 220.633 110.282C220.633 110.402 220.627 110.492 220.615 110.552C220.531 111.476 220.489 112.784 220.489 114.476ZM225.935 113.54V114.062C226.367 113.546 226.775 113.192 227.159 113C227.543 112.796 228.023 112.694 228.599 112.694C229.775 112.694 230.639 113.15 231.191 114.062C231.599 113.558 232.013 113.204 232.433 113C232.853 112.796 233.393 112.694 234.053 112.694C234.737 112.694 235.349 112.838 235.889 113.126C236.489 113.45 236.903 113.906 237.131 114.494C237.287 114.89 237.365 115.514 237.365 116.366V118.112L237.347 119.462C237.347 119.954 237.353 120.254 237.365 120.362C237.425 120.794 237.581 121.01 237.833 121.01C237.917 121.01 238.043 120.992 238.211 120.956C238.379 120.92 238.505 120.902 238.589 120.902C239.009 120.902 239.219 121.082 239.219 121.442C239.219 121.862 238.979 122.072 238.499 122.072C238.319 122.072 238.043 122.048 237.671 122C237.311 121.964 237.035 121.946 236.843 121.946C236.639 121.946 236.339 121.964 235.943 122C235.559 122.048 235.265 122.072 235.061 122.072C234.557 122.072 234.305 121.862 234.305 121.442C234.305 121.082 234.497 120.902 234.881 120.902C234.929 120.902 235.049 120.914 235.241 120.938C235.313 120.962 235.409 120.974 235.529 120.974C235.733 120.974 235.859 120.872 235.907 120.668C235.967 120.464 236.003 119.954 236.015 119.138L236.033 118.04V116.852C236.033 116.024 235.967 115.424 235.835 115.052C235.715 114.668 235.481 114.368 235.133 114.152C234.785 113.936 234.389 113.828 233.945 113.828C233.093 113.828 232.499 114.122 232.163 114.71C231.899 115.178 231.767 115.994 231.767 117.158V118.436C231.767 119.564 231.791 120.272 231.839 120.56C231.899 120.836 232.043 120.974 232.271 120.974C232.343 120.974 232.445 120.962 232.577 120.938C232.721 120.902 232.829 120.884 232.901 120.884C233.069 120.884 233.207 120.944 233.315 121.064C233.435 121.172 233.495 121.31 233.495 121.478C233.495 121.874 233.213 122.072 232.649 122.072C232.469 122.072 232.199 122.048 231.839 122C231.491 121.952 231.227 121.928 231.047 121.928C230.795 121.928 230.519 121.952 230.219 122C229.919 122.048 229.655 122.072 229.427 122.072C228.935 122.072 228.689 121.868 228.689 121.46C228.689 121.088 228.869 120.902 229.229 120.902C229.361 120.902 229.463 120.914 229.535 120.938C229.703 120.974 229.829 120.992 229.913 120.992C230.201 120.992 230.351 120.686 230.363 120.074L230.381 119.228C230.393 118.964 230.399 118.706 230.399 118.454C230.411 118.238 230.417 118.124 230.417 118.112V116.618C230.417 115.574 230.273 114.848 229.985 114.44C229.709 114.032 229.211 113.828 228.491 113.828C227.699 113.828 227.093 114.116 226.673 114.692C226.325 115.16 226.151 115.976 226.151 117.14V119.534C226.151 120.014 226.157 120.296 226.169 120.38C226.217 120.788 226.349 120.992 226.565 120.992C226.625 120.992 226.751 120.968 226.943 120.92C226.967 120.92 227.003 120.914 227.051 120.902C227.099 120.902 227.141 120.902 227.177 120.902C227.645 120.902 227.879 121.1 227.879 121.496C227.879 121.88 227.609 122.072 227.069 122.072C226.865 122.072 226.613 122.054 226.313 122.018C225.905 121.97 225.557 121.946 225.269 121.946C225.125 121.946 224.861 121.964 224.477 122C223.961 122.048 223.649 122.072 223.541 122.072C223.061 122.072 222.821 121.868 222.821 121.46C222.821 121.088 223.049 120.902 223.505 120.902C223.529 120.902 223.565 120.902 223.613 120.902C223.661 120.914 223.697 120.92 223.721 120.92L224.171 121.01C224.183 121.022 224.207 121.028 224.243 121.028C224.567 121.028 224.741 120.734 224.765 120.146L224.801 119.12V116.366C224.801 115.346 224.771 114.71 224.711 114.458C224.663 114.206 224.519 114.08 224.279 114.08C224.231 114.08 224.063 114.11 223.775 114.17C223.655 114.194 223.559 114.206 223.487 114.206C223.043 114.206 222.821 114.014 222.821 113.63C222.821 113.222 223.067 113.018 223.559 113.018C223.691 113.018 223.871 113.03 224.099 113.054C224.327 113.078 224.525 113.09 224.693 113.09C224.753 113.09 224.819 113.084 224.891 113.072C224.963 113.072 225.005 113.072 225.017 113.072L225.449 113.018H225.503C225.791 113.018 225.935 113.192 225.935 113.54ZM247.674 122.234C246.69 122.234 246.084 121.808 245.856 120.956C245.244 121.856 244.284 122.306 242.976 122.306C242.004 122.306 241.224 122.066 240.636 121.586C240.06 121.106 239.772 120.464 239.772 119.66C239.772 118.664 240.198 117.932 241.05 117.464C241.374 117.284 241.65 117.17 241.878 117.122C242.118 117.062 242.592 116.99 243.3 116.906C244.308 116.798 244.962 116.648 245.262 116.456C245.574 116.264 245.73 115.91 245.73 115.394C245.73 114.902 245.556 114.518 245.208 114.242C244.872 113.954 244.398 113.81 243.786 113.81C243.246 113.81 242.742 113.96 242.274 114.26C242.094 114.38 242.004 114.506 242.004 114.638C242.004 114.686 242.058 114.746 242.166 114.818C242.334 114.938 242.418 115.142 242.418 115.43C242.418 115.67 242.328 115.868 242.148 116.024C241.98 116.18 241.764 116.258 241.5 116.258C241.188 116.258 240.924 116.15 240.708 115.934C240.504 115.718 240.402 115.454 240.402 115.142C240.402 114.47 240.732 113.894 241.392 113.414C242.064 112.934 242.874 112.694 243.822 112.694C246.006 112.694 247.098 113.744 247.098 115.844V119.48C247.098 120.056 247.11 120.398 247.134 120.506C247.206 120.926 247.41 121.136 247.746 121.136C248.166 121.136 248.376 120.752 248.376 119.984V119.102C248.376 118.718 248.562 118.526 248.934 118.526C249.33 118.526 249.528 118.814 249.528 119.39V119.48L249.51 120.506C249.486 121.658 248.874 122.234 247.674 122.234ZM245.676 118.652L245.694 117.374C245.43 117.614 245.148 117.782 244.848 117.878C244.56 117.974 244.038 118.058 243.282 118.13C241.914 118.262 241.23 118.766 241.23 119.642C241.23 120.098 241.392 120.458 241.716 120.722C242.052 120.986 242.502 121.118 243.066 121.118C243.87 121.118 244.5 120.902 244.956 120.47C245.424 120.026 245.664 119.42 245.676 118.652ZM253.893 112.694C254.697 112.694 255.369 112.904 255.909 113.324V113.252C255.909 112.808 256.101 112.586 256.485 112.586C256.881 112.586 257.079 112.778 257.079 113.162C257.079 113.234 257.067 113.414 257.043 113.702C256.995 113.942 256.971 114.182 256.971 114.422C256.971 114.566 256.989 114.776 257.025 115.052C257.073 115.328 257.097 115.538 257.097 115.682C257.097 116.138 256.899 116.366 256.503 116.366C256.119 116.366 255.921 116.174 255.909 115.79L255.891 115.196C255.879 114.836 255.669 114.53 255.261 114.278C254.865 114.014 254.397 113.882 253.857 113.882C253.305 113.882 252.843 114.026 252.471 114.314C252.099 114.59 251.913 114.938 251.913 115.358C251.913 116.126 252.441 116.582 253.497 116.726L254.541 116.87C256.581 117.146 257.601 117.992 257.601 119.408C257.601 120.272 257.271 120.974 256.611 121.514C255.951 122.042 255.087 122.306 254.019 122.306C253.023 122.306 252.159 122.024 251.427 121.46C251.439 121.58 251.445 121.694 251.445 121.802C251.445 122.234 251.241 122.45 250.833 122.45C250.389 122.45 250.167 122.204 250.167 121.712C250.167 121.796 250.203 121.484 250.275 120.776C250.299 120.608 250.311 120.44 250.311 120.272C250.311 119.984 250.287 119.714 250.239 119.462C250.191 119.21 250.167 119.012 250.167 118.868C250.167 118.448 250.359 118.238 250.743 118.238C250.995 118.238 251.151 118.298 251.211 118.418C251.283 118.538 251.325 118.856 251.337 119.372C251.349 119.888 251.619 120.308 252.147 120.632C252.675 120.956 253.347 121.118 254.163 121.118C254.751 121.118 255.237 120.968 255.621 120.668C256.005 120.368 256.197 119.99 256.197 119.534C256.197 118.718 255.549 118.244 254.253 118.112C253.017 117.98 252.075 117.74 251.427 117.392C250.779 117.032 250.455 116.408 250.455 115.52C250.455 114.68 250.773 114.002 251.409 113.486C252.045 112.958 252.873 112.694 253.893 112.694ZM261.762 117.446L264.84 114.566C264.948 114.47 265.002 114.362 265.002 114.242C265.002 114.122 264.924 114.062 264.768 114.062C264.648 114.062 264.474 114.086 264.246 114.134C264.018 114.182 263.844 114.206 263.724 114.206C263.304 114.206 263.094 114.014 263.094 113.63C263.094 113.21 263.358 113 263.886 113C264.018 113 264.186 113.012 264.39 113.036C265.218 113.132 265.848 113.18 266.28 113.18C266.52 113.18 266.724 113.168 266.892 113.144L267.63 113.036C267.798 113.012 267.936 113 268.044 113C268.632 113 268.926 113.204 268.926 113.612C268.926 113.996 268.722 114.188 268.314 114.188C268.218 114.188 268.08 114.176 267.9 114.152C267.732 114.128 267.6 114.116 267.504 114.116C267.204 114.116 266.892 114.266 266.568 114.566L264.678 116.294C264.546 116.414 264.48 116.51 264.48 116.582C264.48 116.642 264.528 116.732 264.624 116.852L266.928 119.84C267.516 120.596 267.936 120.974 268.188 120.974C268.248 120.974 268.344 120.962 268.476 120.938C268.62 120.902 268.734 120.884 268.818 120.884C269.25 120.884 269.466 121.076 269.466 121.46C269.466 121.868 269.19 122.072 268.638 122.072C268.422 122.072 268.098 122.048 267.666 122C267.246 121.952 266.928 121.928 266.712 121.928C266.52 121.928 266.238 121.952 265.866 122C265.506 122.048 265.236 122.072 265.056 122.072C264.6 122.072 264.372 121.868 264.372 121.46C264.372 121.076 264.588 120.884 265.02 120.884C265.14 120.884 265.236 120.89 265.308 120.902C265.524 120.962 265.662 120.992 265.722 120.992C265.83 120.992 265.884 120.95 265.884 120.866C265.884 120.854 265.884 120.836 265.884 120.812C265.872 120.8 265.866 120.788 265.866 120.776L265.686 120.524L265.452 120.182L263.652 117.788C263.532 117.632 263.436 117.554 263.364 117.554C263.316 117.554 263.226 117.614 263.094 117.734L261.762 118.922V119.336C261.762 119.912 261.768 120.236 261.78 120.308C261.84 120.728 262.008 120.938 262.284 120.938C262.404 120.938 262.506 120.932 262.59 120.92C262.674 120.896 262.788 120.884 262.932 120.884C263.34 120.884 263.544 121.082 263.544 121.478C263.544 121.874 263.316 122.072 262.86 122.072C262.656 122.072 262.344 122.048 261.924 122C261.516 121.94 261.204 121.91 260.988 121.91C260.712 121.91 260.394 121.934 260.034 121.982C259.578 122.042 259.272 122.072 259.116 122.072C258.648 122.072 258.414 121.874 258.414 121.478C258.414 121.082 258.642 120.884 259.098 120.884C259.194 120.884 259.308 120.896 259.44 120.92C259.632 120.956 259.764 120.974 259.836 120.974C260.124 120.974 260.286 120.746 260.322 120.29L260.376 119.588V112.316C260.352 111.668 260.31 111.26 260.25 111.092C260.19 110.912 260.064 110.822 259.872 110.822C259.812 110.822 259.698 110.834 259.53 110.858C259.362 110.918 259.194 110.948 259.026 110.948C258.63 110.948 258.432 110.762 258.432 110.39C258.432 109.982 258.666 109.778 259.134 109.778C259.374 109.778 259.542 109.784 259.638 109.796C259.938 109.832 260.136 109.85 260.232 109.85C260.328 109.85 260.466 109.838 260.646 109.814C260.838 109.778 260.976 109.76 261.06 109.76H261.186C261.57 109.76 261.762 110.006 261.762 110.498V117.446ZM277.989 116.708C277.989 117.164 277.959 117.446 277.899 117.554C277.839 117.65 277.665 117.698 277.377 117.698H271.653C271.497 117.698 271.395 117.722 271.347 117.77C271.299 117.806 271.275 117.872 271.275 117.968C271.275 118.868 271.545 119.618 272.085 120.218C272.625 120.818 273.297 121.118 274.101 121.118C274.629 121.118 275.109 120.974 275.541 120.686C275.985 120.398 276.273 120.032 276.405 119.588L276.567 119.066C276.651 118.778 276.849 118.634 277.161 118.634C277.605 118.634 277.827 118.862 277.827 119.318C277.827 120.098 277.431 120.794 276.639 121.406C275.847 122.006 274.947 122.306 273.939 122.306C272.679 122.306 271.677 121.886 270.933 121.046C270.189 120.194 269.817 119.054 269.817 117.626C269.817 116.162 270.213 114.974 271.005 114.062C271.797 113.15 272.829 112.694 274.101 112.694C275.229 112.694 276.159 113.072 276.891 113.828C277.623 114.584 277.989 115.544 277.989 116.708ZM271.455 116.24C271.455 116.408 271.587 116.492 271.851 116.492H276.153C276.405 116.492 276.531 116.408 276.531 116.24C276.531 115.604 276.291 115.052 275.811 114.584C275.331 114.116 274.767 113.882 274.119 113.882C273.447 113.882 272.835 114.128 272.283 114.62C271.731 115.1 271.455 115.64 271.455 116.24ZM282.045 113.522V114.008C282.669 113.132 283.503 112.694 284.547 112.694C285.387 112.694 286.065 112.934 286.581 113.414C287.109 113.882 287.373 114.488 287.373 115.232C287.373 115.76 287.241 116.192 286.977 116.528C286.713 116.852 286.365 117.014 285.933 117.014C285.657 117.014 285.423 116.93 285.231 116.762C285.039 116.594 284.943 116.39 284.943 116.15C284.943 115.958 285.015 115.79 285.159 115.646C285.303 115.49 285.471 115.412 285.663 115.412C285.699 115.412 285.777 115.43 285.897 115.466C285.969 115.322 286.005 115.19 286.005 115.07C286.005 114.722 285.849 114.428 285.537 114.188C285.237 113.948 284.859 113.828 284.403 113.828C283.467 113.828 282.843 114.248 282.531 115.088C282.339 115.604 282.243 116.384 282.243 117.428V118.616C282.243 119.42 282.249 119.87 282.261 119.966C282.321 120.65 282.507 120.992 282.819 120.992C282.975 120.992 283.137 120.968 283.305 120.92C283.437 120.884 283.551 120.866 283.647 120.866C284.031 120.866 284.223 121.058 284.223 121.442C284.223 121.862 283.977 122.072 283.485 122.072H283.413C283.233 122.072 282.957 122.048 282.585 122C282.225 121.964 281.955 121.946 281.775 121.946C281.295 121.946 280.917 121.958 280.641 121.982L279.633 122.072C279.141 122.072 278.895 121.862 278.895 121.442C278.895 121.07 279.123 120.884 279.579 120.884C279.699 120.884 279.789 120.89 279.849 120.902L280.119 120.956C280.239 120.98 280.323 120.992 280.371 120.992C280.671 120.992 280.833 120.716 280.857 120.164L280.893 119.246L280.839 115.16C280.803 114.452 280.623 114.098 280.299 114.098C280.203 114.098 280.071 114.116 279.903 114.152C279.735 114.188 279.603 114.206 279.507 114.206C279.111 114.206 278.913 114.014 278.913 113.63C278.913 113.21 279.171 113 279.687 113C279.807 113 279.987 113.018 280.227 113.054C280.467 113.078 280.647 113.09 280.767 113.09C280.863 113.09 281.019 113.078 281.235 113.054C281.331 113.03 281.445 113.018 281.577 113.018C281.889 113.018 282.045 113.186 282.045 113.522ZM288.262 122.306C287.95 122.306 287.686 122.198 287.47 121.982C287.254 121.754 287.146 121.484 287.146 121.172C287.146 120.86 287.254 120.596 287.47 120.38C287.686 120.152 287.95 120.038 288.262 120.038C288.574 120.038 288.838 120.152 289.054 120.38C289.27 120.596 289.378 120.86 289.378 121.172C289.378 121.484 289.27 121.754 289.054 121.982C288.838 122.198 288.574 122.306 288.262 122.306ZM296.676 116.06C296.676 115.58 296.976 115.304 297.576 115.232C297.516 114.812 297.312 114.482 296.964 114.242C296.628 114.002 296.19 113.882 295.65 113.882C294.822 113.882 294.156 114.212 293.652 114.872C293.148 115.532 292.896 116.408 292.896 117.5C292.896 118.628 293.13 119.516 293.598 120.164C294.078 120.8 294.738 121.118 295.578 121.118C296.106 121.118 296.562 120.968 296.946 120.668C297.342 120.368 297.612 119.954 297.756 119.426C297.876 119.006 297.948 118.766 297.972 118.706C298.104 118.466 298.296 118.346 298.548 118.346C298.752 118.346 298.92 118.412 299.052 118.544C299.184 118.676 299.25 118.844 299.25 119.048C299.25 119.348 299.154 119.708 298.962 120.128C298.77 120.548 298.542 120.896 298.278 121.172C297.57 121.928 296.652 122.306 295.524 122.306C294.3 122.306 293.31 121.874 292.554 121.01C291.81 120.146 291.438 119.012 291.438 117.608C291.438 116.12 291.822 114.932 292.59 114.044C293.37 113.144 294.402 112.694 295.686 112.694C296.646 112.694 297.444 112.958 298.08 113.486C298.716 114.002 299.034 114.662 299.034 115.466C299.034 115.91 298.908 116.276 298.656 116.564C298.416 116.852 298.104 116.996 297.72 116.996C297.42 116.996 297.168 116.906 296.964 116.726C296.772 116.546 296.676 116.324 296.676 116.06ZM304.754 122.306C303.494 122.306 302.486 121.874 301.73 121.01C300.974 120.134 300.596 118.964 300.596 117.5C300.596 116.036 300.974 114.872 301.73 114.008C302.498 113.132 303.524 112.694 304.808 112.694C306.116 112.694 307.148 113.12 307.904 113.972C308.66 114.824 309.038 115.982 309.038 117.446C309.038 118.91 308.648 120.086 307.868 120.974C307.088 121.862 306.05 122.306 304.754 122.306ZM304.844 113.882C304.004 113.882 303.344 114.176 302.864 114.764C302.384 115.352 302.12 116.186 302.072 117.266C302.072 117.266 302.072 117.344 302.072 117.5C302.072 118.628 302.306 119.516 302.774 120.164C303.254 120.8 303.92 121.118 304.772 121.118C305.648 121.118 306.332 120.8 306.824 120.164C307.328 119.516 307.58 118.622 307.58 117.482C307.58 115.082 306.668 113.882 304.844 113.882ZM313.14 113.54V114.062C313.572 113.546 313.98 113.192 314.364 113C314.748 112.796 315.228 112.694 315.804 112.694C316.98 112.694 317.844 113.15 318.396 114.062C318.804 113.558 319.218 113.204 319.638 113C320.058 112.796 320.598 112.694 321.258 112.694C321.942 112.694 322.554 112.838 323.094 113.126C323.694 113.45 324.108 113.906 324.336 114.494C324.492 114.89 324.57 115.514 324.57 116.366V118.112L324.552 119.462C324.552 119.954 324.558 120.254 324.57 120.362C324.63 120.794 324.786 121.01 325.038 121.01C325.122 121.01 325.248 120.992 325.416 120.956C325.584 120.92 325.71 120.902 325.794 120.902C326.214 120.902 326.424 121.082 326.424 121.442C326.424 121.862 326.184 122.072 325.704 122.072C325.524 122.072 325.248 122.048 324.876 122C324.516 121.964 324.24 121.946 324.048 121.946C323.844 121.946 323.544 121.964 323.148 122C322.764 122.048 322.47 122.072 322.266 122.072C321.762 122.072 321.51 121.862 321.51 121.442C321.51 121.082 321.702 120.902 322.086 120.902C322.134 120.902 322.254 120.914 322.446 120.938C322.518 120.962 322.614 120.974 322.734 120.974C322.938 120.974 323.064 120.872 323.112 120.668C323.172 120.464 323.208 119.954 323.22 119.138L323.238 118.04V116.852C323.238 116.024 323.172 115.424 323.04 115.052C322.92 114.668 322.686 114.368 322.338 114.152C321.99 113.936 321.594 113.828 321.15 113.828C320.298 113.828 319.704 114.122 319.368 114.71C319.104 115.178 318.972 115.994 318.972 117.158V118.436C318.972 119.564 318.996 120.272 319.044 120.56C319.104 120.836 319.248 120.974 319.476 120.974C319.548 120.974 319.65 120.962 319.782 120.938C319.926 120.902 320.034 120.884 320.106 120.884C320.274 120.884 320.412 120.944 320.52 121.064C320.64 121.172 320.7 121.31 320.7 121.478C320.7 121.874 320.418 122.072 319.854 122.072C319.674 122.072 319.404 122.048 319.044 122C318.696 121.952 318.432 121.928 318.252 121.928C318 121.928 317.724 121.952 317.424 122C317.124 122.048 316.86 122.072 316.632 122.072C316.14 122.072 315.894 121.868 315.894 121.46C315.894 121.088 316.074 120.902 316.434 120.902C316.566 120.902 316.668 120.914 316.74 120.938C316.908 120.974 317.034 120.992 317.118 120.992C317.406 120.992 317.556 120.686 317.568 120.074L317.586 119.228C317.598 118.964 317.604 118.706 317.604 118.454C317.616 118.238 317.622 118.124 317.622 118.112V116.618C317.622 115.574 317.478 114.848 317.19 114.44C316.914 114.032 316.416 113.828 315.696 113.828C314.904 113.828 314.298 114.116 313.878 114.692C313.53 115.16 313.356 115.976 313.356 117.14V119.534C313.356 120.014 313.362 120.296 313.374 120.38C313.422 120.788 313.554 120.992 313.77 120.992C313.83 120.992 313.956 120.968 314.148 120.92C314.172 120.92 314.208 120.914 314.256 120.902C314.304 120.902 314.346 120.902 314.382 120.902C314.85 120.902 315.084 121.1 315.084 121.496C315.084 121.88 314.814 122.072 314.274 122.072C314.07 122.072 313.818 122.054 313.518 122.018C313.11 121.97 312.762 121.946 312.474 121.946C312.33 121.946 312.066 121.964 311.682 122C311.166 122.048 310.854 122.072 310.746 122.072C310.266 122.072 310.026 121.868 310.026 121.46C310.026 121.088 310.254 120.902 310.71 120.902C310.734 120.902 310.77 120.902 310.818 120.902C310.866 120.914 310.902 120.92 310.926 120.92L311.376 121.01C311.388 121.022 311.412 121.028 311.448 121.028C311.772 121.028 311.946 120.734 311.97 120.146L312.006 119.12V116.366C312.006 115.346 311.976 114.71 311.916 114.458C311.868 114.206 311.724 114.08 311.484 114.08C311.436 114.08 311.268 114.11 310.98 114.17C310.86 114.194 310.764 114.206 310.692 114.206C310.248 114.206 310.026 114.014 310.026 113.63C310.026 113.222 310.272 113.018 310.764 113.018C310.896 113.018 311.076 113.03 311.304 113.054C311.532 113.078 311.73 113.09 311.898 113.09C311.958 113.09 312.024 113.084 312.096 113.072C312.168 113.072 312.21 113.072 312.222 113.072L312.654 113.018H312.708C312.996 113.018 313.14 113.192 313.14 113.54Z" fill="black"/>
<path d="M91.6064 78H92.9248L93.9971 75.0029H99.4727L100.527 78H101.837L97.2314 65.5811H96.2207L91.6064 78ZM94.375 73.957L96.7305 67.2686L99.0947 73.957H94.375ZM107.04 78.1318C108.446 78.1318 109.668 77.332 110.213 76.0049L110.257 78H111.347V65.5811H110.169V71.1533C109.624 69.8613 108.402 69.0791 107.022 69.0791C104.658 69.0791 103.12 71.1182 103.12 73.5967C103.12 76.1016 104.658 78.1318 107.04 78.1318ZM107.295 77.0771C105.467 77.0771 104.298 75.5566 104.298 73.5967C104.298 71.6543 105.467 70.1426 107.295 70.1426C109.123 70.1426 110.257 71.6367 110.257 73.5967C110.257 75.583 109.123 77.0771 107.295 77.0771ZM117.71 78.1318C119.116 78.1318 120.338 77.332 120.883 76.0049L120.927 78H122.017V65.5811H120.839V71.1533C120.294 69.8613 119.072 69.0791 117.692 69.0791C115.328 69.0791 113.79 71.1182 113.79 73.5967C113.79 76.1016 115.328 78.1318 117.71 78.1318ZM117.965 77.0771C116.137 77.0771 114.968 75.5566 114.968 73.5967C114.968 71.6543 116.137 70.1426 117.965 70.1426C119.793 70.1426 120.927 71.6367 120.927 73.5967C120.927 75.583 119.793 77.0771 117.965 77.0771ZM132.238 70.6523L130.401 65.5811H129.074L131.43 70.6523H132.238ZM135.209 70.6523L133.372 65.5811H132.045L134.4 70.6523H135.209ZM138.47 78H139.639V76.0664H138.47V78ZM146.547 65.5811V66.6533C146.547 67.3213 146.178 67.585 145.492 67.585H143.383V68.5254H146.503V78H147.689V65.5811H146.547ZM159.001 73.9307V65.5811H157.902L151.592 74.2646V75.0381H157.806V78H159.001V75.0381H161.022V73.9307H159.001ZM153.112 73.9307L157.806 67.3564V73.9307H153.112ZM166.138 78.1318C167.544 78.1318 168.766 77.332 169.311 76.0049L169.354 78H170.444V65.5811H169.267V71.1533C168.722 69.8613 167.5 69.0791 166.12 69.0791C163.756 69.0791 162.218 71.1182 162.218 73.5967C162.218 76.1016 163.756 78.1318 166.138 78.1318ZM166.393 77.0771C164.564 77.0771 163.396 75.5566 163.396 73.5967C163.396 71.6543 164.564 70.1426 166.393 70.1426C168.221 70.1426 169.354 71.6367 169.354 73.5967C169.354 75.583 168.221 77.0771 166.393 77.0771ZM173.116 70.6523H173.925L176.28 65.5811H174.953L173.116 70.6523ZM176.087 70.6523H176.896L179.251 65.5811H177.924L176.087 70.6523ZM180.64 80.7686H181.448L183.804 75.6973H182.477L180.64 80.7686ZM193.762 78.1318C195.476 78.1318 196.882 77.2441 196.882 75.4863C196.882 72.1201 191.758 73.5264 191.758 71.3467C191.758 70.5645 192.479 70.0195 193.612 70.0195C194.685 70.0195 195.414 70.6084 195.836 71.3994L196.732 70.916C196.117 69.7559 195.036 69.0791 193.647 69.0791C191.969 69.0791 190.642 69.9316 190.642 71.4961C190.642 74.6689 195.739 73.1572 195.739 75.5391C195.739 76.4619 195.036 77.1562 193.709 77.1562C192.347 77.1562 191.477 76.3477 191.143 75.4072L190.202 75.8203C190.65 77.1562 192.03 78.1318 193.762 78.1318ZM202.041 78.1318C203.201 78.1318 204.247 77.5781 204.792 76.5059V78H205.943V69.2197H204.792V74.4053C204.792 76.1191 203.825 77.0508 202.349 77.0508C200.907 77.0508 200.151 76.1104 200.151 74.5107V69.2197H199V74.7744C199.035 76.6729 199.984 78.1318 202.041 78.1318ZM212.263 78.1318C213.88 78.1318 215.154 77.2441 215.69 75.7148L214.627 75.3105C214.275 76.4004 213.396 77.0771 212.254 77.0771C210.355 77.0771 209.485 75.4336 209.485 73.623C209.485 71.8389 210.355 70.1426 212.245 70.1426C213.37 70.1426 214.258 70.8281 214.671 71.9268L215.778 71.4961C215.128 69.9141 213.845 69.0791 212.245 69.0791C209.608 69.0791 208.308 71.3203 208.308 73.623C208.308 76.1104 209.74 78.1318 212.263 78.1318ZM217.976 78H219.153V72.9902C219.153 71.3115 220.059 70.1426 221.623 70.1426C223.161 70.1426 223.776 71.1445 223.776 72.709V78H224.954V72.4365C224.919 70.5381 223.935 69.0791 221.887 69.0791C220.727 69.0791 219.707 69.6416 219.153 70.7139V65.5811H217.976V78ZM235.439 69.0791C233.884 69.0791 232.864 69.7119 232.012 70.8896L232.899 71.54C233.506 70.6348 234.279 70.1074 235.448 70.1074C237.206 70.1074 237.883 70.9863 237.883 72.8408V72.9463H235.352C233.084 72.9463 231.669 73.667 231.669 75.4512C231.669 77.1387 232.917 78.1318 234.701 78.1318C236.011 78.1318 237.232 77.4902 237.892 76.2158L237.971 78H238.938V72.6387C238.938 70.4326 237.689 69.0791 235.439 69.0791ZM234.921 77.1387C233.603 77.1387 232.855 76.4883 232.855 75.4863C232.855 74.4316 233.682 73.8076 235.413 73.8076H237.883V74.7041C237.479 76.1455 236.45 77.1387 234.921 77.1387ZM244.457 78.1318C246.171 78.1318 247.577 77.2441 247.577 75.4863C247.577 72.1201 242.453 73.5264 242.453 71.3467C242.453 70.5645 243.174 70.0195 244.308 70.0195C245.38 70.0195 246.109 70.6084 246.531 71.3994L247.428 70.916C246.812 69.7559 245.731 69.0791 244.343 69.0791C242.664 69.0791 241.337 69.9316 241.337 71.4961C241.337 74.6689 246.435 73.1572 246.435 75.5391C246.435 76.4619 245.731 77.1562 244.404 77.1562C243.042 77.1562 242.172 76.3477 241.838 75.4072L240.897 75.8203C241.346 77.1562 242.726 78.1318 244.457 78.1318ZM250.645 71.5488H251.901V69.6152H250.645V71.5488ZM250.645 78H251.901V76.0664H250.645V78Z" fill="#071435"/>
<path d="M36.5352 158.079C34.9795 158.079 33.96 158.712 33.1074 159.89L33.9951 160.54C34.6016 159.635 35.375 159.107 36.5439 159.107C38.3018 159.107 38.9785 159.986 38.9785 161.841V161.946H36.4473C34.1797 161.946 32.7646 162.667 32.7646 164.451C32.7646 166.139 34.0127 167.132 35.7969 167.132C37.1064 167.132 38.3281 166.49 38.9873 165.216L39.0664 167H40.0332V161.639C40.0332 159.433 38.7852 158.079 36.5352 158.079ZM36.0166 166.139C34.6982 166.139 33.9512 165.488 33.9512 164.486C33.9512 163.432 34.7773 162.808 36.5088 162.808H38.9785V163.704C38.5742 165.146 37.5459 166.139 36.0166 166.139ZM42.9424 167H44.1025V161.806C44.1025 160.101 45.0605 159.16 46.5459 159.16C47.9873 159.16 48.7432 160.109 48.7432 161.709V167H49.9033V161.437C49.8682 159.538 48.9014 158.079 46.8535 158.079C45.6934 158.079 44.6562 158.642 44.1025 159.714V158.22H42.9424V167ZM56.0205 167.132C57.4268 167.132 58.6484 166.332 59.1934 165.005L59.2373 167H60.3271V154.581H59.1494V160.153C58.6045 158.861 57.3828 158.079 56.0029 158.079C53.6387 158.079 52.1006 160.118 52.1006 162.597C52.1006 165.102 53.6387 167.132 56.0205 167.132ZM56.2754 166.077C54.4473 166.077 53.2783 164.557 53.2783 162.597C53.2783 160.654 54.4473 159.143 56.2754 159.143C58.1035 159.143 59.2373 160.637 59.2373 162.597C59.2373 164.583 58.1035 166.077 56.2754 166.077ZM68.7031 167H69.8984V159.204H72.4736V158.22H69.8984V156.963C69.8984 155.952 70.4082 155.486 71.3047 155.486C71.5684 155.486 71.8408 155.583 72.1221 155.732L72.5088 154.774C72.1045 154.572 71.665 154.449 71.1992 154.449C69.7402 154.449 68.7119 155.275 68.7119 156.857V158.22H66.875V159.204H68.7031V167ZM77.4834 167.132C79.9883 167.132 81.7549 165.11 81.7549 162.588C81.7549 160.083 79.9883 158.079 77.4834 158.079C74.9873 158.079 73.2471 160.083 73.2471 162.588C73.2471 165.119 74.9873 167.132 77.4834 167.132ZM77.4834 166.121C75.585 166.121 74.4512 164.539 74.4512 162.588C74.4512 160.646 75.585 159.099 77.4834 159.099C79.3994 159.099 80.5508 160.654 80.5508 162.588C80.5508 164.53 79.3994 166.121 77.4834 166.121ZM84.1455 167H85.2705V162.518C85.2705 160.136 86.6592 159.213 87.8281 159.213C88.1797 159.213 88.5225 159.301 88.8301 159.468L89.3574 158.501C88.9795 158.22 88.4785 158.079 87.9863 158.079C86.9404 158.079 85.7188 158.703 85.2793 160.057V158.22H84.1455V167ZM92.8291 167H93.9277L96.3271 159.819L98.7266 167H99.8252L102.392 158.22H101.144L99.21 165.242L96.8633 158.22H95.7998L93.4443 165.251L91.5195 158.22H90.2715L92.8291 167ZM107.322 158.079C105.767 158.079 104.747 158.712 103.895 159.89L104.782 160.54C105.389 159.635 106.162 159.107 107.331 159.107C109.089 159.107 109.766 159.986 109.766 161.841V161.946H107.234C104.967 161.946 103.552 162.667 103.552 164.451C103.552 166.139 104.8 167.132 106.584 167.132C107.894 167.132 109.115 166.49 109.774 165.216L109.854 167H110.82V161.639C110.82 159.433 109.572 158.079 107.322 158.079ZM106.804 166.139C105.485 166.139 104.738 165.488 104.738 164.486C104.738 163.432 105.564 162.808 107.296 162.808H109.766V163.704C109.361 165.146 108.333 166.139 106.804 166.139ZM113.729 167H114.854V162.518C114.854 160.136 116.243 159.213 117.412 159.213C117.764 159.213 118.106 159.301 118.414 159.468L118.941 158.501C118.563 158.22 118.062 158.079 117.57 158.079C116.524 158.079 115.303 158.703 114.863 160.057V158.22H113.729V167ZM123.292 167.132C124.698 167.132 125.92 166.332 126.465 165.005L126.509 167H127.599V154.581H126.421V160.153C125.876 158.861 124.654 158.079 123.274 158.079C120.91 158.079 119.372 160.118 119.372 162.597C119.372 165.102 120.91 167.132 123.292 167.132ZM123.547 166.077C121.719 166.077 120.55 164.557 120.55 162.597C120.55 160.654 121.719 159.143 123.547 159.143C125.375 159.143 126.509 160.637 126.509 162.597C126.509 164.583 125.375 166.077 123.547 166.077ZM130.736 156.383H131.949V154.581H130.736V156.383ZM130.763 167H131.914V158.22H130.763V167ZM135.069 167H136.229V161.806C136.229 160.101 137.188 159.16 138.673 159.16C140.114 159.16 140.87 160.109 140.87 161.709V167H142.03V161.437C141.995 159.538 141.028 158.079 138.98 158.079C137.82 158.079 136.783 158.642 136.229 159.714V158.22H135.069V167ZM149.22 165.84H147.251C146.293 165.84 145.52 165.576 145.502 164.706C145.484 164.302 145.634 163.95 146.082 163.616C146.601 163.941 147.251 164.117 147.972 164.117C149.826 164.117 151.232 162.939 151.232 161.146C151.232 160.575 151.092 160.039 150.828 159.591L152.164 158.431L151.566 157.675L150.222 158.861C149.659 158.369 148.895 158.079 147.98 158.079C146.1 158.079 144.702 159.327 144.702 161.103C144.702 161.85 144.948 162.509 145.379 163.019C144.685 163.528 144.395 164.144 144.412 164.812C144.43 165.717 144.948 166.279 145.572 166.569L144.192 167.519C144.14 167.703 144.113 167.896 144.113 168.107C144.113 169.988 145.854 171.017 148.297 171.017C150.705 171.017 152.006 169.918 152.006 168.23C152.006 166.631 150.863 165.84 149.22 165.84ZM147.998 159.02C149.29 159.02 150.107 159.907 150.107 161.129C150.107 162.333 149.29 163.177 147.989 163.177C146.688 163.177 145.862 162.324 145.862 161.12C145.862 159.916 146.706 159.02 147.998 159.02ZM148.227 170.103C145.827 170.103 145.203 169.074 145.203 168.09V167.844L146.302 166.798C146.434 166.815 146.565 166.824 146.688 166.824H148.771C150.151 166.824 150.89 167.343 150.89 168.327C150.89 169.584 149.747 170.103 148.227 170.103ZM161.797 158.079C160.241 158.079 159.222 158.712 158.369 159.89L159.257 160.54C159.863 159.635 160.637 159.107 161.806 159.107C163.563 159.107 164.24 159.986 164.24 161.841V161.946H161.709C159.441 161.946 158.026 162.667 158.026 164.451C158.026 166.139 159.274 167.132 161.059 167.132C162.368 167.132 163.59 166.49 164.249 165.216L164.328 167H165.295V161.639C165.295 159.433 164.047 158.079 161.797 158.079ZM161.278 166.139C159.96 166.139 159.213 165.488 159.213 164.486C159.213 163.432 160.039 162.808 161.771 162.808H164.24V163.704C163.836 165.146 162.808 166.139 161.278 166.139ZM170.867 167.132C172.027 167.132 173.073 166.578 173.618 165.506V167H174.77V158.22H173.618V163.405C173.618 165.119 172.651 166.051 171.175 166.051C169.733 166.051 168.978 165.11 168.978 163.511V158.22H167.826V163.774C167.861 165.673 168.811 167.132 170.867 167.132ZM180.597 167.132C181.089 167.132 181.563 167.044 181.836 166.956L181.818 165.893C181.572 165.989 181.177 166.104 180.79 166.104C179.858 166.104 179.366 165.594 179.366 164.354V159.204H181.827V158.22H179.366V154.827L178.224 155.68V158.22H176.747V159.204H178.206V164.539C178.206 166.218 179.041 167.132 180.597 167.132ZM187.487 167.132C189.992 167.132 191.759 165.11 191.759 162.588C191.759 160.083 189.992 158.079 187.487 158.079C184.991 158.079 183.251 160.083 183.251 162.588C183.251 165.119 184.991 167.132 187.487 167.132ZM187.487 166.121C185.589 166.121 184.455 164.539 184.455 162.588C184.455 160.646 185.589 159.099 187.487 159.099C189.403 159.099 190.555 160.654 190.555 162.588C190.555 164.53 189.403 166.121 187.487 166.121ZM194.07 161.981H198.816V161.076H194.07V161.981ZM204.494 167.132C206.208 167.132 207.614 166.244 207.614 164.486C207.614 161.12 202.49 162.526 202.49 160.347C202.49 159.564 203.211 159.02 204.345 159.02C205.417 159.02 206.146 159.608 206.568 160.399L207.465 159.916C206.85 158.756 205.769 158.079 204.38 158.079C202.701 158.079 201.374 158.932 201.374 160.496C201.374 163.669 206.472 162.157 206.472 164.539C206.472 165.462 205.769 166.156 204.441 166.156C203.079 166.156 202.209 165.348 201.875 164.407L200.935 164.82C201.383 166.156 202.763 167.132 204.494 167.132ZM212.712 167.132C213.204 167.132 213.679 167.044 213.951 166.956L213.934 165.893C213.688 165.989 213.292 166.104 212.905 166.104C211.974 166.104 211.481 165.594 211.481 164.354V159.204H213.942V158.22H211.481V154.827L210.339 155.68V158.22H208.862V159.204H210.321V164.539C210.321 166.218 211.156 167.132 212.712 167.132ZM219.603 167.132C222.107 167.132 223.874 165.11 223.874 162.588C223.874 160.083 222.107 158.079 219.603 158.079C217.106 158.079 215.366 160.083 215.366 162.588C215.366 165.119 217.106 167.132 219.603 167.132ZM219.603 166.121C217.704 166.121 216.57 164.539 216.57 162.588C216.57 160.646 217.704 159.099 219.603 159.099C221.519 159.099 222.67 160.654 222.67 162.588C222.67 164.53 221.519 166.121 219.603 166.121ZM226.282 170.639H227.478V165.066C228.031 166.35 229.218 167.132 230.615 167.132C232.988 167.132 234.351 165.11 234.351 162.614C234.351 160.127 232.988 158.079 230.633 158.079C229.244 158.079 228.031 158.861 227.478 160.162V158.22H226.282V170.639ZM230.36 166.077C228.532 166.077 227.381 164.583 227.381 162.614C227.381 160.646 228.532 159.16 230.36 159.16C232.197 159.16 233.182 160.663 233.182 162.614C233.182 164.557 232.197 166.077 230.36 166.077ZM239.422 167.132C241.136 167.132 242.542 166.244 242.542 164.486C242.542 161.12 237.418 162.526 237.418 160.347C237.418 159.564 238.139 159.02 239.272 159.02C240.345 159.02 241.074 159.608 241.496 160.399L242.393 159.916C241.777 158.756 240.696 158.079 239.308 158.079C237.629 158.079 236.302 158.932 236.302 160.496C236.302 163.669 241.399 162.157 241.399 164.539C241.399 165.462 240.696 166.156 239.369 166.156C238.007 166.156 237.137 165.348 236.803 164.407L235.862 164.82C236.311 166.156 237.69 167.132 239.422 167.132ZM249.547 156.383H250.76V154.581H249.547V156.383ZM249.573 167H250.725V158.22H249.573V167ZM253.88 167H255.04V161.806C255.04 160.101 255.998 159.16 257.483 159.16C258.925 159.16 259.681 160.109 259.681 161.709V167H260.841V161.437C260.806 159.538 259.839 158.079 257.791 158.079C256.631 158.079 255.594 158.642 255.04 159.714V158.22H253.88V167ZM272.152 154.581V155.653C272.152 156.321 271.783 156.585 271.098 156.585H268.988V157.525H272.108V167H273.295V154.581H272.152ZM284.606 162.931V154.581H283.508L277.197 163.265V164.038H283.411V167H284.606V164.038H286.628V162.931H284.606ZM278.718 162.931L283.411 156.356V162.931H278.718ZM296.349 167.132C297.755 167.132 298.977 166.332 299.521 165.005L299.565 167H300.655V154.581H299.478V160.153C298.933 158.861 297.711 158.079 296.331 158.079C293.967 158.079 292.429 160.118 292.429 162.597C292.429 165.102 293.967 167.132 296.349 167.132ZM296.604 166.077C294.775 166.077 293.606 164.557 293.606 162.597C293.606 160.654 294.775 159.143 296.604 159.143C298.432 159.143 299.565 160.637 299.565 162.597C299.565 164.583 298.432 166.077 296.604 166.077ZM306.746 158.079C305.19 158.079 304.171 158.712 303.318 159.89L304.206 160.54C304.812 159.635 305.586 159.107 306.755 159.107C308.513 159.107 309.189 159.986 309.189 161.841V161.946H306.658C304.391 161.946 302.976 162.667 302.976 164.451C302.976 166.139 304.224 167.132 306.008 167.132C307.317 167.132 308.539 166.49 309.198 165.216L309.277 167H310.244V161.639C310.244 159.433 308.996 158.079 306.746 158.079ZM306.228 166.139C304.909 166.139 304.162 165.488 304.162 164.486C304.162 163.432 304.988 162.808 306.72 162.808H309.189V163.704C308.785 165.146 307.757 166.139 306.228 166.139ZM313.9 170.762H315.166L319.982 158.22H318.717L316.01 165.532L312.934 158.22H311.659L315.395 166.895L313.9 170.762ZM324.342 167.132C326.056 167.132 327.462 166.244 327.462 164.486C327.462 161.12 322.338 162.526 322.338 160.347C322.338 159.564 323.059 159.02 324.192 159.02C325.265 159.02 325.994 159.608 326.416 160.399L327.312 159.916C326.697 158.756 325.616 158.079 324.228 158.079C322.549 158.079 321.222 158.932 321.222 160.496C321.222 163.669 326.319 162.157 326.319 164.539C326.319 165.462 325.616 166.156 324.289 166.156C322.927 166.156 322.057 165.348 321.723 164.407L320.782 164.82C321.23 166.156 322.61 167.132 324.342 167.132Z" fill="#071435"/>
</svg>
