<svg width="882" height="100" viewBox="0 0 882 100" fill="none" xmlns="http://www.w3.org/2000/svg">
<rect width="882" height="100" rx="10" fill="white" fill-opacity="0.8"/>
<rect x="0.5" y="0.5" width="881" height="99" rx="9.5" stroke="black" stroke-opacity="0.1" stroke-linecap="round"/>
<rect x="112" y="49" width="284" height="36" rx="4" fill="#C4C4C4" fill-opacity="0.1"/>
<rect x="112.5" y="49.5" width="283" height="35" rx="3.5" stroke="#071435" stroke-opacity="0.1" stroke-linecap="round"/>
<path d="M120.322 70.2L122.824 67.338L120.322 64.386C120.154 64.194 119.95 64.098 119.71 64.098C119.614 64.098 119.542 64.104 119.494 64.116L119.188 64.188C119.14 64.2 119.056 64.206 118.936 64.206C118.54 64.206 118.342 64.014 118.342 63.63C118.342 63.222 118.588 63.018 119.08 63.018H119.134C119.146 63.018 119.446 63.042 120.034 63.09C120.334 63.114 120.586 63.126 120.79 63.126C120.994 63.126 121.288 63.108 121.672 63.072C122.056 63.036 122.344 63.018 122.536 63.018C123.028 63.018 123.274 63.222 123.274 63.63C123.274 64.014 123.046 64.206 122.59 64.206C122.494 64.206 122.404 64.194 122.32 64.17L122.05 64.098H121.942C121.894 64.098 121.87 64.11 121.87 64.134C121.894 64.206 121.948 64.29 122.032 64.386L123.67 66.366L125.38 64.386C125.488 64.266 125.542 64.182 125.542 64.134C125.53 64.11 125.5 64.098 125.452 64.098C125.392 64.098 125.29 64.116 125.146 64.152C125.014 64.188 124.912 64.206 124.84 64.206C124.408 64.206 124.192 64.002 124.192 63.594C124.192 63.198 124.444 63 124.948 63C124.924 63 125.242 63.03 125.902 63.09C126.166 63.114 126.448 63.126 126.748 63.126C127.048 63.126 127.366 63.108 127.702 63.072C128.038 63.036 128.278 63.018 128.422 63.018C128.95 63.018 129.214 63.222 129.214 63.63C129.214 64.026 129.01 64.224 128.602 64.224C128.506 64.224 128.368 64.2 128.188 64.152C128.008 64.104 127.87 64.08 127.774 64.08C127.486 64.08 127.09 64.368 126.586 64.944L124.498 67.32L127.306 70.632C127.474 70.836 127.678 70.938 127.918 70.938C127.99 70.938 128.098 70.926 128.242 70.902C128.398 70.878 128.512 70.866 128.584 70.866C129.016 70.866 129.232 71.058 129.232 71.442C129.232 71.862 128.98 72.072 128.476 72.072H128.332L127.63 71.982C127.438 71.958 127.15 71.946 126.766 71.946C126.442 71.946 126.118 71.964 125.794 72L125.146 72.072H124.948C124.384 72.072 124.102 71.88 124.102 71.496C124.102 71.076 124.324 70.866 124.768 70.866C124.924 70.866 125.146 70.89 125.434 70.938C125.458 70.95 125.5 70.956 125.56 70.956C125.68 70.956 125.74 70.908 125.74 70.812C125.74 70.776 125.722 70.74 125.686 70.704L125.632 70.632L123.634 68.292L121.6 70.632C121.516 70.728 121.474 70.8 121.474 70.848C121.474 70.908 121.534 70.938 121.654 70.938C121.738 70.938 121.864 70.926 122.032 70.902C122.2 70.878 122.326 70.866 122.41 70.866C122.926 70.866 123.184 71.076 123.184 71.496C123.184 71.88 122.926 72.072 122.41 72.072H122.158L121.438 72C121.078 71.964 120.76 71.946 120.484 71.946C120.268 71.946 120.01 71.964 119.71 72C119.302 72.048 119.002 72.072 118.81 72.072C118.306 72.072 118.054 71.868 118.054 71.46C118.054 71.064 118.27 70.866 118.702 70.866C118.774 70.866 118.882 70.878 119.026 70.902C119.17 70.914 119.278 70.92 119.35 70.92C119.578 70.92 119.902 70.68 120.322 70.2ZM132.989 64.728L135.059 70.812L137.255 64.818C137.315 64.65 137.345 64.518 137.345 64.422C137.345 64.218 137.207 64.116 136.931 64.116C136.787 64.116 136.673 64.128 136.589 64.152C136.397 64.176 136.271 64.188 136.211 64.188C135.815 64.188 135.617 63.996 135.617 63.612C135.617 63.204 135.875 63 136.391 63C136.463 63 136.583 63.012 136.751 63.036L137.399 63.126C137.567 63.15 137.747 63.162 137.939 63.162C138.143 63.162 138.443 63.138 138.839 63.09C139.235 63.042 139.535 63.018 139.739 63.018C140.255 63.018 140.513 63.216 140.513 63.612C140.513 63.996 140.315 64.188 139.919 64.188C139.799 64.188 139.709 64.176 139.649 64.152C139.493 64.116 139.385 64.098 139.325 64.098C139.097 64.098 138.863 64.404 138.623 65.016L136.175 71.136C135.635 72.492 135.125 73.476 134.645 74.088C133.829 75.132 132.809 75.654 131.585 75.654C130.853 75.654 130.235 75.468 129.731 75.096C129.239 74.724 128.993 74.274 128.993 73.746C128.993 73.374 129.101 73.068 129.317 72.828C129.533 72.6 129.815 72.486 130.163 72.486C130.439 72.486 130.667 72.564 130.847 72.72C131.027 72.888 131.117 73.092 131.117 73.332C131.117 73.716 130.943 73.962 130.595 74.07C130.775 74.334 131.117 74.466 131.621 74.466C132.257 74.466 132.827 74.226 133.331 73.746C133.847 73.278 134.105 72.75 134.105 72.162C134.105 71.862 133.943 71.304 133.619 70.488L131.639 65.484C131.639 65.484 131.567 65.292 131.423 64.908C131.219 64.368 130.985 64.098 130.721 64.098C130.649 64.098 130.517 64.116 130.325 64.152C130.145 64.188 130.025 64.206 129.965 64.206C129.545 64.206 129.335 64.014 129.335 63.63C129.335 63.222 129.611 63.018 130.163 63.018C130.343 63.018 130.481 63.024 130.577 63.036L131.297 63.126C131.309 63.126 131.357 63.126 131.441 63.126C131.525 63.138 131.597 63.144 131.657 63.144C132.089 63.144 132.551 63.12 133.043 63.072C133.415 63.036 133.661 63.018 133.781 63.018C134.285 63.018 134.537 63.216 134.537 63.612C134.537 64.008 134.309 64.206 133.853 64.206C133.781 64.206 133.667 64.194 133.511 64.17C133.355 64.134 133.241 64.116 133.169 64.116C133.001 64.116 132.917 64.2 132.917 64.368C132.917 64.464 132.941 64.584 132.989 64.728ZM141.333 70.146L147.201 64.206H144.447C143.547 64.206 142.983 64.236 142.755 64.296C142.527 64.344 142.413 64.482 142.413 64.71C142.413 64.806 142.425 64.914 142.449 65.034C142.509 65.346 142.539 65.64 142.539 65.916C142.539 66.372 142.341 66.6 141.945 66.6C141.537 66.6 141.333 66.336 141.333 65.808C141.333 65.58 141.339 65.424 141.351 65.34C141.399 64.98 141.423 64.722 141.423 64.566C141.423 64.446 141.399 64.272 141.351 64.044C141.315 63.804 141.297 63.624 141.297 63.504C141.297 63.132 141.597 62.946 142.197 62.946C142.389 62.946 142.647 62.952 142.971 62.964C143.343 62.988 143.601 63 143.745 63L144.825 63.018H147.885C148.665 63.018 149.055 63.294 149.055 63.846C149.055 64.098 148.827 64.452 148.371 64.908L142.539 70.794H146.823C147.531 70.794 147.885 70.59 147.885 70.182V69.84C147.885 69.636 147.873 69.462 147.849 69.318C147.825 68.862 147.813 68.646 147.813 68.67C147.813 68.466 147.873 68.298 147.993 68.166C148.113 68.022 148.263 67.95 148.443 67.95C148.827 67.95 149.019 68.178 149.019 68.634C149.019 68.838 149.007 69.048 148.983 69.264C148.935 69.696 148.911 70.008 148.911 70.2C148.911 70.332 148.923 70.524 148.947 70.776C148.983 71.028 149.001 71.22 149.001 71.352C149.001 71.82 148.737 72.048 148.209 72.036L147.111 72H141.927C141.627 72 141.381 71.91 141.189 71.73C140.997 71.55 140.901 71.322 140.901 71.046C140.901 70.734 141.045 70.434 141.333 70.146ZM152.229 72.306C151.917 72.306 151.653 72.198 151.437 71.982C151.221 71.754 151.113 71.484 151.113 71.172C151.113 70.86 151.221 70.596 151.437 70.38C151.653 70.152 151.917 70.038 152.229 70.038C152.541 70.038 152.805 70.152 153.021 70.38C153.237 70.596 153.345 70.86 153.345 71.172C153.345 71.484 153.237 71.754 153.021 71.982C152.805 72.198 152.541 72.306 152.229 72.306ZM163.145 72.234C162.161 72.234 161.555 71.808 161.327 70.956C160.715 71.856 159.755 72.306 158.447 72.306C157.475 72.306 156.695 72.066 156.107 71.586C155.531 71.106 155.243 70.464 155.243 69.66C155.243 68.664 155.669 67.932 156.521 67.464C156.845 67.284 157.121 67.17 157.349 67.122C157.589 67.062 158.063 66.99 158.771 66.906C159.779 66.798 160.433 66.648 160.733 66.456C161.045 66.264 161.201 65.91 161.201 65.394C161.201 64.902 161.027 64.518 160.679 64.242C160.343 63.954 159.869 63.81 159.257 63.81C158.717 63.81 158.213 63.96 157.745 64.26C157.565 64.38 157.475 64.506 157.475 64.638C157.475 64.686 157.529 64.746 157.637 64.818C157.805 64.938 157.889 65.142 157.889 65.43C157.889 65.67 157.799 65.868 157.619 66.024C157.451 66.18 157.235 66.258 156.971 66.258C156.659 66.258 156.395 66.15 156.179 65.934C155.975 65.718 155.873 65.454 155.873 65.142C155.873 64.47 156.203 63.894 156.863 63.414C157.535 62.934 158.345 62.694 159.293 62.694C161.477 62.694 162.569 63.744 162.569 65.844V69.48C162.569 70.056 162.581 70.398 162.605 70.506C162.677 70.926 162.881 71.136 163.217 71.136C163.637 71.136 163.847 70.752 163.847 69.984V69.102C163.847 68.718 164.033 68.526 164.405 68.526C164.801 68.526 164.999 68.814 164.999 69.39V69.48L164.981 70.506C164.957 71.658 164.345 72.234 163.145 72.234ZM161.147 68.652L161.165 67.374C160.901 67.614 160.619 67.782 160.319 67.878C160.031 67.974 159.509 68.058 158.753 68.13C157.385 68.262 156.701 68.766 156.701 69.642C156.701 70.098 156.863 70.458 157.187 70.722C157.523 70.986 157.973 71.118 158.537 71.118C159.341 71.118 159.971 70.902 160.427 70.47C160.895 70.026 161.135 69.42 161.147 68.652ZM168.319 63.558V64.062C169.039 63.15 169.999 62.694 171.199 62.694C171.847 62.694 172.459 62.862 173.035 63.198C173.611 63.522 174.001 63.93 174.205 64.422C174.373 64.83 174.457 65.364 174.457 66.024V69.444C174.457 69.96 174.463 70.266 174.475 70.362C174.535 70.77 174.697 70.974 174.961 70.974C175.069 70.974 175.207 70.962 175.375 70.938C175.555 70.902 175.681 70.884 175.753 70.884C175.909 70.884 176.041 70.938 176.149 71.046C176.269 71.154 176.329 71.286 176.329 71.442C176.329 71.622 176.257 71.772 176.113 71.892C175.969 72.012 175.795 72.072 175.591 72.072C175.423 72.072 175.147 72.048 174.763 72C174.379 71.952 174.019 71.928 173.683 71.928C173.371 71.928 173.113 71.94 172.909 71.964C172.309 72.036 171.991 72.072 171.955 72.072C171.475 72.072 171.235 71.862 171.235 71.442C171.235 71.07 171.439 70.884 171.847 70.884C171.943 70.884 172.051 70.896 172.171 70.92C172.399 70.968 172.543 70.992 172.603 70.992C172.891 70.992 173.047 70.662 173.071 70.002L173.107 69.084L173.125 67.986V66.618C173.125 65.982 173.095 65.544 173.035 65.304C172.927 64.848 172.693 64.494 172.333 64.242C171.937 63.966 171.487 63.828 170.983 63.828C170.023 63.828 169.333 64.17 168.913 64.854C168.625 65.322 168.481 66.12 168.481 67.248V69.642C168.481 70.17 168.517 70.53 168.589 70.722C168.661 70.914 168.793 71.01 168.985 71.01C169.081 71.01 169.213 70.986 169.381 70.938C169.549 70.89 169.687 70.866 169.795 70.866C170.167 70.866 170.353 71.07 170.353 71.478C170.353 71.874 170.113 72.072 169.633 72.072C169.537 72.072 169.225 72.036 168.697 71.964C168.433 71.928 168.139 71.91 167.815 71.91C167.563 71.91 167.227 71.934 166.807 71.982C166.279 72.042 165.979 72.072 165.907 72.072C165.403 72.072 165.151 71.868 165.151 71.46C165.151 71.076 165.343 70.884 165.727 70.884C165.787 70.884 165.895 70.902 166.051 70.938C166.219 70.974 166.381 70.992 166.537 70.992C166.897 70.992 167.083 70.644 167.095 69.948L167.131 67.95V65.772L167.095 65.142C167.071 64.734 167.017 64.458 166.933 64.314C166.861 64.158 166.729 64.08 166.537 64.08C166.453 64.08 166.327 64.098 166.159 64.134C166.003 64.158 165.883 64.17 165.799 64.17C165.367 64.17 165.151 63.978 165.151 63.594C165.151 63.198 165.421 63 165.961 63C166.033 63 166.093 63.006 166.141 63.018L166.807 63.09C166.999 63.09 167.167 63.078 167.311 63.054C167.623 63.03 167.785 63.018 167.797 63.018C168.145 63.018 168.319 63.198 168.319 63.558ZM179.466 64.728L181.536 70.812L183.732 64.818C183.792 64.65 183.822 64.518 183.822 64.422C183.822 64.218 183.684 64.116 183.408 64.116C183.264 64.116 183.15 64.128 183.066 64.152C182.874 64.176 182.748 64.188 182.688 64.188C182.292 64.188 182.094 63.996 182.094 63.612C182.094 63.204 182.352 63 182.868 63C182.94 63 183.06 63.012 183.228 63.036L183.876 63.126C184.044 63.15 184.224 63.162 184.416 63.162C184.62 63.162 184.92 63.138 185.316 63.09C185.712 63.042 186.012 63.018 186.216 63.018C186.732 63.018 186.99 63.216 186.99 63.612C186.99 63.996 186.792 64.188 186.396 64.188C186.276 64.188 186.186 64.176 186.126 64.152C185.97 64.116 185.862 64.098 185.802 64.098C185.574 64.098 185.34 64.404 185.1 65.016L182.652 71.136C182.112 72.492 181.602 73.476 181.122 74.088C180.306 75.132 179.286 75.654 178.062 75.654C177.33 75.654 176.712 75.468 176.208 75.096C175.715 74.724 175.469 74.274 175.469 73.746C175.469 73.374 175.577 73.068 175.793 72.828C176.01 72.6 176.292 72.486 176.64 72.486C176.916 72.486 177.144 72.564 177.324 72.72C177.504 72.888 177.594 73.092 177.594 73.332C177.594 73.716 177.42 73.962 177.072 74.07C177.252 74.334 177.594 74.466 178.098 74.466C178.734 74.466 179.304 74.226 179.808 73.746C180.324 73.278 180.582 72.75 180.582 72.162C180.582 71.862 180.42 71.304 180.096 70.488L178.116 65.484C178.116 65.484 178.044 65.292 177.9 64.908C177.696 64.368 177.462 64.098 177.198 64.098C177.126 64.098 176.994 64.116 176.802 64.152C176.622 64.188 176.502 64.206 176.442 64.206C176.022 64.206 175.811 64.014 175.811 63.63C175.811 63.222 176.088 63.018 176.64 63.018C176.82 63.018 176.958 63.024 177.054 63.036L177.774 63.126C177.786 63.126 177.834 63.126 177.918 63.126C178.002 63.138 178.074 63.144 178.134 63.144C178.566 63.144 179.028 63.12 179.52 63.072C179.892 63.036 180.138 63.018 180.258 63.018C180.762 63.018 181.014 63.216 181.014 63.612C181.014 64.008 180.786 64.206 180.33 64.206C180.258 64.206 180.144 64.194 179.988 64.17C179.832 64.134 179.718 64.116 179.646 64.116C179.478 64.116 179.394 64.2 179.394 64.368C179.394 64.464 179.418 64.584 179.466 64.728ZM192.4 69.516L192.436 68.364C192.448 67.872 192.664 67.626 193.084 67.626C193.504 67.626 193.714 67.902 193.714 68.454C193.714 69.762 193.546 70.674 193.21 71.19C192.754 71.886 192.004 72.234 190.96 72.234C190 72.234 189.316 71.928 188.908 71.316C188.608 70.872 188.458 70.116 188.458 69.048V64.728C188.458 64.476 188.344 64.35 188.116 64.35H187.54C187.348 64.35 187.186 64.29 187.054 64.17C186.934 64.038 186.874 63.882 186.874 63.702C186.874 63.534 186.934 63.384 187.054 63.252C187.186 63.12 187.33 63.054 187.486 63.054H188.188C188.392 63.054 188.494 62.94 188.494 62.712V60.858C188.494 60.402 188.728 60.174 189.196 60.174C189.628 60.174 189.844 60.402 189.844 60.858V62.784C189.844 62.964 189.952 63.054 190.168 63.054H192.13C192.586 63.054 192.814 63.264 192.814 63.684C192.814 64.128 192.568 64.35 192.076 64.35H190.096C189.928 64.35 189.844 64.476 189.844 64.728V69.156C189.844 70.416 190.258 71.046 191.086 71.046C191.926 71.046 192.364 70.536 192.4 69.516ZM197.483 60.408L197.411 63.9C197.891 63.444 198.329 63.132 198.725 62.964C199.121 62.784 199.589 62.694 200.129 62.694C201.161 62.694 201.989 62.988 202.613 63.576C203.237 64.164 203.549 64.938 203.549 65.898V68.904C203.549 69.612 203.555 70.002 203.567 70.074C203.615 70.674 203.771 70.974 204.035 70.974C204.131 70.974 204.269 70.95 204.449 70.902C204.521 70.89 204.617 70.884 204.737 70.884C205.181 70.884 205.403 71.082 205.403 71.478C205.403 71.874 205.115 72.072 204.539 72.072C204.383 72.072 204.155 72.054 203.855 72.018C203.351 71.958 202.943 71.928 202.631 71.928C202.319 71.928 202.079 71.94 201.911 71.964C201.407 72.036 201.095 72.072 200.975 72.072C200.759 72.072 200.579 72.012 200.435 71.892C200.291 71.76 200.219 71.598 200.219 71.406C200.219 71.25 200.279 71.118 200.399 71.01C200.531 70.902 200.681 70.848 200.849 70.848C200.981 70.848 201.137 70.878 201.317 70.938C201.425 70.974 201.527 70.992 201.623 70.992C201.983 70.992 202.169 70.602 202.181 69.822C202.181 69.678 202.187 69.396 202.199 68.976L202.217 68.202V67.23C202.217 66.006 202.097 65.184 201.857 64.764C201.509 64.14 200.897 63.828 200.021 63.828C199.073 63.828 198.383 64.152 197.951 64.8C197.651 65.244 197.495 65.958 197.483 66.942L197.465 68.238C197.465 68.31 197.459 68.43 197.447 68.598C197.447 68.754 197.447 68.868 197.447 68.94C197.447 69.624 197.453 70.02 197.465 70.128C197.525 70.716 197.699 71.01 197.987 71.01C198.083 71.01 198.215 70.992 198.383 70.956C198.563 70.908 198.695 70.884 198.779 70.884C199.163 70.884 199.355 71.07 199.355 71.442C199.355 71.862 199.091 72.072 198.563 72.072C198.395 72.072 198.143 72.054 197.807 72.018C197.351 71.97 196.961 71.946 196.637 71.946C196.433 71.946 196.151 71.964 195.791 72C195.311 72.048 195.005 72.072 194.873 72.072C194.381 72.072 194.135 71.856 194.135 71.424C194.135 71.064 194.363 70.884 194.819 70.884C194.975 70.884 195.089 70.896 195.161 70.92C195.365 70.956 195.509 70.974 195.593 70.974C195.785 70.974 195.911 70.794 195.971 70.434C196.043 70.062 196.085 69.312 196.097 68.184L196.115 64.962C196.115 63.162 196.079 62.028 196.007 61.56C195.935 61.08 195.767 60.84 195.503 60.84C195.419 60.84 195.293 60.858 195.125 60.894C194.957 60.93 194.825 60.948 194.729 60.948C194.321 60.948 194.117 60.756 194.117 60.372C194.117 60.204 194.189 60.06 194.333 59.94C194.477 59.82 194.651 59.76 194.855 59.76C194.915 59.76 195.119 59.778 195.467 59.814C195.695 59.838 195.941 59.85 196.205 59.85C196.313 59.85 196.463 59.838 196.655 59.814C196.847 59.79 196.985 59.778 197.069 59.778C197.345 59.778 197.483 59.976 197.483 60.372V60.408ZM209.034 66.78V69.12C209.034 69.72 209.04 70.074 209.052 70.182C209.112 70.722 209.274 70.992 209.538 70.992C209.598 70.992 209.748 70.962 209.988 70.902C210.048 70.878 210.138 70.866 210.258 70.866C210.714 70.866 210.942 71.064 210.942 71.46C210.942 71.628 210.864 71.772 210.708 71.892C210.564 72.012 210.378 72.072 210.15 72.072C209.958 72.072 209.664 72.048 209.268 72C208.884 71.94 208.596 71.91 208.404 71.91C208.092 71.91 207.744 71.934 207.36 71.982C206.892 72.042 206.58 72.072 206.424 72.072C205.944 72.072 205.704 71.868 205.704 71.46C205.704 71.064 205.908 70.866 206.316 70.866C206.412 70.866 206.55 70.884 206.73 70.92C206.922 70.956 207.066 70.974 207.162 70.974C207.45 70.974 207.624 70.59 207.684 69.822C207.684 69.774 207.684 69.252 207.684 68.256V66.78C207.684 65.784 207.684 65.262 207.684 65.214C207.624 64.458 207.444 64.08 207.144 64.08C207.048 64.08 206.91 64.104 206.73 64.152C206.562 64.188 206.436 64.206 206.352 64.206C205.92 64.206 205.704 64.014 205.704 63.63C205.704 63.222 205.968 63.018 206.496 63.018C206.724 63.018 206.886 63.024 206.982 63.036C207.366 63.084 207.612 63.108 207.72 63.108C207.816 63.108 207.96 63.096 208.152 63.072C208.356 63.036 208.506 63.018 208.602 63.018C208.95 63.018 209.124 63.252 209.124 63.72C209.124 63.768 209.118 63.84 209.106 63.936C209.094 64.032 209.088 64.104 209.088 64.152C209.076 64.248 209.064 64.62 209.052 65.268C209.04 65.76 209.034 66.264 209.034 66.78ZM208.098 62.064C207.822 62.064 207.582 61.968 207.378 61.776C207.186 61.572 207.09 61.332 207.09 61.056C207.09 60.78 207.186 60.546 207.378 60.354C207.582 60.162 207.822 60.066 208.098 60.066C208.374 60.066 208.608 60.162 208.8 60.354C209.004 60.546 209.106 60.78 209.106 61.056C209.106 61.332 209.004 61.572 208.8 61.776C208.608 61.968 208.374 62.064 208.098 62.064ZM214.444 63.558V64.062C215.164 63.15 216.124 62.694 217.324 62.694C217.972 62.694 218.584 62.862 219.16 63.198C219.736 63.522 220.126 63.93 220.33 64.422C220.498 64.83 220.582 65.364 220.582 66.024V69.444C220.582 69.96 220.588 70.266 220.6 70.362C220.66 70.77 220.822 70.974 221.086 70.974C221.194 70.974 221.332 70.962 221.5 70.938C221.68 70.902 221.806 70.884 221.878 70.884C222.034 70.884 222.166 70.938 222.274 71.046C222.394 71.154 222.454 71.286 222.454 71.442C222.454 71.622 222.382 71.772 222.238 71.892C222.094 72.012 221.92 72.072 221.716 72.072C221.548 72.072 221.272 72.048 220.888 72C220.504 71.952 220.144 71.928 219.808 71.928C219.496 71.928 219.238 71.94 219.034 71.964C218.434 72.036 218.116 72.072 218.08 72.072C217.6 72.072 217.36 71.862 217.36 71.442C217.36 71.07 217.564 70.884 217.972 70.884C218.068 70.884 218.176 70.896 218.296 70.92C218.524 70.968 218.668 70.992 218.728 70.992C219.016 70.992 219.172 70.662 219.196 70.002L219.232 69.084L219.25 67.986V66.618C219.25 65.982 219.22 65.544 219.16 65.304C219.052 64.848 218.818 64.494 218.458 64.242C218.062 63.966 217.612 63.828 217.108 63.828C216.148 63.828 215.458 64.17 215.038 64.854C214.75 65.322 214.606 66.12 214.606 67.248V69.642C214.606 70.17 214.642 70.53 214.714 70.722C214.786 70.914 214.918 71.01 215.11 71.01C215.206 71.01 215.338 70.986 215.506 70.938C215.674 70.89 215.812 70.866 215.92 70.866C216.292 70.866 216.478 71.07 216.478 71.478C216.478 71.874 216.238 72.072 215.758 72.072C215.662 72.072 215.35 72.036 214.822 71.964C214.558 71.928 214.264 71.91 213.94 71.91C213.688 71.91 213.352 71.934 212.932 71.982C212.404 72.042 212.104 72.072 212.032 72.072C211.528 72.072 211.276 71.868 211.276 71.46C211.276 71.076 211.468 70.884 211.852 70.884C211.912 70.884 212.02 70.902 212.176 70.938C212.344 70.974 212.506 70.992 212.662 70.992C213.022 70.992 213.208 70.644 213.22 69.948L213.256 67.95V65.772L213.22 65.142C213.196 64.734 213.142 64.458 213.058 64.314C212.986 64.158 212.854 64.08 212.662 64.08C212.578 64.08 212.452 64.098 212.284 64.134C212.128 64.158 212.008 64.17 211.924 64.17C211.492 64.17 211.276 63.978 211.276 63.594C211.276 63.198 211.546 63 212.086 63C212.158 63 212.218 63.006 212.266 63.018L212.932 63.09C213.124 63.09 213.292 63.078 213.436 63.054C213.748 63.03 213.91 63.018 213.922 63.018C214.27 63.018 214.444 63.198 214.444 63.558ZM227.417 62.694C227.729 62.694 228.083 62.742 228.479 62.838C228.539 61.662 229.223 61.074 230.531 61.074C231.083 61.074 231.545 61.218 231.917 61.506C232.289 61.794 232.475 62.16 232.475 62.604C232.475 62.892 232.379 63.138 232.187 63.342C232.007 63.546 231.791 63.648 231.539 63.648C231.347 63.648 231.179 63.582 231.035 63.45C230.891 63.318 230.819 63.162 230.819 62.982C230.819 62.79 230.951 62.592 231.215 62.388C231.023 62.148 230.777 62.028 230.477 62.028C229.841 62.028 229.517 62.424 229.505 63.216C230.417 63.828 230.873 64.65 230.873 65.682C230.873 66.51 230.561 67.2 229.937 67.752C229.313 68.304 228.533 68.58 227.597 68.58C226.937 68.58 226.253 68.424 225.545 68.112C225.353 68.028 225.191 67.986 225.059 67.986C224.891 67.986 224.741 68.064 224.609 68.22C224.477 68.364 224.411 68.538 224.411 68.742C224.411 69.366 225.041 69.678 226.301 69.678H226.409C226.505 69.678 226.613 69.672 226.733 69.66C226.853 69.66 226.925 69.66 226.949 69.66C228.089 69.66 229.013 69.768 229.721 69.984C230.381 70.188 230.903 70.506 231.287 70.938C231.671 71.37 231.863 71.856 231.863 72.396C231.863 73.272 231.455 73.962 230.639 74.466C229.835 74.982 228.743 75.24 227.363 75.24C225.983 75.24 224.897 75 224.105 74.52C223.325 74.04 222.935 73.38 222.935 72.54C222.935 71.568 223.481 70.878 224.573 70.47C223.601 70.086 223.115 69.51 223.115 68.742C223.115 67.902 223.601 67.326 224.573 67.014C224.261 66.594 224.105 66.102 224.105 65.538C224.105 64.722 224.417 64.044 225.041 63.504C225.677 62.964 226.469 62.694 227.417 62.694ZM227.471 63.882C226.943 63.882 226.493 64.038 226.121 64.35C225.749 64.662 225.545 65.052 225.509 65.52C225.509 65.52 225.509 65.556 225.509 65.628C225.509 66.156 225.689 66.582 226.049 66.906C226.409 67.23 226.877 67.392 227.453 67.392C228.053 67.392 228.539 67.23 228.911 66.906C229.295 66.582 229.487 66.168 229.487 65.664C229.487 65.148 229.295 64.722 228.911 64.386C228.527 64.05 228.047 63.882 227.471 63.882ZM227.489 70.866C226.529 70.866 225.773 71.01 225.221 71.298C224.669 71.586 224.393 71.976 224.393 72.468C224.393 72.96 224.663 73.344 225.203 73.62C225.743 73.908 226.469 74.052 227.381 74.052C228.341 74.052 229.097 73.908 229.649 73.62C230.213 73.332 230.495 72.948 230.495 72.468C230.495 71.964 230.231 71.574 229.703 71.298C229.175 71.01 228.437 70.866 227.489 70.866ZM239.421 68.382C239.421 68.286 239.427 68.202 239.439 68.13C238.983 68.838 238.281 69.192 237.333 69.192C236.757 69.192 236.289 69 235.929 68.616C235.581 68.22 235.407 67.71 235.407 67.086C235.407 65.994 235.803 65.034 236.595 64.206C237.387 63.366 238.305 62.946 239.349 62.946C239.589 62.946 239.853 62.982 240.141 63.054L240.501 63.144C240.549 63.168 240.609 63.18 240.681 63.18C240.741 63.18 240.843 63.15 240.987 63.09C241.179 63.006 241.317 62.964 241.401 62.964C241.581 62.964 241.671 63.042 241.671 63.198C241.671 63.234 241.659 63.3 241.635 63.396L241.545 63.738L240.519 67.572C240.483 67.716 240.465 67.83 240.465 67.914C240.465 68.13 240.579 68.238 240.807 68.238C241.251 68.238 241.665 67.95 242.049 67.374C242.589 66.57 242.859 65.64 242.859 64.584C242.859 63.588 242.529 62.76 241.869 62.1C241.221 61.44 240.399 61.11 239.403 61.11C237.999 61.11 236.775 61.674 235.731 62.802C234.699 63.918 234.183 65.232 234.183 66.744C234.183 67.92 234.561 68.904 235.317 69.696C236.073 70.476 237.021 70.866 238.161 70.866C238.833 70.866 239.385 70.788 239.817 70.632C240.261 70.464 240.813 70.14 241.473 69.66C241.713 69.48 241.911 69.39 242.067 69.39C242.295 69.39 242.409 69.498 242.409 69.714C242.409 69.942 242.253 70.176 241.941 70.416C240.753 71.352 239.445 71.82 238.017 71.82C236.565 71.82 235.353 71.34 234.381 70.38C233.421 69.408 232.941 68.196 232.941 66.744C232.941 64.992 233.589 63.468 234.885 62.172C236.193 60.864 237.735 60.21 239.511 60.21C240.855 60.21 241.947 60.606 242.787 61.398C243.639 62.19 244.065 63.222 244.065 64.494C244.065 65.922 243.543 67.17 242.499 68.238C241.863 68.886 241.197 69.21 240.501 69.21C240.189 69.21 239.931 69.132 239.727 68.976C239.523 68.82 239.421 68.622 239.421 68.382ZM239.799 65.934L240.285 64.134C239.925 63.954 239.577 63.864 239.241 63.864C238.545 63.864 237.933 64.17 237.405 64.782C236.889 65.394 236.631 66.108 236.631 66.924C236.631 67.752 236.991 68.166 237.711 68.166C238.707 68.166 239.403 67.422 239.799 65.934ZM248.14 63.54V64.062C248.572 63.546 248.98 63.192 249.364 63C249.748 62.796 250.228 62.694 250.804 62.694C251.98 62.694 252.844 63.15 253.396 64.062C253.804 63.558 254.218 63.204 254.638 63C255.058 62.796 255.598 62.694 256.258 62.694C256.942 62.694 257.554 62.838 258.094 63.126C258.694 63.45 259.108 63.906 259.336 64.494C259.492 64.89 259.57 65.514 259.57 66.366V68.112L259.552 69.462C259.552 69.954 259.558 70.254 259.57 70.362C259.63 70.794 259.786 71.01 260.038 71.01C260.122 71.01 260.248 70.992 260.416 70.956C260.584 70.92 260.71 70.902 260.794 70.902C261.214 70.902 261.424 71.082 261.424 71.442C261.424 71.862 261.184 72.072 260.704 72.072C260.524 72.072 260.248 72.048 259.876 72C259.516 71.964 259.24 71.946 259.048 71.946C258.844 71.946 258.544 71.964 258.148 72C257.764 72.048 257.47 72.072 257.266 72.072C256.762 72.072 256.51 71.862 256.51 71.442C256.51 71.082 256.702 70.902 257.086 70.902C257.134 70.902 257.254 70.914 257.446 70.938C257.518 70.962 257.614 70.974 257.734 70.974C257.938 70.974 258.064 70.872 258.112 70.668C258.172 70.464 258.208 69.954 258.22 69.138L258.238 68.04V66.852C258.238 66.024 258.172 65.424 258.04 65.052C257.92 64.668 257.686 64.368 257.338 64.152C256.99 63.936 256.594 63.828 256.15 63.828C255.298 63.828 254.704 64.122 254.368 64.71C254.104 65.178 253.972 65.994 253.972 67.158V68.436C253.972 69.564 253.996 70.272 254.044 70.56C254.104 70.836 254.248 70.974 254.476 70.974C254.548 70.974 254.65 70.962 254.782 70.938C254.926 70.902 255.034 70.884 255.106 70.884C255.274 70.884 255.412 70.944 255.52 71.064C255.64 71.172 255.7 71.31 255.7 71.478C255.7 71.874 255.418 72.072 254.854 72.072C254.674 72.072 254.404 72.048 254.044 72C253.696 71.952 253.432 71.928 253.252 71.928C253 71.928 252.724 71.952 252.424 72C252.124 72.048 251.86 72.072 251.632 72.072C251.14 72.072 250.894 71.868 250.894 71.46C250.894 71.088 251.074 70.902 251.434 70.902C251.566 70.902 251.668 70.914 251.74 70.938C251.908 70.974 252.034 70.992 252.118 70.992C252.406 70.992 252.556 70.686 252.568 70.074L252.586 69.228C252.598 68.964 252.604 68.706 252.604 68.454C252.616 68.238 252.622 68.124 252.622 68.112V66.618C252.622 65.574 252.478 64.848 252.19 64.44C251.914 64.032 251.416 63.828 250.696 63.828C249.904 63.828 249.298 64.116 248.878 64.692C248.53 65.16 248.356 65.976 248.356 67.14V69.534C248.356 70.014 248.362 70.296 248.374 70.38C248.422 70.788 248.554 70.992 248.77 70.992C248.83 70.992 248.956 70.968 249.148 70.92C249.172 70.92 249.208 70.914 249.256 70.902C249.304 70.902 249.346 70.902 249.382 70.902C249.85 70.902 250.084 71.1 250.084 71.496C250.084 71.88 249.814 72.072 249.274 72.072C249.07 72.072 248.818 72.054 248.518 72.018C248.11 71.97 247.762 71.946 247.474 71.946C247.33 71.946 247.066 71.964 246.682 72C246.166 72.048 245.854 72.072 245.746 72.072C245.266 72.072 245.026 71.868 245.026 71.46C245.026 71.088 245.254 70.902 245.71 70.902C245.734 70.902 245.77 70.902 245.818 70.902C245.866 70.914 245.902 70.92 245.926 70.92L246.376 71.01C246.388 71.022 246.412 71.028 246.448 71.028C246.772 71.028 246.946 70.734 246.97 70.146L247.006 69.12V66.366C247.006 65.346 246.976 64.71 246.916 64.458C246.868 64.206 246.724 64.08 246.484 64.08C246.436 64.08 246.268 64.11 245.98 64.17C245.86 64.194 245.764 64.206 245.692 64.206C245.248 64.206 245.026 64.014 245.026 63.63C245.026 63.222 245.272 63.018 245.764 63.018C245.896 63.018 246.076 63.03 246.304 63.054C246.532 63.078 246.73 63.09 246.898 63.09C246.958 63.09 247.024 63.084 247.096 63.072C247.168 63.072 247.21 63.072 247.222 63.072L247.654 63.018H247.708C247.996 63.018 248.14 63.192 248.14 63.54ZM269.88 72.234C268.896 72.234 268.29 71.808 268.062 70.956C267.45 71.856 266.49 72.306 265.182 72.306C264.21 72.306 263.43 72.066 262.842 71.586C262.266 71.106 261.978 70.464 261.978 69.66C261.978 68.664 262.404 67.932 263.256 67.464C263.58 67.284 263.856 67.17 264.083 67.122C264.324 67.062 264.798 66.99 265.506 66.906C266.514 66.798 267.168 66.648 267.468 66.456C267.78 66.264 267.936 65.91 267.936 65.394C267.936 64.902 267.762 64.518 267.414 64.242C267.078 63.954 266.604 63.81 265.992 63.81C265.452 63.81 264.948 63.96 264.48 64.26C264.3 64.38 264.21 64.506 264.21 64.638C264.21 64.686 264.264 64.746 264.372 64.818C264.54 64.938 264.624 65.142 264.624 65.43C264.624 65.67 264.534 65.868 264.354 66.024C264.186 66.18 263.97 66.258 263.706 66.258C263.394 66.258 263.13 66.15 262.914 65.934C262.71 65.718 262.608 65.454 262.608 65.142C262.608 64.47 262.938 63.894 263.598 63.414C264.27 62.934 265.08 62.694 266.028 62.694C268.212 62.694 269.304 63.744 269.304 65.844V69.48C269.304 70.056 269.316 70.398 269.34 70.506C269.412 70.926 269.616 71.136 269.952 71.136C270.372 71.136 270.582 70.752 270.582 69.984V69.102C270.582 68.718 270.768 68.526 271.14 68.526C271.536 68.526 271.734 68.814 271.734 69.39V69.48L271.716 70.506C271.692 71.658 271.08 72.234 269.88 72.234ZM267.882 68.652L267.9 67.374C267.636 67.614 267.354 67.782 267.054 67.878C266.766 67.974 266.244 68.058 265.488 68.13C264.12 68.262 263.436 68.766 263.436 69.642C263.436 70.098 263.598 70.458 263.922 70.722C264.258 70.986 264.708 71.118 265.272 71.118C266.076 71.118 266.706 70.902 267.162 70.47C267.63 70.026 267.87 69.42 267.882 68.652ZM275.216 66.78V69.12C275.216 69.72 275.222 70.074 275.234 70.182C275.294 70.722 275.456 70.992 275.72 70.992C275.78 70.992 275.93 70.962 276.17 70.902C276.23 70.878 276.32 70.866 276.44 70.866C276.896 70.866 277.124 71.064 277.124 71.46C277.124 71.628 277.046 71.772 276.89 71.892C276.746 72.012 276.56 72.072 276.332 72.072C276.14 72.072 275.846 72.048 275.45 72C275.066 71.94 274.778 71.91 274.586 71.91C274.274 71.91 273.926 71.934 273.542 71.982C273.074 72.042 272.762 72.072 272.606 72.072C272.126 72.072 271.886 71.868 271.886 71.46C271.886 71.064 272.09 70.866 272.498 70.866C272.594 70.866 272.732 70.884 272.912 70.92C273.104 70.956 273.248 70.974 273.344 70.974C273.632 70.974 273.806 70.59 273.866 69.822C273.866 69.774 273.866 69.252 273.866 68.256V66.78C273.866 65.784 273.866 65.262 273.866 65.214C273.806 64.458 273.626 64.08 273.326 64.08C273.23 64.08 273.092 64.104 272.912 64.152C272.744 64.188 272.618 64.206 272.534 64.206C272.102 64.206 271.886 64.014 271.886 63.63C271.886 63.222 272.15 63.018 272.678 63.018C272.906 63.018 273.068 63.024 273.164 63.036C273.548 63.084 273.794 63.108 273.902 63.108C273.998 63.108 274.142 63.096 274.334 63.072C274.538 63.036 274.688 63.018 274.784 63.018C275.132 63.018 275.306 63.252 275.306 63.72C275.306 63.768 275.3 63.84 275.288 63.936C275.276 64.032 275.27 64.104 275.27 64.152C275.258 64.248 275.246 64.62 275.234 65.268C275.222 65.76 275.216 66.264 275.216 66.78ZM274.28 62.064C274.004 62.064 273.764 61.968 273.56 61.776C273.368 61.572 273.272 61.332 273.272 61.056C273.272 60.78 273.368 60.546 273.56 60.354C273.764 60.162 274.004 60.066 274.28 60.066C274.556 60.066 274.79 60.162 274.982 60.354C275.186 60.546 275.288 60.78 275.288 61.056C275.288 61.332 275.186 61.572 274.982 61.776C274.79 61.968 274.556 62.064 274.28 62.064ZM280.68 64.476L280.698 70.074C280.71 70.686 280.872 70.992 281.184 70.992C281.256 70.992 281.406 70.962 281.634 70.902C281.778 70.878 281.874 70.866 281.922 70.866C282.318 70.866 282.516 71.07 282.516 71.478C282.516 71.874 282.27 72.072 281.778 72.072C281.586 72.072 281.28 72.048 280.86 72C280.44 71.952 280.116 71.928 279.888 71.928C279.696 71.928 279.408 71.952 279.024 72C278.64 72.048 278.358 72.072 278.178 72.072H278.088C277.584 72.072 277.332 71.856 277.332 71.424C277.332 71.052 277.536 70.866 277.944 70.866C277.968 70.866 278.01 70.866 278.07 70.866C278.142 70.878 278.196 70.884 278.232 70.884C278.532 70.932 278.706 70.956 278.754 70.956C278.97 70.956 279.102 70.866 279.15 70.686C279.21 70.494 279.246 70.008 279.258 69.228L279.276 67.968L279.33 65.178L279.312 61.974C279.3 61.614 279.282 61.374 279.258 61.254C279.174 60.978 279.006 60.84 278.754 60.84C278.718 60.84 278.562 60.864 278.286 60.912C278.154 60.936 278.046 60.948 277.962 60.948C277.554 60.948 277.35 60.756 277.35 60.372C277.35 59.976 277.59 59.778 278.07 59.778C278.202 59.778 278.316 59.784 278.412 59.796L278.844 59.85C279.036 59.874 279.198 59.886 279.33 59.886C279.45 59.886 279.63 59.868 279.87 59.832C280.11 59.784 280.29 59.76 280.41 59.76C280.686 59.76 280.824 59.934 280.824 60.282C280.824 60.402 280.818 60.492 280.806 60.552C280.722 61.476 280.68 62.784 280.68 64.476ZM286.127 63.54V64.062C286.559 63.546 286.967 63.192 287.351 63C287.735 62.796 288.215 62.694 288.791 62.694C289.967 62.694 290.831 63.15 291.383 64.062C291.791 63.558 292.205 63.204 292.625 63C293.045 62.796 293.585 62.694 294.245 62.694C294.929 62.694 295.541 62.838 296.081 63.126C296.681 63.45 297.095 63.906 297.323 64.494C297.479 64.89 297.557 65.514 297.557 66.366V68.112L297.539 69.462C297.539 69.954 297.545 70.254 297.557 70.362C297.617 70.794 297.773 71.01 298.025 71.01C298.109 71.01 298.235 70.992 298.403 70.956C298.571 70.92 298.697 70.902 298.781 70.902C299.201 70.902 299.411 71.082 299.411 71.442C299.411 71.862 299.171 72.072 298.691 72.072C298.511 72.072 298.235 72.048 297.863 72C297.503 71.964 297.227 71.946 297.035 71.946C296.831 71.946 296.531 71.964 296.135 72C295.751 72.048 295.457 72.072 295.253 72.072C294.749 72.072 294.497 71.862 294.497 71.442C294.497 71.082 294.689 70.902 295.073 70.902C295.121 70.902 295.241 70.914 295.433 70.938C295.505 70.962 295.601 70.974 295.721 70.974C295.925 70.974 296.051 70.872 296.099 70.668C296.159 70.464 296.195 69.954 296.207 69.138L296.225 68.04V66.852C296.225 66.024 296.159 65.424 296.027 65.052C295.907 64.668 295.673 64.368 295.325 64.152C294.977 63.936 294.581 63.828 294.137 63.828C293.285 63.828 292.691 64.122 292.355 64.71C292.091 65.178 291.959 65.994 291.959 67.158V68.436C291.959 69.564 291.983 70.272 292.031 70.56C292.091 70.836 292.235 70.974 292.463 70.974C292.535 70.974 292.637 70.962 292.769 70.938C292.913 70.902 293.021 70.884 293.093 70.884C293.261 70.884 293.399 70.944 293.507 71.064C293.627 71.172 293.687 71.31 293.687 71.478C293.687 71.874 293.405 72.072 292.841 72.072C292.661 72.072 292.391 72.048 292.031 72C291.683 71.952 291.419 71.928 291.239 71.928C290.987 71.928 290.711 71.952 290.411 72C290.111 72.048 289.847 72.072 289.619 72.072C289.127 72.072 288.881 71.868 288.881 71.46C288.881 71.088 289.061 70.902 289.421 70.902C289.553 70.902 289.655 70.914 289.727 70.938C289.895 70.974 290.021 70.992 290.105 70.992C290.393 70.992 290.543 70.686 290.555 70.074L290.573 69.228C290.585 68.964 290.591 68.706 290.591 68.454C290.603 68.238 290.609 68.124 290.609 68.112V66.618C290.609 65.574 290.465 64.848 290.177 64.44C289.901 64.032 289.403 63.828 288.683 63.828C287.891 63.828 287.285 64.116 286.865 64.692C286.517 65.16 286.343 65.976 286.343 67.14V69.534C286.343 70.014 286.349 70.296 286.361 70.38C286.409 70.788 286.541 70.992 286.757 70.992C286.817 70.992 286.943 70.968 287.135 70.92C287.159 70.92 287.195 70.914 287.243 70.902C287.291 70.902 287.333 70.902 287.369 70.902C287.837 70.902 288.071 71.1 288.071 71.496C288.071 71.88 287.801 72.072 287.261 72.072C287.057 72.072 286.805 72.054 286.505 72.018C286.097 71.97 285.749 71.946 285.461 71.946C285.317 71.946 285.053 71.964 284.669 72C284.153 72.048 283.841 72.072 283.733 72.072C283.253 72.072 283.013 71.868 283.013 71.46C283.013 71.088 283.241 70.902 283.697 70.902C283.721 70.902 283.757 70.902 283.805 70.902C283.853 70.914 283.889 70.92 283.913 70.92L284.363 71.01C284.375 71.022 284.399 71.028 284.435 71.028C284.759 71.028 284.933 70.734 284.957 70.146L284.993 69.12V66.366C284.993 65.346 284.963 64.71 284.903 64.458C284.855 64.206 284.711 64.08 284.471 64.08C284.423 64.08 284.255 64.11 283.967 64.17C283.847 64.194 283.751 64.206 283.679 64.206C283.235 64.206 283.013 64.014 283.013 63.63C283.013 63.222 283.259 63.018 283.751 63.018C283.883 63.018 284.063 63.03 284.291 63.054C284.519 63.078 284.717 63.09 284.885 63.09C284.945 63.09 285.011 63.084 285.083 63.072C285.155 63.072 285.197 63.072 285.209 63.072L285.641 63.018H285.695C285.983 63.018 286.127 63.192 286.127 63.54ZM307.866 72.234C306.882 72.234 306.276 71.808 306.048 70.956C305.436 71.856 304.476 72.306 303.168 72.306C302.196 72.306 301.416 72.066 300.828 71.586C300.252 71.106 299.964 70.464 299.964 69.66C299.964 68.664 300.39 67.932 301.242 67.464C301.566 67.284 301.842 67.17 302.07 67.122C302.31 67.062 302.784 66.99 303.492 66.906C304.5 66.798 305.154 66.648 305.454 66.456C305.766 66.264 305.922 65.91 305.922 65.394C305.922 64.902 305.748 64.518 305.4 64.242C305.064 63.954 304.59 63.81 303.978 63.81C303.438 63.81 302.934 63.96 302.466 64.26C302.286 64.38 302.196 64.506 302.196 64.638C302.196 64.686 302.25 64.746 302.358 64.818C302.526 64.938 302.61 65.142 302.61 65.43C302.61 65.67 302.52 65.868 302.34 66.024C302.172 66.18 301.956 66.258 301.692 66.258C301.38 66.258 301.116 66.15 300.9 65.934C300.696 65.718 300.594 65.454 300.594 65.142C300.594 64.47 300.924 63.894 301.584 63.414C302.256 62.934 303.066 62.694 304.014 62.694C306.198 62.694 307.29 63.744 307.29 65.844V69.48C307.29 70.056 307.302 70.398 307.326 70.506C307.398 70.926 307.602 71.136 307.938 71.136C308.358 71.136 308.568 70.752 308.568 69.984V69.102C308.568 68.718 308.754 68.526 309.126 68.526C309.522 68.526 309.72 68.814 309.72 69.39V69.48L309.702 70.506C309.678 71.658 309.066 72.234 307.866 72.234ZM305.868 68.652L305.886 67.374C305.622 67.614 305.34 67.782 305.04 67.878C304.752 67.974 304.23 68.058 303.474 68.13C302.106 68.262 301.422 68.766 301.422 69.642C301.422 70.098 301.584 70.458 301.908 70.722C302.244 70.986 302.694 71.118 303.258 71.118C304.062 71.118 304.692 70.902 305.148 70.47C305.616 70.026 305.856 69.42 305.868 68.652ZM314.084 62.694C314.888 62.694 315.56 62.904 316.1 63.324V63.252C316.1 62.808 316.292 62.586 316.676 62.586C317.072 62.586 317.27 62.778 317.27 63.162C317.27 63.234 317.258 63.414 317.234 63.702C317.186 63.942 317.162 64.182 317.162 64.422C317.162 64.566 317.18 64.776 317.216 65.052C317.264 65.328 317.288 65.538 317.288 65.682C317.288 66.138 317.09 66.366 316.694 66.366C316.31 66.366 316.112 66.174 316.1 65.79L316.082 65.196C316.07 64.836 315.86 64.53 315.452 64.278C315.056 64.014 314.588 63.882 314.048 63.882C313.496 63.882 313.034 64.026 312.662 64.314C312.29 64.59 312.104 64.938 312.104 65.358C312.104 66.126 312.632 66.582 313.688 66.726L314.732 66.87C316.772 67.146 317.792 67.992 317.792 69.408C317.792 70.272 317.462 70.974 316.802 71.514C316.142 72.042 315.278 72.306 314.21 72.306C313.214 72.306 312.35 72.024 311.618 71.46C311.63 71.58 311.636 71.694 311.636 71.802C311.636 72.234 311.432 72.45 311.024 72.45C310.58 72.45 310.358 72.204 310.358 71.712C310.358 71.796 310.394 71.484 310.466 70.776C310.49 70.608 310.502 70.44 310.502 70.272C310.502 69.984 310.478 69.714 310.43 69.462C310.382 69.21 310.358 69.012 310.358 68.868C310.358 68.448 310.55 68.238 310.934 68.238C311.186 68.238 311.342 68.298 311.402 68.418C311.474 68.538 311.516 68.856 311.528 69.372C311.54 69.888 311.81 70.308 312.338 70.632C312.866 70.956 313.538 71.118 314.354 71.118C314.942 71.118 315.428 70.968 315.812 70.668C316.196 70.368 316.388 69.99 316.388 69.534C316.388 68.718 315.74 68.244 314.444 68.112C313.208 67.98 312.266 67.74 311.618 67.392C310.97 67.032 310.646 66.408 310.646 65.52C310.646 64.68 310.964 64.002 311.6 63.486C312.236 62.958 313.064 62.694 314.084 62.694ZM321.953 67.446L325.031 64.566C325.139 64.47 325.193 64.362 325.193 64.242C325.193 64.122 325.115 64.062 324.959 64.062C324.839 64.062 324.665 64.086 324.437 64.134C324.209 64.182 324.035 64.206 323.915 64.206C323.495 64.206 323.285 64.014 323.285 63.63C323.285 63.21 323.549 63 324.077 63C324.209 63 324.377 63.012 324.581 63.036C325.409 63.132 326.039 63.18 326.471 63.18C326.711 63.18 326.915 63.168 327.083 63.144L327.821 63.036C327.989 63.012 328.127 63 328.235 63C328.823 63 329.117 63.204 329.117 63.612C329.117 63.996 328.913 64.188 328.505 64.188C328.409 64.188 328.271 64.176 328.091 64.152C327.923 64.128 327.791 64.116 327.695 64.116C327.395 64.116 327.083 64.266 326.759 64.566L324.869 66.294C324.737 66.414 324.671 66.51 324.671 66.582C324.671 66.642 324.719 66.732 324.815 66.852L327.119 69.84C327.707 70.596 328.127 70.974 328.379 70.974C328.439 70.974 328.535 70.962 328.667 70.938C328.811 70.902 328.925 70.884 329.009 70.884C329.441 70.884 329.657 71.076 329.657 71.46C329.657 71.868 329.381 72.072 328.829 72.072C328.613 72.072 328.289 72.048 327.857 72C327.437 71.952 327.119 71.928 326.903 71.928C326.711 71.928 326.429 71.952 326.057 72C325.697 72.048 325.427 72.072 325.247 72.072C324.791 72.072 324.563 71.868 324.563 71.46C324.563 71.076 324.779 70.884 325.211 70.884C325.331 70.884 325.427 70.89 325.499 70.902C325.715 70.962 325.853 70.992 325.913 70.992C326.021 70.992 326.075 70.95 326.075 70.866C326.075 70.854 326.075 70.836 326.075 70.812C326.063 70.8 326.057 70.788 326.057 70.776L325.877 70.524L325.643 70.182L323.843 67.788C323.723 67.632 323.627 67.554 323.555 67.554C323.507 67.554 323.417 67.614 323.285 67.734L321.953 68.922V69.336C321.953 69.912 321.959 70.236 321.971 70.308C322.031 70.728 322.199 70.938 322.475 70.938C322.595 70.938 322.697 70.932 322.781 70.92C322.865 70.896 322.979 70.884 323.123 70.884C323.531 70.884 323.735 71.082 323.735 71.478C323.735 71.874 323.507 72.072 323.051 72.072C322.847 72.072 322.535 72.048 322.115 72C321.707 71.94 321.395 71.91 321.179 71.91C320.903 71.91 320.585 71.934 320.225 71.982C319.769 72.042 319.463 72.072 319.307 72.072C318.839 72.072 318.605 71.874 318.605 71.478C318.605 71.082 318.833 70.884 319.289 70.884C319.385 70.884 319.499 70.896 319.631 70.92C319.823 70.956 319.955 70.974 320.027 70.974C320.315 70.974 320.477 70.746 320.513 70.29L320.567 69.588V62.316C320.543 61.668 320.501 61.26 320.441 61.092C320.381 60.912 320.255 60.822 320.063 60.822C320.003 60.822 319.889 60.834 319.721 60.858C319.553 60.918 319.385 60.948 319.217 60.948C318.821 60.948 318.623 60.762 318.623 60.39C318.623 59.982 318.857 59.778 319.325 59.778C319.565 59.778 319.733 59.784 319.829 59.796C320.129 59.832 320.327 59.85 320.423 59.85C320.519 59.85 320.657 59.838 320.837 59.814C321.029 59.778 321.167 59.76 321.251 59.76H321.377C321.761 59.76 321.953 60.006 321.953 60.498V67.446ZM338.181 66.708C338.181 67.164 338.151 67.446 338.091 67.554C338.031 67.65 337.857 67.698 337.569 67.698H331.845C331.689 67.698 331.587 67.722 331.539 67.77C331.491 67.806 331.467 67.872 331.467 67.968C331.467 68.868 331.737 69.618 332.277 70.218C332.817 70.818 333.489 71.118 334.293 71.118C334.821 71.118 335.301 70.974 335.733 70.686C336.177 70.398 336.465 70.032 336.597 69.588L336.759 69.066C336.843 68.778 337.041 68.634 337.353 68.634C337.797 68.634 338.019 68.862 338.019 69.318C338.019 70.098 337.623 70.794 336.831 71.406C336.039 72.006 335.139 72.306 334.131 72.306C332.871 72.306 331.869 71.886 331.125 71.046C330.381 70.194 330.009 69.054 330.009 67.626C330.009 66.162 330.405 64.974 331.197 64.062C331.989 63.15 333.021 62.694 334.293 62.694C335.421 62.694 336.351 63.072 337.083 63.828C337.815 64.584 338.181 65.544 338.181 66.708ZM331.647 66.24C331.647 66.408 331.779 66.492 332.043 66.492H336.345C336.597 66.492 336.723 66.408 336.723 66.24C336.723 65.604 336.483 65.052 336.003 64.584C335.523 64.116 334.959 63.882 334.311 63.882C333.639 63.882 333.027 64.128 332.475 64.62C331.923 65.1 331.647 65.64 331.647 66.24ZM342.236 63.522V64.008C342.86 63.132 343.694 62.694 344.738 62.694C345.578 62.694 346.256 62.934 346.772 63.414C347.3 63.882 347.564 64.488 347.564 65.232C347.564 65.76 347.432 66.192 347.168 66.528C346.904 66.852 346.556 67.014 346.124 67.014C345.848 67.014 345.614 66.93 345.422 66.762C345.23 66.594 345.134 66.39 345.134 66.15C345.134 65.958 345.206 65.79 345.35 65.646C345.494 65.49 345.662 65.412 345.854 65.412C345.89 65.412 345.968 65.43 346.088 65.466C346.16 65.322 346.196 65.19 346.196 65.07C346.196 64.722 346.04 64.428 345.728 64.188C345.428 63.948 345.05 63.828 344.594 63.828C343.658 63.828 343.034 64.248 342.722 65.088C342.53 65.604 342.434 66.384 342.434 67.428V68.616C342.434 69.42 342.44 69.87 342.452 69.966C342.512 70.65 342.698 70.992 343.01 70.992C343.166 70.992 343.328 70.968 343.496 70.92C343.628 70.884 343.742 70.866 343.838 70.866C344.222 70.866 344.414 71.058 344.414 71.442C344.414 71.862 344.168 72.072 343.676 72.072H343.604C343.424 72.072 343.148 72.048 342.776 72C342.416 71.964 342.146 71.946 341.966 71.946C341.486 71.946 341.108 71.958 340.832 71.982L339.824 72.072C339.332 72.072 339.086 71.862 339.086 71.442C339.086 71.07 339.314 70.884 339.77 70.884C339.89 70.884 339.98 70.89 340.04 70.902L340.31 70.956C340.43 70.98 340.514 70.992 340.562 70.992C340.862 70.992 341.024 70.716 341.048 70.164L341.084 69.246L341.03 65.16C340.994 64.452 340.814 64.098 340.49 64.098C340.394 64.098 340.262 64.116 340.094 64.152C339.926 64.188 339.794 64.206 339.698 64.206C339.302 64.206 339.104 64.014 339.104 63.63C339.104 63.21 339.362 63 339.878 63C339.998 63 340.178 63.018 340.418 63.054C340.658 63.078 340.838 63.09 340.958 63.09C341.054 63.09 341.21 63.078 341.426 63.054C341.522 63.03 341.636 63.018 341.768 63.018C342.08 63.018 342.236 63.186 342.236 63.522ZM348.454 72.306C348.142 72.306 347.878 72.198 347.662 71.982C347.446 71.754 347.338 71.484 347.338 71.172C347.338 70.86 347.446 70.596 347.662 70.38C347.878 70.152 348.142 70.038 348.454 70.038C348.766 70.038 349.03 70.152 349.246 70.38C349.462 70.596 349.57 70.86 349.57 71.172C349.57 71.484 349.462 71.754 349.246 71.982C349.03 72.198 348.766 72.306 348.454 72.306ZM356.868 66.06C356.868 65.58 357.168 65.304 357.768 65.232C357.708 64.812 357.504 64.482 357.156 64.242C356.82 64.002 356.382 63.882 355.842 63.882C355.014 63.882 354.348 64.212 353.844 64.872C353.34 65.532 353.088 66.408 353.088 67.5C353.088 68.628 353.322 69.516 353.79 70.164C354.27 70.8 354.93 71.118 355.77 71.118C356.298 71.118 356.754 70.968 357.138 70.668C357.534 70.368 357.804 69.954 357.948 69.426C358.068 69.006 358.14 68.766 358.164 68.706C358.296 68.466 358.488 68.346 358.74 68.346C358.944 68.346 359.112 68.412 359.244 68.544C359.376 68.676 359.442 68.844 359.442 69.048C359.442 69.348 359.346 69.708 359.154 70.128C358.962 70.548 358.734 70.896 358.47 71.172C357.762 71.928 356.844 72.306 355.716 72.306C354.492 72.306 353.502 71.874 352.746 71.01C352.002 70.146 351.63 69.012 351.63 67.608C351.63 66.12 352.014 64.932 352.782 64.044C353.562 63.144 354.594 62.694 355.878 62.694C356.838 62.694 357.636 62.958 358.272 63.486C358.908 64.002 359.226 64.662 359.226 65.466C359.226 65.91 359.1 66.276 358.848 66.564C358.608 66.852 358.296 66.996 357.912 66.996C357.612 66.996 357.36 66.906 357.156 66.726C356.964 66.546 356.868 66.324 356.868 66.06ZM364.946 72.306C363.686 72.306 362.678 71.874 361.922 71.01C361.166 70.134 360.788 68.964 360.788 67.5C360.788 66.036 361.166 64.872 361.922 64.008C362.69 63.132 363.716 62.694 365 62.694C366.308 62.694 367.34 63.12 368.096 63.972C368.852 64.824 369.23 65.982 369.23 67.446C369.23 68.91 368.84 70.086 368.06 70.974C367.28 71.862 366.242 72.306 364.946 72.306ZM365.036 63.882C364.196 63.882 363.536 64.176 363.056 64.764C362.576 65.352 362.312 66.186 362.264 67.266C362.264 67.266 362.264 67.344 362.264 67.5C362.264 68.628 362.498 69.516 362.966 70.164C363.446 70.8 364.112 71.118 364.964 71.118C365.84 71.118 366.524 70.8 367.016 70.164C367.52 69.516 367.772 68.622 367.772 67.482C367.772 65.082 366.86 63.882 365.036 63.882ZM373.332 63.54V64.062C373.764 63.546 374.172 63.192 374.556 63C374.94 62.796 375.42 62.694 375.996 62.694C377.172 62.694 378.036 63.15 378.588 64.062C378.996 63.558 379.41 63.204 379.83 63C380.25 62.796 380.79 62.694 381.45 62.694C382.134 62.694 382.746 62.838 383.286 63.126C383.886 63.45 384.3 63.906 384.528 64.494C384.684 64.89 384.762 65.514 384.762 66.366V68.112L384.744 69.462C384.744 69.954 384.75 70.254 384.762 70.362C384.822 70.794 384.978 71.01 385.23 71.01C385.314 71.01 385.44 70.992 385.608 70.956C385.776 70.92 385.902 70.902 385.986 70.902C386.406 70.902 386.616 71.082 386.616 71.442C386.616 71.862 386.376 72.072 385.896 72.072C385.716 72.072 385.44 72.048 385.068 72C384.708 71.964 384.432 71.946 384.24 71.946C384.036 71.946 383.736 71.964 383.34 72C382.956 72.048 382.662 72.072 382.458 72.072C381.954 72.072 381.702 71.862 381.702 71.442C381.702 71.082 381.894 70.902 382.278 70.902C382.326 70.902 382.446 70.914 382.638 70.938C382.71 70.962 382.806 70.974 382.926 70.974C383.13 70.974 383.256 70.872 383.304 70.668C383.364 70.464 383.4 69.954 383.412 69.138L383.43 68.04V66.852C383.43 66.024 383.364 65.424 383.232 65.052C383.112 64.668 382.878 64.368 382.53 64.152C382.182 63.936 381.786 63.828 381.342 63.828C380.49 63.828 379.896 64.122 379.56 64.71C379.296 65.178 379.164 65.994 379.164 67.158V68.436C379.164 69.564 379.188 70.272 379.236 70.56C379.296 70.836 379.44 70.974 379.668 70.974C379.74 70.974 379.842 70.962 379.974 70.938C380.118 70.902 380.226 70.884 380.298 70.884C380.466 70.884 380.604 70.944 380.712 71.064C380.832 71.172 380.892 71.31 380.892 71.478C380.892 71.874 380.61 72.072 380.046 72.072C379.866 72.072 379.596 72.048 379.236 72C378.888 71.952 378.624 71.928 378.444 71.928C378.192 71.928 377.916 71.952 377.616 72C377.316 72.048 377.052 72.072 376.824 72.072C376.332 72.072 376.086 71.868 376.086 71.46C376.086 71.088 376.266 70.902 376.626 70.902C376.758 70.902 376.86 70.914 376.932 70.938C377.1 70.974 377.226 70.992 377.31 70.992C377.598 70.992 377.748 70.686 377.76 70.074L377.778 69.228C377.79 68.964 377.796 68.706 377.796 68.454C377.808 68.238 377.814 68.124 377.814 68.112V66.618C377.814 65.574 377.67 64.848 377.382 64.44C377.106 64.032 376.608 63.828 375.888 63.828C375.096 63.828 374.49 64.116 374.07 64.692C373.722 65.16 373.548 65.976 373.548 67.14V69.534C373.548 70.014 373.554 70.296 373.566 70.38C373.614 70.788 373.746 70.992 373.962 70.992C374.022 70.992 374.148 70.968 374.34 70.92C374.364 70.92 374.4 70.914 374.448 70.902C374.496 70.902 374.538 70.902 374.574 70.902C375.042 70.902 375.276 71.1 375.276 71.496C375.276 71.88 375.006 72.072 374.466 72.072C374.262 72.072 374.01 72.054 373.71 72.018C373.302 71.97 372.954 71.946 372.666 71.946C372.522 71.946 372.258 71.964 371.874 72C371.358 72.048 371.046 72.072 370.938 72.072C370.458 72.072 370.218 71.868 370.218 71.46C370.218 71.088 370.446 70.902 370.902 70.902C370.926 70.902 370.962 70.902 371.01 70.902C371.058 70.914 371.094 70.92 371.118 70.92L371.568 71.01C371.58 71.022 371.604 71.028 371.64 71.028C371.964 71.028 372.138 70.734 372.162 70.146L372.198 69.12V66.366C372.198 65.346 372.168 64.71 372.108 64.458C372.06 64.206 371.916 64.08 371.676 64.08C371.628 64.08 371.46 64.11 371.172 64.17C371.052 64.194 370.956 64.206 370.884 64.206C370.44 64.206 370.218 64.014 370.218 63.63C370.218 63.222 370.464 63.018 370.956 63.018C371.088 63.018 371.268 63.03 371.496 63.054C371.724 63.078 371.922 63.09 372.09 63.09C372.15 63.09 372.216 63.084 372.288 63.072C372.36 63.072 372.402 63.072 372.414 63.072L372.846 63.018H372.9C373.188 63.018 373.332 63.192 373.332 63.54Z" fill="black"/>
<rect x="690" y="49" width="152" height="36" rx="4" fill="#C4C4C4" fill-opacity="0.1"/>
<rect x="690.5" y="49.5" width="151" height="35" rx="3.5" stroke="#071435" stroke-opacity="0.1" stroke-linecap="round"/>
<path d="M697.712 73.476C697.712 73.728 697.604 73.962 697.388 74.178C697.712 74.418 698.042 74.538 698.378 74.538C699.05 74.538 699.53 74.34 699.818 73.944C700.118 73.548 700.268 72.912 700.268 72.036L700.286 66.384C700.286 65.328 700.256 64.68 700.196 64.44C700.136 64.188 699.974 64.062 699.71 64.062C699.578 64.062 699.41 64.086 699.206 64.134C699.098 64.17 698.99 64.188 698.882 64.188C698.498 64.188 698.306 63.996 698.306 63.612C698.306 63.216 698.558 63.018 699.062 63.018C699.242 63.018 699.398 63.024 699.53 63.036C699.914 63.072 700.184 63.09 700.34 63.09C700.436 63.09 700.586 63.078 700.79 63.054C700.994 63.018 701.144 63 701.24 63C701.588 63 701.762 63.192 701.762 63.576C701.762 63.636 701.756 63.756 701.744 63.936C701.732 64.152 701.726 64.326 701.726 64.458C701.714 64.65 701.696 65.082 701.672 65.754C701.648 66.51 701.636 67.092 701.636 67.5V71.568C701.636 72.288 701.606 72.822 701.546 73.17C701.438 73.734 701.222 74.214 700.898 74.61C700.322 75.306 699.518 75.654 698.486 75.654C697.766 75.654 697.166 75.474 696.686 75.114C696.206 74.754 695.966 74.304 695.966 73.764C695.966 73.464 696.056 73.212 696.236 73.008C696.404 72.816 696.62 72.72 696.884 72.72C697.112 72.72 697.31 72.792 697.478 72.936C697.634 73.092 697.712 73.272 697.712 73.476ZM700.736 62.064C700.46 62.064 700.22 61.968 700.016 61.776C699.824 61.572 699.728 61.332 699.728 61.056C699.728 60.78 699.824 60.546 700.016 60.354C700.22 60.162 700.46 60.066 700.736 60.066C701.012 60.066 701.252 60.168 701.456 60.372C701.66 60.564 701.762 60.792 701.762 61.056C701.762 61.332 701.66 61.572 701.456 61.776C701.252 61.968 701.012 62.064 700.736 62.064ZM711.68 72.234C710.696 72.234 710.09 71.808 709.862 70.956C709.25 71.856 708.29 72.306 706.982 72.306C706.01 72.306 705.23 72.066 704.642 71.586C704.066 71.106 703.778 70.464 703.778 69.66C703.778 68.664 704.204 67.932 705.056 67.464C705.38 67.284 705.656 67.17 705.884 67.122C706.124 67.062 706.598 66.99 707.306 66.906C708.314 66.798 708.968 66.648 709.268 66.456C709.58 66.264 709.736 65.91 709.736 65.394C709.736 64.902 709.562 64.518 709.214 64.242C708.878 63.954 708.404 63.81 707.792 63.81C707.252 63.81 706.748 63.96 706.28 64.26C706.1 64.38 706.01 64.506 706.01 64.638C706.01 64.686 706.064 64.746 706.172 64.818C706.34 64.938 706.424 65.142 706.424 65.43C706.424 65.67 706.334 65.868 706.154 66.024C705.986 66.18 705.77 66.258 705.506 66.258C705.194 66.258 704.93 66.15 704.714 65.934C704.51 65.718 704.408 65.454 704.408 65.142C704.408 64.47 704.738 63.894 705.398 63.414C706.07 62.934 706.88 62.694 707.828 62.694C710.012 62.694 711.104 63.744 711.104 65.844V69.48C711.104 70.056 711.116 70.398 711.14 70.506C711.212 70.926 711.416 71.136 711.752 71.136C712.172 71.136 712.382 70.752 712.382 69.984V69.102C712.382 68.718 712.568 68.526 712.94 68.526C713.336 68.526 713.534 68.814 713.534 69.39V69.48L713.516 70.506C713.492 71.658 712.88 72.234 711.68 72.234ZM709.682 68.652L709.7 67.374C709.436 67.614 709.154 67.782 708.854 67.878C708.566 67.974 708.044 68.058 707.288 68.13C705.92 68.262 705.236 68.766 705.236 69.642C705.236 70.098 705.398 70.458 705.722 70.722C706.058 70.986 706.508 71.118 707.072 71.118C707.876 71.118 708.506 70.902 708.962 70.47C709.43 70.026 709.67 69.42 709.682 68.652ZM716.854 63.558V64.062C717.574 63.15 718.534 62.694 719.734 62.694C720.382 62.694 720.994 62.862 721.57 63.198C722.146 63.522 722.536 63.93 722.74 64.422C722.908 64.83 722.992 65.364 722.992 66.024V69.444C722.992 69.96 722.998 70.266 723.01 70.362C723.07 70.77 723.232 70.974 723.496 70.974C723.604 70.974 723.742 70.962 723.91 70.938C724.09 70.902 724.216 70.884 724.288 70.884C724.444 70.884 724.576 70.938 724.684 71.046C724.804 71.154 724.864 71.286 724.864 71.442C724.864 71.622 724.792 71.772 724.648 71.892C724.504 72.012 724.33 72.072 724.126 72.072C723.958 72.072 723.682 72.048 723.298 72C722.914 71.952 722.554 71.928 722.218 71.928C721.906 71.928 721.648 71.94 721.444 71.964C720.844 72.036 720.526 72.072 720.49 72.072C720.01 72.072 719.77 71.862 719.77 71.442C719.77 71.07 719.974 70.884 720.382 70.884C720.478 70.884 720.586 70.896 720.706 70.92C720.934 70.968 721.078 70.992 721.138 70.992C721.426 70.992 721.582 70.662 721.606 70.002L721.642 69.084L721.66 67.986V66.618C721.66 65.982 721.63 65.544 721.57 65.304C721.462 64.848 721.228 64.494 720.868 64.242C720.472 63.966 720.022 63.828 719.518 63.828C718.558 63.828 717.868 64.17 717.448 64.854C717.16 65.322 717.016 66.12 717.016 67.248V69.642C717.016 70.17 717.052 70.53 717.124 70.722C717.196 70.914 717.328 71.01 717.52 71.01C717.616 71.01 717.748 70.986 717.916 70.938C718.084 70.89 718.222 70.866 718.33 70.866C718.702 70.866 718.888 71.07 718.888 71.478C718.888 71.874 718.648 72.072 718.168 72.072C718.072 72.072 717.76 72.036 717.232 71.964C716.968 71.928 716.674 71.91 716.35 71.91C716.098 71.91 715.762 71.934 715.342 71.982C714.814 72.042 714.514 72.072 714.442 72.072C713.938 72.072 713.686 71.868 713.686 71.46C713.686 71.076 713.878 70.884 714.262 70.884C714.322 70.884 714.43 70.902 714.586 70.938C714.754 70.974 714.916 70.992 715.072 70.992C715.432 70.992 715.618 70.644 715.63 69.948L715.666 67.95V65.772L715.63 65.142C715.606 64.734 715.552 64.458 715.468 64.314C715.396 64.158 715.264 64.08 715.072 64.08C714.988 64.08 714.862 64.098 714.694 64.134C714.538 64.158 714.418 64.17 714.334 64.17C713.902 64.17 713.686 63.978 713.686 63.594C713.686 63.198 713.956 63 714.496 63C714.568 63 714.628 63.006 714.676 63.018L715.342 63.09C715.534 63.09 715.702 63.078 715.846 63.054C716.158 63.03 716.32 63.018 716.332 63.018C716.68 63.018 716.854 63.198 716.854 63.558ZM733.733 66.708C733.733 67.164 733.703 67.446 733.643 67.554C733.583 67.65 733.409 67.698 733.121 67.698H727.397C727.241 67.698 727.139 67.722 727.091 67.77C727.043 67.806 727.019 67.872 727.019 67.968C727.019 68.868 727.289 69.618 727.829 70.218C728.369 70.818 729.041 71.118 729.845 71.118C730.373 71.118 730.853 70.974 731.285 70.686C731.729 70.398 732.017 70.032 732.149 69.588L732.311 69.066C732.395 68.778 732.593 68.634 732.905 68.634C733.349 68.634 733.571 68.862 733.571 69.318C733.571 70.098 733.175 70.794 732.383 71.406C731.591 72.006 730.691 72.306 729.683 72.306C728.423 72.306 727.421 71.886 726.677 71.046C725.933 70.194 725.561 69.054 725.561 67.626C725.561 66.162 725.957 64.974 726.749 64.062C727.541 63.15 728.573 62.694 729.845 62.694C730.973 62.694 731.903 63.072 732.635 63.828C733.367 64.584 733.733 65.544 733.733 66.708ZM727.199 66.24C727.199 66.408 727.331 66.492 727.595 66.492H731.897C732.149 66.492 732.275 66.408 732.275 66.24C732.275 65.604 732.035 65.052 731.555 64.584C731.075 64.116 730.511 63.882 729.863 63.882C729.191 63.882 728.579 64.128 728.027 64.62C727.475 65.1 727.199 65.64 727.199 66.24ZM741.515 68.382C741.515 68.286 741.521 68.202 741.533 68.13C741.077 68.838 740.375 69.192 739.427 69.192C738.851 69.192 738.383 69 738.023 68.616C737.675 68.22 737.501 67.71 737.501 67.086C737.501 65.994 737.897 65.034 738.689 64.206C739.481 63.366 740.399 62.946 741.443 62.946C741.683 62.946 741.947 62.982 742.235 63.054L742.595 63.144C742.643 63.168 742.703 63.18 742.775 63.18C742.835 63.18 742.937 63.15 743.081 63.09C743.273 63.006 743.411 62.964 743.495 62.964C743.675 62.964 743.765 63.042 743.765 63.198C743.765 63.234 743.753 63.3 743.729 63.396L743.639 63.738L742.613 67.572C742.577 67.716 742.559 67.83 742.559 67.914C742.559 68.13 742.673 68.238 742.901 68.238C743.345 68.238 743.759 67.95 744.143 67.374C744.683 66.57 744.953 65.64 744.953 64.584C744.953 63.588 744.623 62.76 743.963 62.1C743.315 61.44 742.493 61.11 741.497 61.11C740.093 61.11 738.869 61.674 737.825 62.802C736.793 63.918 736.277 65.232 736.277 66.744C736.277 67.92 736.655 68.904 737.411 69.696C738.167 70.476 739.115 70.866 740.255 70.866C740.927 70.866 741.479 70.788 741.911 70.632C742.355 70.464 742.907 70.14 743.567 69.66C743.807 69.48 744.005 69.39 744.161 69.39C744.389 69.39 744.503 69.498 744.503 69.714C744.503 69.942 744.347 70.176 744.035 70.416C742.847 71.352 741.539 71.82 740.111 71.82C738.659 71.82 737.447 71.34 736.475 70.38C735.515 69.408 735.035 68.196 735.035 66.744C735.035 64.992 735.683 63.468 736.979 62.172C738.287 60.864 739.829 60.21 741.605 60.21C742.949 60.21 744.041 60.606 744.881 61.398C745.733 62.19 746.159 63.222 746.159 64.494C746.159 65.922 745.637 67.17 744.593 68.238C743.957 68.886 743.291 69.21 742.595 69.21C742.283 69.21 742.025 69.132 741.821 68.976C741.617 68.82 741.515 68.622 741.515 68.382ZM741.893 65.934L742.379 64.134C742.019 63.954 741.671 63.864 741.335 63.864C740.639 63.864 740.027 64.17 739.499 64.782C738.983 65.394 738.725 66.108 738.725 66.924C738.725 67.752 739.085 68.166 739.805 68.166C740.801 68.166 741.497 67.422 741.893 65.934ZM751.8 62.694C752.112 62.694 752.466 62.742 752.862 62.838C752.922 61.662 753.606 61.074 754.914 61.074C755.466 61.074 755.928 61.218 756.3 61.506C756.672 61.794 756.858 62.16 756.858 62.604C756.858 62.892 756.762 63.138 756.57 63.342C756.39 63.546 756.174 63.648 755.922 63.648C755.73 63.648 755.562 63.582 755.418 63.45C755.274 63.318 755.202 63.162 755.202 62.982C755.202 62.79 755.334 62.592 755.598 62.388C755.406 62.148 755.16 62.028 754.86 62.028C754.224 62.028 753.9 62.424 753.888 63.216C754.8 63.828 755.256 64.65 755.256 65.682C755.256 66.51 754.944 67.2 754.32 67.752C753.696 68.304 752.916 68.58 751.98 68.58C751.32 68.58 750.636 68.424 749.928 68.112C749.736 68.028 749.574 67.986 749.442 67.986C749.274 67.986 749.124 68.064 748.992 68.22C748.86 68.364 748.794 68.538 748.794 68.742C748.794 69.366 749.424 69.678 750.684 69.678H750.792C750.888 69.678 750.996 69.672 751.116 69.66C751.236 69.66 751.308 69.66 751.332 69.66C752.472 69.66 753.396 69.768 754.104 69.984C754.764 70.188 755.286 70.506 755.67 70.938C756.054 71.37 756.246 71.856 756.246 72.396C756.246 73.272 755.838 73.962 755.022 74.466C754.218 74.982 753.126 75.24 751.746 75.24C750.366 75.24 749.28 75 748.488 74.52C747.708 74.04 747.318 73.38 747.318 72.54C747.318 71.568 747.864 70.878 748.956 70.47C747.984 70.086 747.498 69.51 747.498 68.742C747.498 67.902 747.984 67.326 748.956 67.014C748.644 66.594 748.488 66.102 748.488 65.538C748.488 64.722 748.8 64.044 749.424 63.504C750.06 62.964 750.852 62.694 751.8 62.694ZM751.854 63.882C751.326 63.882 750.876 64.038 750.504 64.35C750.132 64.662 749.928 65.052 749.892 65.52C749.892 65.52 749.892 65.556 749.892 65.628C749.892 66.156 750.072 66.582 750.432 66.906C750.792 67.23 751.26 67.392 751.836 67.392C752.436 67.392 752.922 67.23 753.294 66.906C753.678 66.582 753.87 66.168 753.87 65.664C753.87 65.148 753.678 64.722 753.294 64.386C752.91 64.05 752.43 63.882 751.854 63.882ZM751.872 70.866C750.912 70.866 750.156 71.01 749.604 71.298C749.052 71.586 748.776 71.976 748.776 72.468C748.776 72.96 749.046 73.344 749.586 73.62C750.126 73.908 750.852 74.052 751.764 74.052C752.724 74.052 753.48 73.908 754.032 73.62C754.596 73.332 754.878 72.948 754.878 72.468C754.878 71.964 754.614 71.574 754.086 71.298C753.558 71.01 752.82 70.866 751.872 70.866ZM760.06 63.54V64.062C760.492 63.546 760.9 63.192 761.284 63C761.668 62.796 762.148 62.694 762.724 62.694C763.9 62.694 764.764 63.15 765.316 64.062C765.724 63.558 766.138 63.204 766.558 63C766.978 62.796 767.518 62.694 768.178 62.694C768.862 62.694 769.474 62.838 770.014 63.126C770.614 63.45 771.028 63.906 771.256 64.494C771.412 64.89 771.49 65.514 771.49 66.366V68.112L771.472 69.462C771.472 69.954 771.478 70.254 771.49 70.362C771.55 70.794 771.706 71.01 771.958 71.01C772.042 71.01 772.168 70.992 772.336 70.956C772.504 70.92 772.63 70.902 772.714 70.902C773.134 70.902 773.344 71.082 773.344 71.442C773.344 71.862 773.104 72.072 772.624 72.072C772.444 72.072 772.168 72.048 771.796 72C771.436 71.964 771.16 71.946 770.968 71.946C770.764 71.946 770.464 71.964 770.068 72C769.684 72.048 769.39 72.072 769.186 72.072C768.682 72.072 768.43 71.862 768.43 71.442C768.43 71.082 768.622 70.902 769.006 70.902C769.054 70.902 769.174 70.914 769.366 70.938C769.438 70.962 769.534 70.974 769.654 70.974C769.858 70.974 769.984 70.872 770.032 70.668C770.092 70.464 770.128 69.954 770.14 69.138L770.158 68.04V66.852C770.158 66.024 770.092 65.424 769.96 65.052C769.84 64.668 769.606 64.368 769.258 64.152C768.91 63.936 768.514 63.828 768.07 63.828C767.218 63.828 766.624 64.122 766.288 64.71C766.024 65.178 765.892 65.994 765.892 67.158V68.436C765.892 69.564 765.916 70.272 765.964 70.56C766.024 70.836 766.168 70.974 766.396 70.974C766.468 70.974 766.57 70.962 766.702 70.938C766.846 70.902 766.954 70.884 767.026 70.884C767.194 70.884 767.332 70.944 767.44 71.064C767.56 71.172 767.62 71.31 767.62 71.478C767.62 71.874 767.338 72.072 766.774 72.072C766.594 72.072 766.324 72.048 765.964 72C765.616 71.952 765.352 71.928 765.172 71.928C764.92 71.928 764.644 71.952 764.344 72C764.044 72.048 763.78 72.072 763.552 72.072C763.06 72.072 762.814 71.868 762.814 71.46C762.814 71.088 762.994 70.902 763.354 70.902C763.486 70.902 763.588 70.914 763.66 70.938C763.828 70.974 763.954 70.992 764.038 70.992C764.326 70.992 764.476 70.686 764.488 70.074L764.506 69.228C764.518 68.964 764.524 68.706 764.524 68.454C764.536 68.238 764.542 68.124 764.542 68.112V66.618C764.542 65.574 764.398 64.848 764.11 64.44C763.834 64.032 763.336 63.828 762.616 63.828C761.824 63.828 761.218 64.116 760.798 64.692C760.45 65.16 760.276 65.976 760.276 67.14V69.534C760.276 70.014 760.282 70.296 760.294 70.38C760.342 70.788 760.474 70.992 760.69 70.992C760.75 70.992 760.876 70.968 761.068 70.92C761.092 70.92 761.128 70.914 761.176 70.902C761.224 70.902 761.266 70.902 761.302 70.902C761.77 70.902 762.004 71.1 762.004 71.496C762.004 71.88 761.734 72.072 761.194 72.072C760.99 72.072 760.738 72.054 760.438 72.018C760.03 71.97 759.682 71.946 759.394 71.946C759.25 71.946 758.986 71.964 758.602 72C758.086 72.048 757.774 72.072 757.666 72.072C757.186 72.072 756.946 71.868 756.946 71.46C756.946 71.088 757.174 70.902 757.63 70.902C757.654 70.902 757.69 70.902 757.738 70.902C757.786 70.914 757.822 70.92 757.846 70.92L758.296 71.01C758.308 71.022 758.332 71.028 758.368 71.028C758.692 71.028 758.866 70.734 758.89 70.146L758.926 69.12V66.366C758.926 65.346 758.896 64.71 758.836 64.458C758.788 64.206 758.644 64.08 758.404 64.08C758.356 64.08 758.188 64.11 757.9 64.17C757.78 64.194 757.684 64.206 757.612 64.206C757.168 64.206 756.946 64.014 756.946 63.63C756.946 63.222 757.192 63.018 757.684 63.018C757.816 63.018 757.996 63.03 758.224 63.054C758.452 63.078 758.65 63.09 758.818 63.09C758.878 63.09 758.944 63.084 759.016 63.072C759.088 63.072 759.13 63.072 759.142 63.072L759.574 63.018H759.628C759.916 63.018 760.06 63.192 760.06 63.54ZM781.799 72.234C780.815 72.234 780.209 71.808 779.981 70.956C779.369 71.856 778.409 72.306 777.101 72.306C776.129 72.306 775.349 72.066 774.761 71.586C774.185 71.106 773.897 70.464 773.897 69.66C773.897 68.664 774.323 67.932 775.175 67.464C775.499 67.284 775.775 67.17 776.003 67.122C776.243 67.062 776.717 66.99 777.425 66.906C778.433 66.798 779.087 66.648 779.387 66.456C779.699 66.264 779.855 65.91 779.855 65.394C779.855 64.902 779.681 64.518 779.333 64.242C778.997 63.954 778.523 63.81 777.911 63.81C777.371 63.81 776.867 63.96 776.399 64.26C776.219 64.38 776.129 64.506 776.129 64.638C776.129 64.686 776.183 64.746 776.291 64.818C776.459 64.938 776.543 65.142 776.543 65.43C776.543 65.67 776.453 65.868 776.273 66.024C776.105 66.18 775.889 66.258 775.625 66.258C775.313 66.258 775.049 66.15 774.833 65.934C774.629 65.718 774.527 65.454 774.527 65.142C774.527 64.47 774.857 63.894 775.517 63.414C776.189 62.934 776.999 62.694 777.947 62.694C780.131 62.694 781.223 63.744 781.223 65.844V69.48C781.223 70.056 781.235 70.398 781.259 70.506C781.331 70.926 781.535 71.136 781.871 71.136C782.291 71.136 782.501 70.752 782.501 69.984V69.102C782.501 68.718 782.687 68.526 783.059 68.526C783.455 68.526 783.653 68.814 783.653 69.39V69.48L783.635 70.506C783.611 71.658 782.999 72.234 781.799 72.234ZM779.801 68.652L779.819 67.374C779.555 67.614 779.273 67.782 778.973 67.878C778.685 67.974 778.163 68.058 777.407 68.13C776.039 68.262 775.355 68.766 775.355 69.642C775.355 70.098 775.517 70.458 775.841 70.722C776.177 70.986 776.627 71.118 777.191 71.118C777.995 71.118 778.625 70.902 779.081 70.47C779.549 70.026 779.789 69.42 779.801 68.652ZM787.136 66.78V69.12C787.136 69.72 787.142 70.074 787.154 70.182C787.214 70.722 787.376 70.992 787.64 70.992C787.7 70.992 787.85 70.962 788.09 70.902C788.15 70.878 788.24 70.866 788.36 70.866C788.816 70.866 789.044 71.064 789.044 71.46C789.044 71.628 788.966 71.772 788.81 71.892C788.666 72.012 788.48 72.072 788.252 72.072C788.06 72.072 787.766 72.048 787.37 72C786.986 71.94 786.698 71.91 786.506 71.91C786.194 71.91 785.846 71.934 785.462 71.982C784.994 72.042 784.682 72.072 784.526 72.072C784.046 72.072 783.806 71.868 783.806 71.46C783.806 71.064 784.01 70.866 784.418 70.866C784.514 70.866 784.652 70.884 784.832 70.92C785.024 70.956 785.168 70.974 785.264 70.974C785.552 70.974 785.726 70.59 785.786 69.822C785.786 69.774 785.786 69.252 785.786 68.256V66.78C785.786 65.784 785.786 65.262 785.786 65.214C785.726 64.458 785.546 64.08 785.246 64.08C785.15 64.08 785.012 64.104 784.832 64.152C784.664 64.188 784.538 64.206 784.454 64.206C784.022 64.206 783.806 64.014 783.806 63.63C783.806 63.222 784.07 63.018 784.598 63.018C784.826 63.018 784.988 63.024 785.084 63.036C785.468 63.084 785.714 63.108 785.822 63.108C785.918 63.108 786.062 63.096 786.254 63.072C786.458 63.036 786.608 63.018 786.704 63.018C787.052 63.018 787.226 63.252 787.226 63.72C787.226 63.768 787.22 63.84 787.208 63.936C787.196 64.032 787.19 64.104 787.19 64.152C787.178 64.248 787.166 64.62 787.154 65.268C787.142 65.76 787.136 66.264 787.136 66.78ZM786.2 62.064C785.924 62.064 785.684 61.968 785.48 61.776C785.288 61.572 785.192 61.332 785.192 61.056C785.192 60.78 785.288 60.546 785.48 60.354C785.684 60.162 785.924 60.066 786.2 60.066C786.476 60.066 786.71 60.162 786.902 60.354C787.106 60.546 787.208 60.78 787.208 61.056C787.208 61.332 787.106 61.572 786.902 61.776C786.71 61.968 786.476 62.064 786.2 62.064ZM792.6 64.476L792.618 70.074C792.63 70.686 792.792 70.992 793.104 70.992C793.176 70.992 793.326 70.962 793.554 70.902C793.698 70.878 793.794 70.866 793.842 70.866C794.238 70.866 794.436 71.07 794.436 71.478C794.436 71.874 794.19 72.072 793.698 72.072C793.506 72.072 793.2 72.048 792.78 72C792.36 71.952 792.036 71.928 791.808 71.928C791.616 71.928 791.328 71.952 790.944 72C790.56 72.048 790.278 72.072 790.098 72.072H790.008C789.504 72.072 789.252 71.856 789.252 71.424C789.252 71.052 789.456 70.866 789.864 70.866C789.888 70.866 789.93 70.866 789.99 70.866C790.062 70.878 790.116 70.884 790.152 70.884C790.452 70.932 790.626 70.956 790.674 70.956C790.89 70.956 791.022 70.866 791.07 70.686C791.13 70.494 791.166 70.008 791.178 69.228L791.196 67.968L791.25 65.178L791.232 61.974C791.22 61.614 791.202 61.374 791.178 61.254C791.094 60.978 790.926 60.84 790.674 60.84C790.638 60.84 790.482 60.864 790.206 60.912C790.074 60.936 789.966 60.948 789.882 60.948C789.474 60.948 789.27 60.756 789.27 60.372C789.27 59.976 789.51 59.778 789.99 59.778C790.122 59.778 790.236 59.784 790.332 59.796L790.764 59.85C790.956 59.874 791.118 59.886 791.25 59.886C791.37 59.886 791.55 59.868 791.79 59.832C792.03 59.784 792.21 59.76 792.33 59.76C792.606 59.76 792.744 59.934 792.744 60.282C792.744 60.402 792.738 60.492 792.726 60.552C792.642 61.476 792.6 62.784 792.6 64.476ZM797.093 72.306C796.781 72.306 796.517 72.198 796.301 71.982C796.085 71.754 795.977 71.484 795.977 71.172C795.977 70.86 796.085 70.596 796.301 70.38C796.517 70.152 796.781 70.038 797.093 70.038C797.405 70.038 797.669 70.152 797.885 70.38C798.101 70.596 798.209 70.86 798.209 71.172C798.209 71.484 798.101 71.754 797.885 71.982C797.669 72.198 797.405 72.306 797.093 72.306ZM805.506 66.06C805.506 65.58 805.806 65.304 806.406 65.232C806.346 64.812 806.142 64.482 805.794 64.242C805.458 64.002 805.02 63.882 804.48 63.882C803.652 63.882 802.986 64.212 802.482 64.872C801.978 65.532 801.726 66.408 801.726 67.5C801.726 68.628 801.96 69.516 802.428 70.164C802.908 70.8 803.568 71.118 804.408 71.118C804.936 71.118 805.392 70.968 805.776 70.668C806.172 70.368 806.442 69.954 806.586 69.426C806.706 69.006 806.778 68.766 806.802 68.706C806.934 68.466 807.126 68.346 807.378 68.346C807.582 68.346 807.75 68.412 807.882 68.544C808.014 68.676 808.08 68.844 808.08 69.048C808.08 69.348 807.984 69.708 807.792 70.128C807.6 70.548 807.372 70.896 807.108 71.172C806.4 71.928 805.482 72.306 804.354 72.306C803.13 72.306 802.14 71.874 801.384 71.01C800.64 70.146 800.268 69.012 800.268 67.608C800.268 66.12 800.652 64.932 801.42 64.044C802.2 63.144 803.232 62.694 804.516 62.694C805.476 62.694 806.274 62.958 806.91 63.486C807.546 64.002 807.864 64.662 807.864 65.466C807.864 65.91 807.738 66.276 807.486 66.564C807.246 66.852 806.934 66.996 806.55 66.996C806.25 66.996 805.998 66.906 805.794 66.726C805.602 66.546 805.506 66.324 805.506 66.06ZM813.584 72.306C812.324 72.306 811.316 71.874 810.56 71.01C809.804 70.134 809.426 68.964 809.426 67.5C809.426 66.036 809.804 64.872 810.56 64.008C811.328 63.132 812.354 62.694 813.638 62.694C814.946 62.694 815.978 63.12 816.734 63.972C817.49 64.824 817.868 65.982 817.868 67.446C817.868 68.91 817.478 70.086 816.698 70.974C815.918 71.862 814.88 72.306 813.584 72.306ZM813.674 63.882C812.834 63.882 812.174 64.176 811.694 64.764C811.214 65.352 810.95 66.186 810.902 67.266C810.902 67.266 810.902 67.344 810.902 67.5C810.902 68.628 811.136 69.516 811.604 70.164C812.084 70.8 812.75 71.118 813.602 71.118C814.478 71.118 815.162 70.8 815.654 70.164C816.158 69.516 816.41 68.622 816.41 67.482C816.41 65.082 815.498 63.882 813.674 63.882ZM821.97 63.54V64.062C822.402 63.546 822.81 63.192 823.194 63C823.578 62.796 824.058 62.694 824.634 62.694C825.81 62.694 826.674 63.15 827.226 64.062C827.634 63.558 828.048 63.204 828.468 63C828.888 62.796 829.428 62.694 830.088 62.694C830.772 62.694 831.384 62.838 831.924 63.126C832.524 63.45 832.938 63.906 833.166 64.494C833.322 64.89 833.4 65.514 833.4 66.366V68.112L833.382 69.462C833.382 69.954 833.388 70.254 833.4 70.362C833.46 70.794 833.616 71.01 833.868 71.01C833.952 71.01 834.078 70.992 834.246 70.956C834.414 70.92 834.54 70.902 834.624 70.902C835.044 70.902 835.254 71.082 835.254 71.442C835.254 71.862 835.014 72.072 834.534 72.072C834.354 72.072 834.078 72.048 833.706 72C833.346 71.964 833.07 71.946 832.878 71.946C832.674 71.946 832.374 71.964 831.978 72C831.594 72.048 831.3 72.072 831.096 72.072C830.592 72.072 830.34 71.862 830.34 71.442C830.34 71.082 830.532 70.902 830.916 70.902C830.964 70.902 831.084 70.914 831.276 70.938C831.348 70.962 831.444 70.974 831.564 70.974C831.768 70.974 831.894 70.872 831.942 70.668C832.002 70.464 832.038 69.954 832.05 69.138L832.068 68.04V66.852C832.068 66.024 832.002 65.424 831.87 65.052C831.75 64.668 831.516 64.368 831.168 64.152C830.82 63.936 830.424 63.828 829.98 63.828C829.128 63.828 828.534 64.122 828.198 64.71C827.934 65.178 827.802 65.994 827.802 67.158V68.436C827.802 69.564 827.826 70.272 827.874 70.56C827.934 70.836 828.078 70.974 828.306 70.974C828.378 70.974 828.48 70.962 828.612 70.938C828.756 70.902 828.864 70.884 828.936 70.884C829.104 70.884 829.242 70.944 829.35 71.064C829.47 71.172 829.53 71.31 829.53 71.478C829.53 71.874 829.248 72.072 828.684 72.072C828.504 72.072 828.234 72.048 827.874 72C827.526 71.952 827.262 71.928 827.082 71.928C826.83 71.928 826.554 71.952 826.254 72C825.954 72.048 825.69 72.072 825.462 72.072C824.97 72.072 824.724 71.868 824.724 71.46C824.724 71.088 824.904 70.902 825.264 70.902C825.396 70.902 825.498 70.914 825.57 70.938C825.738 70.974 825.864 70.992 825.948 70.992C826.236 70.992 826.386 70.686 826.398 70.074L826.416 69.228C826.428 68.964 826.434 68.706 826.434 68.454C826.446 68.238 826.452 68.124 826.452 68.112V66.618C826.452 65.574 826.308 64.848 826.02 64.44C825.744 64.032 825.246 63.828 824.526 63.828C823.734 63.828 823.128 64.116 822.708 64.692C822.36 65.16 822.186 65.976 822.186 67.14V69.534C822.186 70.014 822.192 70.296 822.204 70.38C822.252 70.788 822.384 70.992 822.6 70.992C822.66 70.992 822.786 70.968 822.978 70.92C823.002 70.92 823.038 70.914 823.086 70.902C823.134 70.902 823.176 70.902 823.212 70.902C823.68 70.902 823.914 71.1 823.914 71.496C823.914 71.88 823.644 72.072 823.104 72.072C822.9 72.072 822.648 72.054 822.348 72.018C821.94 71.97 821.592 71.946 821.304 71.946C821.16 71.946 820.896 71.964 820.512 72C819.996 72.048 819.684 72.072 819.576 72.072C819.096 72.072 818.856 71.868 818.856 71.46C818.856 71.088 819.084 70.902 819.54 70.902C819.564 70.902 819.6 70.902 819.648 70.902C819.696 70.914 819.732 70.92 819.756 70.92L820.206 71.01C820.218 71.022 820.242 71.028 820.278 71.028C820.602 71.028 820.776 70.734 820.8 70.146L820.836 69.12V66.366C820.836 65.346 820.806 64.71 820.746 64.458C820.698 64.206 820.554 64.08 820.314 64.08C820.266 64.08 820.098 64.11 819.81 64.17C819.69 64.194 819.594 64.206 819.522 64.206C819.078 64.206 818.856 64.014 818.856 63.63C818.856 63.222 819.102 63.018 819.594 63.018C819.726 63.018 819.906 63.03 820.134 63.054C820.362 63.078 820.56 63.09 820.728 63.09C820.788 63.09 820.854 63.084 820.926 63.072C820.998 63.072 821.04 63.072 821.052 63.072L821.484 63.018H821.538C821.826 63.018 821.97 63.192 821.97 63.54Z" fill="black"/>
<path d="M412.535 63.0791C410.979 63.0791 409.96 63.7119 409.107 64.8896L409.995 65.54C410.602 64.6348 411.375 64.1074 412.544 64.1074C414.302 64.1074 414.979 64.9863 414.979 66.8408V66.9463H412.447C410.18 66.9463 408.765 67.667 408.765 69.4512C408.765 71.1387 410.013 72.1318 411.797 72.1318C413.106 72.1318 414.328 71.4902 414.987 70.2158L415.066 72H416.033V66.6387C416.033 64.4326 414.785 63.0791 412.535 63.0791ZM412.017 71.1387C410.698 71.1387 409.951 70.4883 409.951 69.4863C409.951 68.4316 410.777 67.8076 412.509 67.8076H414.979V68.7041C414.574 70.1455 413.546 71.1387 412.017 71.1387ZM418.942 72H420.103V66.8057C420.103 65.1006 421.061 64.1602 422.546 64.1602C423.987 64.1602 424.743 65.1094 424.743 66.709V72H425.903V66.4365C425.868 64.5381 424.901 63.0791 422.854 63.0791C421.693 63.0791 420.656 63.6416 420.103 64.7139V63.2197H418.942V72ZM432.021 72.1318C433.427 72.1318 434.648 71.332 435.193 70.0049L435.237 72H436.327V59.5811H435.149V65.1533C434.604 63.8613 433.383 63.0791 432.003 63.0791C429.639 63.0791 428.101 65.1182 428.101 67.5967C428.101 70.1016 429.639 72.1318 432.021 72.1318ZM432.275 71.0771C430.447 71.0771 429.278 69.5566 429.278 67.5967C429.278 65.6543 430.447 64.1426 432.275 64.1426C434.104 64.1426 435.237 65.6367 435.237 67.5967C435.237 69.583 434.104 71.0771 432.275 71.0771ZM444.105 72H445.266V66.7969C445.266 65.2676 446.188 64.1689 447.656 64.1689C449.098 64.1689 449.722 65.1357 449.722 66.6914V72H450.882V66.7969C450.882 65.2676 451.805 64.1689 453.264 64.1689C454.758 64.1689 455.338 65.1885 455.338 67.0078V72H456.498V66.8672C456.498 64.6172 455.584 63.0791 453.475 63.0791C452.174 63.0791 451.093 63.7383 450.574 65.0215C450.179 63.6768 449.159 63.0791 447.867 63.0791C446.689 63.0791 445.705 63.624 445.222 64.749V63.2197H444.097L444.105 72ZM462.387 63.0791C460.831 63.0791 459.812 63.7119 458.959 64.8896L459.847 65.54C460.453 64.6348 461.227 64.1074 462.396 64.1074C464.153 64.1074 464.83 64.9863 464.83 66.8408V66.9463H462.299C460.031 66.9463 458.616 67.667 458.616 69.4512C458.616 71.1387 459.864 72.1318 461.648 72.1318C462.958 72.1318 464.18 71.4902 464.839 70.2158L464.918 72H465.885V66.6387C465.885 64.4326 464.637 63.0791 462.387 63.0791ZM461.868 71.1387C460.55 71.1387 459.803 70.4883 459.803 69.4863C459.803 68.4316 460.629 67.8076 462.36 67.8076H464.83V68.7041C464.426 70.1455 463.397 71.1387 461.868 71.1387ZM468.768 61.3828H469.98V59.5811H468.768V61.3828ZM468.794 72H469.945V63.2197H468.794V72ZM474.674 72.1318C475.052 72.1318 475.526 72.0703 475.913 71.9912L475.896 70.998C475.632 71.0508 475.368 71.0859 475.184 71.0859C474.305 71.0859 474.217 70.5234 474.217 69.8467V59.5811H473.057V70.1455C473.057 71.3848 473.426 72.1318 474.674 72.1318ZM483.999 72H485.098L487.497 64.8193L489.896 72H490.995L493.562 63.2197H492.313L490.38 70.2422L488.033 63.2197H486.97L484.614 70.251L482.689 63.2197H481.441L483.999 72ZM495.574 61.3828H496.787V59.5811H495.574V61.3828ZM495.601 72H496.752V63.2197H495.601V72ZM501.48 72.1318C501.858 72.1318 502.333 72.0703 502.72 71.9912L502.702 70.998C502.438 71.0508 502.175 71.0859 501.99 71.0859C501.111 71.0859 501.023 70.5234 501.023 69.8467V59.5811H499.863V70.1455C499.863 71.3848 500.232 72.1318 501.48 72.1318ZM506.314 72.1318C506.692 72.1318 507.167 72.0703 507.554 71.9912L507.536 70.998C507.272 71.0508 507.009 71.0859 506.824 71.0859C505.945 71.0859 505.857 70.5234 505.857 69.8467V59.5811H504.697V70.1455C504.697 71.3848 505.066 72.1318 506.314 72.1318ZM518.549 72.1318C520.904 72.1318 522.267 70.0928 522.267 67.5967C522.267 65.1094 520.904 63.0791 518.531 63.0791C517.134 63.0791 515.947 63.8613 515.394 65.1533V59.5811H514.198V72H515.394V70.0576C515.947 71.3496 517.16 72.1318 518.549 72.1318ZM518.276 71.0508C516.448 71.0508 515.297 69.5742 515.297 67.5967C515.297 65.6367 516.448 64.1426 518.276 64.1426C520.113 64.1426 521.098 65.6543 521.098 67.5967C521.098 69.5479 520.113 71.0508 518.276 71.0508ZM528.111 72.1318C529.526 72.1318 530.52 71.7012 531.504 70.6729L530.695 69.9609C529.904 70.7871 529.175 71.0771 528.12 71.0771C526.354 71.0771 525.334 69.8818 525.246 67.9219H531.715C531.75 67.79 531.776 67.4385 531.776 67.1396C531.776 65.3994 530.836 63.0791 527.971 63.0791C525.413 63.0791 524.016 65.1709 524.016 67.6494C524.016 70.1719 525.466 72.1318 528.111 72.1318ZM525.246 67.0605C525.396 65.3027 526.362 64.0723 527.962 64.0723C529.702 64.0723 530.493 65.3203 530.599 66.5068C530.625 66.6826 530.625 66.876 530.616 67.0605H525.246ZM541.734 63.0791C540.179 63.0791 539.159 63.7119 538.307 64.8896L539.194 65.54C539.801 64.6348 540.574 64.1074 541.743 64.1074C543.501 64.1074 544.178 64.9863 544.178 66.8408V66.9463H541.646C539.379 66.9463 537.964 67.667 537.964 69.4512C537.964 71.1387 539.212 72.1318 540.996 72.1318C542.306 72.1318 543.527 71.4902 544.187 70.2158L544.266 72H545.232V66.6387C545.232 64.4326 543.984 63.0791 541.734 63.0791ZM541.216 71.1387C539.897 71.1387 539.15 70.4883 539.15 69.4863C539.15 68.4316 539.977 67.8076 541.708 67.8076H544.178V68.7041C543.773 70.1455 542.745 71.1387 541.216 71.1387ZM550.805 72.1318C551.965 72.1318 553.011 71.5781 553.556 70.5059V72H554.707V63.2197H553.556V68.4053C553.556 70.1191 552.589 71.0508 551.112 71.0508C549.671 71.0508 548.915 70.1104 548.915 68.5107V63.2197H547.764V68.7744C547.799 70.6729 548.748 72.1318 550.805 72.1318ZM560.534 72.1318C561.026 72.1318 561.501 72.0439 561.773 71.9561L561.756 70.8926C561.51 70.9893 561.114 71.1035 560.728 71.1035C559.796 71.1035 559.304 70.5938 559.304 69.3545V64.2041H561.765V63.2197H559.304V59.8271L558.161 60.6797V63.2197H556.685V64.2041H558.144V69.5391C558.144 71.2178 558.979 72.1318 560.534 72.1318ZM567.425 72.1318C569.93 72.1318 571.696 70.1104 571.696 67.5879C571.696 65.083 569.93 63.0791 567.425 63.0791C564.929 63.0791 563.188 65.083 563.188 67.5879C563.188 70.1191 564.929 72.1318 567.425 72.1318ZM567.425 71.1211C565.526 71.1211 564.393 69.5391 564.393 67.5879C564.393 65.6455 565.526 64.0986 567.425 64.0986C569.341 64.0986 570.492 65.6543 570.492 67.5879C570.492 69.5303 569.341 71.1211 567.425 71.1211ZM574.008 66.9814H578.754V66.0762H574.008V66.9814ZM582.428 72H583.623V64.2041H586.198V63.2197H583.623V61.9629C583.623 60.9521 584.133 60.4863 585.029 60.4863C585.293 60.4863 585.565 60.583 585.847 60.7324L586.233 59.7744C585.829 59.5723 585.39 59.4492 584.924 59.4492C583.465 59.4492 582.437 60.2754 582.437 61.8574V63.2197H580.6V64.2041H582.428V72ZM591.208 72.1318C593.713 72.1318 595.479 70.1104 595.479 67.5879C595.479 65.083 593.713 63.0791 591.208 63.0791C588.712 63.0791 586.972 65.083 586.972 67.5879C586.972 70.1191 588.712 72.1318 591.208 72.1318ZM591.208 71.1211C589.31 71.1211 588.176 69.5391 588.176 67.5879C588.176 65.6455 589.31 64.0986 591.208 64.0986C593.124 64.0986 594.275 65.6543 594.275 67.5879C594.275 69.5303 593.124 71.1211 591.208 71.1211ZM597.87 72H598.995V67.5176C598.995 65.1357 600.384 64.2129 601.553 64.2129C601.904 64.2129 602.247 64.3008 602.555 64.4678L603.082 63.501C602.704 63.2197 602.203 63.0791 601.711 63.0791C600.665 63.0791 599.443 63.7031 599.004 65.0566V63.2197H597.87V72ZM606.554 72H607.652L610.052 64.8193L612.451 72H613.55L616.116 63.2197H614.868L612.935 70.2422L610.588 63.2197H609.524L607.169 70.251L605.244 63.2197H603.996L606.554 72ZM621.047 63.0791C619.491 63.0791 618.472 63.7119 617.619 64.8896L618.507 65.54C619.113 64.6348 619.887 64.1074 621.056 64.1074C622.813 64.1074 623.49 64.9863 623.49 66.8408V66.9463H620.959C618.691 66.9463 617.276 67.667 617.276 69.4512C617.276 71.1387 618.524 72.1318 620.309 72.1318C621.618 72.1318 622.84 71.4902 623.499 70.2158L623.578 72H624.545V66.6387C624.545 64.4326 623.297 63.0791 621.047 63.0791ZM620.528 71.1387C619.21 71.1387 618.463 70.4883 618.463 69.4863C618.463 68.4316 619.289 67.8076 621.021 67.8076H623.49V68.7041C623.086 70.1455 622.058 71.1387 620.528 71.1387ZM627.454 72H628.579V67.5176C628.579 65.1357 629.968 64.2129 631.137 64.2129C631.488 64.2129 631.831 64.3008 632.139 64.4678L632.666 63.501C632.288 63.2197 631.787 63.0791 631.295 63.0791C630.249 63.0791 629.027 63.7031 628.588 65.0566V63.2197H627.454V72ZM637.017 72.1318C638.423 72.1318 639.645 71.332 640.189 70.0049L640.233 72H641.323V59.5811H640.146V65.1533C639.601 63.8613 638.379 63.0791 636.999 63.0791C634.635 63.0791 633.097 65.1182 633.097 67.5967C633.097 70.1016 634.635 72.1318 637.017 72.1318ZM637.271 71.0771C635.443 71.0771 634.274 69.5566 634.274 67.5967C634.274 65.6543 635.443 64.1426 637.271 64.1426C639.1 64.1426 640.233 65.6367 640.233 67.5967C640.233 69.583 639.1 71.0771 637.271 71.0771ZM647.871 72.1318C649.286 72.1318 650.279 71.7012 651.264 70.6729L650.455 69.9609C649.664 70.7871 648.935 71.0771 647.88 71.0771C646.113 71.0771 645.094 69.8818 645.006 67.9219H651.475C651.51 67.79 651.536 67.4385 651.536 67.1396C651.536 65.3994 650.596 63.0791 647.73 63.0791C645.173 63.0791 643.775 65.1709 643.775 67.6494C643.775 70.1719 645.226 72.1318 647.871 72.1318ZM645.006 67.0605C645.155 65.3027 646.122 64.0723 647.722 64.0723C649.462 64.0723 650.253 65.3203 650.358 66.5068C650.385 66.6826 650.385 66.876 650.376 67.0605H645.006ZM657.126 72.1318C658.532 72.1318 659.754 71.332 660.299 70.0049L660.343 72H661.433V59.5811H660.255V65.1533C659.71 63.8613 658.488 63.0791 657.108 63.0791C654.744 63.0791 653.206 65.1182 653.206 67.5967C653.206 70.1016 654.744 72.1318 657.126 72.1318ZM657.381 71.0771C655.553 71.0771 654.384 69.5566 654.384 67.5967C654.384 65.6543 655.553 64.1426 657.381 64.1426C659.209 64.1426 660.343 65.6367 660.343 67.5967C660.343 69.583 659.209 71.0771 657.381 71.0771ZM671.874 72.1318C672.366 72.1318 672.841 72.0439 673.113 71.9561L673.096 70.8926C672.85 70.9893 672.454 71.1035 672.067 71.1035C671.136 71.1035 670.644 70.5938 670.644 69.3545V64.2041H673.104V63.2197H670.644V59.8271L669.501 60.6797V63.2197H668.024V64.2041H669.483V69.5391C669.483 71.2178 670.318 72.1318 671.874 72.1318ZM678.765 72.1318C681.27 72.1318 683.036 70.1104 683.036 67.5879C683.036 65.083 681.27 63.0791 678.765 63.0791C676.269 63.0791 674.528 65.083 674.528 67.5879C674.528 70.1191 676.269 72.1318 678.765 72.1318ZM678.765 71.1211C676.866 71.1211 675.732 69.5391 675.732 67.5879C675.732 65.6455 676.866 64.0986 678.765 64.0986C680.681 64.0986 681.832 65.6543 681.832 67.5879C681.832 69.5303 680.681 71.1211 678.765 71.1211Z" fill="#071435"/>
<path d="M44.6494 72.1318C47.374 72.1318 48.5605 70.3389 48.5605 67.4736V59.5811H42.3027V60.6973H47.3564V67.4912C47.3564 69.7939 46.6006 71.0068 44.6494 71.0068C42.9619 71.0068 41.9951 69.873 41.8809 68.2471L40.6943 68.3701C40.8525 70.541 42.3115 72.1318 44.6494 72.1318ZM54.6426 72.1318C55.8027 72.1318 56.8486 71.5781 57.3936 70.5059V72H58.5449V63.2197H57.3936V68.4053C57.3936 70.1191 56.4268 71.0508 54.9502 71.0508C53.5088 71.0508 52.7529 70.1104 52.7529 68.5107V63.2197H51.6016V68.7744C51.6367 70.6729 52.5859 72.1318 54.6426 72.1318ZM64.3105 72.1318C66.0244 72.1318 67.4307 71.2441 67.4307 69.4863C67.4307 66.1201 62.3066 67.5264 62.3066 65.3467C62.3066 64.5645 63.0273 64.0195 64.1611 64.0195C65.2334 64.0195 65.9629 64.6084 66.3848 65.3994L67.2812 64.916C66.666 63.7559 65.585 63.0791 64.1963 63.0791C62.5176 63.0791 61.1904 63.9316 61.1904 65.4961C61.1904 68.6689 66.2881 67.1572 66.2881 69.5391C66.2881 70.4619 65.585 71.1562 64.2578 71.1562C62.8955 71.1562 62.0254 70.3477 61.6914 69.4072L60.751 69.8203C61.1992 71.1562 62.5791 72.1318 64.3105 72.1318ZM72.5283 72.1318C73.0205 72.1318 73.4951 72.0439 73.7676 71.9561L73.75 70.8926C73.5039 70.9893 73.1084 71.1035 72.7217 71.1035C71.79 71.1035 71.2979 70.5938 71.2979 69.3545V64.2041H73.7588V63.2197H71.2979V59.8271L70.1553 60.6797V63.2197H68.6787V64.2041H70.1377V69.5391C70.1377 71.2178 70.9727 72.1318 72.5283 72.1318ZM83.4531 72.1318C84.6133 72.1318 85.6592 71.5781 86.2041 70.5059V72H87.3555V63.2197H86.2041V68.4053C86.2041 70.1191 85.2373 71.0508 83.7607 71.0508C82.3193 71.0508 81.5635 70.1104 81.5635 68.5107V63.2197H80.4121V68.7744C80.4473 70.6729 81.3965 72.1318 83.4531 72.1318ZM93.1211 72.1318C94.835 72.1318 96.2412 71.2441 96.2412 69.4863C96.2412 66.1201 91.1172 67.5264 91.1172 65.3467C91.1172 64.5645 91.8379 64.0195 92.9717 64.0195C94.0439 64.0195 94.7734 64.6084 95.1953 65.3994L96.0918 64.916C95.4766 63.7559 94.3955 63.0791 93.0068 63.0791C91.3281 63.0791 90.001 63.9316 90.001 65.4961C90.001 68.6689 95.0986 67.1572 95.0986 69.5391C95.0986 70.4619 94.3955 71.1562 93.0684 71.1562C91.7061 71.1562 90.8359 70.3477 90.502 69.4072L89.5615 69.8203C90.0098 71.1562 91.3896 72.1318 93.1211 72.1318ZM101.98 72.1318C103.396 72.1318 104.389 71.7012 105.373 70.6729L104.564 69.9609C103.773 70.7871 103.044 71.0771 101.989 71.0771C100.223 71.0771 99.2031 69.8818 99.1152 67.9219H105.584C105.619 67.79 105.646 67.4385 105.646 67.1396C105.646 65.3994 104.705 63.0791 101.84 63.0791C99.2822 63.0791 97.8848 65.1709 97.8848 67.6494C97.8848 70.1719 99.335 72.1318 101.98 72.1318ZM99.1152 67.0605C99.2646 65.3027 100.231 64.0723 101.831 64.0723C103.571 64.0723 104.362 65.3203 104.468 66.5068C104.494 66.6826 104.494 66.876 104.485 67.0605H99.1152Z" fill="#071435"/>
<path d="M351.376 32.182C353.42 32.182 354.946 31.188 355.66 29.34L354.246 28.808C353.784 30.096 352.79 30.754 351.376 30.754C349.402 30.754 348.24 29.438 348.24 27.1C348.24 24.776 349.402 23.474 351.404 23.474C352.804 23.474 353.784 24.104 354.246 25.378L355.632 24.846C354.918 23.012 353.434 22.046 351.404 22.046C348.548 22.046 346.742 23.978 346.742 27.114C346.742 30.236 348.534 32.182 351.376 32.182ZM364.561 32L361.915 27.674C363.133 27.31 363.791 26.4 363.791 25.014C363.791 23.264 362.755 22.242 360.501 22.242H357.449V32H358.933V27.856H359.815H360.431L362.811 32H364.561ZM358.933 26.484V23.628H360.347C361.621 23.628 362.279 24.006 362.279 25.042C362.279 26.078 361.621 26.484 360.347 26.484H358.933ZM366.212 32H372.666V30.614H367.71V27.688H372.26V26.302H367.71V23.628H372.666V22.242H366.212V32ZM380.845 32H382.483L378.675 22.242H377.513L373.705 32H375.329L376.141 29.788H380.047L380.845 32ZM376.631 28.43L378.101 24.426L379.557 28.43H376.631ZM385.155 32H386.667V23.628H389.831V22.242H382.005V23.628H385.155V32ZM391.423 32H397.877V30.614H392.921V27.688H397.471V26.302H392.921V23.628H397.877V22.242H391.423V32ZM411.235 22.242L408.491 29.438L405.761 22.242H403.605V32H405.103V24.314L407.763 31.16H409.219L411.893 24.314V32H413.391V22.242H411.235ZM422.093 32H423.731L419.923 22.242H418.761L414.953 32H416.577L417.389 29.788H421.295L422.093 32ZM417.879 28.43L419.349 24.426L420.805 28.43H417.879ZM427.922 32.168C429.924 32.168 431.226 31.02 431.226 29.256C431.226 27.884 430.568 27.128 428.454 26.316C426.956 25.742 426.424 25.336 426.424 24.608C426.424 23.936 427.012 23.39 427.824 23.39C428.538 23.39 429.168 23.796 429.532 24.538L430.778 23.768C430.176 22.634 429.154 22.06 427.866 22.06C426.102 22.06 424.926 23.096 424.926 24.65C424.926 26.022 425.64 26.75 427.656 27.52C429.196 28.122 429.728 28.584 429.728 29.382C429.728 30.264 429.07 30.838 427.95 30.838C426.746 30.838 425.92 30.124 425.78 28.934L424.282 29.298C424.562 31.034 426.018 32.168 427.922 32.168ZM441.397 32L437.687 25.882L441.271 22.242H439.297L434.607 27.156V22.242H433.109V32H434.607V29.032L436.665 26.932L439.661 32H441.397ZM445.532 32.168C447.534 32.168 448.836 31.02 448.836 29.256C448.836 27.884 448.178 27.128 446.064 26.316C444.566 25.742 444.034 25.336 444.034 24.608C444.034 23.936 444.622 23.39 445.434 23.39C446.148 23.39 446.778 23.796 447.142 24.538L448.388 23.768C447.786 22.634 446.764 22.06 445.476 22.06C443.712 22.06 442.536 23.096 442.536 24.65C442.536 26.022 443.25 26.75 445.266 27.52C446.806 28.122 447.338 28.584 447.338 29.382C447.338 30.264 446.68 30.838 445.56 30.838C444.356 30.838 443.53 30.124 443.39 28.934L441.892 29.298C442.172 31.034 443.628 32.168 445.532 32.168ZM458.179 32.182C460.909 32.182 462.771 30.166 462.771 27.128C462.771 24.076 460.923 22.06 458.179 22.06C455.435 22.06 453.573 24.076 453.573 27.128C453.573 30.166 455.435 32.182 458.179 32.182ZM458.179 30.754C456.289 30.754 455.071 29.368 455.071 27.128C455.071 24.874 456.289 23.488 458.179 23.488C460.069 23.488 461.273 24.888 461.273 27.128C461.273 29.354 460.069 30.754 458.179 30.754ZM470.694 22.242V29.382L466.354 22.242H464.8V32H466.298V24.818L470.624 32H472.192V22.242H470.694ZM474.582 28.346H478.516V27.268H474.582V28.346ZM482.02 32H483.532V23.628H486.696V22.242H478.87V23.628H482.02V32ZM488.289 32H489.787V27.688H494.323V32H495.821V22.242H494.323V26.302H489.787V22.242H488.289V32ZM498.543 32H504.997V30.614H500.041V27.688H504.591V26.302H500.041V23.628H504.997V22.242H498.543V32ZM506.861 28.346H510.795V27.268H506.861V28.346ZM513.185 32H514.683V27.688H519.359V26.302H514.683V23.628H520.003V22.242H513.185V32ZM521.771 32H527.525V30.614H523.269V22.242H521.771V32ZM530.62 32H532.132V28.22L535.828 22.242H534.05L531.348 26.778L528.674 22.242H526.91L530.62 28.22V32Z" fill="#3E898B"/>
</svg>
