<svg width="355" height="211" viewBox="0 0 355 211" fill="none" xmlns="http://www.w3.org/2000/svg">
<rect width="355" height="211" rx="10" fill="white" fill-opacity="0.8"/>
<rect x="0.5" y="0.5" width="354" height="210" rx="9.5" stroke="black" stroke-opacity="0.1" stroke-linecap="round"/>
<path d="M29.5352 163.079C27.9795 163.079 26.96 163.712 26.1074 164.89L26.9951 165.54C27.6016 164.635 28.375 164.107 29.5439 164.107C31.3018 164.107 31.9785 164.986 31.9785 166.841V166.946H29.4473C27.1797 166.946 25.7646 167.667 25.7646 169.451C25.7646 171.139 27.0127 172.132 28.7969 172.132C30.1064 172.132 31.3281 171.49 31.9873 170.216L32.0664 172H33.0332V166.639C33.0332 164.433 31.7852 163.079 29.5352 163.079ZM29.0166 171.139C27.6982 171.139 26.9512 170.488 26.9512 169.486C26.9512 168.432 27.7773 167.808 29.5088 167.808H31.9785V168.704C31.5742 170.146 30.5459 171.139 29.0166 171.139ZM38.6055 172.132C39.7656 172.132 40.8115 171.578 41.3564 170.506V172H42.5078V163.22H41.3564V168.405C41.3564 170.119 40.3896 171.051 38.9131 171.051C37.4717 171.051 36.7158 170.11 36.7158 168.511V163.22H35.5645V168.774C35.5996 170.673 36.5488 172.132 38.6055 172.132ZM48.335 172.132C48.8271 172.132 49.3018 172.044 49.5742 171.956L49.5566 170.893C49.3105 170.989 48.915 171.104 48.5283 171.104C47.5967 171.104 47.1045 170.594 47.1045 169.354V164.204H49.5654V163.22H47.1045V159.827L45.9619 160.68V163.22H44.4854V164.204H45.9443V169.539C45.9443 171.218 46.7793 172.132 48.335 172.132ZM55.2256 172.132C57.7305 172.132 59.4971 170.11 59.4971 167.588C59.4971 165.083 57.7305 163.079 55.2256 163.079C52.7295 163.079 50.9893 165.083 50.9893 167.588C50.9893 170.119 52.7295 172.132 55.2256 172.132ZM55.2256 171.121C53.3271 171.121 52.1934 169.539 52.1934 167.588C52.1934 165.646 53.3271 164.099 55.2256 164.099C57.1416 164.099 58.293 165.654 58.293 167.588C58.293 169.53 57.1416 171.121 55.2256 171.121ZM61.8086 166.981H66.5547V166.076H61.8086V166.981ZM70.2285 172H71.4238V164.204H73.999V163.22H71.4238V161.963C71.4238 160.952 71.9336 160.486 72.8301 160.486C73.0938 160.486 73.3662 160.583 73.6475 160.732L74.0342 159.774C73.6299 159.572 73.1904 159.449 72.7246 159.449C71.2656 159.449 70.2373 160.275 70.2373 161.857V163.22H68.4004V164.204H70.2285V172ZM79.0088 172.132C81.5137 172.132 83.2803 170.11 83.2803 167.588C83.2803 165.083 81.5137 163.079 79.0088 163.079C76.5127 163.079 74.7725 165.083 74.7725 167.588C74.7725 170.119 76.5127 172.132 79.0088 172.132ZM79.0088 171.121C77.1104 171.121 75.9766 169.539 75.9766 167.588C75.9766 165.646 77.1104 164.099 79.0088 164.099C80.9248 164.099 82.0762 165.654 82.0762 167.588C82.0762 169.53 80.9248 171.121 79.0088 171.121ZM85.6709 172H86.7959V167.518C86.7959 165.136 88.1846 164.213 89.3535 164.213C89.7051 164.213 90.0479 164.301 90.3555 164.468L90.8828 163.501C90.5049 163.22 90.0039 163.079 89.5117 163.079C88.4658 163.079 87.2441 163.703 86.8047 165.057V163.22H85.6709V172ZM94.3545 172H95.4531L97.8525 164.819L100.252 172H101.351L103.917 163.22H102.669L100.735 170.242L98.3887 163.22H97.3252L94.9697 170.251L93.0449 163.22H91.7969L94.3545 172ZM108.848 163.079C107.292 163.079 106.272 163.712 105.42 164.89L106.308 165.54C106.914 164.635 107.688 164.107 108.856 164.107C110.614 164.107 111.291 164.986 111.291 166.841V166.946H108.76C106.492 166.946 105.077 167.667 105.077 169.451C105.077 171.139 106.325 172.132 108.109 172.132C109.419 172.132 110.641 171.49 111.3 170.216L111.379 172H112.346V166.639C112.346 164.433 111.098 163.079 108.848 163.079ZM108.329 171.139C107.011 171.139 106.264 170.488 106.264 169.486C106.264 168.432 107.09 167.808 108.821 167.808H111.291V168.704C110.887 170.146 109.858 171.139 108.329 171.139ZM115.255 172H116.38V167.518C116.38 165.136 117.769 164.213 118.938 164.213C119.289 164.213 119.632 164.301 119.939 164.468L120.467 163.501C120.089 163.22 119.588 163.079 119.096 163.079C118.05 163.079 116.828 163.703 116.389 165.057V163.22H115.255V172ZM124.817 172.132C126.224 172.132 127.445 171.332 127.99 170.005L128.034 172H129.124V159.581H127.946V165.153C127.401 163.861 126.18 163.079 124.8 163.079C122.436 163.079 120.897 165.118 120.897 167.597C120.897 170.102 122.436 172.132 124.817 172.132ZM125.072 171.077C123.244 171.077 122.075 169.557 122.075 167.597C122.075 165.654 123.244 164.143 125.072 164.143C126.9 164.143 128.034 165.637 128.034 167.597C128.034 169.583 126.9 171.077 125.072 171.077ZM135.672 172.132C137.087 172.132 138.08 171.701 139.064 170.673L138.256 169.961C137.465 170.787 136.735 171.077 135.681 171.077C133.914 171.077 132.895 169.882 132.807 167.922H139.275C139.311 167.79 139.337 167.438 139.337 167.14C139.337 165.399 138.396 163.079 135.531 163.079C132.974 163.079 131.576 165.171 131.576 167.649C131.576 170.172 133.026 172.132 135.672 172.132ZM132.807 167.061C132.956 165.303 133.923 164.072 135.522 164.072C137.263 164.072 138.054 165.32 138.159 166.507C138.186 166.683 138.186 166.876 138.177 167.061H132.807ZM144.927 172.132C146.333 172.132 147.555 171.332 148.1 170.005L148.144 172H149.233V159.581H148.056V165.153C147.511 163.861 146.289 163.079 144.909 163.079C142.545 163.079 141.007 165.118 141.007 167.597C141.007 170.102 142.545 172.132 144.927 172.132ZM145.182 171.077C143.354 171.077 142.185 169.557 142.185 167.597C142.185 165.654 143.354 164.143 145.182 164.143C147.01 164.143 148.144 165.637 148.144 167.597C148.144 169.583 147.01 171.077 145.182 171.077ZM159.675 172.132C160.167 172.132 160.642 172.044 160.914 171.956L160.896 170.893C160.65 170.989 160.255 171.104 159.868 171.104C158.937 171.104 158.444 170.594 158.444 169.354V164.204H160.905V163.22H158.444V159.827L157.302 160.68V163.22H155.825V164.204H157.284V169.539C157.284 171.218 158.119 172.132 159.675 172.132ZM166.565 172.132C169.07 172.132 170.837 170.11 170.837 167.588C170.837 165.083 169.07 163.079 166.565 163.079C164.069 163.079 162.329 165.083 162.329 167.588C162.329 170.119 164.069 172.132 166.565 172.132ZM166.565 171.121C164.667 171.121 163.533 169.539 163.533 167.588C163.533 165.646 164.667 164.099 166.565 164.099C168.481 164.099 169.633 165.654 169.633 167.588C169.633 169.53 168.481 171.121 166.565 171.121Z" fill="#071435"/>
<rect x="178" y="149" width="152" height="36" rx="4" fill="#C4C4C4" fill-opacity="0.1"/>
<rect x="178.5" y="149.5" width="151" height="35" rx="3.5" stroke="#071435" stroke-opacity="0.1" stroke-linecap="round"/>
<path d="M185.712 173.476C185.712 173.728 185.604 173.962 185.388 174.178C185.712 174.418 186.042 174.538 186.378 174.538C187.05 174.538 187.53 174.34 187.818 173.944C188.118 173.548 188.268 172.912 188.268 172.036L188.286 166.384C188.286 165.328 188.256 164.68 188.196 164.44C188.136 164.188 187.974 164.062 187.71 164.062C187.578 164.062 187.41 164.086 187.206 164.134C187.098 164.17 186.99 164.188 186.882 164.188C186.498 164.188 186.306 163.996 186.306 163.612C186.306 163.216 186.558 163.018 187.062 163.018C187.242 163.018 187.398 163.024 187.53 163.036C187.914 163.072 188.184 163.09 188.34 163.09C188.436 163.09 188.586 163.078 188.79 163.054C188.994 163.018 189.144 163 189.24 163C189.588 163 189.762 163.192 189.762 163.576C189.762 163.636 189.756 163.756 189.744 163.936C189.732 164.152 189.726 164.326 189.726 164.458C189.714 164.65 189.696 165.082 189.672 165.754C189.648 166.51 189.636 167.092 189.636 167.5V171.568C189.636 172.288 189.606 172.822 189.546 173.17C189.438 173.734 189.222 174.214 188.898 174.61C188.322 175.306 187.518 175.654 186.486 175.654C185.766 175.654 185.166 175.474 184.686 175.114C184.206 174.754 183.966 174.304 183.966 173.764C183.966 173.464 184.056 173.212 184.236 173.008C184.404 172.816 184.62 172.72 184.884 172.72C185.112 172.72 185.31 172.792 185.478 172.936C185.634 173.092 185.712 173.272 185.712 173.476ZM188.736 162.064C188.46 162.064 188.22 161.968 188.016 161.776C187.824 161.572 187.728 161.332 187.728 161.056C187.728 160.78 187.824 160.546 188.016 160.354C188.22 160.162 188.46 160.066 188.736 160.066C189.012 160.066 189.252 160.168 189.456 160.372C189.66 160.564 189.762 160.792 189.762 161.056C189.762 161.332 189.66 161.572 189.456 161.776C189.252 161.968 189.012 162.064 188.736 162.064ZM199.68 172.234C198.696 172.234 198.09 171.808 197.862 170.956C197.25 171.856 196.29 172.306 194.982 172.306C194.01 172.306 193.23 172.066 192.642 171.586C192.066 171.106 191.778 170.464 191.778 169.66C191.778 168.664 192.204 167.932 193.056 167.464C193.38 167.284 193.656 167.17 193.884 167.122C194.124 167.062 194.598 166.99 195.306 166.906C196.314 166.798 196.968 166.648 197.268 166.456C197.58 166.264 197.736 165.91 197.736 165.394C197.736 164.902 197.562 164.518 197.214 164.242C196.878 163.954 196.404 163.81 195.792 163.81C195.252 163.81 194.748 163.96 194.28 164.26C194.1 164.38 194.01 164.506 194.01 164.638C194.01 164.686 194.064 164.746 194.172 164.818C194.34 164.938 194.424 165.142 194.424 165.43C194.424 165.67 194.334 165.868 194.154 166.024C193.986 166.18 193.77 166.258 193.506 166.258C193.194 166.258 192.93 166.15 192.714 165.934C192.51 165.718 192.408 165.454 192.408 165.142C192.408 164.47 192.738 163.894 193.398 163.414C194.07 162.934 194.88 162.694 195.828 162.694C198.012 162.694 199.104 163.744 199.104 165.844V169.48C199.104 170.056 199.116 170.398 199.14 170.506C199.212 170.926 199.416 171.136 199.752 171.136C200.172 171.136 200.382 170.752 200.382 169.984V169.102C200.382 168.718 200.568 168.526 200.94 168.526C201.336 168.526 201.534 168.814 201.534 169.39V169.48L201.516 170.506C201.492 171.658 200.88 172.234 199.68 172.234ZM197.682 168.652L197.7 167.374C197.436 167.614 197.154 167.782 196.854 167.878C196.566 167.974 196.044 168.058 195.288 168.13C193.92 168.262 193.236 168.766 193.236 169.642C193.236 170.098 193.398 170.458 193.722 170.722C194.058 170.986 194.508 171.118 195.072 171.118C195.876 171.118 196.506 170.902 196.962 170.47C197.43 170.026 197.67 169.42 197.682 168.652ZM204.854 163.558V164.062C205.574 163.15 206.534 162.694 207.734 162.694C208.382 162.694 208.994 162.862 209.57 163.198C210.146 163.522 210.536 163.93 210.74 164.422C210.908 164.83 210.992 165.364 210.992 166.024V169.444C210.992 169.96 210.998 170.266 211.01 170.362C211.07 170.77 211.232 170.974 211.496 170.974C211.604 170.974 211.742 170.962 211.91 170.938C212.09 170.902 212.216 170.884 212.288 170.884C212.444 170.884 212.576 170.938 212.684 171.046C212.804 171.154 212.864 171.286 212.864 171.442C212.864 171.622 212.792 171.772 212.648 171.892C212.504 172.012 212.33 172.072 212.126 172.072C211.958 172.072 211.682 172.048 211.298 172C210.914 171.952 210.554 171.928 210.218 171.928C209.906 171.928 209.648 171.94 209.444 171.964C208.844 172.036 208.526 172.072 208.49 172.072C208.01 172.072 207.77 171.862 207.77 171.442C207.77 171.07 207.974 170.884 208.382 170.884C208.478 170.884 208.586 170.896 208.706 170.92C208.934 170.968 209.078 170.992 209.138 170.992C209.426 170.992 209.582 170.662 209.606 170.002L209.642 169.084L209.66 167.986V166.618C209.66 165.982 209.63 165.544 209.57 165.304C209.462 164.848 209.228 164.494 208.868 164.242C208.472 163.966 208.022 163.828 207.518 163.828C206.558 163.828 205.868 164.17 205.448 164.854C205.16 165.322 205.016 166.12 205.016 167.248V169.642C205.016 170.17 205.052 170.53 205.124 170.722C205.196 170.914 205.328 171.01 205.52 171.01C205.616 171.01 205.748 170.986 205.916 170.938C206.084 170.89 206.222 170.866 206.33 170.866C206.702 170.866 206.888 171.07 206.888 171.478C206.888 171.874 206.648 172.072 206.168 172.072C206.072 172.072 205.76 172.036 205.232 171.964C204.968 171.928 204.674 171.91 204.35 171.91C204.098 171.91 203.762 171.934 203.342 171.982C202.814 172.042 202.514 172.072 202.442 172.072C201.938 172.072 201.686 171.868 201.686 171.46C201.686 171.076 201.878 170.884 202.262 170.884C202.322 170.884 202.43 170.902 202.586 170.938C202.754 170.974 202.916 170.992 203.072 170.992C203.432 170.992 203.618 170.644 203.63 169.948L203.666 167.95V165.772L203.63 165.142C203.606 164.734 203.552 164.458 203.468 164.314C203.396 164.158 203.264 164.08 203.072 164.08C202.988 164.08 202.862 164.098 202.694 164.134C202.538 164.158 202.418 164.17 202.334 164.17C201.902 164.17 201.686 163.978 201.686 163.594C201.686 163.198 201.956 163 202.496 163C202.568 163 202.628 163.006 202.676 163.018L203.342 163.09C203.534 163.09 203.702 163.078 203.846 163.054C204.158 163.03 204.32 163.018 204.332 163.018C204.68 163.018 204.854 163.198 204.854 163.558ZM221.733 166.708C221.733 167.164 221.703 167.446 221.643 167.554C221.583 167.65 221.409 167.698 221.121 167.698H215.397C215.241 167.698 215.139 167.722 215.091 167.77C215.043 167.806 215.019 167.872 215.019 167.968C215.019 168.868 215.289 169.618 215.829 170.218C216.369 170.818 217.041 171.118 217.845 171.118C218.373 171.118 218.853 170.974 219.285 170.686C219.729 170.398 220.017 170.032 220.149 169.588L220.311 169.066C220.395 168.778 220.593 168.634 220.905 168.634C221.349 168.634 221.571 168.862 221.571 169.318C221.571 170.098 221.175 170.794 220.383 171.406C219.591 172.006 218.691 172.306 217.683 172.306C216.423 172.306 215.421 171.886 214.677 171.046C213.933 170.194 213.561 169.054 213.561 167.626C213.561 166.162 213.957 164.974 214.749 164.062C215.541 163.15 216.573 162.694 217.845 162.694C218.973 162.694 219.903 163.072 220.635 163.828C221.367 164.584 221.733 165.544 221.733 166.708ZM215.199 166.24C215.199 166.408 215.331 166.492 215.595 166.492H219.897C220.149 166.492 220.275 166.408 220.275 166.24C220.275 165.604 220.035 165.052 219.555 164.584C219.075 164.116 218.511 163.882 217.863 163.882C217.191 163.882 216.579 164.128 216.027 164.62C215.475 165.1 215.199 165.64 215.199 166.24ZM229.515 168.382C229.515 168.286 229.521 168.202 229.533 168.13C229.077 168.838 228.375 169.192 227.427 169.192C226.851 169.192 226.383 169 226.023 168.616C225.675 168.22 225.501 167.71 225.501 167.086C225.501 165.994 225.897 165.034 226.689 164.206C227.481 163.366 228.399 162.946 229.443 162.946C229.683 162.946 229.947 162.982 230.235 163.054L230.595 163.144C230.643 163.168 230.703 163.18 230.775 163.18C230.835 163.18 230.937 163.15 231.081 163.09C231.273 163.006 231.411 162.964 231.495 162.964C231.675 162.964 231.765 163.042 231.765 163.198C231.765 163.234 231.753 163.3 231.729 163.396L231.639 163.738L230.613 167.572C230.577 167.716 230.559 167.83 230.559 167.914C230.559 168.13 230.673 168.238 230.901 168.238C231.345 168.238 231.759 167.95 232.143 167.374C232.683 166.57 232.953 165.64 232.953 164.584C232.953 163.588 232.623 162.76 231.963 162.1C231.315 161.44 230.493 161.11 229.497 161.11C228.093 161.11 226.869 161.674 225.825 162.802C224.793 163.918 224.277 165.232 224.277 166.744C224.277 167.92 224.655 168.904 225.411 169.696C226.167 170.476 227.115 170.866 228.255 170.866C228.927 170.866 229.479 170.788 229.911 170.632C230.355 170.464 230.907 170.14 231.567 169.66C231.807 169.48 232.005 169.39 232.161 169.39C232.389 169.39 232.503 169.498 232.503 169.714C232.503 169.942 232.347 170.176 232.035 170.416C230.847 171.352 229.539 171.82 228.111 171.82C226.659 171.82 225.447 171.34 224.475 170.38C223.515 169.408 223.035 168.196 223.035 166.744C223.035 164.992 223.683 163.468 224.979 162.172C226.287 160.864 227.829 160.21 229.605 160.21C230.949 160.21 232.041 160.606 232.881 161.398C233.733 162.19 234.159 163.222 234.159 164.494C234.159 165.922 233.637 167.17 232.593 168.238C231.957 168.886 231.291 169.21 230.595 169.21C230.283 169.21 230.025 169.132 229.821 168.976C229.617 168.82 229.515 168.622 229.515 168.382ZM229.893 165.934L230.379 164.134C230.019 163.954 229.671 163.864 229.335 163.864C228.639 163.864 228.027 164.17 227.499 164.782C226.983 165.394 226.725 166.108 226.725 166.924C226.725 167.752 227.085 168.166 227.805 168.166C228.801 168.166 229.497 167.422 229.893 165.934ZM239.8 162.694C240.112 162.694 240.466 162.742 240.862 162.838C240.922 161.662 241.606 161.074 242.914 161.074C243.466 161.074 243.928 161.218 244.3 161.506C244.672 161.794 244.858 162.16 244.858 162.604C244.858 162.892 244.762 163.138 244.57 163.342C244.39 163.546 244.174 163.648 243.922 163.648C243.73 163.648 243.562 163.582 243.418 163.45C243.274 163.318 243.202 163.162 243.202 162.982C243.202 162.79 243.334 162.592 243.598 162.388C243.406 162.148 243.16 162.028 242.86 162.028C242.224 162.028 241.9 162.424 241.888 163.216C242.8 163.828 243.256 164.65 243.256 165.682C243.256 166.51 242.944 167.2 242.32 167.752C241.696 168.304 240.916 168.58 239.98 168.58C239.32 168.58 238.636 168.424 237.928 168.112C237.736 168.028 237.574 167.986 237.442 167.986C237.274 167.986 237.124 168.064 236.992 168.22C236.86 168.364 236.794 168.538 236.794 168.742C236.794 169.366 237.424 169.678 238.684 169.678H238.792C238.888 169.678 238.996 169.672 239.116 169.66C239.236 169.66 239.308 169.66 239.332 169.66C240.472 169.66 241.396 169.768 242.104 169.984C242.764 170.188 243.286 170.506 243.67 170.938C244.054 171.37 244.246 171.856 244.246 172.396C244.246 173.272 243.838 173.962 243.022 174.466C242.218 174.982 241.126 175.24 239.746 175.24C238.366 175.24 237.28 175 236.488 174.52C235.708 174.04 235.318 173.38 235.318 172.54C235.318 171.568 235.864 170.878 236.956 170.47C235.984 170.086 235.498 169.51 235.498 168.742C235.498 167.902 235.984 167.326 236.956 167.014C236.644 166.594 236.488 166.102 236.488 165.538C236.488 164.722 236.8 164.044 237.424 163.504C238.06 162.964 238.852 162.694 239.8 162.694ZM239.854 163.882C239.326 163.882 238.876 164.038 238.504 164.35C238.132 164.662 237.928 165.052 237.892 165.52C237.892 165.52 237.892 165.556 237.892 165.628C237.892 166.156 238.072 166.582 238.432 166.906C238.792 167.23 239.26 167.392 239.836 167.392C240.436 167.392 240.922 167.23 241.294 166.906C241.678 166.582 241.87 166.168 241.87 165.664C241.87 165.148 241.678 164.722 241.294 164.386C240.91 164.05 240.43 163.882 239.854 163.882ZM239.872 170.866C238.912 170.866 238.156 171.01 237.604 171.298C237.052 171.586 236.776 171.976 236.776 172.468C236.776 172.96 237.046 173.344 237.586 173.62C238.126 173.908 238.852 174.052 239.764 174.052C240.724 174.052 241.48 173.908 242.032 173.62C242.596 173.332 242.878 172.948 242.878 172.468C242.878 171.964 242.614 171.574 242.086 171.298C241.558 171.01 240.82 170.866 239.872 170.866ZM248.06 163.54V164.062C248.492 163.546 248.9 163.192 249.284 163C249.668 162.796 250.148 162.694 250.724 162.694C251.9 162.694 252.764 163.15 253.316 164.062C253.724 163.558 254.138 163.204 254.558 163C254.978 162.796 255.518 162.694 256.178 162.694C256.862 162.694 257.474 162.838 258.014 163.126C258.614 163.45 259.028 163.906 259.256 164.494C259.412 164.89 259.49 165.514 259.49 166.366V168.112L259.472 169.462C259.472 169.954 259.478 170.254 259.49 170.362C259.55 170.794 259.706 171.01 259.958 171.01C260.042 171.01 260.168 170.992 260.336 170.956C260.504 170.92 260.63 170.902 260.714 170.902C261.134 170.902 261.344 171.082 261.344 171.442C261.344 171.862 261.104 172.072 260.624 172.072C260.444 172.072 260.168 172.048 259.796 172C259.436 171.964 259.16 171.946 258.968 171.946C258.764 171.946 258.464 171.964 258.068 172C257.684 172.048 257.39 172.072 257.186 172.072C256.682 172.072 256.43 171.862 256.43 171.442C256.43 171.082 256.622 170.902 257.006 170.902C257.054 170.902 257.174 170.914 257.366 170.938C257.438 170.962 257.534 170.974 257.654 170.974C257.858 170.974 257.984 170.872 258.032 170.668C258.092 170.464 258.128 169.954 258.14 169.138L258.158 168.04V166.852C258.158 166.024 258.092 165.424 257.96 165.052C257.84 164.668 257.606 164.368 257.258 164.152C256.91 163.936 256.514 163.828 256.07 163.828C255.218 163.828 254.624 164.122 254.288 164.71C254.024 165.178 253.892 165.994 253.892 167.158V168.436C253.892 169.564 253.916 170.272 253.964 170.56C254.024 170.836 254.168 170.974 254.396 170.974C254.468 170.974 254.57 170.962 254.702 170.938C254.846 170.902 254.954 170.884 255.026 170.884C255.194 170.884 255.332 170.944 255.44 171.064C255.56 171.172 255.62 171.31 255.62 171.478C255.62 171.874 255.338 172.072 254.774 172.072C254.594 172.072 254.324 172.048 253.964 172C253.616 171.952 253.352 171.928 253.172 171.928C252.92 171.928 252.644 171.952 252.344 172C252.044 172.048 251.78 172.072 251.552 172.072C251.06 172.072 250.814 171.868 250.814 171.46C250.814 171.088 250.994 170.902 251.354 170.902C251.486 170.902 251.588 170.914 251.66 170.938C251.828 170.974 251.954 170.992 252.038 170.992C252.326 170.992 252.476 170.686 252.488 170.074L252.506 169.228C252.518 168.964 252.524 168.706 252.524 168.454C252.536 168.238 252.542 168.124 252.542 168.112V166.618C252.542 165.574 252.398 164.848 252.11 164.44C251.834 164.032 251.336 163.828 250.616 163.828C249.824 163.828 249.218 164.116 248.798 164.692C248.45 165.16 248.276 165.976 248.276 167.14V169.534C248.276 170.014 248.282 170.296 248.294 170.38C248.342 170.788 248.474 170.992 248.69 170.992C248.75 170.992 248.876 170.968 249.068 170.92C249.092 170.92 249.128 170.914 249.176 170.902C249.224 170.902 249.266 170.902 249.302 170.902C249.77 170.902 250.004 171.1 250.004 171.496C250.004 171.88 249.734 172.072 249.194 172.072C248.99 172.072 248.738 172.054 248.438 172.018C248.03 171.97 247.682 171.946 247.394 171.946C247.25 171.946 246.986 171.964 246.602 172C246.086 172.048 245.774 172.072 245.666 172.072C245.186 172.072 244.946 171.868 244.946 171.46C244.946 171.088 245.174 170.902 245.63 170.902C245.654 170.902 245.69 170.902 245.738 170.902C245.786 170.914 245.822 170.92 245.846 170.92L246.296 171.01C246.308 171.022 246.332 171.028 246.368 171.028C246.692 171.028 246.866 170.734 246.89 170.146L246.926 169.12V166.366C246.926 165.346 246.896 164.71 246.836 164.458C246.788 164.206 246.644 164.08 246.404 164.08C246.356 164.08 246.188 164.11 245.9 164.17C245.78 164.194 245.684 164.206 245.612 164.206C245.168 164.206 244.946 164.014 244.946 163.63C244.946 163.222 245.192 163.018 245.684 163.018C245.816 163.018 245.996 163.03 246.224 163.054C246.452 163.078 246.65 163.09 246.818 163.09C246.878 163.09 246.944 163.084 247.016 163.072C247.088 163.072 247.13 163.072 247.142 163.072L247.574 163.018H247.628C247.916 163.018 248.06 163.192 248.06 163.54ZM269.799 172.234C268.815 172.234 268.209 171.808 267.981 170.956C267.369 171.856 266.409 172.306 265.101 172.306C264.129 172.306 263.349 172.066 262.761 171.586C262.185 171.106 261.897 170.464 261.897 169.66C261.897 168.664 262.323 167.932 263.175 167.464C263.499 167.284 263.775 167.17 264.003 167.122C264.243 167.062 264.717 166.99 265.425 166.906C266.433 166.798 267.087 166.648 267.387 166.456C267.699 166.264 267.855 165.91 267.855 165.394C267.855 164.902 267.681 164.518 267.333 164.242C266.997 163.954 266.523 163.81 265.911 163.81C265.371 163.81 264.867 163.96 264.399 164.26C264.219 164.38 264.129 164.506 264.129 164.638C264.129 164.686 264.183 164.746 264.291 164.818C264.459 164.938 264.543 165.142 264.543 165.43C264.543 165.67 264.453 165.868 264.273 166.024C264.105 166.18 263.889 166.258 263.625 166.258C263.313 166.258 263.049 166.15 262.833 165.934C262.629 165.718 262.527 165.454 262.527 165.142C262.527 164.47 262.857 163.894 263.517 163.414C264.189 162.934 264.999 162.694 265.947 162.694C268.131 162.694 269.223 163.744 269.223 165.844V169.48C269.223 170.056 269.235 170.398 269.259 170.506C269.331 170.926 269.535 171.136 269.871 171.136C270.291 171.136 270.501 170.752 270.501 169.984V169.102C270.501 168.718 270.687 168.526 271.059 168.526C271.455 168.526 271.653 168.814 271.653 169.39V169.48L271.635 170.506C271.611 171.658 270.999 172.234 269.799 172.234ZM267.801 168.652L267.819 167.374C267.555 167.614 267.273 167.782 266.973 167.878C266.685 167.974 266.163 168.058 265.407 168.13C264.039 168.262 263.355 168.766 263.355 169.642C263.355 170.098 263.517 170.458 263.841 170.722C264.177 170.986 264.627 171.118 265.191 171.118C265.995 171.118 266.625 170.902 267.081 170.47C267.549 170.026 267.789 169.42 267.801 168.652ZM275.136 166.78V169.12C275.136 169.72 275.142 170.074 275.154 170.182C275.214 170.722 275.376 170.992 275.64 170.992C275.7 170.992 275.85 170.962 276.09 170.902C276.15 170.878 276.24 170.866 276.36 170.866C276.816 170.866 277.044 171.064 277.044 171.46C277.044 171.628 276.966 171.772 276.81 171.892C276.666 172.012 276.48 172.072 276.252 172.072C276.06 172.072 275.766 172.048 275.37 172C274.986 171.94 274.698 171.91 274.506 171.91C274.194 171.91 273.846 171.934 273.462 171.982C272.994 172.042 272.682 172.072 272.526 172.072C272.046 172.072 271.806 171.868 271.806 171.46C271.806 171.064 272.01 170.866 272.418 170.866C272.514 170.866 272.652 170.884 272.832 170.92C273.024 170.956 273.168 170.974 273.264 170.974C273.552 170.974 273.726 170.59 273.786 169.822C273.786 169.774 273.786 169.252 273.786 168.256V166.78C273.786 165.784 273.786 165.262 273.786 165.214C273.726 164.458 273.546 164.08 273.246 164.08C273.15 164.08 273.012 164.104 272.832 164.152C272.664 164.188 272.538 164.206 272.454 164.206C272.022 164.206 271.806 164.014 271.806 163.63C271.806 163.222 272.07 163.018 272.598 163.018C272.826 163.018 272.988 163.024 273.084 163.036C273.468 163.084 273.714 163.108 273.822 163.108C273.918 163.108 274.062 163.096 274.254 163.072C274.458 163.036 274.608 163.018 274.704 163.018C275.052 163.018 275.226 163.252 275.226 163.72C275.226 163.768 275.22 163.84 275.208 163.936C275.196 164.032 275.19 164.104 275.19 164.152C275.178 164.248 275.166 164.62 275.154 165.268C275.142 165.76 275.136 166.264 275.136 166.78ZM274.2 162.064C273.924 162.064 273.684 161.968 273.48 161.776C273.288 161.572 273.192 161.332 273.192 161.056C273.192 160.78 273.288 160.546 273.48 160.354C273.684 160.162 273.924 160.066 274.2 160.066C274.476 160.066 274.71 160.162 274.902 160.354C275.106 160.546 275.208 160.78 275.208 161.056C275.208 161.332 275.106 161.572 274.902 161.776C274.71 161.968 274.476 162.064 274.2 162.064ZM280.6 164.476L280.618 170.074C280.63 170.686 280.792 170.992 281.104 170.992C281.176 170.992 281.326 170.962 281.554 170.902C281.698 170.878 281.794 170.866 281.842 170.866C282.238 170.866 282.436 171.07 282.436 171.478C282.436 171.874 282.19 172.072 281.698 172.072C281.506 172.072 281.2 172.048 280.78 172C280.36 171.952 280.036 171.928 279.808 171.928C279.616 171.928 279.328 171.952 278.944 172C278.56 172.048 278.278 172.072 278.098 172.072H278.008C277.504 172.072 277.252 171.856 277.252 171.424C277.252 171.052 277.456 170.866 277.864 170.866C277.888 170.866 277.93 170.866 277.99 170.866C278.062 170.878 278.116 170.884 278.152 170.884C278.452 170.932 278.626 170.956 278.674 170.956C278.89 170.956 279.022 170.866 279.07 170.686C279.13 170.494 279.166 170.008 279.178 169.228L279.196 167.968L279.25 165.178L279.232 161.974C279.22 161.614 279.202 161.374 279.178 161.254C279.094 160.978 278.926 160.84 278.674 160.84C278.638 160.84 278.482 160.864 278.206 160.912C278.074 160.936 277.966 160.948 277.882 160.948C277.474 160.948 277.27 160.756 277.27 160.372C277.27 159.976 277.51 159.778 277.99 159.778C278.122 159.778 278.236 159.784 278.332 159.796L278.764 159.85C278.956 159.874 279.118 159.886 279.25 159.886C279.37 159.886 279.55 159.868 279.79 159.832C280.03 159.784 280.21 159.76 280.33 159.76C280.606 159.76 280.744 159.934 280.744 160.282C280.744 160.402 280.738 160.492 280.726 160.552C280.642 161.476 280.6 162.784 280.6 164.476ZM285.093 172.306C284.781 172.306 284.517 172.198 284.301 171.982C284.085 171.754 283.977 171.484 283.977 171.172C283.977 170.86 284.085 170.596 284.301 170.38C284.517 170.152 284.781 170.038 285.093 170.038C285.405 170.038 285.669 170.152 285.885 170.38C286.101 170.596 286.209 170.86 286.209 171.172C286.209 171.484 286.101 171.754 285.885 171.982C285.669 172.198 285.405 172.306 285.093 172.306ZM293.506 166.06C293.506 165.58 293.806 165.304 294.406 165.232C294.346 164.812 294.142 164.482 293.794 164.242C293.458 164.002 293.02 163.882 292.48 163.882C291.652 163.882 290.986 164.212 290.482 164.872C289.978 165.532 289.726 166.408 289.726 167.5C289.726 168.628 289.96 169.516 290.428 170.164C290.908 170.8 291.568 171.118 292.408 171.118C292.936 171.118 293.392 170.968 293.776 170.668C294.172 170.368 294.442 169.954 294.586 169.426C294.706 169.006 294.778 168.766 294.802 168.706C294.934 168.466 295.126 168.346 295.378 168.346C295.582 168.346 295.75 168.412 295.882 168.544C296.014 168.676 296.08 168.844 296.08 169.048C296.08 169.348 295.984 169.708 295.792 170.128C295.6 170.548 295.372 170.896 295.108 171.172C294.4 171.928 293.482 172.306 292.354 172.306C291.13 172.306 290.14 171.874 289.384 171.01C288.64 170.146 288.268 169.012 288.268 167.608C288.268 166.12 288.652 164.932 289.42 164.044C290.2 163.144 291.232 162.694 292.516 162.694C293.476 162.694 294.274 162.958 294.91 163.486C295.546 164.002 295.864 164.662 295.864 165.466C295.864 165.91 295.738 166.276 295.486 166.564C295.246 166.852 294.934 166.996 294.55 166.996C294.25 166.996 293.998 166.906 293.794 166.726C293.602 166.546 293.506 166.324 293.506 166.06ZM301.584 172.306C300.324 172.306 299.316 171.874 298.56 171.01C297.804 170.134 297.426 168.964 297.426 167.5C297.426 166.036 297.804 164.872 298.56 164.008C299.328 163.132 300.354 162.694 301.638 162.694C302.946 162.694 303.978 163.12 304.734 163.972C305.49 164.824 305.868 165.982 305.868 167.446C305.868 168.91 305.478 170.086 304.698 170.974C303.918 171.862 302.88 172.306 301.584 172.306ZM301.674 163.882C300.834 163.882 300.174 164.176 299.694 164.764C299.214 165.352 298.95 166.186 298.902 167.266C298.902 167.266 298.902 167.344 298.902 167.5C298.902 168.628 299.136 169.516 299.604 170.164C300.084 170.8 300.75 171.118 301.602 171.118C302.478 171.118 303.162 170.8 303.654 170.164C304.158 169.516 304.41 168.622 304.41 167.482C304.41 165.082 303.498 163.882 301.674 163.882ZM309.97 163.54V164.062C310.402 163.546 310.81 163.192 311.194 163C311.578 162.796 312.058 162.694 312.634 162.694C313.81 162.694 314.674 163.15 315.226 164.062C315.634 163.558 316.048 163.204 316.468 163C316.888 162.796 317.428 162.694 318.088 162.694C318.772 162.694 319.384 162.838 319.924 163.126C320.524 163.45 320.938 163.906 321.166 164.494C321.322 164.89 321.4 165.514 321.4 166.366V168.112L321.382 169.462C321.382 169.954 321.388 170.254 321.4 170.362C321.46 170.794 321.616 171.01 321.868 171.01C321.952 171.01 322.078 170.992 322.246 170.956C322.414 170.92 322.54 170.902 322.624 170.902C323.044 170.902 323.254 171.082 323.254 171.442C323.254 171.862 323.014 172.072 322.534 172.072C322.354 172.072 322.078 172.048 321.706 172C321.346 171.964 321.07 171.946 320.878 171.946C320.674 171.946 320.374 171.964 319.978 172C319.594 172.048 319.3 172.072 319.096 172.072C318.592 172.072 318.34 171.862 318.34 171.442C318.34 171.082 318.532 170.902 318.916 170.902C318.964 170.902 319.084 170.914 319.276 170.938C319.348 170.962 319.444 170.974 319.564 170.974C319.768 170.974 319.894 170.872 319.942 170.668C320.002 170.464 320.038 169.954 320.05 169.138L320.068 168.04V166.852C320.068 166.024 320.002 165.424 319.87 165.052C319.75 164.668 319.516 164.368 319.168 164.152C318.82 163.936 318.424 163.828 317.98 163.828C317.128 163.828 316.534 164.122 316.198 164.71C315.934 165.178 315.802 165.994 315.802 167.158V168.436C315.802 169.564 315.826 170.272 315.874 170.56C315.934 170.836 316.078 170.974 316.306 170.974C316.378 170.974 316.48 170.962 316.612 170.938C316.756 170.902 316.864 170.884 316.936 170.884C317.104 170.884 317.242 170.944 317.35 171.064C317.47 171.172 317.53 171.31 317.53 171.478C317.53 171.874 317.248 172.072 316.684 172.072C316.504 172.072 316.234 172.048 315.874 172C315.526 171.952 315.262 171.928 315.082 171.928C314.83 171.928 314.554 171.952 314.254 172C313.954 172.048 313.69 172.072 313.462 172.072C312.97 172.072 312.724 171.868 312.724 171.46C312.724 171.088 312.904 170.902 313.264 170.902C313.396 170.902 313.498 170.914 313.57 170.938C313.738 170.974 313.864 170.992 313.948 170.992C314.236 170.992 314.386 170.686 314.398 170.074L314.416 169.228C314.428 168.964 314.434 168.706 314.434 168.454C314.446 168.238 314.452 168.124 314.452 168.112V166.618C314.452 165.574 314.308 164.848 314.02 164.44C313.744 164.032 313.246 163.828 312.526 163.828C311.734 163.828 311.128 164.116 310.708 164.692C310.36 165.16 310.186 165.976 310.186 167.14V169.534C310.186 170.014 310.192 170.296 310.204 170.38C310.252 170.788 310.384 170.992 310.6 170.992C310.66 170.992 310.786 170.968 310.978 170.92C311.002 170.92 311.038 170.914 311.086 170.902C311.134 170.902 311.176 170.902 311.212 170.902C311.68 170.902 311.914 171.1 311.914 171.496C311.914 171.88 311.644 172.072 311.104 172.072C310.9 172.072 310.648 172.054 310.348 172.018C309.94 171.97 309.592 171.946 309.304 171.946C309.16 171.946 308.896 171.964 308.512 172C307.996 172.048 307.684 172.072 307.576 172.072C307.096 172.072 306.856 171.868 306.856 171.46C306.856 171.088 307.084 170.902 307.54 170.902C307.564 170.902 307.6 170.902 307.648 170.902C307.696 170.914 307.732 170.92 307.756 170.92L308.206 171.01C308.218 171.022 308.242 171.028 308.278 171.028C308.602 171.028 308.776 170.734 308.8 170.146L308.836 169.12V166.366C308.836 165.346 308.806 164.71 308.746 164.458C308.698 164.206 308.554 164.08 308.314 164.08C308.266 164.08 308.098 164.11 307.81 164.17C307.69 164.194 307.594 164.206 307.522 164.206C307.078 164.206 306.856 164.014 306.856 163.63C306.856 163.222 307.102 163.018 307.594 163.018C307.726 163.018 307.906 163.03 308.134 163.054C308.362 163.078 308.56 163.09 308.728 163.09C308.788 163.09 308.854 163.084 308.926 163.072C308.998 163.072 309.04 163.072 309.052 163.072L309.484 163.018H309.538C309.826 163.018 309.97 163.192 309.97 163.54Z" fill="black"/>
<path d="M119.535 121.079C117.979 121.079 116.96 121.712 116.107 122.89L116.995 123.54C117.602 122.635 118.375 122.107 119.544 122.107C121.302 122.107 121.979 122.986 121.979 124.841V124.946H119.447C117.18 124.946 115.765 125.667 115.765 127.451C115.765 129.139 117.013 130.132 118.797 130.132C120.106 130.132 121.328 129.49 121.987 128.216L122.066 130H123.033V124.639C123.033 122.433 121.785 121.079 119.535 121.079ZM119.017 129.139C117.698 129.139 116.951 128.488 116.951 127.486C116.951 126.432 117.777 125.808 119.509 125.808H121.979V126.704C121.574 128.146 120.546 129.139 119.017 129.139ZM125.942 130H127.103V124.806C127.103 123.101 128.061 122.16 129.546 122.16C130.987 122.16 131.743 123.109 131.743 124.709V130H132.903V124.437C132.868 122.538 131.901 121.079 129.854 121.079C128.693 121.079 127.656 121.642 127.103 122.714V121.22H125.942V130ZM139.021 130.132C140.427 130.132 141.648 129.332 142.193 128.005L142.237 130H143.327V117.581H142.149V123.153C141.604 121.861 140.383 121.079 139.003 121.079C136.639 121.079 135.101 123.118 135.101 125.597C135.101 128.102 136.639 130.132 139.021 130.132ZM139.275 129.077C137.447 129.077 136.278 127.557 136.278 125.597C136.278 123.654 137.447 122.143 139.275 122.143C141.104 122.143 142.237 123.637 142.237 125.597C142.237 127.583 141.104 129.077 139.275 129.077ZM151.105 130H152.266V124.797C152.266 123.268 153.188 122.169 154.656 122.169C156.098 122.169 156.722 123.136 156.722 124.691V130H157.882V124.797C157.882 123.268 158.805 122.169 160.264 122.169C161.758 122.169 162.338 123.188 162.338 125.008V130H163.498V124.867C163.498 122.617 162.584 121.079 160.475 121.079C159.174 121.079 158.093 121.738 157.574 123.021C157.179 121.677 156.159 121.079 154.867 121.079C153.689 121.079 152.705 121.624 152.222 122.749V121.22H151.097L151.105 130ZM169.387 121.079C167.831 121.079 166.812 121.712 165.959 122.89L166.847 123.54C167.453 122.635 168.227 122.107 169.396 122.107C171.153 122.107 171.83 122.986 171.83 124.841V124.946H169.299C167.031 124.946 165.616 125.667 165.616 127.451C165.616 129.139 166.864 130.132 168.648 130.132C169.958 130.132 171.18 129.49 171.839 128.216L171.918 130H172.885V124.639C172.885 122.433 171.637 121.079 169.387 121.079ZM168.868 129.139C167.55 129.139 166.803 128.488 166.803 127.486C166.803 126.432 167.629 125.808 169.36 125.808H171.83V126.704C171.426 128.146 170.397 129.139 168.868 129.139ZM175.768 119.383H176.98V117.581H175.768V119.383ZM175.794 130H176.945V121.22H175.794V130ZM181.674 130.132C182.052 130.132 182.526 130.07 182.913 129.991L182.896 128.998C182.632 129.051 182.368 129.086 182.184 129.086C181.305 129.086 181.217 128.523 181.217 127.847V117.581H180.057V128.146C180.057 129.385 180.426 130.132 181.674 130.132ZM190.999 130H192.098L194.497 122.819L196.896 130H197.995L200.562 121.22H199.313L197.38 128.242L195.033 121.22H193.97L191.614 128.251L189.689 121.22H188.441L190.999 130ZM202.574 119.383H203.787V117.581H202.574V119.383ZM202.601 130H203.752V121.22H202.601V130ZM208.48 130.132C208.858 130.132 209.333 130.07 209.72 129.991L209.702 128.998C209.438 129.051 209.175 129.086 208.99 129.086C208.111 129.086 208.023 128.523 208.023 127.847V117.581H206.863V128.146C206.863 129.385 207.232 130.132 208.48 130.132ZM213.314 130.132C213.692 130.132 214.167 130.07 214.554 129.991L214.536 128.998C214.272 129.051 214.009 129.086 213.824 129.086C212.945 129.086 212.857 128.523 212.857 127.847V117.581H211.697V128.146C211.697 129.385 212.066 130.132 213.314 130.132ZM225.549 130.132C227.904 130.132 229.267 128.093 229.267 125.597C229.267 123.109 227.904 121.079 225.531 121.079C224.134 121.079 222.947 121.861 222.394 123.153V117.581H221.198V130H222.394V128.058C222.947 129.35 224.16 130.132 225.549 130.132ZM225.276 129.051C223.448 129.051 222.297 127.574 222.297 125.597C222.297 123.637 223.448 122.143 225.276 122.143C227.113 122.143 228.098 123.654 228.098 125.597C228.098 127.548 227.113 129.051 225.276 129.051ZM235.111 130.132C236.526 130.132 237.52 129.701 238.504 128.673L237.695 127.961C236.904 128.787 236.175 129.077 235.12 129.077C233.354 129.077 232.334 127.882 232.246 125.922H238.715C238.75 125.79 238.776 125.438 238.776 125.14C238.776 123.399 237.836 121.079 234.971 121.079C232.413 121.079 231.016 123.171 231.016 125.649C231.016 128.172 232.466 130.132 235.111 130.132ZM232.246 125.061C232.396 123.303 233.362 122.072 234.962 122.072C236.702 122.072 237.493 123.32 237.599 124.507C237.625 124.683 237.625 124.876 237.616 125.061H232.246Z" fill="#071435"/>
<rect x="54" y="63" width="284" height="36" rx="4" fill="#C4C4C4" fill-opacity="0.1"/>
<rect x="54.5" y="63.5" width="283" height="35" rx="3.5" stroke="#071435" stroke-opacity="0.1" stroke-linecap="round"/>
<path d="M62.322 84.2L64.824 81.338L62.322 78.386C62.154 78.194 61.95 78.098 61.71 78.098C61.614 78.098 61.542 78.104 61.494 78.116L61.188 78.188C61.14 78.2 61.056 78.206 60.936 78.206C60.54 78.206 60.342 78.014 60.342 77.63C60.342 77.222 60.588 77.018 61.08 77.018H61.134C61.146 77.018 61.446 77.042 62.034 77.09C62.334 77.114 62.586 77.126 62.79 77.126C62.994 77.126 63.288 77.108 63.672 77.072C64.056 77.036 64.344 77.018 64.536 77.018C65.028 77.018 65.274 77.222 65.274 77.63C65.274 78.014 65.046 78.206 64.59 78.206C64.494 78.206 64.404 78.194 64.32 78.17L64.05 78.098H63.942C63.894 78.098 63.87 78.11 63.87 78.134C63.894 78.206 63.948 78.29 64.032 78.386L65.67 80.366L67.38 78.386C67.488 78.266 67.542 78.182 67.542 78.134C67.53 78.11 67.5 78.098 67.452 78.098C67.392 78.098 67.29 78.116 67.146 78.152C67.014 78.188 66.912 78.206 66.84 78.206C66.408 78.206 66.192 78.002 66.192 77.594C66.192 77.198 66.444 77 66.948 77C66.924 77 67.242 77.03 67.902 77.09C68.166 77.114 68.448 77.126 68.748 77.126C69.048 77.126 69.366 77.108 69.702 77.072C70.038 77.036 70.278 77.018 70.422 77.018C70.95 77.018 71.214 77.222 71.214 77.63C71.214 78.026 71.01 78.224 70.602 78.224C70.506 78.224 70.368 78.2 70.188 78.152C70.008 78.104 69.87 78.08 69.774 78.08C69.486 78.08 69.09 78.368 68.586 78.944L66.498 81.32L69.306 84.632C69.474 84.836 69.678 84.938 69.918 84.938C69.99 84.938 70.098 84.926 70.242 84.902C70.398 84.878 70.512 84.866 70.584 84.866C71.016 84.866 71.232 85.058 71.232 85.442C71.232 85.862 70.98 86.072 70.476 86.072H70.332L69.63 85.982C69.438 85.958 69.15 85.946 68.766 85.946C68.442 85.946 68.118 85.964 67.794 86L67.146 86.072H66.948C66.384 86.072 66.102 85.88 66.102 85.496C66.102 85.076 66.324 84.866 66.768 84.866C66.924 84.866 67.146 84.89 67.434 84.938C67.458 84.95 67.5 84.956 67.56 84.956C67.68 84.956 67.74 84.908 67.74 84.812C67.74 84.776 67.722 84.74 67.686 84.704L67.632 84.632L65.634 82.292L63.6 84.632C63.516 84.728 63.474 84.8 63.474 84.848C63.474 84.908 63.534 84.938 63.654 84.938C63.738 84.938 63.864 84.926 64.032 84.902C64.2 84.878 64.326 84.866 64.41 84.866C64.926 84.866 65.184 85.076 65.184 85.496C65.184 85.88 64.926 86.072 64.41 86.072H64.158L63.438 86C63.078 85.964 62.76 85.946 62.484 85.946C62.268 85.946 62.01 85.964 61.71 86C61.302 86.048 61.002 86.072 60.81 86.072C60.306 86.072 60.054 85.868 60.054 85.46C60.054 85.064 60.27 84.866 60.702 84.866C60.774 84.866 60.882 84.878 61.026 84.902C61.17 84.914 61.278 84.92 61.35 84.92C61.578 84.92 61.902 84.68 62.322 84.2ZM74.9889 78.728L77.0589 84.812L79.2549 78.818C79.3149 78.65 79.3449 78.518 79.3449 78.422C79.3449 78.218 79.2069 78.116 78.9309 78.116C78.7869 78.116 78.6729 78.128 78.5889 78.152C78.3969 78.176 78.2709 78.188 78.2109 78.188C77.8149 78.188 77.6169 77.996 77.6169 77.612C77.6169 77.204 77.8749 77 78.3909 77C78.4629 77 78.5829 77.012 78.7509 77.036L79.3989 77.126C79.5669 77.15 79.7469 77.162 79.9389 77.162C80.1429 77.162 80.4429 77.138 80.8389 77.09C81.2349 77.042 81.5349 77.018 81.7389 77.018C82.2549 77.018 82.5129 77.216 82.5129 77.612C82.5129 77.996 82.3149 78.188 81.9189 78.188C81.7989 78.188 81.7089 78.176 81.6489 78.152C81.4929 78.116 81.3849 78.098 81.3249 78.098C81.0969 78.098 80.8629 78.404 80.6229 79.016L78.1749 85.136C77.6349 86.492 77.1249 87.476 76.6449 88.088C75.8289 89.132 74.8089 89.654 73.5849 89.654C72.8529 89.654 72.2349 89.468 71.7309 89.096C71.2389 88.724 70.9929 88.274 70.9929 87.746C70.9929 87.374 71.1009 87.068 71.3169 86.828C71.5329 86.6 71.8149 86.486 72.1629 86.486C72.4389 86.486 72.6669 86.564 72.8469 86.72C73.0269 86.888 73.1169 87.092 73.1169 87.332C73.1169 87.716 72.9429 87.962 72.5949 88.07C72.7749 88.334 73.1169 88.466 73.6209 88.466C74.2569 88.466 74.8269 88.226 75.3309 87.746C75.8469 87.278 76.1049 86.75 76.1049 86.162C76.1049 85.862 75.9429 85.304 75.6189 84.488L73.6389 79.484C73.6389 79.484 73.5669 79.292 73.4229 78.908C73.2189 78.368 72.9849 78.098 72.7209 78.098C72.6489 78.098 72.5169 78.116 72.3249 78.152C72.1449 78.188 72.0249 78.206 71.9649 78.206C71.5449 78.206 71.3349 78.014 71.3349 77.63C71.3349 77.222 71.6109 77.018 72.1629 77.018C72.3429 77.018 72.4809 77.024 72.5769 77.036L73.2969 77.126C73.3089 77.126 73.3569 77.126 73.4409 77.126C73.5249 77.138 73.5969 77.144 73.6569 77.144C74.0889 77.144 74.5509 77.12 75.0429 77.072C75.4149 77.036 75.6609 77.018 75.7809 77.018C76.2849 77.018 76.5369 77.216 76.5369 77.612C76.5369 78.008 76.3089 78.206 75.8529 78.206C75.7809 78.206 75.6669 78.194 75.5109 78.17C75.3549 78.134 75.2409 78.116 75.1689 78.116C75.0009 78.116 74.9169 78.2 74.9169 78.368C74.9169 78.464 74.9409 78.584 74.9889 78.728ZM83.3335 84.146L89.2015 78.206H86.4475C85.5475 78.206 84.9835 78.236 84.7555 78.296C84.5275 78.344 84.4135 78.482 84.4135 78.71C84.4135 78.806 84.4255 78.914 84.4495 79.034C84.5095 79.346 84.5395 79.64 84.5395 79.916C84.5395 80.372 84.3415 80.6 83.9455 80.6C83.5375 80.6 83.3335 80.336 83.3335 79.808C83.3335 79.58 83.3395 79.424 83.3515 79.34C83.3995 78.98 83.4235 78.722 83.4235 78.566C83.4235 78.446 83.3995 78.272 83.3515 78.044C83.3155 77.804 83.2975 77.624 83.2975 77.504C83.2975 77.132 83.5975 76.946 84.1975 76.946C84.3895 76.946 84.6475 76.952 84.9715 76.964C85.3435 76.988 85.6015 77 85.7455 77L86.8255 77.018H89.8855C90.6655 77.018 91.0555 77.294 91.0555 77.846C91.0555 78.098 90.8275 78.452 90.3715 78.908L84.5395 84.794H88.8235C89.5315 84.794 89.8855 84.59 89.8855 84.182V83.84C89.8855 83.636 89.8735 83.462 89.8495 83.318C89.8255 82.862 89.8135 82.646 89.8135 82.67C89.8135 82.466 89.8735 82.298 89.9935 82.166C90.1135 82.022 90.2635 81.95 90.4435 81.95C90.8275 81.95 91.0195 82.178 91.0195 82.634C91.0195 82.838 91.0075 83.048 90.9835 83.264C90.9355 83.696 90.9115 84.008 90.9115 84.2C90.9115 84.332 90.9235 84.524 90.9475 84.776C90.9835 85.028 91.0015 85.22 91.0015 85.352C91.0015 85.82 90.7375 86.048 90.2095 86.036L89.1115 86H83.9275C83.6275 86 83.3815 85.91 83.1895 85.73C82.9975 85.55 82.9015 85.322 82.9015 85.046C82.9015 84.734 83.0455 84.434 83.3335 84.146ZM94.2293 86.306C93.9173 86.306 93.6533 86.198 93.4373 85.982C93.2213 85.754 93.1133 85.484 93.1133 85.172C93.1133 84.86 93.2213 84.596 93.4373 84.38C93.6533 84.152 93.9173 84.038 94.2293 84.038C94.5413 84.038 94.8053 84.152 95.0213 84.38C95.2373 84.596 95.3453 84.86 95.3453 85.172C95.3453 85.484 95.2373 85.754 95.0213 85.982C94.8053 86.198 94.5413 86.306 94.2293 86.306ZM105.145 86.234C104.161 86.234 103.555 85.808 103.327 84.956C102.715 85.856 101.755 86.306 100.447 86.306C99.4751 86.306 98.6951 86.066 98.1071 85.586C97.5311 85.106 97.2431 84.464 97.2431 83.66C97.2431 82.664 97.6691 81.932 98.5211 81.464C98.8451 81.284 99.1211 81.17 99.3491 81.122C99.5891 81.062 100.063 80.99 100.771 80.906C101.779 80.798 102.433 80.648 102.733 80.456C103.045 80.264 103.201 79.91 103.201 79.394C103.201 78.902 103.027 78.518 102.679 78.242C102.343 77.954 101.869 77.81 101.257 77.81C100.717 77.81 100.213 77.96 99.7451 78.26C99.5651 78.38 99.4751 78.506 99.4751 78.638C99.4751 78.686 99.5291 78.746 99.6371 78.818C99.8051 78.938 99.8891 79.142 99.8891 79.43C99.8891 79.67 99.7991 79.868 99.6191 80.024C99.4511 80.18 99.2351 80.258 98.9711 80.258C98.6591 80.258 98.3951 80.15 98.1791 79.934C97.9751 79.718 97.8731 79.454 97.8731 79.142C97.8731 78.47 98.2031 77.894 98.8631 77.414C99.5351 76.934 100.345 76.694 101.293 76.694C103.477 76.694 104.569 77.744 104.569 79.844V83.48C104.569 84.056 104.581 84.398 104.605 84.506C104.677 84.926 104.881 85.136 105.217 85.136C105.637 85.136 105.847 84.752 105.847 83.984V83.102C105.847 82.718 106.033 82.526 106.405 82.526C106.801 82.526 106.999 82.814 106.999 83.39V83.48L106.981 84.506C106.957 85.658 106.345 86.234 105.145 86.234ZM103.147 82.652L103.165 81.374C102.901 81.614 102.619 81.782 102.319 81.878C102.031 81.974 101.509 82.058 100.753 82.13C99.3851 82.262 98.7011 82.766 98.7011 83.642C98.7011 84.098 98.8631 84.458 99.1871 84.722C99.5231 84.986 99.9731 85.118 100.537 85.118C101.341 85.118 101.971 84.902 102.427 84.47C102.895 84.026 103.135 83.42 103.147 82.652ZM110.319 77.558V78.062C111.039 77.15 111.999 76.694 113.199 76.694C113.847 76.694 114.459 76.862 115.035 77.198C115.611 77.522 116.001 77.93 116.205 78.422C116.373 78.83 116.457 79.364 116.457 80.024V83.444C116.457 83.96 116.463 84.266 116.475 84.362C116.535 84.77 116.697 84.974 116.961 84.974C117.069 84.974 117.207 84.962 117.375 84.938C117.555 84.902 117.681 84.884 117.753 84.884C117.909 84.884 118.041 84.938 118.149 85.046C118.269 85.154 118.329 85.286 118.329 85.442C118.329 85.622 118.257 85.772 118.113 85.892C117.969 86.012 117.795 86.072 117.591 86.072C117.423 86.072 117.147 86.048 116.763 86C116.379 85.952 116.019 85.928 115.683 85.928C115.371 85.928 115.113 85.94 114.909 85.964C114.309 86.036 113.991 86.072 113.955 86.072C113.475 86.072 113.235 85.862 113.235 85.442C113.235 85.07 113.439 84.884 113.847 84.884C113.943 84.884 114.051 84.896 114.171 84.92C114.399 84.968 114.543 84.992 114.603 84.992C114.891 84.992 115.047 84.662 115.071 84.002L115.107 83.084L115.125 81.986V80.618C115.125 79.982 115.095 79.544 115.035 79.304C114.927 78.848 114.693 78.494 114.333 78.242C113.937 77.966 113.487 77.828 112.983 77.828C112.023 77.828 111.333 78.17 110.913 78.854C110.625 79.322 110.481 80.12 110.481 81.248V83.642C110.481 84.17 110.517 84.53 110.589 84.722C110.661 84.914 110.793 85.01 110.985 85.01C111.081 85.01 111.213 84.986 111.381 84.938C111.549 84.89 111.687 84.866 111.795 84.866C112.167 84.866 112.353 85.07 112.353 85.478C112.353 85.874 112.113 86.072 111.633 86.072C111.537 86.072 111.225 86.036 110.697 85.964C110.433 85.928 110.139 85.91 109.815 85.91C109.563 85.91 109.227 85.934 108.807 85.982C108.279 86.042 107.979 86.072 107.907 86.072C107.403 86.072 107.151 85.868 107.151 85.46C107.151 85.076 107.343 84.884 107.727 84.884C107.787 84.884 107.895 84.902 108.051 84.938C108.219 84.974 108.381 84.992 108.537 84.992C108.897 84.992 109.083 84.644 109.095 83.948L109.131 81.95V79.772L109.095 79.142C109.071 78.734 109.017 78.458 108.933 78.314C108.861 78.158 108.729 78.08 108.537 78.08C108.453 78.08 108.327 78.098 108.159 78.134C108.003 78.158 107.883 78.17 107.799 78.17C107.367 78.17 107.151 77.978 107.151 77.594C107.151 77.198 107.421 77 107.961 77C108.033 77 108.093 77.006 108.141 77.018L108.807 77.09C108.999 77.09 109.167 77.078 109.311 77.054C109.623 77.03 109.785 77.018 109.797 77.018C110.145 77.018 110.319 77.198 110.319 77.558ZM121.466 78.728L123.536 84.812L125.732 78.818C125.792 78.65 125.822 78.518 125.822 78.422C125.822 78.218 125.684 78.116 125.408 78.116C125.264 78.116 125.15 78.128 125.066 78.152C124.874 78.176 124.748 78.188 124.688 78.188C124.292 78.188 124.094 77.996 124.094 77.612C124.094 77.204 124.352 77 124.868 77C124.94 77 125.06 77.012 125.228 77.036L125.876 77.126C126.044 77.15 126.224 77.162 126.416 77.162C126.62 77.162 126.92 77.138 127.316 77.09C127.712 77.042 128.012 77.018 128.216 77.018C128.732 77.018 128.99 77.216 128.99 77.612C128.99 77.996 128.792 78.188 128.396 78.188C128.276 78.188 128.186 78.176 128.126 78.152C127.97 78.116 127.862 78.098 127.802 78.098C127.574 78.098 127.34 78.404 127.1 79.016L124.652 85.136C124.112 86.492 123.602 87.476 123.122 88.088C122.306 89.132 121.286 89.654 120.062 89.654C119.33 89.654 118.712 89.468 118.208 89.096C117.715 88.724 117.469 88.274 117.469 87.746C117.469 87.374 117.577 87.068 117.793 86.828C118.01 86.6 118.292 86.486 118.64 86.486C118.916 86.486 119.144 86.564 119.324 86.72C119.504 86.888 119.594 87.092 119.594 87.332C119.594 87.716 119.42 87.962 119.072 88.07C119.252 88.334 119.594 88.466 120.098 88.466C120.734 88.466 121.304 88.226 121.808 87.746C122.324 87.278 122.582 86.75 122.582 86.162C122.582 85.862 122.42 85.304 122.096 84.488L120.116 79.484C120.116 79.484 120.044 79.292 119.9 78.908C119.696 78.368 119.462 78.098 119.198 78.098C119.126 78.098 118.994 78.116 118.802 78.152C118.622 78.188 118.502 78.206 118.442 78.206C118.022 78.206 117.811 78.014 117.811 77.63C117.811 77.222 118.088 77.018 118.64 77.018C118.82 77.018 118.958 77.024 119.054 77.036L119.774 77.126C119.786 77.126 119.834 77.126 119.918 77.126C120.002 77.138 120.074 77.144 120.134 77.144C120.566 77.144 121.028 77.12 121.52 77.072C121.892 77.036 122.138 77.018 122.258 77.018C122.762 77.018 123.014 77.216 123.014 77.612C123.014 78.008 122.786 78.206 122.33 78.206C122.258 78.206 122.144 78.194 121.988 78.17C121.832 78.134 121.718 78.116 121.646 78.116C121.478 78.116 121.394 78.2 121.394 78.368C121.394 78.464 121.418 78.584 121.466 78.728ZM134.4 83.516L134.436 82.364C134.448 81.872 134.664 81.626 135.084 81.626C135.504 81.626 135.714 81.902 135.714 82.454C135.714 83.762 135.546 84.674 135.21 85.19C134.754 85.886 134.004 86.234 132.96 86.234C132 86.234 131.316 85.928 130.908 85.316C130.608 84.872 130.458 84.116 130.458 83.048V78.728C130.458 78.476 130.344 78.35 130.116 78.35H129.54C129.348 78.35 129.186 78.29 129.054 78.17C128.934 78.038 128.874 77.882 128.874 77.702C128.874 77.534 128.934 77.384 129.054 77.252C129.186 77.12 129.33 77.054 129.486 77.054H130.188C130.392 77.054 130.494 76.94 130.494 76.712V74.858C130.494 74.402 130.728 74.174 131.196 74.174C131.628 74.174 131.844 74.402 131.844 74.858V76.784C131.844 76.964 131.952 77.054 132.168 77.054H134.13C134.586 77.054 134.814 77.264 134.814 77.684C134.814 78.128 134.568 78.35 134.076 78.35H132.096C131.928 78.35 131.844 78.476 131.844 78.728V83.156C131.844 84.416 132.258 85.046 133.086 85.046C133.926 85.046 134.364 84.536 134.4 83.516ZM139.483 74.408L139.411 77.9C139.891 77.444 140.329 77.132 140.725 76.964C141.121 76.784 141.589 76.694 142.129 76.694C143.161 76.694 143.989 76.988 144.613 77.576C145.237 78.164 145.549 78.938 145.549 79.898V82.904C145.549 83.612 145.555 84.002 145.567 84.074C145.615 84.674 145.771 84.974 146.035 84.974C146.131 84.974 146.269 84.95 146.449 84.902C146.521 84.89 146.617 84.884 146.737 84.884C147.181 84.884 147.403 85.082 147.403 85.478C147.403 85.874 147.115 86.072 146.539 86.072C146.383 86.072 146.155 86.054 145.855 86.018C145.351 85.958 144.943 85.928 144.631 85.928C144.319 85.928 144.079 85.94 143.911 85.964C143.407 86.036 143.095 86.072 142.975 86.072C142.759 86.072 142.579 86.012 142.435 85.892C142.291 85.76 142.219 85.598 142.219 85.406C142.219 85.25 142.279 85.118 142.399 85.01C142.531 84.902 142.681 84.848 142.849 84.848C142.981 84.848 143.137 84.878 143.317 84.938C143.425 84.974 143.527 84.992 143.623 84.992C143.983 84.992 144.169 84.602 144.181 83.822C144.181 83.678 144.187 83.396 144.199 82.976L144.217 82.202V81.23C144.217 80.006 144.097 79.184 143.857 78.764C143.509 78.14 142.897 77.828 142.021 77.828C141.073 77.828 140.383 78.152 139.951 78.8C139.651 79.244 139.495 79.958 139.483 80.942L139.465 82.238C139.465 82.31 139.459 82.43 139.447 82.598C139.447 82.754 139.447 82.868 139.447 82.94C139.447 83.624 139.453 84.02 139.465 84.128C139.525 84.716 139.699 85.01 139.987 85.01C140.083 85.01 140.215 84.992 140.383 84.956C140.563 84.908 140.695 84.884 140.779 84.884C141.163 84.884 141.355 85.07 141.355 85.442C141.355 85.862 141.091 86.072 140.563 86.072C140.395 86.072 140.143 86.054 139.807 86.018C139.351 85.97 138.961 85.946 138.637 85.946C138.433 85.946 138.151 85.964 137.791 86C137.311 86.048 137.005 86.072 136.873 86.072C136.381 86.072 136.135 85.856 136.135 85.424C136.135 85.064 136.363 84.884 136.819 84.884C136.975 84.884 137.089 84.896 137.161 84.92C137.365 84.956 137.509 84.974 137.593 84.974C137.785 84.974 137.911 84.794 137.971 84.434C138.043 84.062 138.085 83.312 138.097 82.184L138.115 78.962C138.115 77.162 138.079 76.028 138.007 75.56C137.935 75.08 137.767 74.84 137.503 74.84C137.419 74.84 137.293 74.858 137.125 74.894C136.957 74.93 136.825 74.948 136.729 74.948C136.321 74.948 136.117 74.756 136.117 74.372C136.117 74.204 136.189 74.06 136.333 73.94C136.477 73.82 136.651 73.76 136.855 73.76C136.915 73.76 137.119 73.778 137.467 73.814C137.695 73.838 137.941 73.85 138.205 73.85C138.313 73.85 138.463 73.838 138.655 73.814C138.847 73.79 138.985 73.778 139.069 73.778C139.345 73.778 139.483 73.976 139.483 74.372V74.408ZM151.034 80.78V83.12C151.034 83.72 151.04 84.074 151.052 84.182C151.112 84.722 151.274 84.992 151.538 84.992C151.598 84.992 151.748 84.962 151.988 84.902C152.048 84.878 152.138 84.866 152.258 84.866C152.714 84.866 152.942 85.064 152.942 85.46C152.942 85.628 152.864 85.772 152.708 85.892C152.564 86.012 152.378 86.072 152.15 86.072C151.958 86.072 151.664 86.048 151.268 86C150.884 85.94 150.596 85.91 150.404 85.91C150.092 85.91 149.744 85.934 149.36 85.982C148.892 86.042 148.58 86.072 148.424 86.072C147.944 86.072 147.704 85.868 147.704 85.46C147.704 85.064 147.908 84.866 148.316 84.866C148.412 84.866 148.55 84.884 148.73 84.92C148.922 84.956 149.066 84.974 149.162 84.974C149.45 84.974 149.624 84.59 149.684 83.822C149.684 83.774 149.684 83.252 149.684 82.256V80.78C149.684 79.784 149.684 79.262 149.684 79.214C149.624 78.458 149.444 78.08 149.144 78.08C149.048 78.08 148.91 78.104 148.73 78.152C148.562 78.188 148.436 78.206 148.352 78.206C147.92 78.206 147.704 78.014 147.704 77.63C147.704 77.222 147.968 77.018 148.496 77.018C148.724 77.018 148.886 77.024 148.982 77.036C149.366 77.084 149.612 77.108 149.72 77.108C149.816 77.108 149.96 77.096 150.152 77.072C150.356 77.036 150.506 77.018 150.602 77.018C150.95 77.018 151.124 77.252 151.124 77.72C151.124 77.768 151.118 77.84 151.106 77.936C151.094 78.032 151.088 78.104 151.088 78.152C151.076 78.248 151.064 78.62 151.052 79.268C151.04 79.76 151.034 80.264 151.034 80.78ZM150.098 76.064C149.822 76.064 149.582 75.968 149.378 75.776C149.186 75.572 149.09 75.332 149.09 75.056C149.09 74.78 149.186 74.546 149.378 74.354C149.582 74.162 149.822 74.066 150.098 74.066C150.374 74.066 150.608 74.162 150.8 74.354C151.004 74.546 151.106 74.78 151.106 75.056C151.106 75.332 151.004 75.572 150.8 75.776C150.608 75.968 150.374 76.064 150.098 76.064ZM156.444 77.558V78.062C157.164 77.15 158.124 76.694 159.324 76.694C159.972 76.694 160.584 76.862 161.16 77.198C161.736 77.522 162.126 77.93 162.33 78.422C162.498 78.83 162.582 79.364 162.582 80.024V83.444C162.582 83.96 162.588 84.266 162.6 84.362C162.66 84.77 162.822 84.974 163.086 84.974C163.194 84.974 163.332 84.962 163.5 84.938C163.68 84.902 163.806 84.884 163.878 84.884C164.034 84.884 164.166 84.938 164.274 85.046C164.394 85.154 164.454 85.286 164.454 85.442C164.454 85.622 164.382 85.772 164.238 85.892C164.094 86.012 163.92 86.072 163.716 86.072C163.548 86.072 163.272 86.048 162.888 86C162.504 85.952 162.144 85.928 161.808 85.928C161.496 85.928 161.238 85.94 161.034 85.964C160.434 86.036 160.116 86.072 160.08 86.072C159.6 86.072 159.36 85.862 159.36 85.442C159.36 85.07 159.564 84.884 159.972 84.884C160.068 84.884 160.176 84.896 160.296 84.92C160.524 84.968 160.668 84.992 160.728 84.992C161.016 84.992 161.172 84.662 161.196 84.002L161.232 83.084L161.25 81.986V80.618C161.25 79.982 161.22 79.544 161.16 79.304C161.052 78.848 160.818 78.494 160.458 78.242C160.062 77.966 159.612 77.828 159.108 77.828C158.148 77.828 157.458 78.17 157.038 78.854C156.75 79.322 156.606 80.12 156.606 81.248V83.642C156.606 84.17 156.642 84.53 156.714 84.722C156.786 84.914 156.918 85.01 157.11 85.01C157.206 85.01 157.338 84.986 157.506 84.938C157.674 84.89 157.812 84.866 157.92 84.866C158.292 84.866 158.478 85.07 158.478 85.478C158.478 85.874 158.238 86.072 157.758 86.072C157.662 86.072 157.35 86.036 156.822 85.964C156.558 85.928 156.264 85.91 155.94 85.91C155.688 85.91 155.352 85.934 154.932 85.982C154.404 86.042 154.104 86.072 154.032 86.072C153.528 86.072 153.276 85.868 153.276 85.46C153.276 85.076 153.468 84.884 153.852 84.884C153.912 84.884 154.02 84.902 154.176 84.938C154.344 84.974 154.506 84.992 154.662 84.992C155.022 84.992 155.208 84.644 155.22 83.948L155.256 81.95V79.772L155.22 79.142C155.196 78.734 155.142 78.458 155.058 78.314C154.986 78.158 154.854 78.08 154.662 78.08C154.578 78.08 154.452 78.098 154.284 78.134C154.128 78.158 154.008 78.17 153.924 78.17C153.492 78.17 153.276 77.978 153.276 77.594C153.276 77.198 153.546 77 154.086 77C154.158 77 154.218 77.006 154.266 77.018L154.932 77.09C155.124 77.09 155.292 77.078 155.436 77.054C155.748 77.03 155.91 77.018 155.922 77.018C156.27 77.018 156.444 77.198 156.444 77.558ZM169.417 76.694C169.729 76.694 170.083 76.742 170.479 76.838C170.539 75.662 171.223 75.074 172.531 75.074C173.083 75.074 173.545 75.218 173.917 75.506C174.289 75.794 174.475 76.16 174.475 76.604C174.475 76.892 174.379 77.138 174.187 77.342C174.007 77.546 173.791 77.648 173.539 77.648C173.347 77.648 173.179 77.582 173.035 77.45C172.891 77.318 172.819 77.162 172.819 76.982C172.819 76.79 172.951 76.592 173.215 76.388C173.023 76.148 172.777 76.028 172.477 76.028C171.841 76.028 171.517 76.424 171.505 77.216C172.417 77.828 172.873 78.65 172.873 79.682C172.873 80.51 172.561 81.2 171.937 81.752C171.313 82.304 170.533 82.58 169.597 82.58C168.937 82.58 168.253 82.424 167.545 82.112C167.353 82.028 167.191 81.986 167.059 81.986C166.891 81.986 166.741 82.064 166.609 82.22C166.477 82.364 166.411 82.538 166.411 82.742C166.411 83.366 167.041 83.678 168.301 83.678H168.409C168.505 83.678 168.613 83.672 168.733 83.66C168.853 83.66 168.925 83.66 168.949 83.66C170.089 83.66 171.013 83.768 171.721 83.984C172.381 84.188 172.903 84.506 173.287 84.938C173.671 85.37 173.863 85.856 173.863 86.396C173.863 87.272 173.455 87.962 172.639 88.466C171.835 88.982 170.743 89.24 169.363 89.24C167.983 89.24 166.897 89 166.105 88.52C165.325 88.04 164.935 87.38 164.935 86.54C164.935 85.568 165.481 84.878 166.573 84.47C165.601 84.086 165.115 83.51 165.115 82.742C165.115 81.902 165.601 81.326 166.573 81.014C166.261 80.594 166.105 80.102 166.105 79.538C166.105 78.722 166.417 78.044 167.041 77.504C167.677 76.964 168.469 76.694 169.417 76.694ZM169.471 77.882C168.943 77.882 168.493 78.038 168.121 78.35C167.749 78.662 167.545 79.052 167.509 79.52C167.509 79.52 167.509 79.556 167.509 79.628C167.509 80.156 167.689 80.582 168.049 80.906C168.409 81.23 168.877 81.392 169.453 81.392C170.053 81.392 170.539 81.23 170.911 80.906C171.295 80.582 171.487 80.168 171.487 79.664C171.487 79.148 171.295 78.722 170.911 78.386C170.527 78.05 170.047 77.882 169.471 77.882ZM169.489 84.866C168.529 84.866 167.773 85.01 167.221 85.298C166.669 85.586 166.393 85.976 166.393 86.468C166.393 86.96 166.663 87.344 167.203 87.62C167.743 87.908 168.469 88.052 169.381 88.052C170.341 88.052 171.097 87.908 171.649 87.62C172.213 87.332 172.495 86.948 172.495 86.468C172.495 85.964 172.231 85.574 171.703 85.298C171.175 85.01 170.437 84.866 169.489 84.866ZM181.421 82.382C181.421 82.286 181.427 82.202 181.439 82.13C180.983 82.838 180.281 83.192 179.333 83.192C178.757 83.192 178.289 83 177.929 82.616C177.581 82.22 177.407 81.71 177.407 81.086C177.407 79.994 177.803 79.034 178.595 78.206C179.387 77.366 180.305 76.946 181.349 76.946C181.589 76.946 181.853 76.982 182.141 77.054L182.501 77.144C182.549 77.168 182.609 77.18 182.681 77.18C182.741 77.18 182.843 77.15 182.987 77.09C183.179 77.006 183.317 76.964 183.401 76.964C183.581 76.964 183.671 77.042 183.671 77.198C183.671 77.234 183.659 77.3 183.635 77.396L183.545 77.738L182.519 81.572C182.483 81.716 182.465 81.83 182.465 81.914C182.465 82.13 182.579 82.238 182.807 82.238C183.251 82.238 183.665 81.95 184.049 81.374C184.589 80.57 184.859 79.64 184.859 78.584C184.859 77.588 184.529 76.76 183.869 76.1C183.221 75.44 182.399 75.11 181.403 75.11C179.999 75.11 178.775 75.674 177.731 76.802C176.699 77.918 176.183 79.232 176.183 80.744C176.183 81.92 176.561 82.904 177.317 83.696C178.073 84.476 179.021 84.866 180.161 84.866C180.833 84.866 181.385 84.788 181.817 84.632C182.261 84.464 182.813 84.14 183.473 83.66C183.713 83.48 183.911 83.39 184.067 83.39C184.295 83.39 184.409 83.498 184.409 83.714C184.409 83.942 184.253 84.176 183.941 84.416C182.753 85.352 181.445 85.82 180.017 85.82C178.565 85.82 177.353 85.34 176.381 84.38C175.421 83.408 174.941 82.196 174.941 80.744C174.941 78.992 175.589 77.468 176.885 76.172C178.193 74.864 179.735 74.21 181.511 74.21C182.855 74.21 183.947 74.606 184.787 75.398C185.639 76.19 186.065 77.222 186.065 78.494C186.065 79.922 185.543 81.17 184.499 82.238C183.863 82.886 183.197 83.21 182.501 83.21C182.189 83.21 181.931 83.132 181.727 82.976C181.523 82.82 181.421 82.622 181.421 82.382ZM181.799 79.934L182.285 78.134C181.925 77.954 181.577 77.864 181.241 77.864C180.545 77.864 179.933 78.17 179.405 78.782C178.889 79.394 178.631 80.108 178.631 80.924C178.631 81.752 178.991 82.166 179.711 82.166C180.707 82.166 181.403 81.422 181.799 79.934ZM190.14 77.54V78.062C190.572 77.546 190.98 77.192 191.364 77C191.748 76.796 192.228 76.694 192.804 76.694C193.98 76.694 194.844 77.15 195.396 78.062C195.804 77.558 196.218 77.204 196.638 77C197.058 76.796 197.598 76.694 198.258 76.694C198.942 76.694 199.554 76.838 200.094 77.126C200.694 77.45 201.108 77.906 201.336 78.494C201.492 78.89 201.57 79.514 201.57 80.366V82.112L201.552 83.462C201.552 83.954 201.558 84.254 201.57 84.362C201.63 84.794 201.786 85.01 202.038 85.01C202.122 85.01 202.248 84.992 202.416 84.956C202.584 84.92 202.71 84.902 202.794 84.902C203.214 84.902 203.424 85.082 203.424 85.442C203.424 85.862 203.184 86.072 202.704 86.072C202.524 86.072 202.248 86.048 201.876 86C201.516 85.964 201.24 85.946 201.048 85.946C200.844 85.946 200.544 85.964 200.148 86C199.764 86.048 199.47 86.072 199.266 86.072C198.762 86.072 198.51 85.862 198.51 85.442C198.51 85.082 198.702 84.902 199.086 84.902C199.134 84.902 199.254 84.914 199.446 84.938C199.518 84.962 199.614 84.974 199.734 84.974C199.938 84.974 200.064 84.872 200.112 84.668C200.172 84.464 200.208 83.954 200.22 83.138L200.238 82.04V80.852C200.238 80.024 200.172 79.424 200.04 79.052C199.92 78.668 199.686 78.368 199.338 78.152C198.99 77.936 198.594 77.828 198.15 77.828C197.298 77.828 196.704 78.122 196.368 78.71C196.104 79.178 195.972 79.994 195.972 81.158V82.436C195.972 83.564 195.996 84.272 196.044 84.56C196.104 84.836 196.248 84.974 196.476 84.974C196.548 84.974 196.65 84.962 196.782 84.938C196.926 84.902 197.034 84.884 197.106 84.884C197.274 84.884 197.412 84.944 197.52 85.064C197.64 85.172 197.7 85.31 197.7 85.478C197.7 85.874 197.418 86.072 196.854 86.072C196.674 86.072 196.404 86.048 196.044 86C195.696 85.952 195.432 85.928 195.252 85.928C195 85.928 194.724 85.952 194.424 86C194.124 86.048 193.86 86.072 193.632 86.072C193.14 86.072 192.894 85.868 192.894 85.46C192.894 85.088 193.074 84.902 193.434 84.902C193.566 84.902 193.668 84.914 193.74 84.938C193.908 84.974 194.034 84.992 194.118 84.992C194.406 84.992 194.556 84.686 194.568 84.074L194.586 83.228C194.598 82.964 194.604 82.706 194.604 82.454C194.616 82.238 194.622 82.124 194.622 82.112V80.618C194.622 79.574 194.478 78.848 194.19 78.44C193.914 78.032 193.416 77.828 192.696 77.828C191.904 77.828 191.298 78.116 190.878 78.692C190.53 79.16 190.356 79.976 190.356 81.14V83.534C190.356 84.014 190.362 84.296 190.374 84.38C190.422 84.788 190.554 84.992 190.77 84.992C190.83 84.992 190.956 84.968 191.148 84.92C191.172 84.92 191.208 84.914 191.256 84.902C191.304 84.902 191.346 84.902 191.382 84.902C191.85 84.902 192.084 85.1 192.084 85.496C192.084 85.88 191.814 86.072 191.274 86.072C191.07 86.072 190.818 86.054 190.518 86.018C190.11 85.97 189.762 85.946 189.474 85.946C189.33 85.946 189.066 85.964 188.682 86C188.166 86.048 187.854 86.072 187.746 86.072C187.266 86.072 187.026 85.868 187.026 85.46C187.026 85.088 187.254 84.902 187.71 84.902C187.734 84.902 187.77 84.902 187.818 84.902C187.866 84.914 187.902 84.92 187.926 84.92L188.376 85.01C188.388 85.022 188.412 85.028 188.448 85.028C188.772 85.028 188.946 84.734 188.97 84.146L189.006 83.12V80.366C189.006 79.346 188.976 78.71 188.916 78.458C188.868 78.206 188.724 78.08 188.484 78.08C188.436 78.08 188.268 78.11 187.98 78.17C187.86 78.194 187.764 78.206 187.692 78.206C187.248 78.206 187.026 78.014 187.026 77.63C187.026 77.222 187.272 77.018 187.764 77.018C187.896 77.018 188.076 77.03 188.304 77.054C188.532 77.078 188.73 77.09 188.898 77.09C188.958 77.09 189.024 77.084 189.096 77.072C189.168 77.072 189.21 77.072 189.222 77.072L189.654 77.018H189.708C189.996 77.018 190.14 77.192 190.14 77.54ZM211.88 86.234C210.896 86.234 210.29 85.808 210.062 84.956C209.45 85.856 208.49 86.306 207.182 86.306C206.21 86.306 205.43 86.066 204.842 85.586C204.266 85.106 203.978 84.464 203.978 83.66C203.978 82.664 204.404 81.932 205.256 81.464C205.58 81.284 205.856 81.17 206.083 81.122C206.324 81.062 206.798 80.99 207.506 80.906C208.514 80.798 209.168 80.648 209.468 80.456C209.78 80.264 209.936 79.91 209.936 79.394C209.936 78.902 209.762 78.518 209.414 78.242C209.078 77.954 208.604 77.81 207.992 77.81C207.452 77.81 206.948 77.96 206.48 78.26C206.3 78.38 206.21 78.506 206.21 78.638C206.21 78.686 206.264 78.746 206.372 78.818C206.54 78.938 206.624 79.142 206.624 79.43C206.624 79.67 206.534 79.868 206.354 80.024C206.186 80.18 205.97 80.258 205.706 80.258C205.394 80.258 205.13 80.15 204.914 79.934C204.71 79.718 204.608 79.454 204.608 79.142C204.608 78.47 204.938 77.894 205.598 77.414C206.27 76.934 207.08 76.694 208.028 76.694C210.212 76.694 211.304 77.744 211.304 79.844V83.48C211.304 84.056 211.316 84.398 211.34 84.506C211.412 84.926 211.616 85.136 211.952 85.136C212.372 85.136 212.582 84.752 212.582 83.984V83.102C212.582 82.718 212.768 82.526 213.14 82.526C213.536 82.526 213.734 82.814 213.734 83.39V83.48L213.716 84.506C213.692 85.658 213.08 86.234 211.88 86.234ZM209.882 82.652L209.9 81.374C209.636 81.614 209.354 81.782 209.054 81.878C208.766 81.974 208.244 82.058 207.488 82.13C206.12 82.262 205.436 82.766 205.436 83.642C205.436 84.098 205.598 84.458 205.922 84.722C206.258 84.986 206.708 85.118 207.272 85.118C208.076 85.118 208.706 84.902 209.162 84.47C209.63 84.026 209.87 83.42 209.882 82.652ZM217.216 80.78V83.12C217.216 83.72 217.222 84.074 217.234 84.182C217.294 84.722 217.456 84.992 217.72 84.992C217.78 84.992 217.93 84.962 218.17 84.902C218.23 84.878 218.32 84.866 218.44 84.866C218.896 84.866 219.124 85.064 219.124 85.46C219.124 85.628 219.046 85.772 218.89 85.892C218.746 86.012 218.56 86.072 218.332 86.072C218.14 86.072 217.846 86.048 217.45 86C217.066 85.94 216.778 85.91 216.586 85.91C216.274 85.91 215.926 85.934 215.542 85.982C215.074 86.042 214.762 86.072 214.606 86.072C214.126 86.072 213.886 85.868 213.886 85.46C213.886 85.064 214.09 84.866 214.498 84.866C214.594 84.866 214.732 84.884 214.912 84.92C215.104 84.956 215.248 84.974 215.344 84.974C215.632 84.974 215.806 84.59 215.866 83.822C215.866 83.774 215.866 83.252 215.866 82.256V80.78C215.866 79.784 215.866 79.262 215.866 79.214C215.806 78.458 215.626 78.08 215.326 78.08C215.23 78.08 215.092 78.104 214.912 78.152C214.744 78.188 214.618 78.206 214.534 78.206C214.102 78.206 213.886 78.014 213.886 77.63C213.886 77.222 214.15 77.018 214.678 77.018C214.906 77.018 215.068 77.024 215.164 77.036C215.548 77.084 215.794 77.108 215.902 77.108C215.998 77.108 216.142 77.096 216.334 77.072C216.538 77.036 216.688 77.018 216.784 77.018C217.132 77.018 217.306 77.252 217.306 77.72C217.306 77.768 217.3 77.84 217.288 77.936C217.276 78.032 217.27 78.104 217.27 78.152C217.258 78.248 217.246 78.62 217.234 79.268C217.222 79.76 217.216 80.264 217.216 80.78ZM216.28 76.064C216.004 76.064 215.764 75.968 215.56 75.776C215.368 75.572 215.272 75.332 215.272 75.056C215.272 74.78 215.368 74.546 215.56 74.354C215.764 74.162 216.004 74.066 216.28 74.066C216.556 74.066 216.79 74.162 216.982 74.354C217.186 74.546 217.288 74.78 217.288 75.056C217.288 75.332 217.186 75.572 216.982 75.776C216.79 75.968 216.556 76.064 216.28 76.064ZM222.68 78.476L222.698 84.074C222.71 84.686 222.872 84.992 223.184 84.992C223.256 84.992 223.406 84.962 223.634 84.902C223.778 84.878 223.874 84.866 223.922 84.866C224.318 84.866 224.516 85.07 224.516 85.478C224.516 85.874 224.27 86.072 223.778 86.072C223.586 86.072 223.28 86.048 222.86 86C222.44 85.952 222.116 85.928 221.888 85.928C221.696 85.928 221.408 85.952 221.024 86C220.64 86.048 220.358 86.072 220.178 86.072H220.088C219.584 86.072 219.332 85.856 219.332 85.424C219.332 85.052 219.536 84.866 219.944 84.866C219.968 84.866 220.01 84.866 220.07 84.866C220.142 84.878 220.196 84.884 220.232 84.884C220.532 84.932 220.706 84.956 220.754 84.956C220.97 84.956 221.102 84.866 221.15 84.686C221.21 84.494 221.246 84.008 221.258 83.228L221.276 81.968L221.33 79.178L221.312 75.974C221.3 75.614 221.282 75.374 221.258 75.254C221.174 74.978 221.006 74.84 220.754 74.84C220.718 74.84 220.562 74.864 220.286 74.912C220.154 74.936 220.046 74.948 219.962 74.948C219.554 74.948 219.35 74.756 219.35 74.372C219.35 73.976 219.59 73.778 220.07 73.778C220.202 73.778 220.316 73.784 220.412 73.796L220.844 73.85C221.036 73.874 221.198 73.886 221.33 73.886C221.45 73.886 221.63 73.868 221.87 73.832C222.11 73.784 222.29 73.76 222.41 73.76C222.686 73.76 222.824 73.934 222.824 74.282C222.824 74.402 222.818 74.492 222.806 74.552C222.722 75.476 222.68 76.784 222.68 78.476ZM228.127 77.54V78.062C228.559 77.546 228.967 77.192 229.351 77C229.735 76.796 230.215 76.694 230.791 76.694C231.967 76.694 232.831 77.15 233.383 78.062C233.791 77.558 234.205 77.204 234.625 77C235.045 76.796 235.585 76.694 236.245 76.694C236.929 76.694 237.541 76.838 238.081 77.126C238.681 77.45 239.095 77.906 239.323 78.494C239.479 78.89 239.557 79.514 239.557 80.366V82.112L239.539 83.462C239.539 83.954 239.545 84.254 239.557 84.362C239.617 84.794 239.773 85.01 240.025 85.01C240.109 85.01 240.235 84.992 240.403 84.956C240.571 84.92 240.697 84.902 240.781 84.902C241.201 84.902 241.411 85.082 241.411 85.442C241.411 85.862 241.171 86.072 240.691 86.072C240.511 86.072 240.235 86.048 239.863 86C239.503 85.964 239.227 85.946 239.035 85.946C238.831 85.946 238.531 85.964 238.135 86C237.751 86.048 237.457 86.072 237.253 86.072C236.749 86.072 236.497 85.862 236.497 85.442C236.497 85.082 236.689 84.902 237.073 84.902C237.121 84.902 237.241 84.914 237.433 84.938C237.505 84.962 237.601 84.974 237.721 84.974C237.925 84.974 238.051 84.872 238.099 84.668C238.159 84.464 238.195 83.954 238.207 83.138L238.225 82.04V80.852C238.225 80.024 238.159 79.424 238.027 79.052C237.907 78.668 237.673 78.368 237.325 78.152C236.977 77.936 236.581 77.828 236.137 77.828C235.285 77.828 234.691 78.122 234.355 78.71C234.091 79.178 233.959 79.994 233.959 81.158V82.436C233.959 83.564 233.983 84.272 234.031 84.56C234.091 84.836 234.235 84.974 234.463 84.974C234.535 84.974 234.637 84.962 234.769 84.938C234.913 84.902 235.021 84.884 235.093 84.884C235.261 84.884 235.399 84.944 235.507 85.064C235.627 85.172 235.687 85.31 235.687 85.478C235.687 85.874 235.405 86.072 234.841 86.072C234.661 86.072 234.391 86.048 234.031 86C233.683 85.952 233.419 85.928 233.239 85.928C232.987 85.928 232.711 85.952 232.411 86C232.111 86.048 231.847 86.072 231.619 86.072C231.127 86.072 230.881 85.868 230.881 85.46C230.881 85.088 231.061 84.902 231.421 84.902C231.553 84.902 231.655 84.914 231.727 84.938C231.895 84.974 232.021 84.992 232.105 84.992C232.393 84.992 232.543 84.686 232.555 84.074L232.573 83.228C232.585 82.964 232.591 82.706 232.591 82.454C232.603 82.238 232.609 82.124 232.609 82.112V80.618C232.609 79.574 232.465 78.848 232.177 78.44C231.901 78.032 231.403 77.828 230.683 77.828C229.891 77.828 229.285 78.116 228.865 78.692C228.517 79.16 228.343 79.976 228.343 81.14V83.534C228.343 84.014 228.349 84.296 228.361 84.38C228.409 84.788 228.541 84.992 228.757 84.992C228.817 84.992 228.943 84.968 229.135 84.92C229.159 84.92 229.195 84.914 229.243 84.902C229.291 84.902 229.333 84.902 229.369 84.902C229.837 84.902 230.071 85.1 230.071 85.496C230.071 85.88 229.801 86.072 229.261 86.072C229.057 86.072 228.805 86.054 228.505 86.018C228.097 85.97 227.749 85.946 227.461 85.946C227.317 85.946 227.053 85.964 226.669 86C226.153 86.048 225.841 86.072 225.733 86.072C225.253 86.072 225.013 85.868 225.013 85.46C225.013 85.088 225.241 84.902 225.697 84.902C225.721 84.902 225.757 84.902 225.805 84.902C225.853 84.914 225.889 84.92 225.913 84.92L226.363 85.01C226.375 85.022 226.399 85.028 226.435 85.028C226.759 85.028 226.933 84.734 226.957 84.146L226.993 83.12V80.366C226.993 79.346 226.963 78.71 226.903 78.458C226.855 78.206 226.711 78.08 226.471 78.08C226.423 78.08 226.255 78.11 225.967 78.17C225.847 78.194 225.751 78.206 225.679 78.206C225.235 78.206 225.013 78.014 225.013 77.63C225.013 77.222 225.259 77.018 225.751 77.018C225.883 77.018 226.063 77.03 226.291 77.054C226.519 77.078 226.717 77.09 226.885 77.09C226.945 77.09 227.011 77.084 227.083 77.072C227.155 77.072 227.197 77.072 227.209 77.072L227.641 77.018H227.695C227.983 77.018 228.127 77.192 228.127 77.54ZM249.866 86.234C248.882 86.234 248.276 85.808 248.048 84.956C247.436 85.856 246.476 86.306 245.168 86.306C244.196 86.306 243.416 86.066 242.828 85.586C242.252 85.106 241.964 84.464 241.964 83.66C241.964 82.664 242.39 81.932 243.242 81.464C243.566 81.284 243.842 81.17 244.07 81.122C244.31 81.062 244.784 80.99 245.492 80.906C246.5 80.798 247.154 80.648 247.454 80.456C247.766 80.264 247.922 79.91 247.922 79.394C247.922 78.902 247.748 78.518 247.4 78.242C247.064 77.954 246.59 77.81 245.978 77.81C245.438 77.81 244.934 77.96 244.466 78.26C244.286 78.38 244.196 78.506 244.196 78.638C244.196 78.686 244.25 78.746 244.358 78.818C244.526 78.938 244.61 79.142 244.61 79.43C244.61 79.67 244.52 79.868 244.34 80.024C244.172 80.18 243.956 80.258 243.692 80.258C243.38 80.258 243.116 80.15 242.9 79.934C242.696 79.718 242.594 79.454 242.594 79.142C242.594 78.47 242.924 77.894 243.584 77.414C244.256 76.934 245.066 76.694 246.014 76.694C248.198 76.694 249.29 77.744 249.29 79.844V83.48C249.29 84.056 249.302 84.398 249.326 84.506C249.398 84.926 249.602 85.136 249.938 85.136C250.358 85.136 250.568 84.752 250.568 83.984V83.102C250.568 82.718 250.754 82.526 251.126 82.526C251.522 82.526 251.72 82.814 251.72 83.39V83.48L251.702 84.506C251.678 85.658 251.066 86.234 249.866 86.234ZM247.868 82.652L247.886 81.374C247.622 81.614 247.34 81.782 247.04 81.878C246.752 81.974 246.23 82.058 245.474 82.13C244.106 82.262 243.422 82.766 243.422 83.642C243.422 84.098 243.584 84.458 243.908 84.722C244.244 84.986 244.694 85.118 245.258 85.118C246.062 85.118 246.692 84.902 247.148 84.47C247.616 84.026 247.856 83.42 247.868 82.652ZM256.084 76.694C256.888 76.694 257.56 76.904 258.1 77.324V77.252C258.1 76.808 258.292 76.586 258.676 76.586C259.072 76.586 259.27 76.778 259.27 77.162C259.27 77.234 259.258 77.414 259.234 77.702C259.186 77.942 259.162 78.182 259.162 78.422C259.162 78.566 259.18 78.776 259.216 79.052C259.264 79.328 259.288 79.538 259.288 79.682C259.288 80.138 259.09 80.366 258.694 80.366C258.31 80.366 258.112 80.174 258.1 79.79L258.082 79.196C258.07 78.836 257.86 78.53 257.452 78.278C257.056 78.014 256.588 77.882 256.048 77.882C255.496 77.882 255.034 78.026 254.662 78.314C254.29 78.59 254.104 78.938 254.104 79.358C254.104 80.126 254.632 80.582 255.688 80.726L256.732 80.87C258.772 81.146 259.792 81.992 259.792 83.408C259.792 84.272 259.462 84.974 258.802 85.514C258.142 86.042 257.278 86.306 256.21 86.306C255.214 86.306 254.35 86.024 253.618 85.46C253.63 85.58 253.636 85.694 253.636 85.802C253.636 86.234 253.432 86.45 253.024 86.45C252.58 86.45 252.358 86.204 252.358 85.712C252.358 85.796 252.394 85.484 252.466 84.776C252.49 84.608 252.502 84.44 252.502 84.272C252.502 83.984 252.478 83.714 252.43 83.462C252.382 83.21 252.358 83.012 252.358 82.868C252.358 82.448 252.55 82.238 252.934 82.238C253.186 82.238 253.342 82.298 253.402 82.418C253.474 82.538 253.516 82.856 253.528 83.372C253.54 83.888 253.81 84.308 254.338 84.632C254.866 84.956 255.538 85.118 256.354 85.118C256.942 85.118 257.428 84.968 257.812 84.668C258.196 84.368 258.388 83.99 258.388 83.534C258.388 82.718 257.74 82.244 256.444 82.112C255.208 81.98 254.266 81.74 253.618 81.392C252.97 81.032 252.646 80.408 252.646 79.52C252.646 78.68 252.964 78.002 253.6 77.486C254.236 76.958 255.064 76.694 256.084 76.694ZM263.953 81.446L267.031 78.566C267.139 78.47 267.193 78.362 267.193 78.242C267.193 78.122 267.115 78.062 266.959 78.062C266.839 78.062 266.665 78.086 266.437 78.134C266.209 78.182 266.035 78.206 265.915 78.206C265.495 78.206 265.285 78.014 265.285 77.63C265.285 77.21 265.549 77 266.077 77C266.209 77 266.377 77.012 266.581 77.036C267.409 77.132 268.039 77.18 268.471 77.18C268.711 77.18 268.915 77.168 269.083 77.144L269.821 77.036C269.989 77.012 270.127 77 270.235 77C270.823 77 271.117 77.204 271.117 77.612C271.117 77.996 270.913 78.188 270.505 78.188C270.409 78.188 270.271 78.176 270.091 78.152C269.923 78.128 269.791 78.116 269.695 78.116C269.395 78.116 269.083 78.266 268.759 78.566L266.869 80.294C266.737 80.414 266.671 80.51 266.671 80.582C266.671 80.642 266.719 80.732 266.815 80.852L269.119 83.84C269.707 84.596 270.127 84.974 270.379 84.974C270.439 84.974 270.535 84.962 270.667 84.938C270.811 84.902 270.925 84.884 271.009 84.884C271.441 84.884 271.657 85.076 271.657 85.46C271.657 85.868 271.381 86.072 270.829 86.072C270.613 86.072 270.289 86.048 269.857 86C269.437 85.952 269.119 85.928 268.903 85.928C268.711 85.928 268.429 85.952 268.057 86C267.697 86.048 267.427 86.072 267.247 86.072C266.791 86.072 266.563 85.868 266.563 85.46C266.563 85.076 266.779 84.884 267.211 84.884C267.331 84.884 267.427 84.89 267.499 84.902C267.715 84.962 267.853 84.992 267.913 84.992C268.021 84.992 268.075 84.95 268.075 84.866C268.075 84.854 268.075 84.836 268.075 84.812C268.063 84.8 268.057 84.788 268.057 84.776L267.877 84.524L267.643 84.182L265.843 81.788C265.723 81.632 265.627 81.554 265.555 81.554C265.507 81.554 265.417 81.614 265.285 81.734L263.953 82.922V83.336C263.953 83.912 263.959 84.236 263.971 84.308C264.031 84.728 264.199 84.938 264.475 84.938C264.595 84.938 264.697 84.932 264.781 84.92C264.865 84.896 264.979 84.884 265.123 84.884C265.531 84.884 265.735 85.082 265.735 85.478C265.735 85.874 265.507 86.072 265.051 86.072C264.847 86.072 264.535 86.048 264.115 86C263.707 85.94 263.395 85.91 263.179 85.91C262.903 85.91 262.585 85.934 262.225 85.982C261.769 86.042 261.463 86.072 261.307 86.072C260.839 86.072 260.605 85.874 260.605 85.478C260.605 85.082 260.833 84.884 261.289 84.884C261.385 84.884 261.499 84.896 261.631 84.92C261.823 84.956 261.955 84.974 262.027 84.974C262.315 84.974 262.477 84.746 262.513 84.29L262.567 83.588V76.316C262.543 75.668 262.501 75.26 262.441 75.092C262.381 74.912 262.255 74.822 262.063 74.822C262.003 74.822 261.889 74.834 261.721 74.858C261.553 74.918 261.385 74.948 261.217 74.948C260.821 74.948 260.623 74.762 260.623 74.39C260.623 73.982 260.857 73.778 261.325 73.778C261.565 73.778 261.733 73.784 261.829 73.796C262.129 73.832 262.327 73.85 262.423 73.85C262.519 73.85 262.657 73.838 262.837 73.814C263.029 73.778 263.167 73.76 263.251 73.76H263.377C263.761 73.76 263.953 74.006 263.953 74.498V81.446ZM280.181 80.708C280.181 81.164 280.151 81.446 280.091 81.554C280.031 81.65 279.857 81.698 279.569 81.698H273.845C273.689 81.698 273.587 81.722 273.539 81.77C273.491 81.806 273.467 81.872 273.467 81.968C273.467 82.868 273.737 83.618 274.277 84.218C274.817 84.818 275.489 85.118 276.293 85.118C276.821 85.118 277.301 84.974 277.733 84.686C278.177 84.398 278.465 84.032 278.597 83.588L278.759 83.066C278.843 82.778 279.041 82.634 279.353 82.634C279.797 82.634 280.019 82.862 280.019 83.318C280.019 84.098 279.623 84.794 278.831 85.406C278.039 86.006 277.139 86.306 276.131 86.306C274.871 86.306 273.869 85.886 273.125 85.046C272.381 84.194 272.009 83.054 272.009 81.626C272.009 80.162 272.405 78.974 273.197 78.062C273.989 77.15 275.021 76.694 276.293 76.694C277.421 76.694 278.351 77.072 279.083 77.828C279.815 78.584 280.181 79.544 280.181 80.708ZM273.647 80.24C273.647 80.408 273.779 80.492 274.043 80.492H278.345C278.597 80.492 278.723 80.408 278.723 80.24C278.723 79.604 278.483 79.052 278.003 78.584C277.523 78.116 276.959 77.882 276.311 77.882C275.639 77.882 275.027 78.128 274.475 78.62C273.923 79.1 273.647 79.64 273.647 80.24ZM284.236 77.522V78.008C284.86 77.132 285.694 76.694 286.738 76.694C287.578 76.694 288.256 76.934 288.772 77.414C289.3 77.882 289.564 78.488 289.564 79.232C289.564 79.76 289.432 80.192 289.168 80.528C288.904 80.852 288.556 81.014 288.124 81.014C287.848 81.014 287.614 80.93 287.422 80.762C287.23 80.594 287.134 80.39 287.134 80.15C287.134 79.958 287.206 79.79 287.35 79.646C287.494 79.49 287.662 79.412 287.854 79.412C287.89 79.412 287.968 79.43 288.088 79.466C288.16 79.322 288.196 79.19 288.196 79.07C288.196 78.722 288.04 78.428 287.728 78.188C287.428 77.948 287.05 77.828 286.594 77.828C285.658 77.828 285.034 78.248 284.722 79.088C284.53 79.604 284.434 80.384 284.434 81.428V82.616C284.434 83.42 284.44 83.87 284.452 83.966C284.512 84.65 284.698 84.992 285.01 84.992C285.166 84.992 285.328 84.968 285.496 84.92C285.628 84.884 285.742 84.866 285.838 84.866C286.222 84.866 286.414 85.058 286.414 85.442C286.414 85.862 286.168 86.072 285.676 86.072H285.604C285.424 86.072 285.148 86.048 284.776 86C284.416 85.964 284.146 85.946 283.966 85.946C283.486 85.946 283.108 85.958 282.832 85.982L281.824 86.072C281.332 86.072 281.086 85.862 281.086 85.442C281.086 85.07 281.314 84.884 281.77 84.884C281.89 84.884 281.98 84.89 282.04 84.902L282.31 84.956C282.43 84.98 282.514 84.992 282.562 84.992C282.862 84.992 283.024 84.716 283.048 84.164L283.084 83.246L283.03 79.16C282.994 78.452 282.814 78.098 282.49 78.098C282.394 78.098 282.262 78.116 282.094 78.152C281.926 78.188 281.794 78.206 281.698 78.206C281.302 78.206 281.104 78.014 281.104 77.63C281.104 77.21 281.362 77 281.878 77C281.998 77 282.178 77.018 282.418 77.054C282.658 77.078 282.838 77.09 282.958 77.09C283.054 77.09 283.21 77.078 283.426 77.054C283.522 77.03 283.636 77.018 283.768 77.018C284.08 77.018 284.236 77.186 284.236 77.522ZM290.454 86.306C290.142 86.306 289.878 86.198 289.662 85.982C289.446 85.754 289.338 85.484 289.338 85.172C289.338 84.86 289.446 84.596 289.662 84.38C289.878 84.152 290.142 84.038 290.454 84.038C290.766 84.038 291.03 84.152 291.246 84.38C291.462 84.596 291.57 84.86 291.57 85.172C291.57 85.484 291.462 85.754 291.246 85.982C291.03 86.198 290.766 86.306 290.454 86.306ZM298.868 80.06C298.868 79.58 299.168 79.304 299.768 79.232C299.708 78.812 299.504 78.482 299.156 78.242C298.82 78.002 298.382 77.882 297.842 77.882C297.014 77.882 296.348 78.212 295.844 78.872C295.34 79.532 295.088 80.408 295.088 81.5C295.088 82.628 295.322 83.516 295.79 84.164C296.27 84.8 296.93 85.118 297.77 85.118C298.298 85.118 298.754 84.968 299.138 84.668C299.534 84.368 299.804 83.954 299.948 83.426C300.068 83.006 300.14 82.766 300.164 82.706C300.296 82.466 300.488 82.346 300.74 82.346C300.944 82.346 301.112 82.412 301.244 82.544C301.376 82.676 301.442 82.844 301.442 83.048C301.442 83.348 301.346 83.708 301.154 84.128C300.962 84.548 300.734 84.896 300.47 85.172C299.762 85.928 298.844 86.306 297.716 86.306C296.492 86.306 295.502 85.874 294.746 85.01C294.002 84.146 293.63 83.012 293.63 81.608C293.63 80.12 294.014 78.932 294.782 78.044C295.562 77.144 296.594 76.694 297.878 76.694C298.838 76.694 299.636 76.958 300.272 77.486C300.908 78.002 301.226 78.662 301.226 79.466C301.226 79.91 301.1 80.276 300.848 80.564C300.608 80.852 300.296 80.996 299.912 80.996C299.612 80.996 299.36 80.906 299.156 80.726C298.964 80.546 298.868 80.324 298.868 80.06ZM306.946 86.306C305.686 86.306 304.678 85.874 303.922 85.01C303.166 84.134 302.788 82.964 302.788 81.5C302.788 80.036 303.166 78.872 303.922 78.008C304.69 77.132 305.716 76.694 307 76.694C308.308 76.694 309.34 77.12 310.096 77.972C310.852 78.824 311.23 79.982 311.23 81.446C311.23 82.91 310.84 84.086 310.06 84.974C309.28 85.862 308.242 86.306 306.946 86.306ZM307.036 77.882C306.196 77.882 305.536 78.176 305.056 78.764C304.576 79.352 304.312 80.186 304.264 81.266C304.264 81.266 304.264 81.344 304.264 81.5C304.264 82.628 304.498 83.516 304.966 84.164C305.446 84.8 306.112 85.118 306.964 85.118C307.84 85.118 308.524 84.8 309.016 84.164C309.52 83.516 309.772 82.622 309.772 81.482C309.772 79.082 308.86 77.882 307.036 77.882ZM315.332 77.54V78.062C315.764 77.546 316.172 77.192 316.556 77C316.94 76.796 317.42 76.694 317.996 76.694C319.172 76.694 320.036 77.15 320.588 78.062C320.996 77.558 321.41 77.204 321.83 77C322.25 76.796 322.79 76.694 323.45 76.694C324.134 76.694 324.746 76.838 325.286 77.126C325.886 77.45 326.3 77.906 326.528 78.494C326.684 78.89 326.762 79.514 326.762 80.366V82.112L326.744 83.462C326.744 83.954 326.75 84.254 326.762 84.362C326.822 84.794 326.978 85.01 327.23 85.01C327.314 85.01 327.44 84.992 327.608 84.956C327.776 84.92 327.902 84.902 327.986 84.902C328.406 84.902 328.616 85.082 328.616 85.442C328.616 85.862 328.376 86.072 327.896 86.072C327.716 86.072 327.44 86.048 327.068 86C326.708 85.964 326.432 85.946 326.24 85.946C326.036 85.946 325.736 85.964 325.34 86C324.956 86.048 324.662 86.072 324.458 86.072C323.954 86.072 323.702 85.862 323.702 85.442C323.702 85.082 323.894 84.902 324.278 84.902C324.326 84.902 324.446 84.914 324.638 84.938C324.71 84.962 324.806 84.974 324.926 84.974C325.13 84.974 325.256 84.872 325.304 84.668C325.364 84.464 325.4 83.954 325.412 83.138L325.43 82.04V80.852C325.43 80.024 325.364 79.424 325.232 79.052C325.112 78.668 324.878 78.368 324.53 78.152C324.182 77.936 323.786 77.828 323.342 77.828C322.49 77.828 321.896 78.122 321.56 78.71C321.296 79.178 321.164 79.994 321.164 81.158V82.436C321.164 83.564 321.188 84.272 321.236 84.56C321.296 84.836 321.44 84.974 321.668 84.974C321.74 84.974 321.842 84.962 321.974 84.938C322.118 84.902 322.226 84.884 322.298 84.884C322.466 84.884 322.604 84.944 322.712 85.064C322.832 85.172 322.892 85.31 322.892 85.478C322.892 85.874 322.61 86.072 322.046 86.072C321.866 86.072 321.596 86.048 321.236 86C320.888 85.952 320.624 85.928 320.444 85.928C320.192 85.928 319.916 85.952 319.616 86C319.316 86.048 319.052 86.072 318.824 86.072C318.332 86.072 318.086 85.868 318.086 85.46C318.086 85.088 318.266 84.902 318.626 84.902C318.758 84.902 318.86 84.914 318.932 84.938C319.1 84.974 319.226 84.992 319.31 84.992C319.598 84.992 319.748 84.686 319.76 84.074L319.778 83.228C319.79 82.964 319.796 82.706 319.796 82.454C319.808 82.238 319.814 82.124 319.814 82.112V80.618C319.814 79.574 319.67 78.848 319.382 78.44C319.106 78.032 318.608 77.828 317.888 77.828C317.096 77.828 316.49 78.116 316.07 78.692C315.722 79.16 315.548 79.976 315.548 81.14V83.534C315.548 84.014 315.554 84.296 315.566 84.38C315.614 84.788 315.746 84.992 315.962 84.992C316.022 84.992 316.148 84.968 316.34 84.92C316.364 84.92 316.4 84.914 316.448 84.902C316.496 84.902 316.538 84.902 316.574 84.902C317.042 84.902 317.276 85.1 317.276 85.496C317.276 85.88 317.006 86.072 316.466 86.072C316.262 86.072 316.01 86.054 315.71 86.018C315.302 85.97 314.954 85.946 314.666 85.946C314.522 85.946 314.258 85.964 313.874 86C313.358 86.048 313.046 86.072 312.938 86.072C312.458 86.072 312.218 85.868 312.218 85.46C312.218 85.088 312.446 84.902 312.902 84.902C312.926 84.902 312.962 84.902 313.01 84.902C313.058 84.914 313.094 84.92 313.118 84.92L313.568 85.01C313.58 85.022 313.604 85.028 313.64 85.028C313.964 85.028 314.138 84.734 314.162 84.146L314.198 83.12V80.366C314.198 79.346 314.168 78.71 314.108 78.458C314.06 78.206 313.916 78.08 313.676 78.08C313.628 78.08 313.46 78.11 313.172 78.17C313.052 78.194 312.956 78.206 312.884 78.206C312.44 78.206 312.218 78.014 312.218 77.63C312.218 77.222 312.464 77.018 312.956 77.018C313.088 77.018 313.268 77.03 313.496 77.054C313.724 77.078 313.922 77.09 314.09 77.09C314.15 77.09 314.216 77.084 314.288 77.072C314.36 77.072 314.402 77.072 314.414 77.072L314.846 77.018H314.9C315.188 77.018 315.332 77.192 315.332 77.54Z" fill="black"/>
<path d="M23.1436 86.1318C26.1406 86.1318 27.5996 84.3037 27.5996 81.2451V73.5811H26.3955V81.166C26.3955 83.6094 25.4287 84.9629 23.1436 84.9629C20.876 84.9629 19.918 83.627 19.918 81.21V73.5811H18.7139V81.3418C18.7139 84.3301 20.1553 86.1318 23.1436 86.1318ZM33.4707 86.1318C35.1846 86.1318 36.5908 85.2441 36.5908 83.4863C36.5908 80.1201 31.4668 81.5264 31.4668 79.3467C31.4668 78.5645 32.1875 78.0195 33.3213 78.0195C34.3936 78.0195 35.123 78.6084 35.5449 79.3994L36.4414 78.916C35.8262 77.7559 34.7451 77.0791 33.3564 77.0791C31.6777 77.0791 30.3506 77.9316 30.3506 79.4961C30.3506 82.6689 35.4482 81.1572 35.4482 83.5391C35.4482 84.4619 34.7451 85.1562 33.418 85.1562C32.0557 85.1562 31.1855 84.3477 30.8516 83.4072L29.9111 83.8203C30.3594 85.1562 31.7393 86.1318 33.4707 86.1318ZM42.3301 86.1318C43.7451 86.1318 44.7383 85.7012 45.7227 84.6729L44.9141 83.9609C44.123 84.7871 43.3936 85.0771 42.3389 85.0771C40.5723 85.0771 39.5527 83.8818 39.4648 81.9219H45.9336C45.9688 81.79 45.9951 81.4385 45.9951 81.1396C45.9951 79.3994 45.0547 77.0791 42.1895 77.0791C39.6318 77.0791 38.2344 79.1709 38.2344 81.6494C38.2344 84.1719 39.6846 86.1318 42.3301 86.1318ZM39.4648 81.0605C39.6143 79.3027 40.5811 78.0723 42.1807 78.0723C43.9209 78.0723 44.7119 79.3203 44.8174 80.5068C44.8438 80.6826 44.8438 80.876 44.835 81.0605H39.4648Z" fill="#071435"/>
<path d="M88.3757 38.182C90.4197 38.182 91.9457 37.188 92.6597 35.34L91.2457 34.808C90.7837 36.096 89.7897 36.754 88.3757 36.754C86.4017 36.754 85.2397 35.438 85.2397 33.1C85.2397 30.776 86.4017 29.474 88.4037 29.474C89.8037 29.474 90.7837 30.104 91.2457 31.378L92.6317 30.846C91.9177 29.012 90.4337 28.046 88.4037 28.046C85.5477 28.046 83.7417 29.978 83.7417 33.114C83.7417 36.236 85.5337 38.182 88.3757 38.182ZM101.561 38L98.9148 33.674C100.133 33.31 100.791 32.4 100.791 31.014C100.791 29.264 99.7548 28.242 97.5008 28.242H94.4488V38H95.9328V33.856H96.8148H97.4308L99.8108 38H101.561ZM95.9328 32.484V29.628H97.3468C98.6208 29.628 99.2788 30.006 99.2788 31.042C99.2788 32.078 98.6208 32.484 97.3468 32.484H95.9328ZM103.212 38H109.666V36.614H104.71V33.688H109.26V32.302H104.71V29.628H109.666V28.242H103.212V38ZM117.845 38H119.483L115.675 28.242H114.513L110.705 38H112.329L113.141 35.788H117.047L117.845 38ZM113.631 34.43L115.101 30.426L116.557 34.43H113.631ZM122.155 38H123.667V29.628H126.831V28.242H119.005V29.628H122.155V38ZM128.423 38H134.877V36.614H129.921V33.688H134.471V32.302H129.921V29.628H134.877V28.242H128.423V38ZM148.235 28.242L145.491 35.438L142.761 28.242H140.605V38H142.103V30.314L144.763 37.16H146.219L148.893 30.314V38H150.391V28.242H148.235ZM159.093 38H160.731L156.923 28.242H155.761L151.953 38H153.577L154.389 35.788H158.295L159.093 38ZM154.879 34.43L156.349 30.426L157.805 34.43H154.879ZM164.922 38.168C166.924 38.168 168.226 37.02 168.226 35.256C168.226 33.884 167.568 33.128 165.454 32.316C163.956 31.742 163.424 31.336 163.424 30.608C163.424 29.936 164.012 29.39 164.824 29.39C165.538 29.39 166.168 29.796 166.532 30.538L167.778 29.768C167.176 28.634 166.154 28.06 164.866 28.06C163.102 28.06 161.926 29.096 161.926 30.65C161.926 32.022 162.64 32.75 164.656 33.52C166.196 34.122 166.728 34.584 166.728 35.382C166.728 36.264 166.07 36.838 164.95 36.838C163.746 36.838 162.92 36.124 162.78 34.934L161.282 35.298C161.562 37.034 163.018 38.168 164.922 38.168ZM178.397 38L174.687 31.882L178.271 28.242H176.297L171.607 33.156V28.242H170.109V38H171.607V35.032L173.665 32.932L176.661 38H178.397ZM182.532 38.168C184.534 38.168 185.836 37.02 185.836 35.256C185.836 33.884 185.178 33.128 183.064 32.316C181.566 31.742 181.034 31.336 181.034 30.608C181.034 29.936 181.622 29.39 182.434 29.39C183.148 29.39 183.778 29.796 184.142 30.538L185.388 29.768C184.786 28.634 183.764 28.06 182.476 28.06C180.712 28.06 179.536 29.096 179.536 30.65C179.536 32.022 180.25 32.75 182.266 33.52C183.806 34.122 184.338 34.584 184.338 35.382C184.338 36.264 183.68 36.838 182.56 36.838C181.356 36.838 180.53 36.124 180.39 34.934L178.892 35.298C179.172 37.034 180.628 38.168 182.532 38.168ZM195.179 38.182C197.909 38.182 199.771 36.166 199.771 33.128C199.771 30.076 197.923 28.06 195.179 28.06C192.435 28.06 190.573 30.076 190.573 33.128C190.573 36.166 192.435 38.182 195.179 38.182ZM195.179 36.754C193.289 36.754 192.071 35.368 192.071 33.128C192.071 30.874 193.289 29.488 195.179 29.488C197.069 29.488 198.273 30.888 198.273 33.128C198.273 35.354 197.069 36.754 195.179 36.754ZM207.694 28.242V35.382L203.354 28.242H201.8V38H203.298V30.818L207.624 38H209.192V28.242H207.694ZM211.582 34.346H215.516V33.268H211.582V34.346ZM219.02 38H220.532V29.628H223.696V28.242H215.87V29.628H219.02V38ZM225.289 38H226.787V33.688H231.323V38H232.821V28.242H231.323V32.302H226.787V28.242H225.289V38ZM235.543 38H241.997V36.614H237.041V33.688H241.591V32.302H237.041V29.628H241.997V28.242H235.543V38ZM243.861 34.346H247.795V33.268H243.861V34.346ZM250.185 38H251.683V33.688H256.359V32.302H251.683V29.628H257.003V28.242H250.185V38ZM258.771 38H264.525V36.614H260.269V28.242H258.771V38ZM267.62 38H269.132V34.22L272.828 28.242H271.05L268.348 32.778L265.674 28.242H263.91L267.62 34.22V38Z" fill="#3E898B"/>
</svg>
