<svg width="882" height="100" viewBox="0 0 882 100" fill="none" xmlns="http://www.w3.org/2000/svg">
<rect width="882" height="100" rx="10" fill="white" fill-opacity="0.8"/>
<rect x="0.5" y="0.5" width="881" height="99" rx="9.5" stroke="black" stroke-opacity="0.1" stroke-linecap="round"/>
<path d="M317.589 32H319.101V23.628H322.265V22.242H314.439V23.628H317.589V32ZM323.858 32H325.356V27.688H329.892V32H331.39V22.242H329.892V26.302H325.356V22.242H323.858V32ZM334.112 32H340.566V30.614H335.61V27.688H340.16V26.302H335.61V23.628H340.566V22.242H334.112V32ZM346.294 32H349.948C351.936 32 353.098 30.964 353.098 29.186C353.098 27.94 352.524 27.114 351.446 26.764C352.174 26.386 352.594 25.644 352.594 24.692C352.594 23.152 351.46 22.242 349.556 22.242H346.294V32ZM347.792 26.246V23.628H349.556C350.536 23.628 351.096 24.104 351.096 24.958C351.096 25.784 350.564 26.246 349.626 26.246H347.792ZM347.792 30.614V27.604H349.92C350.998 27.604 351.6 28.136 351.6 29.06C351.6 30.04 350.942 30.614 349.822 30.614H347.792ZM360.885 32H362.523L358.715 22.242H357.553L353.745 32H355.369L356.181 29.788H360.087L360.885 32ZM356.671 28.43L358.141 24.426L359.597 28.43H356.671ZM366.714 32.168C368.716 32.168 370.018 31.02 370.018 29.256C370.018 27.884 369.36 27.128 367.246 26.316C365.748 25.742 365.216 25.336 365.216 24.608C365.216 23.936 365.804 23.39 366.616 23.39C367.33 23.39 367.96 23.796 368.324 24.538L369.57 23.768C368.968 22.634 367.946 22.06 366.658 22.06C364.894 22.06 363.718 23.096 363.718 24.65C363.718 26.022 364.432 26.75 366.448 27.52C367.988 28.122 368.52 28.584 368.52 29.382C368.52 30.264 367.862 30.838 366.742 30.838C365.538 30.838 364.712 30.124 364.572 28.934L363.074 29.298C363.354 31.034 364.81 32.168 366.714 32.168ZM371.901 32H373.399V22.242H371.901V32ZM380.06 32.182C382.104 32.182 383.63 31.188 384.344 29.34L382.93 28.808C382.468 30.096 381.474 30.754 380.06 30.754C378.086 30.754 376.924 29.438 376.924 27.1C376.924 24.776 378.086 23.474 380.088 23.474C381.488 23.474 382.468 24.104 382.93 25.378L384.316 24.846C383.602 23.012 382.118 22.046 380.088 22.046C377.232 22.046 375.426 23.978 375.426 27.114C375.426 30.236 377.218 32.182 380.06 32.182ZM388.835 32.168C390.837 32.168 392.139 31.02 392.139 29.256C392.139 27.884 391.481 27.128 389.367 26.316C387.869 25.742 387.337 25.336 387.337 24.608C387.337 23.936 387.925 23.39 388.737 23.39C389.451 23.39 390.081 23.796 390.445 24.538L391.691 23.768C391.089 22.634 390.067 22.06 388.779 22.06C387.015 22.06 385.839 23.096 385.839 24.65C385.839 26.022 386.553 26.75 388.569 27.52C390.109 28.122 390.641 28.584 390.641 29.382C390.641 30.264 389.983 30.838 388.863 30.838C387.659 30.838 386.833 30.124 386.693 28.934L385.195 29.298C385.475 31.034 386.931 32.168 388.835 32.168ZM394.121 27.142H395.759V25.406H394.121V27.142ZM394.121 32H395.759V30.278H394.121V32ZM402.184 32H403.682V27.688H408.218V32H409.716V22.242H408.218V26.302H403.682V22.242H402.184V32ZM416.358 32.182C419.088 32.182 420.95 30.166 420.95 27.128C420.95 24.076 419.102 22.06 416.358 22.06C413.614 22.06 411.752 24.076 411.752 27.128C411.752 30.166 413.614 32.182 416.358 32.182ZM416.358 30.754C414.468 30.754 413.25 29.368 413.25 27.128C413.25 24.874 414.468 23.488 416.358 23.488C418.248 23.488 419.452 24.888 419.452 27.128C419.452 29.354 418.248 30.754 416.358 30.754ZM424.499 32H425.969L428.209 25.168L430.449 32H431.919L434.817 22.242H433.249L431.107 29.718L428.853 22.788H427.565L425.325 29.718L423.169 22.242H421.601L424.499 32ZM447.644 22.242L444.9 29.438L442.17 22.242H440.014V32H441.512V24.314L444.172 31.16H445.628L448.302 24.314V32H449.8V22.242H447.644ZM458.502 32H460.14L456.332 22.242H455.17L451.362 32H452.986L453.798 29.788H457.704L458.502 32ZM454.288 28.43L455.758 24.426L457.214 28.43H454.288ZM461.712 32H463.21V22.242H461.712V32ZM465.909 32H471.663V30.614H467.407V22.242H465.909V32ZM484.449 22.242L481.705 29.438L478.975 22.242H476.819V32H478.317V24.314L480.977 31.16H482.433L485.107 24.314V32H486.605V22.242H484.449ZM495.307 32H496.945L493.137 22.242H491.975L488.167 32H489.791L490.603 29.788H494.509L495.307 32ZM491.093 28.43L492.563 24.426L494.019 28.43H491.093ZM501.136 32.168C503.138 32.168 504.44 31.02 504.44 29.256C504.44 27.884 503.782 27.128 501.668 26.316C500.17 25.742 499.638 25.336 499.638 24.608C499.638 23.936 500.226 23.39 501.038 23.39C501.752 23.39 502.382 23.796 502.746 24.538L503.992 23.768C503.39 22.634 502.368 22.06 501.08 22.06C499.316 22.06 498.14 23.096 498.14 24.65C498.14 26.022 498.854 26.75 500.87 27.52C502.41 28.122 502.942 28.584 502.942 29.382C502.942 30.264 502.284 30.838 501.164 30.838C499.96 30.838 499.134 30.124 498.994 28.934L497.496 29.298C497.776 31.034 499.232 32.168 501.136 32.168ZM514.611 32L510.901 25.882L514.485 22.242H512.511L507.821 27.156V22.242H506.323V32H507.821V29.032L509.879 26.932L512.875 32H514.611ZM518.746 32.168C520.748 32.168 522.05 31.02 522.05 29.256C522.05 27.884 521.392 27.128 519.278 26.316C517.78 25.742 517.248 25.336 517.248 24.608C517.248 23.936 517.836 23.39 518.648 23.39C519.362 23.39 519.992 23.796 520.356 24.538L521.602 23.768C521 22.634 519.978 22.06 518.69 22.06C516.926 22.06 515.75 23.096 515.75 24.65C515.75 26.022 516.464 26.75 518.48 27.52C520.02 28.122 520.552 28.584 520.552 29.382C520.552 30.264 519.894 30.838 518.774 30.838C517.57 30.838 516.744 30.124 516.604 28.934L515.106 29.298C515.386 31.034 516.842 32.168 518.746 32.168ZM529.307 32H530.777L533.017 25.168L535.257 32H536.727L539.625 22.242H538.057L535.915 29.718L533.661 22.788H532.373L530.133 29.718L527.977 22.242H526.409L529.307 32ZM544.887 32.182C547.617 32.182 549.479 30.166 549.479 27.128C549.479 24.076 547.631 22.06 544.887 22.06C542.143 22.06 540.281 24.076 540.281 27.128C540.281 30.166 542.143 32.182 544.887 32.182ZM544.887 30.754C542.997 30.754 541.779 29.368 541.779 27.128C541.779 24.874 542.997 23.488 544.887 23.488C546.777 23.488 547.981 24.888 547.981 27.128C547.981 29.354 546.777 30.754 544.887 30.754ZM558.62 32L555.974 27.674C557.192 27.31 557.85 26.4 557.85 25.014C557.85 23.264 556.814 22.242 554.56 22.242H551.508V32H552.992V27.856H553.874H554.49L556.87 32H558.62ZM552.992 26.484V23.628H554.406C555.68 23.628 556.338 24.006 556.338 25.042C556.338 26.078 555.68 26.484 554.406 26.484H552.992ZM568.56 32L564.85 25.882L568.434 22.242H566.46L561.77 27.156V22.242H560.272V32H561.77V29.032L563.828 26.932L566.824 32H568.56Z" fill="#3E898B"/>
<rect x="158" y="49" width="205" height="36" rx="4" fill="#C4C4C4" fill-opacity="0.1"/>
<rect x="158.5" y="49.5" width="204" height="35" rx="3.5" stroke="#071435" stroke-opacity="0.1" stroke-linecap="round"/>
<path d="M165.712 74.476C165.712 74.728 165.604 74.962 165.388 75.178C165.712 75.418 166.042 75.538 166.378 75.538C167.05 75.538 167.53 75.34 167.818 74.944C168.118 74.548 168.268 73.912 168.268 73.036L168.286 67.384C168.286 66.328 168.256 65.68 168.196 65.44C168.136 65.188 167.974 65.062 167.71 65.062C167.578 65.062 167.41 65.086 167.206 65.134C167.098 65.17 166.99 65.188 166.882 65.188C166.498 65.188 166.306 64.996 166.306 64.612C166.306 64.216 166.558 64.018 167.062 64.018C167.242 64.018 167.398 64.024 167.53 64.036C167.914 64.072 168.184 64.09 168.34 64.09C168.436 64.09 168.586 64.078 168.79 64.054C168.994 64.018 169.144 64 169.24 64C169.588 64 169.762 64.192 169.762 64.576C169.762 64.636 169.756 64.756 169.744 64.936C169.732 65.152 169.726 65.326 169.726 65.458C169.714 65.65 169.696 66.082 169.672 66.754C169.648 67.51 169.636 68.092 169.636 68.5V72.568C169.636 73.288 169.606 73.822 169.546 74.17C169.438 74.734 169.222 75.214 168.898 75.61C168.322 76.306 167.518 76.654 166.486 76.654C165.766 76.654 165.166 76.474 164.686 76.114C164.206 75.754 163.966 75.304 163.966 74.764C163.966 74.464 164.056 74.212 164.236 74.008C164.404 73.816 164.62 73.72 164.884 73.72C165.112 73.72 165.31 73.792 165.478 73.936C165.634 74.092 165.712 74.272 165.712 74.476ZM168.736 63.064C168.46 63.064 168.22 62.968 168.016 62.776C167.824 62.572 167.728 62.332 167.728 62.056C167.728 61.78 167.824 61.546 168.016 61.354C168.22 61.162 168.46 61.066 168.736 61.066C169.012 61.066 169.252 61.168 169.456 61.372C169.66 61.564 169.762 61.792 169.762 62.056C169.762 62.332 169.66 62.572 169.456 62.776C169.252 62.968 169.012 63.064 168.736 63.064ZM179.68 73.234C178.696 73.234 178.09 72.808 177.862 71.956C177.25 72.856 176.29 73.306 174.982 73.306C174.01 73.306 173.23 73.066 172.642 72.586C172.066 72.106 171.778 71.464 171.778 70.66C171.778 69.664 172.204 68.932 173.056 68.464C173.38 68.284 173.656 68.17 173.884 68.122C174.124 68.062 174.598 67.99 175.306 67.906C176.314 67.798 176.968 67.648 177.268 67.456C177.58 67.264 177.736 66.91 177.736 66.394C177.736 65.902 177.562 65.518 177.214 65.242C176.878 64.954 176.404 64.81 175.792 64.81C175.252 64.81 174.748 64.96 174.28 65.26C174.1 65.38 174.01 65.506 174.01 65.638C174.01 65.686 174.064 65.746 174.172 65.818C174.34 65.938 174.424 66.142 174.424 66.43C174.424 66.67 174.334 66.868 174.154 67.024C173.986 67.18 173.77 67.258 173.506 67.258C173.194 67.258 172.93 67.15 172.714 66.934C172.51 66.718 172.408 66.454 172.408 66.142C172.408 65.47 172.738 64.894 173.398 64.414C174.07 63.934 174.88 63.694 175.828 63.694C178.012 63.694 179.104 64.744 179.104 66.844V70.48C179.104 71.056 179.116 71.398 179.14 71.506C179.212 71.926 179.416 72.136 179.752 72.136C180.172 72.136 180.382 71.752 180.382 70.984V70.102C180.382 69.718 180.568 69.526 180.94 69.526C181.336 69.526 181.534 69.814 181.534 70.39V70.48L181.516 71.506C181.492 72.658 180.88 73.234 179.68 73.234ZM177.682 69.652L177.7 68.374C177.436 68.614 177.154 68.782 176.854 68.878C176.566 68.974 176.044 69.058 175.288 69.13C173.92 69.262 173.236 69.766 173.236 70.642C173.236 71.098 173.398 71.458 173.722 71.722C174.058 71.986 174.508 72.118 175.072 72.118C175.876 72.118 176.506 71.902 176.962 71.47C177.43 71.026 177.67 70.42 177.682 69.652ZM184.854 64.558V65.062C185.574 64.15 186.534 63.694 187.734 63.694C188.382 63.694 188.994 63.862 189.57 64.198C190.146 64.522 190.536 64.93 190.74 65.422C190.908 65.83 190.992 66.364 190.992 67.024V70.444C190.992 70.96 190.998 71.266 191.01 71.362C191.07 71.77 191.232 71.974 191.496 71.974C191.604 71.974 191.742 71.962 191.91 71.938C192.09 71.902 192.216 71.884 192.288 71.884C192.444 71.884 192.576 71.938 192.684 72.046C192.804 72.154 192.864 72.286 192.864 72.442C192.864 72.622 192.792 72.772 192.648 72.892C192.504 73.012 192.33 73.072 192.126 73.072C191.958 73.072 191.682 73.048 191.298 73C190.914 72.952 190.554 72.928 190.218 72.928C189.906 72.928 189.648 72.94 189.444 72.964C188.844 73.036 188.526 73.072 188.49 73.072C188.01 73.072 187.77 72.862 187.77 72.442C187.77 72.07 187.974 71.884 188.382 71.884C188.478 71.884 188.586 71.896 188.706 71.92C188.934 71.968 189.078 71.992 189.138 71.992C189.426 71.992 189.582 71.662 189.606 71.002L189.642 70.084L189.66 68.986V67.618C189.66 66.982 189.63 66.544 189.57 66.304C189.462 65.848 189.228 65.494 188.868 65.242C188.472 64.966 188.022 64.828 187.518 64.828C186.558 64.828 185.868 65.17 185.448 65.854C185.16 66.322 185.016 67.12 185.016 68.248V70.642C185.016 71.17 185.052 71.53 185.124 71.722C185.196 71.914 185.328 72.01 185.52 72.01C185.616 72.01 185.748 71.986 185.916 71.938C186.084 71.89 186.222 71.866 186.33 71.866C186.702 71.866 186.888 72.07 186.888 72.478C186.888 72.874 186.648 73.072 186.168 73.072C186.072 73.072 185.76 73.036 185.232 72.964C184.968 72.928 184.674 72.91 184.35 72.91C184.098 72.91 183.762 72.934 183.342 72.982C182.814 73.042 182.514 73.072 182.442 73.072C181.938 73.072 181.686 72.868 181.686 72.46C181.686 72.076 181.878 71.884 182.262 71.884C182.322 71.884 182.43 71.902 182.586 71.938C182.754 71.974 182.916 71.992 183.072 71.992C183.432 71.992 183.618 71.644 183.63 70.948L183.666 68.95V66.772L183.63 66.142C183.606 65.734 183.552 65.458 183.468 65.314C183.396 65.158 183.264 65.08 183.072 65.08C182.988 65.08 182.862 65.098 182.694 65.134C182.538 65.158 182.418 65.17 182.334 65.17C181.902 65.17 181.686 64.978 181.686 64.594C181.686 64.198 181.956 64 182.496 64C182.568 64 182.628 64.006 182.676 64.018L183.342 64.09C183.534 64.09 183.702 64.078 183.846 64.054C184.158 64.03 184.32 64.018 184.332 64.018C184.68 64.018 184.854 64.198 184.854 64.558ZM201.733 67.708C201.733 68.164 201.703 68.446 201.643 68.554C201.583 68.65 201.409 68.698 201.121 68.698H195.397C195.241 68.698 195.139 68.722 195.091 68.77C195.043 68.806 195.019 68.872 195.019 68.968C195.019 69.868 195.289 70.618 195.829 71.218C196.369 71.818 197.041 72.118 197.845 72.118C198.373 72.118 198.853 71.974 199.285 71.686C199.729 71.398 200.017 71.032 200.149 70.588L200.311 70.066C200.395 69.778 200.593 69.634 200.905 69.634C201.349 69.634 201.571 69.862 201.571 70.318C201.571 71.098 201.175 71.794 200.383 72.406C199.591 73.006 198.691 73.306 197.683 73.306C196.423 73.306 195.421 72.886 194.677 72.046C193.933 71.194 193.561 70.054 193.561 68.626C193.561 67.162 193.957 65.974 194.749 65.062C195.541 64.15 196.573 63.694 197.845 63.694C198.973 63.694 199.903 64.072 200.635 64.828C201.367 65.584 201.733 66.544 201.733 67.708ZM195.199 67.24C195.199 67.408 195.331 67.492 195.595 67.492H199.897C200.149 67.492 200.275 67.408 200.275 67.24C200.275 66.604 200.035 66.052 199.555 65.584C199.075 65.116 198.511 64.882 197.863 64.882C197.191 64.882 196.579 65.128 196.027 65.62C195.475 66.1 195.199 66.64 195.199 67.24ZM209.515 69.382C209.515 69.286 209.521 69.202 209.533 69.13C209.077 69.838 208.375 70.192 207.427 70.192C206.851 70.192 206.383 70 206.023 69.616C205.675 69.22 205.501 68.71 205.501 68.086C205.501 66.994 205.897 66.034 206.689 65.206C207.481 64.366 208.399 63.946 209.443 63.946C209.683 63.946 209.947 63.982 210.235 64.054L210.595 64.144C210.643 64.168 210.703 64.18 210.775 64.18C210.835 64.18 210.937 64.15 211.081 64.09C211.273 64.006 211.411 63.964 211.495 63.964C211.675 63.964 211.765 64.042 211.765 64.198C211.765 64.234 211.753 64.3 211.729 64.396L211.639 64.738L210.613 68.572C210.577 68.716 210.559 68.83 210.559 68.914C210.559 69.13 210.673 69.238 210.901 69.238C211.345 69.238 211.759 68.95 212.143 68.374C212.683 67.57 212.953 66.64 212.953 65.584C212.953 64.588 212.623 63.76 211.963 63.1C211.315 62.44 210.493 62.11 209.497 62.11C208.093 62.11 206.869 62.674 205.825 63.802C204.793 64.918 204.277 66.232 204.277 67.744C204.277 68.92 204.655 69.904 205.411 70.696C206.167 71.476 207.115 71.866 208.255 71.866C208.927 71.866 209.479 71.788 209.911 71.632C210.355 71.464 210.907 71.14 211.567 70.66C211.807 70.48 212.005 70.39 212.161 70.39C212.389 70.39 212.503 70.498 212.503 70.714C212.503 70.942 212.347 71.176 212.035 71.416C210.847 72.352 209.539 72.82 208.111 72.82C206.659 72.82 205.447 72.34 204.475 71.38C203.515 70.408 203.035 69.196 203.035 67.744C203.035 65.992 203.683 64.468 204.979 63.172C206.287 61.864 207.829 61.21 209.605 61.21C210.949 61.21 212.041 61.606 212.881 62.398C213.733 63.19 214.159 64.222 214.159 65.494C214.159 66.922 213.637 68.17 212.593 69.238C211.957 69.886 211.291 70.21 210.595 70.21C210.283 70.21 210.025 70.132 209.821 69.976C209.617 69.82 209.515 69.622 209.515 69.382ZM209.893 66.934L210.379 65.134C210.019 64.954 209.671 64.864 209.335 64.864C208.639 64.864 208.027 65.17 207.499 65.782C206.983 66.394 206.725 67.108 206.725 67.924C206.725 68.752 207.085 69.166 207.805 69.166C208.801 69.166 209.497 68.422 209.893 66.934ZM218.234 64.54V65.062C218.666 64.546 219.074 64.192 219.458 64C219.842 63.796 220.322 63.694 220.898 63.694C222.074 63.694 222.938 64.15 223.49 65.062C223.898 64.558 224.312 64.204 224.732 64C225.152 63.796 225.692 63.694 226.352 63.694C227.036 63.694 227.648 63.838 228.188 64.126C228.788 64.45 229.202 64.906 229.43 65.494C229.586 65.89 229.664 66.514 229.664 67.366V69.112L229.646 70.462C229.646 70.954 229.652 71.254 229.664 71.362C229.724 71.794 229.88 72.01 230.132 72.01C230.216 72.01 230.342 71.992 230.51 71.956C230.678 71.92 230.804 71.902 230.888 71.902C231.308 71.902 231.518 72.082 231.518 72.442C231.518 72.862 231.278 73.072 230.798 73.072C230.618 73.072 230.342 73.048 229.97 73C229.61 72.964 229.334 72.946 229.142 72.946C228.938 72.946 228.638 72.964 228.242 73C227.858 73.048 227.564 73.072 227.36 73.072C226.856 73.072 226.604 72.862 226.604 72.442C226.604 72.082 226.796 71.902 227.18 71.902C227.228 71.902 227.348 71.914 227.54 71.938C227.612 71.962 227.708 71.974 227.828 71.974C228.032 71.974 228.158 71.872 228.206 71.668C228.266 71.464 228.302 70.954 228.314 70.138L228.332 69.04V67.852C228.332 67.024 228.266 66.424 228.134 66.052C228.014 65.668 227.78 65.368 227.432 65.152C227.084 64.936 226.688 64.828 226.244 64.828C225.392 64.828 224.798 65.122 224.462 65.71C224.198 66.178 224.066 66.994 224.066 68.158V69.436C224.066 70.564 224.09 71.272 224.138 71.56C224.198 71.836 224.342 71.974 224.57 71.974C224.642 71.974 224.744 71.962 224.876 71.938C225.02 71.902 225.128 71.884 225.2 71.884C225.368 71.884 225.506 71.944 225.614 72.064C225.734 72.172 225.794 72.31 225.794 72.478C225.794 72.874 225.512 73.072 224.948 73.072C224.768 73.072 224.498 73.048 224.138 73C223.79 72.952 223.526 72.928 223.346 72.928C223.094 72.928 222.818 72.952 222.518 73C222.218 73.048 221.954 73.072 221.726 73.072C221.234 73.072 220.988 72.868 220.988 72.46C220.988 72.088 221.168 71.902 221.528 71.902C221.66 71.902 221.762 71.914 221.834 71.938C222.002 71.974 222.128 71.992 222.212 71.992C222.5 71.992 222.65 71.686 222.662 71.074L222.68 70.228C222.692 69.964 222.698 69.706 222.698 69.454C222.71 69.238 222.716 69.124 222.716 69.112V67.618C222.716 66.574 222.572 65.848 222.284 65.44C222.008 65.032 221.51 64.828 220.79 64.828C219.998 64.828 219.392 65.116 218.972 65.692C218.624 66.16 218.45 66.976 218.45 68.14V70.534C218.45 71.014 218.456 71.296 218.468 71.38C218.516 71.788 218.648 71.992 218.864 71.992C218.924 71.992 219.05 71.968 219.242 71.92C219.266 71.92 219.302 71.914 219.35 71.902C219.398 71.902 219.44 71.902 219.476 71.902C219.944 71.902 220.178 72.1 220.178 72.496C220.178 72.88 219.908 73.072 219.368 73.072C219.164 73.072 218.912 73.054 218.612 73.018C218.204 72.97 217.856 72.946 217.568 72.946C217.424 72.946 217.16 72.964 216.776 73C216.26 73.048 215.948 73.072 215.84 73.072C215.36 73.072 215.12 72.868 215.12 72.46C215.12 72.088 215.348 71.902 215.804 71.902C215.828 71.902 215.864 71.902 215.912 71.902C215.96 71.914 215.996 71.92 216.02 71.92L216.47 72.01C216.482 72.022 216.506 72.028 216.542 72.028C216.866 72.028 217.04 71.734 217.064 71.146L217.1 70.12V67.366C217.1 66.346 217.07 65.71 217.01 65.458C216.962 65.206 216.818 65.08 216.578 65.08C216.53 65.08 216.362 65.11 216.074 65.17C215.954 65.194 215.858 65.206 215.786 65.206C215.342 65.206 215.12 65.014 215.12 64.63C215.12 64.222 215.366 64.018 215.858 64.018C215.99 64.018 216.17 64.03 216.398 64.054C216.626 64.078 216.824 64.09 216.992 64.09C217.052 64.09 217.118 64.084 217.19 64.072C217.262 64.072 217.304 64.072 217.316 64.072L217.748 64.018H217.802C218.09 64.018 218.234 64.192 218.234 64.54ZM239.973 73.234C238.989 73.234 238.383 72.808 238.155 71.956C237.543 72.856 236.583 73.306 235.275 73.306C234.303 73.306 233.523 73.066 232.935 72.586C232.359 72.106 232.071 71.464 232.071 70.66C232.071 69.664 232.497 68.932 233.349 68.464C233.673 68.284 233.949 68.17 234.177 68.122C234.417 68.062 234.891 67.99 235.599 67.906C236.607 67.798 237.261 67.648 237.561 67.456C237.873 67.264 238.029 66.91 238.029 66.394C238.029 65.902 237.855 65.518 237.507 65.242C237.171 64.954 236.697 64.81 236.085 64.81C235.545 64.81 235.041 64.96 234.573 65.26C234.393 65.38 234.303 65.506 234.303 65.638C234.303 65.686 234.357 65.746 234.465 65.818C234.633 65.938 234.717 66.142 234.717 66.43C234.717 66.67 234.627 66.868 234.447 67.024C234.279 67.18 234.063 67.258 233.799 67.258C233.487 67.258 233.223 67.15 233.007 66.934C232.803 66.718 232.701 66.454 232.701 66.142C232.701 65.47 233.031 64.894 233.691 64.414C234.363 63.934 235.173 63.694 236.121 63.694C238.305 63.694 239.397 64.744 239.397 66.844V70.48C239.397 71.056 239.409 71.398 239.433 71.506C239.505 71.926 239.709 72.136 240.045 72.136C240.465 72.136 240.675 71.752 240.675 70.984V70.102C240.675 69.718 240.861 69.526 241.233 69.526C241.629 69.526 241.827 69.814 241.827 70.39V70.48L241.809 71.506C241.785 72.658 241.173 73.234 239.973 73.234ZM237.975 69.652L237.993 68.374C237.729 68.614 237.447 68.782 237.147 68.878C236.859 68.974 236.337 69.058 235.581 69.13C234.213 69.262 233.529 69.766 233.529 70.642C233.529 71.098 233.691 71.458 234.015 71.722C234.351 71.986 234.801 72.118 235.365 72.118C236.169 72.118 236.799 71.902 237.255 71.47C237.723 71.026 237.963 70.42 237.975 69.652ZM245.309 67.78V70.12C245.309 70.72 245.315 71.074 245.327 71.182C245.387 71.722 245.549 71.992 245.813 71.992C245.873 71.992 246.023 71.962 246.263 71.902C246.323 71.878 246.413 71.866 246.533 71.866C246.989 71.866 247.217 72.064 247.217 72.46C247.217 72.628 247.139 72.772 246.983 72.892C246.839 73.012 246.653 73.072 246.425 73.072C246.233 73.072 245.939 73.048 245.543 73C245.159 72.94 244.871 72.91 244.679 72.91C244.367 72.91 244.019 72.934 243.635 72.982C243.167 73.042 242.855 73.072 242.699 73.072C242.219 73.072 241.979 72.868 241.979 72.46C241.979 72.064 242.183 71.866 242.591 71.866C242.687 71.866 242.825 71.884 243.005 71.92C243.197 71.956 243.341 71.974 243.437 71.974C243.725 71.974 243.899 71.59 243.959 70.822C243.959 70.774 243.959 70.252 243.959 69.256V67.78C243.959 66.784 243.959 66.262 243.959 66.214C243.899 65.458 243.719 65.08 243.419 65.08C243.323 65.08 243.185 65.104 243.005 65.152C242.837 65.188 242.711 65.206 242.627 65.206C242.195 65.206 241.979 65.014 241.979 64.63C241.979 64.222 242.243 64.018 242.771 64.018C242.999 64.018 243.161 64.024 243.257 64.036C243.641 64.084 243.887 64.108 243.995 64.108C244.091 64.108 244.235 64.096 244.427 64.072C244.631 64.036 244.781 64.018 244.877 64.018C245.225 64.018 245.399 64.252 245.399 64.72C245.399 64.768 245.393 64.84 245.381 64.936C245.369 65.032 245.363 65.104 245.363 65.152C245.351 65.248 245.339 65.62 245.327 66.268C245.315 66.76 245.309 67.264 245.309 67.78ZM244.373 63.064C244.097 63.064 243.857 62.968 243.653 62.776C243.461 62.572 243.365 62.332 243.365 62.056C243.365 61.78 243.461 61.546 243.653 61.354C243.857 61.162 244.097 61.066 244.373 61.066C244.649 61.066 244.883 61.162 245.075 61.354C245.279 61.546 245.381 61.78 245.381 62.056C245.381 62.332 245.279 62.572 245.075 62.776C244.883 62.968 244.649 63.064 244.373 63.064ZM250.774 65.476L250.792 71.074C250.804 71.686 250.966 71.992 251.278 71.992C251.35 71.992 251.5 71.962 251.728 71.902C251.872 71.878 251.968 71.866 252.016 71.866C252.412 71.866 252.61 72.07 252.61 72.478C252.61 72.874 252.364 73.072 251.872 73.072C251.68 73.072 251.374 73.048 250.954 73C250.534 72.952 250.21 72.928 249.982 72.928C249.79 72.928 249.502 72.952 249.118 73C248.734 73.048 248.452 73.072 248.272 73.072H248.182C247.678 73.072 247.426 72.856 247.426 72.424C247.426 72.052 247.63 71.866 248.038 71.866C248.062 71.866 248.104 71.866 248.164 71.866C248.236 71.878 248.29 71.884 248.326 71.884C248.626 71.932 248.8 71.956 248.848 71.956C249.064 71.956 249.196 71.866 249.244 71.686C249.304 71.494 249.34 71.008 249.352 70.228L249.37 68.968L249.424 66.178L249.406 62.974C249.394 62.614 249.376 62.374 249.352 62.254C249.268 61.978 249.1 61.84 248.848 61.84C248.812 61.84 248.656 61.864 248.38 61.912C248.248 61.936 248.14 61.948 248.056 61.948C247.648 61.948 247.444 61.756 247.444 61.372C247.444 60.976 247.684 60.778 248.164 60.778C248.296 60.778 248.41 60.784 248.506 60.796L248.938 60.85C249.13 60.874 249.292 60.886 249.424 60.886C249.544 60.886 249.724 60.868 249.964 60.832C250.204 60.784 250.384 60.76 250.504 60.76C250.78 60.76 250.918 60.934 250.918 61.282C250.918 61.402 250.912 61.492 250.9 61.552C250.816 62.476 250.774 63.784 250.774 65.476ZM256.22 64.54V65.062C256.652 64.546 257.06 64.192 257.444 64C257.828 63.796 258.308 63.694 258.884 63.694C260.06 63.694 260.924 64.15 261.476 65.062C261.884 64.558 262.298 64.204 262.718 64C263.138 63.796 263.678 63.694 264.338 63.694C265.022 63.694 265.634 63.838 266.174 64.126C266.774 64.45 267.188 64.906 267.416 65.494C267.572 65.89 267.65 66.514 267.65 67.366V69.112L267.632 70.462C267.632 70.954 267.638 71.254 267.65 71.362C267.71 71.794 267.866 72.01 268.118 72.01C268.202 72.01 268.328 71.992 268.496 71.956C268.664 71.92 268.79 71.902 268.874 71.902C269.294 71.902 269.504 72.082 269.504 72.442C269.504 72.862 269.264 73.072 268.784 73.072C268.604 73.072 268.328 73.048 267.956 73C267.596 72.964 267.32 72.946 267.128 72.946C266.924 72.946 266.624 72.964 266.228 73C265.844 73.048 265.55 73.072 265.346 73.072C264.842 73.072 264.59 72.862 264.59 72.442C264.59 72.082 264.782 71.902 265.166 71.902C265.214 71.902 265.334 71.914 265.526 71.938C265.598 71.962 265.694 71.974 265.814 71.974C266.018 71.974 266.144 71.872 266.192 71.668C266.252 71.464 266.288 70.954 266.3 70.138L266.318 69.04V67.852C266.318 67.024 266.252 66.424 266.12 66.052C266 65.668 265.766 65.368 265.418 65.152C265.07 64.936 264.674 64.828 264.23 64.828C263.378 64.828 262.784 65.122 262.448 65.71C262.184 66.178 262.052 66.994 262.052 68.158V69.436C262.052 70.564 262.076 71.272 262.124 71.56C262.184 71.836 262.328 71.974 262.556 71.974C262.628 71.974 262.73 71.962 262.862 71.938C263.006 71.902 263.114 71.884 263.186 71.884C263.354 71.884 263.492 71.944 263.6 72.064C263.72 72.172 263.78 72.31 263.78 72.478C263.78 72.874 263.498 73.072 262.934 73.072C262.754 73.072 262.484 73.048 262.124 73C261.776 72.952 261.512 72.928 261.332 72.928C261.08 72.928 260.804 72.952 260.504 73C260.204 73.048 259.94 73.072 259.712 73.072C259.22 73.072 258.974 72.868 258.974 72.46C258.974 72.088 259.154 71.902 259.514 71.902C259.646 71.902 259.748 71.914 259.82 71.938C259.988 71.974 260.114 71.992 260.198 71.992C260.486 71.992 260.636 71.686 260.648 71.074L260.666 70.228C260.678 69.964 260.684 69.706 260.684 69.454C260.696 69.238 260.702 69.124 260.702 69.112V67.618C260.702 66.574 260.558 65.848 260.27 65.44C259.994 65.032 259.496 64.828 258.776 64.828C257.984 64.828 257.378 65.116 256.958 65.692C256.61 66.16 256.436 66.976 256.436 68.14V70.534C256.436 71.014 256.442 71.296 256.454 71.38C256.502 71.788 256.634 71.992 256.85 71.992C256.91 71.992 257.036 71.968 257.228 71.92C257.252 71.92 257.288 71.914 257.336 71.902C257.384 71.902 257.426 71.902 257.462 71.902C257.93 71.902 258.164 72.1 258.164 72.496C258.164 72.88 257.894 73.072 257.354 73.072C257.15 73.072 256.898 73.054 256.598 73.018C256.19 72.97 255.842 72.946 255.554 72.946C255.41 72.946 255.146 72.964 254.762 73C254.246 73.048 253.934 73.072 253.826 73.072C253.346 73.072 253.106 72.868 253.106 72.46C253.106 72.088 253.334 71.902 253.79 71.902C253.814 71.902 253.85 71.902 253.898 71.902C253.946 71.914 253.982 71.92 254.006 71.92L254.456 72.01C254.468 72.022 254.492 72.028 254.528 72.028C254.852 72.028 255.026 71.734 255.05 71.146L255.086 70.12V67.366C255.086 66.346 255.056 65.71 254.996 65.458C254.948 65.206 254.804 65.08 254.564 65.08C254.516 65.08 254.348 65.11 254.06 65.17C253.94 65.194 253.844 65.206 253.772 65.206C253.328 65.206 253.106 65.014 253.106 64.63C253.106 64.222 253.352 64.018 253.844 64.018C253.976 64.018 254.156 64.03 254.384 64.054C254.612 64.078 254.81 64.09 254.978 64.09C255.038 64.09 255.104 64.084 255.176 64.072C255.248 64.072 255.29 64.072 255.302 64.072L255.734 64.018H255.788C256.076 64.018 256.22 64.192 256.22 64.54ZM277.96 73.234C276.976 73.234 276.37 72.808 276.142 71.956C275.53 72.856 274.57 73.306 273.262 73.306C272.29 73.306 271.51 73.066 270.922 72.586C270.346 72.106 270.058 71.464 270.058 70.66C270.058 69.664 270.484 68.932 271.336 68.464C271.66 68.284 271.936 68.17 272.164 68.122C272.404 68.062 272.878 67.99 273.586 67.906C274.594 67.798 275.248 67.648 275.548 67.456C275.86 67.264 276.016 66.91 276.016 66.394C276.016 65.902 275.842 65.518 275.494 65.242C275.158 64.954 274.684 64.81 274.072 64.81C273.532 64.81 273.028 64.96 272.56 65.26C272.38 65.38 272.29 65.506 272.29 65.638C272.29 65.686 272.344 65.746 272.452 65.818C272.62 65.938 272.704 66.142 272.704 66.43C272.704 66.67 272.614 66.868 272.434 67.024C272.266 67.18 272.05 67.258 271.786 67.258C271.474 67.258 271.21 67.15 270.994 66.934C270.79 66.718 270.688 66.454 270.688 66.142C270.688 65.47 271.018 64.894 271.678 64.414C272.35 63.934 273.16 63.694 274.108 63.694C276.292 63.694 277.384 64.744 277.384 66.844V70.48C277.384 71.056 277.396 71.398 277.42 71.506C277.492 71.926 277.696 72.136 278.032 72.136C278.452 72.136 278.662 71.752 278.662 70.984V70.102C278.662 69.718 278.848 69.526 279.22 69.526C279.616 69.526 279.814 69.814 279.814 70.39V70.48L279.796 71.506C279.772 72.658 279.16 73.234 277.96 73.234ZM275.962 69.652L275.98 68.374C275.716 68.614 275.434 68.782 275.134 68.878C274.846 68.974 274.324 69.058 273.568 69.13C272.2 69.262 271.516 69.766 271.516 70.642C271.516 71.098 271.678 71.458 272.002 71.722C272.338 71.986 272.788 72.118 273.352 72.118C274.156 72.118 274.786 71.902 275.242 71.47C275.71 71.026 275.95 70.42 275.962 69.652ZM284.178 63.694C284.982 63.694 285.654 63.904 286.194 64.324V64.252C286.194 63.808 286.386 63.586 286.77 63.586C287.166 63.586 287.364 63.778 287.364 64.162C287.364 64.234 287.352 64.414 287.328 64.702C287.28 64.942 287.256 65.182 287.256 65.422C287.256 65.566 287.274 65.776 287.31 66.052C287.358 66.328 287.382 66.538 287.382 66.682C287.382 67.138 287.184 67.366 286.788 67.366C286.404 67.366 286.206 67.174 286.194 66.79L286.176 66.196C286.164 65.836 285.954 65.53 285.546 65.278C285.15 65.014 284.682 64.882 284.142 64.882C283.59 64.882 283.128 65.026 282.756 65.314C282.384 65.59 282.198 65.938 282.198 66.358C282.198 67.126 282.726 67.582 283.782 67.726L284.826 67.87C286.866 68.146 287.886 68.992 287.886 70.408C287.886 71.272 287.556 71.974 286.896 72.514C286.236 73.042 285.372 73.306 284.304 73.306C283.308 73.306 282.444 73.024 281.712 72.46C281.724 72.58 281.73 72.694 281.73 72.802C281.73 73.234 281.526 73.45 281.118 73.45C280.674 73.45 280.452 73.204 280.452 72.712C280.452 72.796 280.488 72.484 280.56 71.776C280.584 71.608 280.596 71.44 280.596 71.272C280.596 70.984 280.572 70.714 280.524 70.462C280.476 70.21 280.452 70.012 280.452 69.868C280.452 69.448 280.644 69.238 281.028 69.238C281.28 69.238 281.436 69.298 281.496 69.418C281.568 69.538 281.61 69.856 281.622 70.372C281.634 70.888 281.904 71.308 282.432 71.632C282.96 71.956 283.632 72.118 284.448 72.118C285.036 72.118 285.522 71.968 285.906 71.668C286.29 71.368 286.482 70.99 286.482 70.534C286.482 69.718 285.834 69.244 284.538 69.112C283.302 68.98 282.36 68.74 281.712 68.392C281.064 68.032 280.74 67.408 280.74 66.52C280.74 65.68 281.058 65.002 281.694 64.486C282.33 63.958 283.158 63.694 284.178 63.694ZM292.047 68.446L295.125 65.566C295.233 65.47 295.287 65.362 295.287 65.242C295.287 65.122 295.209 65.062 295.053 65.062C294.933 65.062 294.759 65.086 294.531 65.134C294.303 65.182 294.129 65.206 294.009 65.206C293.589 65.206 293.379 65.014 293.379 64.63C293.379 64.21 293.643 64 294.171 64C294.303 64 294.471 64.012 294.675 64.036C295.503 64.132 296.133 64.18 296.565 64.18C296.805 64.18 297.009 64.168 297.177 64.144L297.915 64.036C298.083 64.012 298.221 64 298.329 64C298.917 64 299.211 64.204 299.211 64.612C299.211 64.996 299.007 65.188 298.599 65.188C298.503 65.188 298.365 65.176 298.185 65.152C298.017 65.128 297.885 65.116 297.789 65.116C297.489 65.116 297.177 65.266 296.853 65.566L294.963 67.294C294.831 67.414 294.765 67.51 294.765 67.582C294.765 67.642 294.813 67.732 294.909 67.852L297.213 70.84C297.801 71.596 298.221 71.974 298.473 71.974C298.533 71.974 298.629 71.962 298.761 71.938C298.905 71.902 299.019 71.884 299.103 71.884C299.535 71.884 299.751 72.076 299.751 72.46C299.751 72.868 299.475 73.072 298.923 73.072C298.707 73.072 298.383 73.048 297.951 73C297.531 72.952 297.213 72.928 296.997 72.928C296.805 72.928 296.523 72.952 296.151 73C295.791 73.048 295.521 73.072 295.341 73.072C294.885 73.072 294.657 72.868 294.657 72.46C294.657 72.076 294.873 71.884 295.305 71.884C295.425 71.884 295.521 71.89 295.593 71.902C295.809 71.962 295.947 71.992 296.007 71.992C296.115 71.992 296.169 71.95 296.169 71.866C296.169 71.854 296.169 71.836 296.169 71.812C296.157 71.8 296.151 71.788 296.151 71.776L295.971 71.524L295.737 71.182L293.937 68.788C293.817 68.632 293.721 68.554 293.649 68.554C293.601 68.554 293.511 68.614 293.379 68.734L292.047 69.922V70.336C292.047 70.912 292.053 71.236 292.065 71.308C292.125 71.728 292.293 71.938 292.569 71.938C292.689 71.938 292.791 71.932 292.875 71.92C292.959 71.896 293.073 71.884 293.217 71.884C293.625 71.884 293.829 72.082 293.829 72.478C293.829 72.874 293.601 73.072 293.145 73.072C292.941 73.072 292.629 73.048 292.209 73C291.801 72.94 291.489 72.91 291.273 72.91C290.997 72.91 290.679 72.934 290.319 72.982C289.863 73.042 289.557 73.072 289.401 73.072C288.933 73.072 288.699 72.874 288.699 72.478C288.699 72.082 288.927 71.884 289.383 71.884C289.479 71.884 289.593 71.896 289.725 71.92C289.917 71.956 290.049 71.974 290.121 71.974C290.409 71.974 290.571 71.746 290.607 71.29L290.661 70.588V63.316C290.637 62.668 290.595 62.26 290.535 62.092C290.475 61.912 290.349 61.822 290.157 61.822C290.097 61.822 289.983 61.834 289.815 61.858C289.647 61.918 289.479 61.948 289.311 61.948C288.915 61.948 288.717 61.762 288.717 61.39C288.717 60.982 288.951 60.778 289.419 60.778C289.659 60.778 289.827 60.784 289.923 60.796C290.223 60.832 290.421 60.85 290.517 60.85C290.613 60.85 290.751 60.838 290.931 60.814C291.123 60.778 291.261 60.76 291.345 60.76H291.471C291.855 60.76 292.047 61.006 292.047 61.498V68.446ZM308.274 67.708C308.274 68.164 308.244 68.446 308.184 68.554C308.124 68.65 307.95 68.698 307.662 68.698H301.938C301.782 68.698 301.68 68.722 301.632 68.77C301.584 68.806 301.56 68.872 301.56 68.968C301.56 69.868 301.83 70.618 302.37 71.218C302.91 71.818 303.582 72.118 304.386 72.118C304.914 72.118 305.394 71.974 305.826 71.686C306.27 71.398 306.558 71.032 306.69 70.588L306.852 70.066C306.936 69.778 307.134 69.634 307.446 69.634C307.89 69.634 308.112 69.862 308.112 70.318C308.112 71.098 307.716 71.794 306.924 72.406C306.132 73.006 305.232 73.306 304.224 73.306C302.964 73.306 301.962 72.886 301.218 72.046C300.474 71.194 300.102 70.054 300.102 68.626C300.102 67.162 300.498 65.974 301.29 65.062C302.082 64.15 303.114 63.694 304.386 63.694C305.514 63.694 306.444 64.072 307.176 64.828C307.908 65.584 308.274 66.544 308.274 67.708ZM301.74 67.24C301.74 67.408 301.872 67.492 302.136 67.492H306.438C306.69 67.492 306.816 67.408 306.816 67.24C306.816 66.604 306.576 66.052 306.096 65.584C305.616 65.116 305.052 64.882 304.404 64.882C303.732 64.882 303.12 65.128 302.568 65.62C302.016 66.1 301.74 66.64 301.74 67.24ZM312.33 64.522V65.008C312.954 64.132 313.788 63.694 314.832 63.694C315.672 63.694 316.35 63.934 316.866 64.414C317.394 64.882 317.658 65.488 317.658 66.232C317.658 66.76 317.526 67.192 317.262 67.528C316.998 67.852 316.65 68.014 316.218 68.014C315.942 68.014 315.708 67.93 315.516 67.762C315.324 67.594 315.228 67.39 315.228 67.15C315.228 66.958 315.3 66.79 315.444 66.646C315.588 66.49 315.756 66.412 315.948 66.412C315.984 66.412 316.062 66.43 316.182 66.466C316.254 66.322 316.29 66.19 316.29 66.07C316.29 65.722 316.134 65.428 315.822 65.188C315.522 64.948 315.144 64.828 314.688 64.828C313.752 64.828 313.128 65.248 312.816 66.088C312.624 66.604 312.528 67.384 312.528 68.428V69.616C312.528 70.42 312.534 70.87 312.546 70.966C312.606 71.65 312.792 71.992 313.104 71.992C313.26 71.992 313.422 71.968 313.59 71.92C313.722 71.884 313.836 71.866 313.932 71.866C314.316 71.866 314.508 72.058 314.508 72.442C314.508 72.862 314.262 73.072 313.77 73.072H313.698C313.518 73.072 313.242 73.048 312.87 73C312.51 72.964 312.24 72.946 312.06 72.946C311.58 72.946 311.202 72.958 310.926 72.982L309.918 73.072C309.426 73.072 309.18 72.862 309.18 72.442C309.18 72.07 309.408 71.884 309.864 71.884C309.984 71.884 310.074 71.89 310.134 71.902L310.404 71.956C310.524 71.98 310.608 71.992 310.656 71.992C310.956 71.992 311.118 71.716 311.142 71.164L311.178 70.246L311.124 66.16C311.088 65.452 310.908 65.098 310.584 65.098C310.488 65.098 310.356 65.116 310.188 65.152C310.02 65.188 309.888 65.206 309.792 65.206C309.396 65.206 309.198 65.014 309.198 64.63C309.198 64.21 309.456 64 309.972 64C310.092 64 310.272 64.018 310.512 64.054C310.752 64.078 310.932 64.09 311.052 64.09C311.148 64.09 311.304 64.078 311.52 64.054C311.616 64.03 311.73 64.018 311.862 64.018C312.174 64.018 312.33 64.186 312.33 64.522ZM318.548 73.306C318.236 73.306 317.972 73.198 317.756 72.982C317.54 72.754 317.432 72.484 317.432 72.172C317.432 71.86 317.54 71.596 317.756 71.38C317.972 71.152 318.236 71.038 318.548 71.038C318.86 71.038 319.124 71.152 319.34 71.38C319.556 71.596 319.664 71.86 319.664 72.172C319.664 72.484 319.556 72.754 319.34 72.982C319.124 73.198 318.86 73.306 318.548 73.306ZM326.961 67.06C326.961 66.58 327.261 66.304 327.861 66.232C327.801 65.812 327.597 65.482 327.249 65.242C326.913 65.002 326.475 64.882 325.935 64.882C325.107 64.882 324.441 65.212 323.937 65.872C323.433 66.532 323.181 67.408 323.181 68.5C323.181 69.628 323.415 70.516 323.883 71.164C324.363 71.8 325.023 72.118 325.863 72.118C326.391 72.118 326.847 71.968 327.231 71.668C327.627 71.368 327.897 70.954 328.041 70.426C328.161 70.006 328.233 69.766 328.257 69.706C328.389 69.466 328.581 69.346 328.833 69.346C329.037 69.346 329.205 69.412 329.337 69.544C329.469 69.676 329.535 69.844 329.535 70.048C329.535 70.348 329.439 70.708 329.247 71.128C329.055 71.548 328.827 71.896 328.563 72.172C327.855 72.928 326.937 73.306 325.809 73.306C324.585 73.306 323.595 72.874 322.839 72.01C322.095 71.146 321.723 70.012 321.723 68.608C321.723 67.12 322.107 65.932 322.875 65.044C323.655 64.144 324.687 63.694 325.971 63.694C326.931 63.694 327.729 63.958 328.365 64.486C329.001 65.002 329.319 65.662 329.319 66.466C329.319 66.91 329.193 67.276 328.941 67.564C328.701 67.852 328.389 67.996 328.005 67.996C327.705 67.996 327.453 67.906 327.249 67.726C327.057 67.546 326.961 67.324 326.961 67.06ZM335.039 73.306C333.779 73.306 332.771 72.874 332.015 72.01C331.259 71.134 330.881 69.964 330.881 68.5C330.881 67.036 331.259 65.872 332.015 65.008C332.783 64.132 333.809 63.694 335.093 63.694C336.401 63.694 337.433 64.12 338.189 64.972C338.945 65.824 339.323 66.982 339.323 68.446C339.323 69.91 338.933 71.086 338.153 71.974C337.373 72.862 336.335 73.306 335.039 73.306ZM335.129 64.882C334.289 64.882 333.629 65.176 333.149 65.764C332.669 66.352 332.405 67.186 332.357 68.266C332.357 68.266 332.357 68.344 332.357 68.5C332.357 69.628 332.591 70.516 333.059 71.164C333.539 71.8 334.205 72.118 335.057 72.118C335.933 72.118 336.617 71.8 337.109 71.164C337.613 70.516 337.865 69.622 337.865 68.482C337.865 66.082 336.953 64.882 335.129 64.882ZM343.425 64.54V65.062C343.857 64.546 344.265 64.192 344.649 64C345.033 63.796 345.513 63.694 346.089 63.694C347.265 63.694 348.129 64.15 348.681 65.062C349.089 64.558 349.503 64.204 349.923 64C350.343 63.796 350.883 63.694 351.543 63.694C352.227 63.694 352.839 63.838 353.379 64.126C353.979 64.45 354.393 64.906 354.621 65.494C354.777 65.89 354.855 66.514 354.855 67.366V69.112L354.837 70.462C354.837 70.954 354.843 71.254 354.855 71.362C354.915 71.794 355.071 72.01 355.323 72.01C355.407 72.01 355.533 71.992 355.701 71.956C355.869 71.92 355.995 71.902 356.079 71.902C356.499 71.902 356.709 72.082 356.709 72.442C356.709 72.862 356.469 73.072 355.989 73.072C355.809 73.072 355.533 73.048 355.161 73C354.801 72.964 354.525 72.946 354.333 72.946C354.129 72.946 353.829 72.964 353.433 73C353.049 73.048 352.755 73.072 352.551 73.072C352.047 73.072 351.795 72.862 351.795 72.442C351.795 72.082 351.987 71.902 352.371 71.902C352.419 71.902 352.539 71.914 352.731 71.938C352.803 71.962 352.899 71.974 353.019 71.974C353.223 71.974 353.349 71.872 353.397 71.668C353.457 71.464 353.493 70.954 353.505 70.138L353.523 69.04V67.852C353.523 67.024 353.457 66.424 353.325 66.052C353.205 65.668 352.971 65.368 352.623 65.152C352.275 64.936 351.879 64.828 351.435 64.828C350.583 64.828 349.989 65.122 349.653 65.71C349.389 66.178 349.257 66.994 349.257 68.158V69.436C349.257 70.564 349.281 71.272 349.329 71.56C349.389 71.836 349.533 71.974 349.761 71.974C349.833 71.974 349.935 71.962 350.067 71.938C350.211 71.902 350.319 71.884 350.391 71.884C350.559 71.884 350.697 71.944 350.805 72.064C350.925 72.172 350.985 72.31 350.985 72.478C350.985 72.874 350.703 73.072 350.139 73.072C349.959 73.072 349.689 73.048 349.329 73C348.981 72.952 348.717 72.928 348.537 72.928C348.285 72.928 348.009 72.952 347.709 73C347.409 73.048 347.145 73.072 346.917 73.072C346.425 73.072 346.179 72.868 346.179 72.46C346.179 72.088 346.359 71.902 346.719 71.902C346.851 71.902 346.953 71.914 347.025 71.938C347.193 71.974 347.319 71.992 347.403 71.992C347.691 71.992 347.841 71.686 347.853 71.074L347.871 70.228C347.883 69.964 347.889 69.706 347.889 69.454C347.901 69.238 347.907 69.124 347.907 69.112V67.618C347.907 66.574 347.763 65.848 347.475 65.44C347.199 65.032 346.701 64.828 345.981 64.828C345.189 64.828 344.583 65.116 344.163 65.692C343.815 66.16 343.641 66.976 343.641 68.14V70.534C343.641 71.014 343.647 71.296 343.659 71.38C343.707 71.788 343.839 71.992 344.055 71.992C344.115 71.992 344.241 71.968 344.433 71.92C344.457 71.92 344.493 71.914 344.541 71.902C344.589 71.902 344.631 71.902 344.667 71.902C345.135 71.902 345.369 72.1 345.369 72.496C345.369 72.88 345.099 73.072 344.559 73.072C344.355 73.072 344.103 73.054 343.803 73.018C343.395 72.97 343.047 72.946 342.759 72.946C342.615 72.946 342.351 72.964 341.967 73C341.451 73.048 341.139 73.072 341.031 73.072C340.551 73.072 340.311 72.868 340.311 72.46C340.311 72.088 340.539 71.902 340.995 71.902C341.019 71.902 341.055 71.902 341.103 71.902C341.151 71.914 341.187 71.92 341.211 71.92L341.661 72.01C341.673 72.022 341.697 72.028 341.733 72.028C342.057 72.028 342.231 71.734 342.255 71.146L342.291 70.12V67.366C342.291 66.346 342.261 65.71 342.201 65.458C342.153 65.206 342.009 65.08 341.769 65.08C341.721 65.08 341.553 65.11 341.265 65.17C341.145 65.194 341.049 65.206 340.977 65.206C340.533 65.206 340.311 65.014 340.311 64.63C340.311 64.222 340.557 64.018 341.049 64.018C341.181 64.018 341.361 64.03 341.589 64.054C341.817 64.078 342.015 64.09 342.183 64.09C342.243 64.09 342.309 64.084 342.381 64.072C342.453 64.072 342.495 64.072 342.507 64.072L342.939 64.018H342.993C343.281 64.018 343.425 64.192 343.425 64.54Z" fill="black"/>
<rect x="433" y="49" width="150" height="36" rx="4" fill="#C4C4C4" fill-opacity="0.1"/>
<rect x="433.5" y="49.5" width="149" height="35" rx="3.5" stroke="#071435" stroke-opacity="0.1" stroke-linecap="round"/>
<path d="M440.712 74.476C440.712 74.728 440.604 74.962 440.388 75.178C440.712 75.418 441.042 75.538 441.378 75.538C442.05 75.538 442.53 75.34 442.818 74.944C443.118 74.548 443.268 73.912 443.268 73.036L443.286 67.384C443.286 66.328 443.256 65.68 443.196 65.44C443.136 65.188 442.974 65.062 442.71 65.062C442.578 65.062 442.41 65.086 442.206 65.134C442.098 65.17 441.99 65.188 441.882 65.188C441.498 65.188 441.306 64.996 441.306 64.612C441.306 64.216 441.558 64.018 442.062 64.018C442.242 64.018 442.398 64.024 442.53 64.036C442.914 64.072 443.184 64.09 443.34 64.09C443.436 64.09 443.586 64.078 443.79 64.054C443.994 64.018 444.144 64 444.24 64C444.588 64 444.762 64.192 444.762 64.576C444.762 64.636 444.756 64.756 444.744 64.936C444.732 65.152 444.726 65.326 444.726 65.458C444.714 65.65 444.696 66.082 444.672 66.754C444.648 67.51 444.636 68.092 444.636 68.5V72.568C444.636 73.288 444.606 73.822 444.546 74.17C444.438 74.734 444.222 75.214 443.898 75.61C443.322 76.306 442.518 76.654 441.486 76.654C440.766 76.654 440.166 76.474 439.686 76.114C439.206 75.754 438.966 75.304 438.966 74.764C438.966 74.464 439.056 74.212 439.236 74.008C439.404 73.816 439.62 73.72 439.884 73.72C440.112 73.72 440.31 73.792 440.478 73.936C440.634 74.092 440.712 74.272 440.712 74.476ZM443.736 63.064C443.46 63.064 443.22 62.968 443.016 62.776C442.824 62.572 442.728 62.332 442.728 62.056C442.728 61.78 442.824 61.546 443.016 61.354C443.22 61.162 443.46 61.066 443.736 61.066C444.012 61.066 444.252 61.168 444.456 61.372C444.66 61.564 444.762 61.792 444.762 62.056C444.762 62.332 444.66 62.572 444.456 62.776C444.252 62.968 444.012 63.064 443.736 63.064ZM454.68 73.234C453.696 73.234 453.09 72.808 452.862 71.956C452.25 72.856 451.29 73.306 449.982 73.306C449.01 73.306 448.23 73.066 447.642 72.586C447.066 72.106 446.778 71.464 446.778 70.66C446.778 69.664 447.204 68.932 448.056 68.464C448.38 68.284 448.656 68.17 448.884 68.122C449.124 68.062 449.598 67.99 450.306 67.906C451.314 67.798 451.968 67.648 452.268 67.456C452.58 67.264 452.736 66.91 452.736 66.394C452.736 65.902 452.562 65.518 452.214 65.242C451.878 64.954 451.404 64.81 450.792 64.81C450.252 64.81 449.748 64.96 449.28 65.26C449.1 65.38 449.01 65.506 449.01 65.638C449.01 65.686 449.064 65.746 449.172 65.818C449.34 65.938 449.424 66.142 449.424 66.43C449.424 66.67 449.334 66.868 449.154 67.024C448.986 67.18 448.77 67.258 448.506 67.258C448.194 67.258 447.93 67.15 447.714 66.934C447.51 66.718 447.408 66.454 447.408 66.142C447.408 65.47 447.738 64.894 448.398 64.414C449.07 63.934 449.88 63.694 450.828 63.694C453.012 63.694 454.104 64.744 454.104 66.844V70.48C454.104 71.056 454.116 71.398 454.14 71.506C454.212 71.926 454.416 72.136 454.752 72.136C455.172 72.136 455.382 71.752 455.382 70.984V70.102C455.382 69.718 455.568 69.526 455.94 69.526C456.336 69.526 456.534 69.814 456.534 70.39V70.48L456.516 71.506C456.492 72.658 455.88 73.234 454.68 73.234ZM452.682 69.652L452.7 68.374C452.436 68.614 452.154 68.782 451.854 68.878C451.566 68.974 451.044 69.058 450.288 69.13C448.92 69.262 448.236 69.766 448.236 70.642C448.236 71.098 448.398 71.458 448.722 71.722C449.058 71.986 449.508 72.118 450.072 72.118C450.876 72.118 451.506 71.902 451.962 71.47C452.43 71.026 452.67 70.42 452.682 69.652ZM459.854 64.558V65.062C460.574 64.15 461.534 63.694 462.734 63.694C463.382 63.694 463.994 63.862 464.57 64.198C465.146 64.522 465.536 64.93 465.74 65.422C465.908 65.83 465.992 66.364 465.992 67.024V70.444C465.992 70.96 465.998 71.266 466.01 71.362C466.07 71.77 466.232 71.974 466.496 71.974C466.604 71.974 466.742 71.962 466.91 71.938C467.09 71.902 467.216 71.884 467.288 71.884C467.444 71.884 467.576 71.938 467.684 72.046C467.804 72.154 467.864 72.286 467.864 72.442C467.864 72.622 467.792 72.772 467.648 72.892C467.504 73.012 467.33 73.072 467.126 73.072C466.958 73.072 466.682 73.048 466.298 73C465.914 72.952 465.554 72.928 465.218 72.928C464.906 72.928 464.648 72.94 464.444 72.964C463.844 73.036 463.526 73.072 463.49 73.072C463.01 73.072 462.77 72.862 462.77 72.442C462.77 72.07 462.974 71.884 463.382 71.884C463.478 71.884 463.586 71.896 463.706 71.92C463.934 71.968 464.078 71.992 464.138 71.992C464.426 71.992 464.582 71.662 464.606 71.002L464.642 70.084L464.66 68.986V67.618C464.66 66.982 464.63 66.544 464.57 66.304C464.462 65.848 464.228 65.494 463.868 65.242C463.472 64.966 463.022 64.828 462.518 64.828C461.558 64.828 460.868 65.17 460.448 65.854C460.16 66.322 460.016 67.12 460.016 68.248V70.642C460.016 71.17 460.052 71.53 460.124 71.722C460.196 71.914 460.328 72.01 460.52 72.01C460.616 72.01 460.748 71.986 460.916 71.938C461.084 71.89 461.222 71.866 461.33 71.866C461.702 71.866 461.888 72.07 461.888 72.478C461.888 72.874 461.648 73.072 461.168 73.072C461.072 73.072 460.76 73.036 460.232 72.964C459.968 72.928 459.674 72.91 459.35 72.91C459.098 72.91 458.762 72.934 458.342 72.982C457.814 73.042 457.514 73.072 457.442 73.072C456.938 73.072 456.686 72.868 456.686 72.46C456.686 72.076 456.878 71.884 457.262 71.884C457.322 71.884 457.43 71.902 457.586 71.938C457.754 71.974 457.916 71.992 458.072 71.992C458.432 71.992 458.618 71.644 458.63 70.948L458.666 68.95V66.772L458.63 66.142C458.606 65.734 458.552 65.458 458.468 65.314C458.396 65.158 458.264 65.08 458.072 65.08C457.988 65.08 457.862 65.098 457.694 65.134C457.538 65.158 457.418 65.17 457.334 65.17C456.902 65.17 456.686 64.978 456.686 64.594C456.686 64.198 456.956 64 457.496 64C457.568 64 457.628 64.006 457.676 64.018L458.342 64.09C458.534 64.09 458.702 64.078 458.846 64.054C459.158 64.03 459.32 64.018 459.332 64.018C459.68 64.018 459.854 64.198 459.854 64.558ZM476.733 67.708C476.733 68.164 476.703 68.446 476.643 68.554C476.583 68.65 476.409 68.698 476.121 68.698H470.397C470.241 68.698 470.139 68.722 470.091 68.77C470.043 68.806 470.019 68.872 470.019 68.968C470.019 69.868 470.289 70.618 470.829 71.218C471.369 71.818 472.041 72.118 472.845 72.118C473.373 72.118 473.853 71.974 474.285 71.686C474.729 71.398 475.017 71.032 475.149 70.588L475.311 70.066C475.395 69.778 475.593 69.634 475.905 69.634C476.349 69.634 476.571 69.862 476.571 70.318C476.571 71.098 476.175 71.794 475.383 72.406C474.591 73.006 473.691 73.306 472.683 73.306C471.423 73.306 470.421 72.886 469.677 72.046C468.933 71.194 468.561 70.054 468.561 68.626C468.561 67.162 468.957 65.974 469.749 65.062C470.541 64.15 471.573 63.694 472.845 63.694C473.973 63.694 474.903 64.072 475.635 64.828C476.367 65.584 476.733 66.544 476.733 67.708ZM470.199 67.24C470.199 67.408 470.331 67.492 470.595 67.492H474.897C475.149 67.492 475.275 67.408 475.275 67.24C475.275 66.604 475.035 66.052 474.555 65.584C474.075 65.116 473.511 64.882 472.863 64.882C472.191 64.882 471.579 65.128 471.027 65.62C470.475 66.1 470.199 66.64 470.199 67.24ZM484.515 69.382C484.515 69.286 484.521 69.202 484.533 69.13C484.077 69.838 483.375 70.192 482.427 70.192C481.851 70.192 481.383 70 481.023 69.616C480.675 69.22 480.501 68.71 480.501 68.086C480.501 66.994 480.897 66.034 481.689 65.206C482.481 64.366 483.399 63.946 484.443 63.946C484.683 63.946 484.947 63.982 485.235 64.054L485.595 64.144C485.643 64.168 485.703 64.18 485.775 64.18C485.835 64.18 485.937 64.15 486.081 64.09C486.273 64.006 486.411 63.964 486.495 63.964C486.675 63.964 486.765 64.042 486.765 64.198C486.765 64.234 486.753 64.3 486.729 64.396L486.639 64.738L485.613 68.572C485.577 68.716 485.559 68.83 485.559 68.914C485.559 69.13 485.673 69.238 485.901 69.238C486.345 69.238 486.759 68.95 487.143 68.374C487.683 67.57 487.953 66.64 487.953 65.584C487.953 64.588 487.623 63.76 486.963 63.1C486.315 62.44 485.493 62.11 484.497 62.11C483.093 62.11 481.869 62.674 480.825 63.802C479.793 64.918 479.277 66.232 479.277 67.744C479.277 68.92 479.655 69.904 480.411 70.696C481.167 71.476 482.115 71.866 483.255 71.866C483.927 71.866 484.479 71.788 484.911 71.632C485.355 71.464 485.907 71.14 486.567 70.66C486.807 70.48 487.005 70.39 487.161 70.39C487.389 70.39 487.503 70.498 487.503 70.714C487.503 70.942 487.347 71.176 487.035 71.416C485.847 72.352 484.539 72.82 483.111 72.82C481.659 72.82 480.447 72.34 479.475 71.38C478.515 70.408 478.035 69.196 478.035 67.744C478.035 65.992 478.683 64.468 479.979 63.172C481.287 61.864 482.829 61.21 484.605 61.21C485.949 61.21 487.041 61.606 487.881 62.398C488.733 63.19 489.159 64.222 489.159 65.494C489.159 66.922 488.637 68.17 487.593 69.238C486.957 69.886 486.291 70.21 485.595 70.21C485.283 70.21 485.025 70.132 484.821 69.976C484.617 69.82 484.515 69.622 484.515 69.382ZM484.893 66.934L485.379 65.134C485.019 64.954 484.671 64.864 484.335 64.864C483.639 64.864 483.027 65.17 482.499 65.782C481.983 66.394 481.725 67.108 481.725 67.924C481.725 68.752 482.085 69.166 482.805 69.166C483.801 69.166 484.497 68.422 484.893 66.934ZM494.8 63.694C495.112 63.694 495.466 63.742 495.862 63.838C495.922 62.662 496.606 62.074 497.914 62.074C498.466 62.074 498.928 62.218 499.3 62.506C499.672 62.794 499.858 63.16 499.858 63.604C499.858 63.892 499.762 64.138 499.57 64.342C499.39 64.546 499.174 64.648 498.922 64.648C498.73 64.648 498.562 64.582 498.418 64.45C498.274 64.318 498.202 64.162 498.202 63.982C498.202 63.79 498.334 63.592 498.598 63.388C498.406 63.148 498.16 63.028 497.86 63.028C497.224 63.028 496.9 63.424 496.888 64.216C497.8 64.828 498.256 65.65 498.256 66.682C498.256 67.51 497.944 68.2 497.32 68.752C496.696 69.304 495.916 69.58 494.98 69.58C494.32 69.58 493.636 69.424 492.928 69.112C492.736 69.028 492.574 68.986 492.442 68.986C492.274 68.986 492.124 69.064 491.992 69.22C491.86 69.364 491.794 69.538 491.794 69.742C491.794 70.366 492.424 70.678 493.684 70.678H493.792C493.888 70.678 493.996 70.672 494.116 70.66C494.236 70.66 494.308 70.66 494.332 70.66C495.472 70.66 496.396 70.768 497.104 70.984C497.764 71.188 498.286 71.506 498.67 71.938C499.054 72.37 499.246 72.856 499.246 73.396C499.246 74.272 498.838 74.962 498.022 75.466C497.218 75.982 496.126 76.24 494.746 76.24C493.366 76.24 492.28 76 491.488 75.52C490.708 75.04 490.318 74.38 490.318 73.54C490.318 72.568 490.864 71.878 491.956 71.47C490.984 71.086 490.498 70.51 490.498 69.742C490.498 68.902 490.984 68.326 491.956 68.014C491.644 67.594 491.488 67.102 491.488 66.538C491.488 65.722 491.8 65.044 492.424 64.504C493.06 63.964 493.852 63.694 494.8 63.694ZM494.854 64.882C494.326 64.882 493.876 65.038 493.504 65.35C493.132 65.662 492.928 66.052 492.892 66.52C492.892 66.52 492.892 66.556 492.892 66.628C492.892 67.156 493.072 67.582 493.432 67.906C493.792 68.23 494.26 68.392 494.836 68.392C495.436 68.392 495.922 68.23 496.294 67.906C496.678 67.582 496.87 67.168 496.87 66.664C496.87 66.148 496.678 65.722 496.294 65.386C495.91 65.05 495.43 64.882 494.854 64.882ZM494.872 71.866C493.912 71.866 493.156 72.01 492.604 72.298C492.052 72.586 491.776 72.976 491.776 73.468C491.776 73.96 492.046 74.344 492.586 74.62C493.126 74.908 493.852 75.052 494.764 75.052C495.724 75.052 496.48 74.908 497.032 74.62C497.596 74.332 497.878 73.948 497.878 73.468C497.878 72.964 497.614 72.574 497.086 72.298C496.558 72.01 495.82 71.866 494.872 71.866ZM503.06 64.54V65.062C503.492 64.546 503.9 64.192 504.284 64C504.668 63.796 505.148 63.694 505.724 63.694C506.9 63.694 507.764 64.15 508.316 65.062C508.724 64.558 509.138 64.204 509.558 64C509.978 63.796 510.518 63.694 511.178 63.694C511.862 63.694 512.474 63.838 513.014 64.126C513.614 64.45 514.028 64.906 514.256 65.494C514.412 65.89 514.49 66.514 514.49 67.366V69.112L514.472 70.462C514.472 70.954 514.478 71.254 514.49 71.362C514.55 71.794 514.706 72.01 514.958 72.01C515.042 72.01 515.168 71.992 515.336 71.956C515.504 71.92 515.63 71.902 515.714 71.902C516.134 71.902 516.344 72.082 516.344 72.442C516.344 72.862 516.104 73.072 515.624 73.072C515.444 73.072 515.168 73.048 514.796 73C514.436 72.964 514.16 72.946 513.968 72.946C513.764 72.946 513.464 72.964 513.068 73C512.684 73.048 512.39 73.072 512.186 73.072C511.682 73.072 511.43 72.862 511.43 72.442C511.43 72.082 511.622 71.902 512.006 71.902C512.054 71.902 512.174 71.914 512.366 71.938C512.438 71.962 512.534 71.974 512.654 71.974C512.858 71.974 512.984 71.872 513.032 71.668C513.092 71.464 513.128 70.954 513.14 70.138L513.158 69.04V67.852C513.158 67.024 513.092 66.424 512.96 66.052C512.84 65.668 512.606 65.368 512.258 65.152C511.91 64.936 511.514 64.828 511.07 64.828C510.218 64.828 509.624 65.122 509.288 65.71C509.024 66.178 508.892 66.994 508.892 68.158V69.436C508.892 70.564 508.916 71.272 508.964 71.56C509.024 71.836 509.168 71.974 509.396 71.974C509.468 71.974 509.57 71.962 509.702 71.938C509.846 71.902 509.954 71.884 510.026 71.884C510.194 71.884 510.332 71.944 510.44 72.064C510.56 72.172 510.62 72.31 510.62 72.478C510.62 72.874 510.338 73.072 509.774 73.072C509.594 73.072 509.324 73.048 508.964 73C508.616 72.952 508.352 72.928 508.172 72.928C507.92 72.928 507.644 72.952 507.344 73C507.044 73.048 506.78 73.072 506.552 73.072C506.06 73.072 505.814 72.868 505.814 72.46C505.814 72.088 505.994 71.902 506.354 71.902C506.486 71.902 506.588 71.914 506.66 71.938C506.828 71.974 506.954 71.992 507.038 71.992C507.326 71.992 507.476 71.686 507.488 71.074L507.506 70.228C507.518 69.964 507.524 69.706 507.524 69.454C507.536 69.238 507.542 69.124 507.542 69.112V67.618C507.542 66.574 507.398 65.848 507.11 65.44C506.834 65.032 506.336 64.828 505.616 64.828C504.824 64.828 504.218 65.116 503.798 65.692C503.45 66.16 503.276 66.976 503.276 68.14V70.534C503.276 71.014 503.282 71.296 503.294 71.38C503.342 71.788 503.474 71.992 503.69 71.992C503.75 71.992 503.876 71.968 504.068 71.92C504.092 71.92 504.128 71.914 504.176 71.902C504.224 71.902 504.266 71.902 504.302 71.902C504.77 71.902 505.004 72.1 505.004 72.496C505.004 72.88 504.734 73.072 504.194 73.072C503.99 73.072 503.738 73.054 503.438 73.018C503.03 72.97 502.682 72.946 502.394 72.946C502.25 72.946 501.986 72.964 501.602 73C501.086 73.048 500.774 73.072 500.666 73.072C500.186 73.072 499.946 72.868 499.946 72.46C499.946 72.088 500.174 71.902 500.63 71.902C500.654 71.902 500.69 71.902 500.738 71.902C500.786 71.914 500.822 71.92 500.846 71.92L501.296 72.01C501.308 72.022 501.332 72.028 501.368 72.028C501.692 72.028 501.866 71.734 501.89 71.146L501.926 70.12V67.366C501.926 66.346 501.896 65.71 501.836 65.458C501.788 65.206 501.644 65.08 501.404 65.08C501.356 65.08 501.188 65.11 500.9 65.17C500.78 65.194 500.684 65.206 500.612 65.206C500.168 65.206 499.946 65.014 499.946 64.63C499.946 64.222 500.192 64.018 500.684 64.018C500.816 64.018 500.996 64.03 501.224 64.054C501.452 64.078 501.65 64.09 501.818 64.09C501.878 64.09 501.944 64.084 502.016 64.072C502.088 64.072 502.13 64.072 502.142 64.072L502.574 64.018H502.628C502.916 64.018 503.06 64.192 503.06 64.54ZM524.799 73.234C523.815 73.234 523.209 72.808 522.981 71.956C522.369 72.856 521.409 73.306 520.101 73.306C519.129 73.306 518.349 73.066 517.761 72.586C517.185 72.106 516.897 71.464 516.897 70.66C516.897 69.664 517.323 68.932 518.175 68.464C518.499 68.284 518.775 68.17 519.003 68.122C519.243 68.062 519.717 67.99 520.425 67.906C521.433 67.798 522.087 67.648 522.387 67.456C522.699 67.264 522.855 66.91 522.855 66.394C522.855 65.902 522.681 65.518 522.333 65.242C521.997 64.954 521.523 64.81 520.911 64.81C520.371 64.81 519.867 64.96 519.399 65.26C519.219 65.38 519.129 65.506 519.129 65.638C519.129 65.686 519.183 65.746 519.291 65.818C519.459 65.938 519.543 66.142 519.543 66.43C519.543 66.67 519.453 66.868 519.273 67.024C519.105 67.18 518.889 67.258 518.625 67.258C518.313 67.258 518.049 67.15 517.833 66.934C517.629 66.718 517.527 66.454 517.527 66.142C517.527 65.47 517.857 64.894 518.517 64.414C519.189 63.934 519.999 63.694 520.947 63.694C523.131 63.694 524.223 64.744 524.223 66.844V70.48C524.223 71.056 524.235 71.398 524.259 71.506C524.331 71.926 524.535 72.136 524.871 72.136C525.291 72.136 525.501 71.752 525.501 70.984V70.102C525.501 69.718 525.687 69.526 526.059 69.526C526.455 69.526 526.653 69.814 526.653 70.39V70.48L526.635 71.506C526.611 72.658 525.999 73.234 524.799 73.234ZM522.801 69.652L522.819 68.374C522.555 68.614 522.273 68.782 521.973 68.878C521.685 68.974 521.163 69.058 520.407 69.13C519.039 69.262 518.355 69.766 518.355 70.642C518.355 71.098 518.517 71.458 518.841 71.722C519.177 71.986 519.627 72.118 520.191 72.118C520.995 72.118 521.625 71.902 522.081 71.47C522.549 71.026 522.789 70.42 522.801 69.652ZM530.136 67.78V70.12C530.136 70.72 530.142 71.074 530.154 71.182C530.214 71.722 530.376 71.992 530.64 71.992C530.7 71.992 530.85 71.962 531.09 71.902C531.15 71.878 531.24 71.866 531.36 71.866C531.816 71.866 532.044 72.064 532.044 72.46C532.044 72.628 531.966 72.772 531.81 72.892C531.666 73.012 531.48 73.072 531.252 73.072C531.06 73.072 530.766 73.048 530.37 73C529.986 72.94 529.698 72.91 529.506 72.91C529.194 72.91 528.846 72.934 528.462 72.982C527.994 73.042 527.682 73.072 527.526 73.072C527.046 73.072 526.806 72.868 526.806 72.46C526.806 72.064 527.01 71.866 527.418 71.866C527.514 71.866 527.652 71.884 527.832 71.92C528.024 71.956 528.168 71.974 528.264 71.974C528.552 71.974 528.726 71.59 528.786 70.822C528.786 70.774 528.786 70.252 528.786 69.256V67.78C528.786 66.784 528.786 66.262 528.786 66.214C528.726 65.458 528.546 65.08 528.246 65.08C528.15 65.08 528.012 65.104 527.832 65.152C527.664 65.188 527.538 65.206 527.454 65.206C527.022 65.206 526.806 65.014 526.806 64.63C526.806 64.222 527.07 64.018 527.598 64.018C527.826 64.018 527.988 64.024 528.084 64.036C528.468 64.084 528.714 64.108 528.822 64.108C528.918 64.108 529.062 64.096 529.254 64.072C529.458 64.036 529.608 64.018 529.704 64.018C530.052 64.018 530.226 64.252 530.226 64.72C530.226 64.768 530.22 64.84 530.208 64.936C530.196 65.032 530.19 65.104 530.19 65.152C530.178 65.248 530.166 65.62 530.154 66.268C530.142 66.76 530.136 67.264 530.136 67.78ZM529.2 63.064C528.924 63.064 528.684 62.968 528.48 62.776C528.288 62.572 528.192 62.332 528.192 62.056C528.192 61.78 528.288 61.546 528.48 61.354C528.684 61.162 528.924 61.066 529.2 61.066C529.476 61.066 529.71 61.162 529.902 61.354C530.106 61.546 530.208 61.78 530.208 62.056C530.208 62.332 530.106 62.572 529.902 62.776C529.71 62.968 529.476 63.064 529.2 63.064ZM535.6 65.476L535.618 71.074C535.63 71.686 535.792 71.992 536.104 71.992C536.176 71.992 536.326 71.962 536.554 71.902C536.698 71.878 536.794 71.866 536.842 71.866C537.238 71.866 537.436 72.07 537.436 72.478C537.436 72.874 537.19 73.072 536.698 73.072C536.506 73.072 536.2 73.048 535.78 73C535.36 72.952 535.036 72.928 534.808 72.928C534.616 72.928 534.328 72.952 533.944 73C533.56 73.048 533.278 73.072 533.098 73.072H533.008C532.504 73.072 532.252 72.856 532.252 72.424C532.252 72.052 532.456 71.866 532.864 71.866C532.888 71.866 532.93 71.866 532.99 71.866C533.062 71.878 533.116 71.884 533.152 71.884C533.452 71.932 533.626 71.956 533.674 71.956C533.89 71.956 534.022 71.866 534.07 71.686C534.13 71.494 534.166 71.008 534.178 70.228L534.196 68.968L534.25 66.178L534.232 62.974C534.22 62.614 534.202 62.374 534.178 62.254C534.094 61.978 533.926 61.84 533.674 61.84C533.638 61.84 533.482 61.864 533.206 61.912C533.074 61.936 532.966 61.948 532.882 61.948C532.474 61.948 532.27 61.756 532.27 61.372C532.27 60.976 532.51 60.778 532.99 60.778C533.122 60.778 533.236 60.784 533.332 60.796L533.764 60.85C533.956 60.874 534.118 60.886 534.25 60.886C534.37 60.886 534.55 60.868 534.79 60.832C535.03 60.784 535.21 60.76 535.33 60.76C535.606 60.76 535.744 60.934 535.744 61.282C535.744 61.402 535.738 61.492 535.726 61.552C535.642 62.476 535.6 63.784 535.6 65.476ZM540.093 73.306C539.781 73.306 539.517 73.198 539.301 72.982C539.085 72.754 538.977 72.484 538.977 72.172C538.977 71.86 539.085 71.596 539.301 71.38C539.517 71.152 539.781 71.038 540.093 71.038C540.405 71.038 540.669 71.152 540.885 71.38C541.101 71.596 541.209 71.86 541.209 72.172C541.209 72.484 541.101 72.754 540.885 72.982C540.669 73.198 540.405 73.306 540.093 73.306ZM548.506 67.06C548.506 66.58 548.806 66.304 549.406 66.232C549.346 65.812 549.142 65.482 548.794 65.242C548.458 65.002 548.02 64.882 547.48 64.882C546.652 64.882 545.986 65.212 545.482 65.872C544.978 66.532 544.726 67.408 544.726 68.5C544.726 69.628 544.96 70.516 545.428 71.164C545.908 71.8 546.568 72.118 547.408 72.118C547.936 72.118 548.392 71.968 548.776 71.668C549.172 71.368 549.442 70.954 549.586 70.426C549.706 70.006 549.778 69.766 549.802 69.706C549.934 69.466 550.126 69.346 550.378 69.346C550.582 69.346 550.75 69.412 550.882 69.544C551.014 69.676 551.08 69.844 551.08 70.048C551.08 70.348 550.984 70.708 550.792 71.128C550.6 71.548 550.372 71.896 550.108 72.172C549.4 72.928 548.482 73.306 547.354 73.306C546.13 73.306 545.14 72.874 544.384 72.01C543.64 71.146 543.268 70.012 543.268 68.608C543.268 67.12 543.652 65.932 544.42 65.044C545.2 64.144 546.232 63.694 547.516 63.694C548.476 63.694 549.274 63.958 549.91 64.486C550.546 65.002 550.864 65.662 550.864 66.466C550.864 66.91 550.738 67.276 550.486 67.564C550.246 67.852 549.934 67.996 549.55 67.996C549.25 67.996 548.998 67.906 548.794 67.726C548.602 67.546 548.506 67.324 548.506 67.06ZM556.584 73.306C555.324 73.306 554.316 72.874 553.56 72.01C552.804 71.134 552.426 69.964 552.426 68.5C552.426 67.036 552.804 65.872 553.56 65.008C554.328 64.132 555.354 63.694 556.638 63.694C557.946 63.694 558.978 64.12 559.734 64.972C560.49 65.824 560.868 66.982 560.868 68.446C560.868 69.91 560.478 71.086 559.698 71.974C558.918 72.862 557.88 73.306 556.584 73.306ZM556.674 64.882C555.834 64.882 555.174 65.176 554.694 65.764C554.214 66.352 553.95 67.186 553.902 68.266C553.902 68.266 553.902 68.344 553.902 68.5C553.902 69.628 554.136 70.516 554.604 71.164C555.084 71.8 555.75 72.118 556.602 72.118C557.478 72.118 558.162 71.8 558.654 71.164C559.158 70.516 559.41 69.622 559.41 68.482C559.41 66.082 558.498 64.882 556.674 64.882ZM564.97 64.54V65.062C565.402 64.546 565.81 64.192 566.194 64C566.578 63.796 567.058 63.694 567.634 63.694C568.81 63.694 569.674 64.15 570.226 65.062C570.634 64.558 571.048 64.204 571.468 64C571.888 63.796 572.428 63.694 573.088 63.694C573.772 63.694 574.384 63.838 574.924 64.126C575.524 64.45 575.938 64.906 576.166 65.494C576.322 65.89 576.4 66.514 576.4 67.366V69.112L576.382 70.462C576.382 70.954 576.388 71.254 576.4 71.362C576.46 71.794 576.616 72.01 576.868 72.01C576.952 72.01 577.078 71.992 577.246 71.956C577.414 71.92 577.54 71.902 577.624 71.902C578.044 71.902 578.254 72.082 578.254 72.442C578.254 72.862 578.014 73.072 577.534 73.072C577.354 73.072 577.078 73.048 576.706 73C576.346 72.964 576.07 72.946 575.878 72.946C575.674 72.946 575.374 72.964 574.978 73C574.594 73.048 574.3 73.072 574.096 73.072C573.592 73.072 573.34 72.862 573.34 72.442C573.34 72.082 573.532 71.902 573.916 71.902C573.964 71.902 574.084 71.914 574.276 71.938C574.348 71.962 574.444 71.974 574.564 71.974C574.768 71.974 574.894 71.872 574.942 71.668C575.002 71.464 575.038 70.954 575.05 70.138L575.068 69.04V67.852C575.068 67.024 575.002 66.424 574.87 66.052C574.75 65.668 574.516 65.368 574.168 65.152C573.82 64.936 573.424 64.828 572.98 64.828C572.128 64.828 571.534 65.122 571.198 65.71C570.934 66.178 570.802 66.994 570.802 68.158V69.436C570.802 70.564 570.826 71.272 570.874 71.56C570.934 71.836 571.078 71.974 571.306 71.974C571.378 71.974 571.48 71.962 571.612 71.938C571.756 71.902 571.864 71.884 571.936 71.884C572.104 71.884 572.242 71.944 572.35 72.064C572.47 72.172 572.53 72.31 572.53 72.478C572.53 72.874 572.248 73.072 571.684 73.072C571.504 73.072 571.234 73.048 570.874 73C570.526 72.952 570.262 72.928 570.082 72.928C569.83 72.928 569.554 72.952 569.254 73C568.954 73.048 568.69 73.072 568.462 73.072C567.97 73.072 567.724 72.868 567.724 72.46C567.724 72.088 567.904 71.902 568.264 71.902C568.396 71.902 568.498 71.914 568.57 71.938C568.738 71.974 568.864 71.992 568.948 71.992C569.236 71.992 569.386 71.686 569.398 71.074L569.416 70.228C569.428 69.964 569.434 69.706 569.434 69.454C569.446 69.238 569.452 69.124 569.452 69.112V67.618C569.452 66.574 569.308 65.848 569.02 65.44C568.744 65.032 568.246 64.828 567.526 64.828C566.734 64.828 566.128 65.116 565.708 65.692C565.36 66.16 565.186 66.976 565.186 68.14V70.534C565.186 71.014 565.192 71.296 565.204 71.38C565.252 71.788 565.384 71.992 565.6 71.992C565.66 71.992 565.786 71.968 565.978 71.92C566.002 71.92 566.038 71.914 566.086 71.902C566.134 71.902 566.176 71.902 566.212 71.902C566.68 71.902 566.914 72.1 566.914 72.496C566.914 72.88 566.644 73.072 566.104 73.072C565.9 73.072 565.648 73.054 565.348 73.018C564.94 72.97 564.592 72.946 564.304 72.946C564.16 72.946 563.896 72.964 563.512 73C562.996 73.048 562.684 73.072 562.576 73.072C562.096 73.072 561.856 72.868 561.856 72.46C561.856 72.088 562.084 71.902 562.54 71.902C562.564 71.902 562.6 71.902 562.648 71.902C562.696 71.914 562.732 71.92 562.756 71.92L563.206 72.01C563.218 72.022 563.242 72.028 563.278 72.028C563.602 72.028 563.776 71.734 563.8 71.146L563.836 70.12V67.366C563.836 66.346 563.806 65.71 563.746 65.458C563.698 65.206 563.554 65.08 563.314 65.08C563.266 65.08 563.098 65.11 562.81 65.17C562.69 65.194 562.594 65.206 562.522 65.206C562.078 65.206 561.856 65.014 561.856 64.63C561.856 64.222 562.102 64.018 562.594 64.018C562.726 64.018 562.906 64.03 563.134 64.054C563.362 64.078 563.56 64.09 563.728 64.09C563.788 64.09 563.854 64.084 563.926 64.072C563.998 64.072 564.04 64.072 564.052 64.072L564.484 64.018H564.538C564.826 64.018 564.97 64.192 564.97 64.54Z" fill="black"/>
<path d="M49.9688 73H58.0898V71.8574H51.1729V67.3223H57.3955V66.2061H51.1729V61.6973H58.0898V60.5811H49.9688V73ZM60.5684 73H61.7285V67.7969C61.7285 66.2676 62.6514 65.1689 64.1191 65.1689C65.5605 65.1689 66.1846 66.1357 66.1846 67.6914V73H67.3447V67.7969C67.3447 66.2676 68.2676 65.1689 69.7266 65.1689C71.2207 65.1689 71.8008 66.1885 71.8008 68.0078V73H72.9609V67.8672C72.9609 65.6172 72.0469 64.0791 69.9375 64.0791C68.6367 64.0791 67.5557 64.7383 67.0371 66.0215C66.6416 64.6768 65.6221 64.0791 64.3301 64.0791C63.1523 64.0791 62.168 64.624 61.6846 65.749V64.2197H60.5596L60.5684 73ZM78.8496 64.0791C77.2939 64.0791 76.2744 64.7119 75.4219 65.8896L76.3096 66.54C76.916 65.6348 77.6895 65.1074 78.8584 65.1074C80.6162 65.1074 81.293 65.9863 81.293 67.8408V67.9463H78.7617C76.4941 67.9463 75.0791 68.667 75.0791 70.4512C75.0791 72.1387 76.3271 73.1318 78.1113 73.1318C79.4209 73.1318 80.6426 72.4902 81.3018 71.2158L81.3809 73H82.3477V67.6387C82.3477 65.4326 81.0996 64.0791 78.8496 64.0791ZM78.3311 72.1387C77.0127 72.1387 76.2656 71.4883 76.2656 70.4863C76.2656 69.4316 77.0918 68.8076 78.8232 68.8076H81.293V69.7041C80.8887 71.1455 79.8604 72.1387 78.3311 72.1387ZM85.2305 62.3828H86.4434V60.5811H85.2305V62.3828ZM85.2568 73H86.4082V64.2197H85.2568V73ZM91.1367 73.1318C91.5146 73.1318 91.9893 73.0703 92.376 72.9912L92.3584 71.998C92.0947 72.0508 91.8311 72.0859 91.6465 72.0859C90.7676 72.0859 90.6797 71.5234 90.6797 70.8467V60.5811H89.5195V71.1455C89.5195 72.3848 89.8887 73.1318 91.1367 73.1318ZM101.613 73.1318C103.327 73.1318 104.733 72.2441 104.733 70.4863C104.733 67.1201 99.6094 68.5264 99.6094 66.3467C99.6094 65.5645 100.33 65.0195 101.464 65.0195C102.536 65.0195 103.266 65.6084 103.688 66.3994L104.584 65.916C103.969 64.7559 102.888 64.0791 101.499 64.0791C99.8203 64.0791 98.4932 64.9316 98.4932 66.4961C98.4932 69.6689 103.591 68.1572 103.591 70.5391C103.591 71.4619 102.888 72.1562 101.561 72.1562C100.198 72.1562 99.3281 71.3477 98.9941 70.4072L98.0537 70.8203C98.502 72.1562 99.8818 73.1318 101.613 73.1318ZM110.473 73.1318C111.888 73.1318 112.881 72.7012 113.865 71.6729L113.057 70.9609C112.266 71.7871 111.536 72.0771 110.481 72.0771C108.715 72.0771 107.695 70.8818 107.607 68.9219H114.076C114.111 68.79 114.138 68.4385 114.138 68.1396C114.138 66.3994 113.197 64.0791 110.332 64.0791C107.774 64.0791 106.377 66.1709 106.377 68.6494C106.377 71.1719 107.827 73.1318 110.473 73.1318ZM107.607 68.0605C107.757 66.3027 108.724 65.0723 110.323 65.0723C112.063 65.0723 112.854 66.3203 112.96 67.5068C112.986 67.6826 112.986 67.876 112.978 68.0605H107.607ZM116.528 73H117.688V67.8057C117.688 66.1006 118.646 65.1602 120.132 65.1602C121.573 65.1602 122.329 66.1094 122.329 67.709V73H123.489V67.4365C123.454 65.5381 122.487 64.0791 120.439 64.0791C119.279 64.0791 118.242 64.6416 117.688 65.7139V64.2197H116.528V73ZM129.079 73.1318C129.571 73.1318 130.046 73.0439 130.318 72.9561L130.301 71.8926C130.055 71.9893 129.659 72.1035 129.272 72.1035C128.341 72.1035 127.849 71.5938 127.849 70.3545V65.2041H130.31V64.2197H127.849V60.8271L126.706 61.6797V64.2197H125.229V65.2041H126.688V70.5391C126.688 72.2178 127.523 73.1318 129.079 73.1318ZM139.854 73.1318C140.347 73.1318 140.821 73.0439 141.094 72.9561L141.076 71.8926C140.83 71.9893 140.435 72.1035 140.048 72.1035C139.116 72.1035 138.624 71.5938 138.624 70.3545V65.2041H141.085V64.2197H138.624V60.8271L137.481 61.6797V64.2197H136.005V65.2041H137.464V70.5391C137.464 72.2178 138.299 73.1318 139.854 73.1318ZM146.745 73.1318C149.25 73.1318 151.017 71.1104 151.017 68.5879C151.017 66.083 149.25 64.0791 146.745 64.0791C144.249 64.0791 142.509 66.083 142.509 68.5879C142.509 71.1191 144.249 73.1318 146.745 73.1318ZM146.745 72.1211C144.847 72.1211 143.713 70.5391 143.713 68.5879C143.713 66.6455 144.847 65.0986 146.745 65.0986C148.661 65.0986 149.812 66.6543 149.812 68.5879C149.812 70.5303 148.661 72.1211 146.745 72.1211Z" fill="#071435"/>
<path d="M374.845 71.8398H372.876C371.918 71.8398 371.145 71.5762 371.127 70.7061C371.109 70.3018 371.259 69.9502 371.707 69.6162C372.226 69.9414 372.876 70.1172 373.597 70.1172C375.451 70.1172 376.857 68.9395 376.857 67.1465C376.857 66.5752 376.717 66.0391 376.453 65.5908L377.789 64.4307L377.191 63.6748L375.847 64.8613C375.284 64.3691 374.52 64.0791 373.605 64.0791C371.725 64.0791 370.327 65.3271 370.327 67.1025C370.327 67.8496 370.573 68.5088 371.004 69.0186C370.31 69.5283 370.02 70.1436 370.037 70.8115C370.055 71.7168 370.573 72.2793 371.197 72.5693L369.817 73.5186C369.765 73.7031 369.738 73.8965 369.738 74.1074C369.738 75.9883 371.479 77.0166 373.922 77.0166C376.33 77.0166 377.631 75.918 377.631 74.2305C377.631 72.6309 376.488 71.8398 374.845 71.8398ZM373.623 65.0195C374.915 65.0195 375.732 65.9072 375.732 67.1289C375.732 68.333 374.915 69.1768 373.614 69.1768C372.313 69.1768 371.487 68.3242 371.487 67.1201C371.487 65.916 372.331 65.0195 373.623 65.0195ZM373.852 76.1025C371.452 76.1025 370.828 75.0742 370.828 74.0898V73.8438L371.927 72.7979C372.059 72.8154 372.19 72.8242 372.313 72.8242H374.396C375.776 72.8242 376.515 73.3428 376.515 74.3271C376.515 75.584 375.372 76.1025 373.852 76.1025ZM383.317 73.1318C385.822 73.1318 387.589 71.1104 387.589 68.5879C387.589 66.083 385.822 64.0791 383.317 64.0791C380.821 64.0791 379.081 66.083 379.081 68.5879C379.081 71.1191 380.821 73.1318 383.317 73.1318ZM383.317 72.1211C381.419 72.1211 380.285 70.5391 380.285 68.5879C380.285 66.6455 381.419 65.0986 383.317 65.0986C385.233 65.0986 386.385 66.6543 386.385 68.5879C386.385 70.5303 385.233 72.1211 383.317 72.1211ZM393.363 73.1318C394.778 73.1318 395.771 72.7012 396.756 71.6729L395.947 70.9609C395.156 71.7871 394.427 72.0771 393.372 72.0771C391.605 72.0771 390.586 70.8818 390.498 68.9219H396.967C397.002 68.79 397.028 68.4385 397.028 68.1396C397.028 66.3994 396.088 64.0791 393.223 64.0791C390.665 64.0791 389.268 66.1709 389.268 68.6494C389.268 71.1719 390.718 73.1318 393.363 73.1318ZM390.498 68.0605C390.647 66.3027 391.614 65.0723 393.214 65.0723C394.954 65.0723 395.745 66.3203 395.851 67.5068C395.877 67.6826 395.877 67.876 395.868 68.0605H390.498ZM402.029 73.1318C403.743 73.1318 405.149 72.2441 405.149 70.4863C405.149 67.1201 400.025 68.5264 400.025 66.3467C400.025 65.5645 400.746 65.0195 401.88 65.0195C402.952 65.0195 403.682 65.6084 404.104 66.3994L405 65.916C404.385 64.7559 403.304 64.0791 401.915 64.0791C400.236 64.0791 398.909 64.9316 398.909 66.4961C398.909 69.6689 404.007 68.1572 404.007 70.5391C404.007 71.4619 403.304 72.1562 401.977 72.1562C400.614 72.1562 399.744 71.3477 399.41 70.4072L398.47 70.8203C398.918 72.1562 400.298 73.1318 402.029 73.1318ZM414.853 73.1318C415.345 73.1318 415.819 73.0439 416.092 72.9561L416.074 71.8926C415.828 71.9893 415.433 72.1035 415.046 72.1035C414.114 72.1035 413.622 71.5938 413.622 70.3545V65.2041H416.083V64.2197H413.622V60.8271L412.479 61.6797V64.2197H411.003V65.2041H412.462V70.5391C412.462 72.2178 413.297 73.1318 414.853 73.1318ZM421.743 73.1318C424.248 73.1318 426.015 71.1104 426.015 68.5879C426.015 66.083 424.248 64.0791 421.743 64.0791C419.247 64.0791 417.507 66.083 417.507 68.5879C417.507 71.1191 419.247 73.1318 421.743 73.1318ZM421.743 72.1211C419.845 72.1211 418.711 70.5391 418.711 68.5879C418.711 66.6455 419.845 65.0986 421.743 65.0986C423.659 65.0986 424.811 66.6543 424.811 68.5879C424.811 70.5303 423.659 72.1211 421.743 72.1211Z" fill="#071435"/>
<path d="M592.535 64.0791C590.979 64.0791 589.96 64.7119 589.107 65.8896L589.995 66.54C590.602 65.6348 591.375 65.1074 592.544 65.1074C594.302 65.1074 594.979 65.9863 594.979 67.8408V67.9463H592.447C590.18 67.9463 588.765 68.667 588.765 70.4512C588.765 72.1387 590.013 73.1318 591.797 73.1318C593.106 73.1318 594.328 72.4902 594.987 71.2158L595.066 73H596.033V67.6387C596.033 65.4326 594.785 64.0791 592.535 64.0791ZM592.017 72.1387C590.698 72.1387 589.951 71.4883 589.951 70.4863C589.951 69.4316 590.777 68.8076 592.509 68.8076H594.979V69.7041C594.574 71.1455 593.546 72.1387 592.017 72.1387ZM598.942 73H600.103V67.8057C600.103 66.1006 601.061 65.1602 602.546 65.1602C603.987 65.1602 604.743 66.1094 604.743 67.709V73H605.903V67.4365C605.868 65.5381 604.901 64.0791 602.854 64.0791C601.693 64.0791 600.656 64.6416 600.103 65.7139V64.2197H598.942V73ZM612.021 73.1318C613.427 73.1318 614.648 72.332 615.193 71.0049L615.237 73H616.327V60.5811H615.149V66.1533C614.604 64.8613 613.383 64.0791 612.003 64.0791C609.639 64.0791 608.101 66.1182 608.101 68.5967C608.101 71.1016 609.639 73.1318 612.021 73.1318ZM612.275 72.0771C610.447 72.0771 609.278 70.5566 609.278 68.5967C609.278 66.6543 610.447 65.1426 612.275 65.1426C614.104 65.1426 615.237 66.6367 615.237 68.5967C615.237 70.583 614.104 72.0771 612.275 72.0771ZM627.331 73.1318C628.948 73.1318 630.223 72.2441 630.759 70.7148L629.695 70.3105C629.344 71.4004 628.465 72.0771 627.322 72.0771C625.424 72.0771 624.554 70.4336 624.554 68.623C624.554 66.8389 625.424 65.1426 627.313 65.1426C628.438 65.1426 629.326 65.8281 629.739 66.9268L630.847 66.4961C630.196 64.9141 628.913 64.0791 627.313 64.0791C624.677 64.0791 623.376 66.3203 623.376 68.623C623.376 71.1104 624.809 73.1318 627.331 73.1318ZM635.918 64.0791C634.362 64.0791 633.343 64.7119 632.49 65.8896L633.378 66.54C633.984 65.6348 634.758 65.1074 635.927 65.1074C637.685 65.1074 638.361 65.9863 638.361 67.8408V67.9463H635.83C633.562 67.9463 632.147 68.667 632.147 70.4512C632.147 72.1387 633.396 73.1318 635.18 73.1318C636.489 73.1318 637.711 72.4902 638.37 71.2158L638.449 73H639.416V67.6387C639.416 65.4326 638.168 64.0791 635.918 64.0791ZM635.399 72.1387C634.081 72.1387 633.334 71.4883 633.334 70.4863C633.334 69.4316 634.16 68.8076 635.892 68.8076H638.361V69.7041C637.957 71.1455 636.929 72.1387 635.399 72.1387ZM642.325 73H643.485V67.8057C643.485 66.1006 644.443 65.1602 645.929 65.1602C647.37 65.1602 648.126 66.1094 648.126 67.709V73H649.286V67.4365C649.251 65.5381 648.284 64.0791 646.236 64.0791C645.076 64.0791 644.039 64.6416 643.485 65.7139V64.2197H642.325V73ZM661.178 73.1318C663.533 73.1318 664.896 71.0928 664.896 68.5967C664.896 66.1094 663.533 64.0791 661.16 64.0791C659.763 64.0791 658.576 64.8613 658.022 66.1533V60.5811H656.827V73H658.022V71.0576C658.576 72.3496 659.789 73.1318 661.178 73.1318ZM660.905 72.0508C659.077 72.0508 657.926 70.5742 657.926 68.5967C657.926 66.6367 659.077 65.1426 660.905 65.1426C662.742 65.1426 663.727 66.6543 663.727 68.5967C663.727 70.5479 662.742 72.0508 660.905 72.0508ZM670.74 73.1318C672.155 73.1318 673.148 72.7012 674.133 71.6729L673.324 70.9609C672.533 71.7871 671.804 72.0771 670.749 72.0771C668.982 72.0771 667.963 70.8818 667.875 68.9219H674.344C674.379 68.79 674.405 68.4385 674.405 68.1396C674.405 66.3994 673.465 64.0791 670.6 64.0791C668.042 64.0791 666.645 66.1709 666.645 68.6494C666.645 71.1719 668.095 73.1318 670.74 73.1318ZM667.875 68.0605C668.024 66.3027 668.991 65.0723 670.591 65.0723C672.331 65.0723 673.122 66.3203 673.228 67.5068C673.254 67.6826 673.254 67.876 673.245 68.0605H667.875ZM684.073 73.1318C684.565 73.1318 685.04 73.0439 685.312 72.9561L685.295 71.8926C685.049 71.9893 684.653 72.1035 684.267 72.1035C683.335 72.1035 682.843 71.5938 682.843 70.3545V65.2041H685.304V64.2197H682.843V60.8271L681.7 61.6797V64.2197H680.224V65.2041H681.683V70.5391C681.683 72.2178 682.518 73.1318 684.073 73.1318ZM690.445 73.1318C691.605 73.1318 692.651 72.5781 693.196 71.5059V73H694.348V64.2197H693.196V69.4053C693.196 71.1191 692.229 72.0508 690.753 72.0508C689.312 72.0508 688.556 71.1104 688.556 69.5107V64.2197H687.404V69.7744C687.439 71.6729 688.389 73.1318 690.445 73.1318ZM697.503 73H698.628V68.5176C698.628 66.1357 700.017 65.2129 701.186 65.2129C701.537 65.2129 701.88 65.3008 702.188 65.4678L702.715 64.501C702.337 64.2197 701.836 64.0791 701.344 64.0791C700.298 64.0791 699.076 64.7031 698.637 66.0566V64.2197H697.503V73ZM704.517 73H705.677V67.8057C705.677 66.1006 706.635 65.1602 708.12 65.1602C709.562 65.1602 710.317 66.1094 710.317 67.709V73H711.478V67.4365C711.442 65.5381 710.476 64.0791 708.428 64.0791C707.268 64.0791 706.23 64.6416 705.677 65.7139V64.2197H704.517V73ZM717.779 73.1318C719.194 73.1318 720.188 72.7012 721.172 71.6729L720.363 70.9609C719.572 71.7871 718.843 72.0771 717.788 72.0771C716.021 72.0771 715.002 70.8818 714.914 68.9219H721.383C721.418 68.79 721.444 68.4385 721.444 68.1396C721.444 66.3994 720.504 64.0791 717.639 64.0791C715.081 64.0791 713.684 66.1709 713.684 68.6494C713.684 71.1719 715.134 73.1318 717.779 73.1318ZM714.914 68.0605C715.063 66.3027 716.03 65.0723 717.63 65.0723C719.37 65.0723 720.161 66.3203 720.267 67.5068C720.293 67.6826 720.293 67.876 720.284 68.0605H714.914ZM727.034 73.1318C728.44 73.1318 729.662 72.332 730.207 71.0049L730.251 73H731.341V60.5811H730.163V66.1533C729.618 64.8613 728.396 64.0791 727.017 64.0791C724.652 64.0791 723.114 66.1182 723.114 68.5967C723.114 71.1016 724.652 73.1318 727.034 73.1318ZM727.289 72.0771C725.461 72.0771 724.292 70.5566 724.292 68.5967C724.292 66.6543 725.461 65.1426 727.289 65.1426C729.117 65.1426 730.251 66.6367 730.251 68.5967C730.251 70.583 729.117 72.0771 727.289 72.0771ZM734.426 67.9814H739.172V67.0762H734.426V67.9814ZM745.702 73.1318C748.207 73.1318 749.974 71.1104 749.974 68.5879C749.974 66.083 748.207 64.0791 745.702 64.0791C743.206 64.0791 741.466 66.083 741.466 68.5879C741.466 71.1191 743.206 73.1318 745.702 73.1318ZM745.702 72.1211C743.804 72.1211 742.67 70.5391 742.67 68.5879C742.67 66.6455 743.804 65.0986 745.702 65.0986C747.618 65.0986 748.77 66.6543 748.77 68.5879C748.77 70.5303 747.618 72.1211 745.702 72.1211ZM752.672 73H753.823V65.2041H757.321V73H758.525V65.2041H761.259V64.2197H758.525V62.9629C758.525 61.9521 759.062 61.4863 760.037 61.4863C760.318 61.4863 760.6 61.583 760.898 61.7324L761.285 60.7744C760.863 60.5723 760.415 60.4492 759.932 60.4492C759.185 60.4492 758.569 60.6426 758.112 61.0205C757.471 60.625 756.75 60.4492 755.985 60.4492C754.131 60.4492 752.672 61.583 752.672 63.3936V64.2197H751.143V65.2041H752.672V73ZM753.823 64.2197V63.4111C753.823 62.207 754.632 61.3984 756.038 61.3984C756.636 61.3984 757.154 61.5303 757.603 61.7852C757.427 62.0664 757.33 62.4268 757.33 62.8574V64.2197H753.823ZM770.672 64.0791C769.116 64.0791 768.097 64.7119 767.244 65.8896L768.132 66.54C768.738 65.6348 769.512 65.1074 770.681 65.1074C772.438 65.1074 773.115 65.9863 773.115 67.8408V67.9463H770.584C768.316 67.9463 766.901 68.667 766.901 70.4512C766.901 72.1387 768.149 73.1318 769.934 73.1318C771.243 73.1318 772.465 72.4902 773.124 71.2158L773.203 73H774.17V67.6387C774.17 65.4326 772.922 64.0791 770.672 64.0791ZM770.153 72.1387C768.835 72.1387 768.088 71.4883 768.088 70.4863C768.088 69.4316 768.914 68.8076 770.646 68.8076H773.115V69.7041C772.711 71.1455 771.683 72.1387 770.153 72.1387ZM777.079 73H778.239V67.8057C778.239 66.1006 779.197 65.1602 780.683 65.1602C782.124 65.1602 782.88 66.1094 782.88 67.709V73H784.04V67.4365C784.005 65.5381 783.038 64.0791 780.99 64.0791C779.83 64.0791 778.793 64.6416 778.239 65.7139V64.2197H777.079V73ZM787.846 76.7617H789.111L793.928 64.2197H792.662L789.955 71.5322L786.879 64.2197H785.604L789.34 72.8945L787.846 76.7617ZM803.112 73.1318C803.604 73.1318 804.079 73.0439 804.352 72.9561L804.334 71.8926C804.088 71.9893 803.692 72.1035 803.306 72.1035C802.374 72.1035 801.882 71.5938 801.882 70.3545V65.2041H804.343V64.2197H801.882V60.8271L800.739 61.6797V64.2197H799.263V65.2041H800.722V70.5391C800.722 72.2178 801.557 73.1318 803.112 73.1318ZM806.619 62.3828H807.832V60.5811H806.619V62.3828ZM806.646 73H807.797V64.2197H806.646V73ZM810.961 73H812.121V67.7969C812.121 66.2676 813.044 65.1689 814.512 65.1689C815.953 65.1689 816.577 66.1357 816.577 67.6914V73H817.737V67.7969C817.737 66.2676 818.66 65.1689 820.119 65.1689C821.613 65.1689 822.193 66.1885 822.193 68.0078V73H823.354V67.8672C823.354 65.6172 822.439 64.0791 820.33 64.0791C819.029 64.0791 817.948 64.7383 817.43 66.0215C817.034 64.6768 816.015 64.0791 814.723 64.0791C813.545 64.0791 812.561 64.624 812.077 65.749V64.2197H810.952L810.961 73ZM829.664 73.1318C831.079 73.1318 832.072 72.7012 833.057 71.6729L832.248 70.9609C831.457 71.7871 830.728 72.0771 829.673 72.0771C827.906 72.0771 826.887 70.8818 826.799 68.9219H833.268C833.303 68.79 833.329 68.4385 833.329 68.1396C833.329 66.3994 832.389 64.0791 829.523 64.0791C826.966 64.0791 825.568 66.1709 825.568 68.6494C825.568 71.1719 827.019 73.1318 829.664 73.1318ZM826.799 68.0605C826.948 66.3027 827.915 65.0723 829.515 65.0723C831.255 65.0723 832.046 66.3203 832.151 67.5068C832.178 67.6826 832.178 67.876 832.169 68.0605H826.799Z" fill="#071435"/>
</svg>
