<svg width="355" height="210" viewBox="0 0 355 210" fill="none" xmlns="http://www.w3.org/2000/svg">
<rect width="355" height="210" rx="10" fill="white" fill-opacity="0.8"/>
<rect x="0.5" y="0.5" width="354" height="209" rx="9.5" stroke="black" stroke-opacity="0.1" stroke-linecap="round"/>
<path d="M53.5892 38H55.1012V29.628H58.2652V28.242H50.4392V29.628H53.5892V38ZM59.858 38H61.356V33.688H65.892V38H67.39V28.242H65.892V32.302H61.356V28.242H59.858V38ZM70.1119 38H76.5659V36.614H71.6099V33.688H76.1599V32.302H71.6099V29.628H76.5659V28.242H70.1119V38ZM82.2935 38H85.9475C87.9355 38 89.0975 36.964 89.0975 35.186C89.0975 33.94 88.5235 33.114 87.4455 32.764C88.1735 32.386 88.5935 31.644 88.5935 30.692C88.5935 29.152 87.4595 28.242 85.5555 28.242H82.2935V38ZM83.7915 32.246V29.628H85.5555C86.5355 29.628 87.0955 30.104 87.0955 30.958C87.0955 31.784 86.5635 32.246 85.6255 32.246H83.7915ZM83.7915 36.614V33.604H85.9195C86.9975 33.604 87.5995 34.136 87.5995 35.06C87.5995 36.04 86.9415 36.614 85.8215 36.614H83.7915ZM96.8852 38H98.5232L94.7152 28.242H93.5532L89.7452 38H91.3692L92.1812 35.788H96.0872L96.8852 38ZM92.6712 34.43L94.1412 30.426L95.5972 34.43H92.6712ZM102.714 38.168C104.716 38.168 106.018 37.02 106.018 35.256C106.018 33.884 105.36 33.128 103.246 32.316C101.748 31.742 101.216 31.336 101.216 30.608C101.216 29.936 101.804 29.39 102.616 29.39C103.33 29.39 103.96 29.796 104.324 30.538L105.57 29.768C104.968 28.634 103.946 28.06 102.658 28.06C100.894 28.06 99.7183 29.096 99.7183 30.65C99.7183 32.022 100.432 32.75 102.448 33.52C103.988 34.122 104.52 34.584 104.52 35.382C104.52 36.264 103.862 36.838 102.742 36.838C101.538 36.838 100.712 36.124 100.572 34.934L99.0743 35.298C99.3543 37.034 100.81 38.168 102.714 38.168ZM107.901 38H109.399V28.242H107.901V38ZM116.06 38.182C118.104 38.182 119.63 37.188 120.344 35.34L118.93 34.808C118.468 36.096 117.474 36.754 116.06 36.754C114.086 36.754 112.924 35.438 112.924 33.1C112.924 30.776 114.086 29.474 116.088 29.474C117.488 29.474 118.468 30.104 118.93 31.378L120.316 30.846C119.602 29.012 118.118 28.046 116.088 28.046C113.232 28.046 111.426 29.978 111.426 33.114C111.426 36.236 113.218 38.182 116.06 38.182ZM124.835 38.168C126.837 38.168 128.139 37.02 128.139 35.256C128.139 33.884 127.481 33.128 125.367 32.316C123.869 31.742 123.337 31.336 123.337 30.608C123.337 29.936 123.925 29.39 124.737 29.39C125.451 29.39 126.081 29.796 126.445 30.538L127.691 29.768C127.089 28.634 126.067 28.06 124.779 28.06C123.015 28.06 121.839 29.096 121.839 30.65C121.839 32.022 122.553 32.75 124.569 33.52C126.109 34.122 126.641 34.584 126.641 35.382C126.641 36.264 125.983 36.838 124.863 36.838C123.659 36.838 122.833 36.124 122.693 34.934L121.195 35.298C121.475 37.034 122.931 38.168 124.835 38.168ZM130.121 33.142H131.759V31.406H130.121V33.142ZM130.121 38H131.759V36.278H130.121V38ZM138.184 38H139.682V33.688H144.218V38H145.716V28.242H144.218V32.302H139.682V28.242H138.184V38ZM152.358 38.182C155.088 38.182 156.95 36.166 156.95 33.128C156.95 30.076 155.102 28.06 152.358 28.06C149.614 28.06 147.752 30.076 147.752 33.128C147.752 36.166 149.614 38.182 152.358 38.182ZM152.358 36.754C150.468 36.754 149.25 35.368 149.25 33.128C149.25 30.874 150.468 29.488 152.358 29.488C154.248 29.488 155.452 30.888 155.452 33.128C155.452 35.354 154.248 36.754 152.358 36.754ZM160.499 38H161.969L164.209 31.168L166.449 38H167.919L170.817 28.242H169.249L167.107 35.718L164.853 28.788H163.565L161.325 35.718L159.169 28.242H157.601L160.499 38ZM183.644 28.242L180.9 35.438L178.17 28.242H176.014V38H177.512V30.314L180.172 37.16H181.628L184.302 30.314V38H185.8V28.242H183.644ZM194.502 38H196.14L192.332 28.242H191.17L187.362 38H188.986L189.798 35.788H193.704L194.502 38ZM190.288 34.43L191.758 30.426L193.214 34.43H190.288ZM197.712 38H199.21V28.242H197.712V38ZM201.909 38H207.663V36.614H203.407V28.242H201.909V38ZM220.449 28.242L217.705 35.438L214.975 28.242H212.819V38H214.317V30.314L216.977 37.16H218.433L221.107 30.314V38H222.605V28.242H220.449ZM231.307 38H232.945L229.137 28.242H227.975L224.167 38H225.791L226.603 35.788H230.509L231.307 38ZM227.093 34.43L228.563 30.426L230.019 34.43H227.093ZM237.136 38.168C239.138 38.168 240.44 37.02 240.44 35.256C240.44 33.884 239.782 33.128 237.668 32.316C236.17 31.742 235.638 31.336 235.638 30.608C235.638 29.936 236.226 29.39 237.038 29.39C237.752 29.39 238.382 29.796 238.746 30.538L239.992 29.768C239.39 28.634 238.368 28.06 237.08 28.06C235.316 28.06 234.14 29.096 234.14 30.65C234.14 32.022 234.854 32.75 236.87 33.52C238.41 34.122 238.942 34.584 238.942 35.382C238.942 36.264 238.284 36.838 237.164 36.838C235.96 36.838 235.134 36.124 234.994 34.934L233.496 35.298C233.776 37.034 235.232 38.168 237.136 38.168ZM250.611 38L246.901 31.882L250.485 28.242H248.511L243.821 33.156V28.242H242.323V38H243.821V35.032L245.879 32.932L248.875 38H250.611ZM254.746 38.168C256.748 38.168 258.05 37.02 258.05 35.256C258.05 33.884 257.392 33.128 255.278 32.316C253.78 31.742 253.248 31.336 253.248 30.608C253.248 29.936 253.836 29.39 254.648 29.39C255.362 29.39 255.992 29.796 256.356 30.538L257.602 29.768C257 28.634 255.978 28.06 254.69 28.06C252.926 28.06 251.75 29.096 251.75 30.65C251.75 32.022 252.464 32.75 254.48 33.52C256.02 34.122 256.552 34.584 256.552 35.382C256.552 36.264 255.894 36.838 254.774 36.838C253.57 36.838 252.744 36.124 252.604 34.934L251.106 35.298C251.386 37.034 252.842 38.168 254.746 38.168ZM265.307 38H266.777L269.017 31.168L271.257 38H272.727L275.625 28.242H274.057L271.915 35.718L269.661 28.788H268.373L266.133 35.718L263.977 28.242H262.409L265.307 38ZM280.887 38.182C283.617 38.182 285.479 36.166 285.479 33.128C285.479 30.076 283.631 28.06 280.887 28.06C278.143 28.06 276.281 30.076 276.281 33.128C276.281 36.166 278.143 38.182 280.887 38.182ZM280.887 36.754C278.997 36.754 277.779 35.368 277.779 33.128C277.779 30.874 278.997 29.488 280.887 29.488C282.777 29.488 283.981 30.888 283.981 33.128C283.981 35.354 282.777 36.754 280.887 36.754ZM294.62 38L291.974 33.674C293.192 33.31 293.85 32.4 293.85 31.014C293.85 29.264 292.814 28.242 290.56 28.242H287.508V38H288.992V33.856H289.874H290.49L292.87 38H294.62ZM288.992 32.484V29.628H290.406C291.68 29.628 292.338 30.006 292.338 31.042C292.338 32.078 291.68 32.484 290.406 32.484H288.992ZM304.56 38L300.85 31.882L304.434 28.242H302.46L297.77 33.156V28.242H296.272V38H297.77V35.032L299.828 32.932L302.824 38H304.56Z" fill="#3E898B"/>
<rect x="130" y="63" width="205" height="36" rx="4" fill="#C4C4C4" fill-opacity="0.1"/>
<rect x="130.5" y="63.5" width="204" height="35" rx="3.5" stroke="#071435" stroke-opacity="0.1" stroke-linecap="round"/>
<path d="M137.712 88.476C137.712 88.728 137.604 88.962 137.388 89.178C137.712 89.418 138.042 89.538 138.378 89.538C139.05 89.538 139.53 89.34 139.818 88.944C140.118 88.548 140.268 87.912 140.268 87.036L140.286 81.384C140.286 80.328 140.256 79.68 140.196 79.44C140.136 79.188 139.974 79.062 139.71 79.062C139.578 79.062 139.41 79.086 139.206 79.134C139.098 79.17 138.99 79.188 138.882 79.188C138.498 79.188 138.306 78.996 138.306 78.612C138.306 78.216 138.558 78.018 139.062 78.018C139.242 78.018 139.398 78.024 139.53 78.036C139.914 78.072 140.184 78.09 140.34 78.09C140.436 78.09 140.586 78.078 140.79 78.054C140.994 78.018 141.144 78 141.24 78C141.588 78 141.762 78.192 141.762 78.576C141.762 78.636 141.756 78.756 141.744 78.936C141.732 79.152 141.726 79.326 141.726 79.458C141.714 79.65 141.696 80.082 141.672 80.754C141.648 81.51 141.636 82.092 141.636 82.5V86.568C141.636 87.288 141.606 87.822 141.546 88.17C141.438 88.734 141.222 89.214 140.898 89.61C140.322 90.306 139.518 90.654 138.486 90.654C137.766 90.654 137.166 90.474 136.686 90.114C136.206 89.754 135.966 89.304 135.966 88.764C135.966 88.464 136.056 88.212 136.236 88.008C136.404 87.816 136.62 87.72 136.884 87.72C137.112 87.72 137.31 87.792 137.478 87.936C137.634 88.092 137.712 88.272 137.712 88.476ZM140.736 77.064C140.46 77.064 140.22 76.968 140.016 76.776C139.824 76.572 139.728 76.332 139.728 76.056C139.728 75.78 139.824 75.546 140.016 75.354C140.22 75.162 140.46 75.066 140.736 75.066C141.012 75.066 141.252 75.168 141.456 75.372C141.66 75.564 141.762 75.792 141.762 76.056C141.762 76.332 141.66 76.572 141.456 76.776C141.252 76.968 141.012 77.064 140.736 77.064ZM151.68 87.234C150.696 87.234 150.09 86.808 149.862 85.956C149.25 86.856 148.29 87.306 146.982 87.306C146.01 87.306 145.23 87.066 144.642 86.586C144.066 86.106 143.778 85.464 143.778 84.66C143.778 83.664 144.204 82.932 145.056 82.464C145.38 82.284 145.656 82.17 145.884 82.122C146.124 82.062 146.598 81.99 147.306 81.906C148.314 81.798 148.968 81.648 149.268 81.456C149.58 81.264 149.736 80.91 149.736 80.394C149.736 79.902 149.562 79.518 149.214 79.242C148.878 78.954 148.404 78.81 147.792 78.81C147.252 78.81 146.748 78.96 146.28 79.26C146.1 79.38 146.01 79.506 146.01 79.638C146.01 79.686 146.064 79.746 146.172 79.818C146.34 79.938 146.424 80.142 146.424 80.43C146.424 80.67 146.334 80.868 146.154 81.024C145.986 81.18 145.77 81.258 145.506 81.258C145.194 81.258 144.93 81.15 144.714 80.934C144.51 80.718 144.408 80.454 144.408 80.142C144.408 79.47 144.738 78.894 145.398 78.414C146.07 77.934 146.88 77.694 147.828 77.694C150.012 77.694 151.104 78.744 151.104 80.844V84.48C151.104 85.056 151.116 85.398 151.14 85.506C151.212 85.926 151.416 86.136 151.752 86.136C152.172 86.136 152.382 85.752 152.382 84.984V84.102C152.382 83.718 152.568 83.526 152.94 83.526C153.336 83.526 153.534 83.814 153.534 84.39V84.48L153.516 85.506C153.492 86.658 152.88 87.234 151.68 87.234ZM149.682 83.652L149.7 82.374C149.436 82.614 149.154 82.782 148.854 82.878C148.566 82.974 148.044 83.058 147.288 83.13C145.92 83.262 145.236 83.766 145.236 84.642C145.236 85.098 145.398 85.458 145.722 85.722C146.058 85.986 146.508 86.118 147.072 86.118C147.876 86.118 148.506 85.902 148.962 85.47C149.43 85.026 149.67 84.42 149.682 83.652ZM156.854 78.558V79.062C157.574 78.15 158.534 77.694 159.734 77.694C160.382 77.694 160.994 77.862 161.57 78.198C162.146 78.522 162.536 78.93 162.74 79.422C162.908 79.83 162.992 80.364 162.992 81.024V84.444C162.992 84.96 162.998 85.266 163.01 85.362C163.07 85.77 163.232 85.974 163.496 85.974C163.604 85.974 163.742 85.962 163.91 85.938C164.09 85.902 164.216 85.884 164.288 85.884C164.444 85.884 164.576 85.938 164.684 86.046C164.804 86.154 164.864 86.286 164.864 86.442C164.864 86.622 164.792 86.772 164.648 86.892C164.504 87.012 164.33 87.072 164.126 87.072C163.958 87.072 163.682 87.048 163.298 87C162.914 86.952 162.554 86.928 162.218 86.928C161.906 86.928 161.648 86.94 161.444 86.964C160.844 87.036 160.526 87.072 160.49 87.072C160.01 87.072 159.77 86.862 159.77 86.442C159.77 86.07 159.974 85.884 160.382 85.884C160.478 85.884 160.586 85.896 160.706 85.92C160.934 85.968 161.078 85.992 161.138 85.992C161.426 85.992 161.582 85.662 161.606 85.002L161.642 84.084L161.66 82.986V81.618C161.66 80.982 161.63 80.544 161.57 80.304C161.462 79.848 161.228 79.494 160.868 79.242C160.472 78.966 160.022 78.828 159.518 78.828C158.558 78.828 157.868 79.17 157.448 79.854C157.16 80.322 157.016 81.12 157.016 82.248V84.642C157.016 85.17 157.052 85.53 157.124 85.722C157.196 85.914 157.328 86.01 157.52 86.01C157.616 86.01 157.748 85.986 157.916 85.938C158.084 85.89 158.222 85.866 158.33 85.866C158.702 85.866 158.888 86.07 158.888 86.478C158.888 86.874 158.648 87.072 158.168 87.072C158.072 87.072 157.76 87.036 157.232 86.964C156.968 86.928 156.674 86.91 156.35 86.91C156.098 86.91 155.762 86.934 155.342 86.982C154.814 87.042 154.514 87.072 154.442 87.072C153.938 87.072 153.686 86.868 153.686 86.46C153.686 86.076 153.878 85.884 154.262 85.884C154.322 85.884 154.43 85.902 154.586 85.938C154.754 85.974 154.916 85.992 155.072 85.992C155.432 85.992 155.618 85.644 155.63 84.948L155.666 82.95V80.772L155.63 80.142C155.606 79.734 155.552 79.458 155.468 79.314C155.396 79.158 155.264 79.08 155.072 79.08C154.988 79.08 154.862 79.098 154.694 79.134C154.538 79.158 154.418 79.17 154.334 79.17C153.902 79.17 153.686 78.978 153.686 78.594C153.686 78.198 153.956 78 154.496 78C154.568 78 154.628 78.006 154.676 78.018L155.342 78.09C155.534 78.09 155.702 78.078 155.846 78.054C156.158 78.03 156.32 78.018 156.332 78.018C156.68 78.018 156.854 78.198 156.854 78.558ZM173.733 81.708C173.733 82.164 173.703 82.446 173.643 82.554C173.583 82.65 173.409 82.698 173.121 82.698H167.397C167.241 82.698 167.139 82.722 167.091 82.77C167.043 82.806 167.019 82.872 167.019 82.968C167.019 83.868 167.289 84.618 167.829 85.218C168.369 85.818 169.041 86.118 169.845 86.118C170.373 86.118 170.853 85.974 171.285 85.686C171.729 85.398 172.017 85.032 172.149 84.588L172.311 84.066C172.395 83.778 172.593 83.634 172.905 83.634C173.349 83.634 173.571 83.862 173.571 84.318C173.571 85.098 173.175 85.794 172.383 86.406C171.591 87.006 170.691 87.306 169.683 87.306C168.423 87.306 167.421 86.886 166.677 86.046C165.933 85.194 165.561 84.054 165.561 82.626C165.561 81.162 165.957 79.974 166.749 79.062C167.541 78.15 168.573 77.694 169.845 77.694C170.973 77.694 171.903 78.072 172.635 78.828C173.367 79.584 173.733 80.544 173.733 81.708ZM167.199 81.24C167.199 81.408 167.331 81.492 167.595 81.492H171.897C172.149 81.492 172.275 81.408 172.275 81.24C172.275 80.604 172.035 80.052 171.555 79.584C171.075 79.116 170.511 78.882 169.863 78.882C169.191 78.882 168.579 79.128 168.027 79.62C167.475 80.1 167.199 80.64 167.199 81.24ZM181.515 83.382C181.515 83.286 181.521 83.202 181.533 83.13C181.077 83.838 180.375 84.192 179.427 84.192C178.851 84.192 178.383 84 178.023 83.616C177.675 83.22 177.501 82.71 177.501 82.086C177.501 80.994 177.897 80.034 178.689 79.206C179.481 78.366 180.399 77.946 181.443 77.946C181.683 77.946 181.947 77.982 182.235 78.054L182.595 78.144C182.643 78.168 182.703 78.18 182.775 78.18C182.835 78.18 182.937 78.15 183.081 78.09C183.273 78.006 183.411 77.964 183.495 77.964C183.675 77.964 183.765 78.042 183.765 78.198C183.765 78.234 183.753 78.3 183.729 78.396L183.639 78.738L182.613 82.572C182.577 82.716 182.559 82.83 182.559 82.914C182.559 83.13 182.673 83.238 182.901 83.238C183.345 83.238 183.759 82.95 184.143 82.374C184.683 81.57 184.953 80.64 184.953 79.584C184.953 78.588 184.623 77.76 183.963 77.1C183.315 76.44 182.493 76.11 181.497 76.11C180.093 76.11 178.869 76.674 177.825 77.802C176.793 78.918 176.277 80.232 176.277 81.744C176.277 82.92 176.655 83.904 177.411 84.696C178.167 85.476 179.115 85.866 180.255 85.866C180.927 85.866 181.479 85.788 181.911 85.632C182.355 85.464 182.907 85.14 183.567 84.66C183.807 84.48 184.005 84.39 184.161 84.39C184.389 84.39 184.503 84.498 184.503 84.714C184.503 84.942 184.347 85.176 184.035 85.416C182.847 86.352 181.539 86.82 180.111 86.82C178.659 86.82 177.447 86.34 176.475 85.38C175.515 84.408 175.035 83.196 175.035 81.744C175.035 79.992 175.683 78.468 176.979 77.172C178.287 75.864 179.829 75.21 181.605 75.21C182.949 75.21 184.041 75.606 184.881 76.398C185.733 77.19 186.159 78.222 186.159 79.494C186.159 80.922 185.637 82.17 184.593 83.238C183.957 83.886 183.291 84.21 182.595 84.21C182.283 84.21 182.025 84.132 181.821 83.976C181.617 83.82 181.515 83.622 181.515 83.382ZM181.893 80.934L182.379 79.134C182.019 78.954 181.671 78.864 181.335 78.864C180.639 78.864 180.027 79.17 179.499 79.782C178.983 80.394 178.725 81.108 178.725 81.924C178.725 82.752 179.085 83.166 179.805 83.166C180.801 83.166 181.497 82.422 181.893 80.934ZM190.234 78.54V79.062C190.666 78.546 191.074 78.192 191.458 78C191.842 77.796 192.322 77.694 192.898 77.694C194.074 77.694 194.938 78.15 195.49 79.062C195.898 78.558 196.312 78.204 196.732 78C197.152 77.796 197.692 77.694 198.352 77.694C199.036 77.694 199.648 77.838 200.188 78.126C200.788 78.45 201.202 78.906 201.43 79.494C201.586 79.89 201.664 80.514 201.664 81.366V83.112L201.646 84.462C201.646 84.954 201.652 85.254 201.664 85.362C201.724 85.794 201.88 86.01 202.132 86.01C202.216 86.01 202.342 85.992 202.51 85.956C202.678 85.92 202.804 85.902 202.888 85.902C203.308 85.902 203.518 86.082 203.518 86.442C203.518 86.862 203.278 87.072 202.798 87.072C202.618 87.072 202.342 87.048 201.97 87C201.61 86.964 201.334 86.946 201.142 86.946C200.938 86.946 200.638 86.964 200.242 87C199.858 87.048 199.564 87.072 199.36 87.072C198.856 87.072 198.604 86.862 198.604 86.442C198.604 86.082 198.796 85.902 199.18 85.902C199.228 85.902 199.348 85.914 199.54 85.938C199.612 85.962 199.708 85.974 199.828 85.974C200.032 85.974 200.158 85.872 200.206 85.668C200.266 85.464 200.302 84.954 200.314 84.138L200.332 83.04V81.852C200.332 81.024 200.266 80.424 200.134 80.052C200.014 79.668 199.78 79.368 199.432 79.152C199.084 78.936 198.688 78.828 198.244 78.828C197.392 78.828 196.798 79.122 196.462 79.71C196.198 80.178 196.066 80.994 196.066 82.158V83.436C196.066 84.564 196.09 85.272 196.138 85.56C196.198 85.836 196.342 85.974 196.57 85.974C196.642 85.974 196.744 85.962 196.876 85.938C197.02 85.902 197.128 85.884 197.2 85.884C197.368 85.884 197.506 85.944 197.614 86.064C197.734 86.172 197.794 86.31 197.794 86.478C197.794 86.874 197.512 87.072 196.948 87.072C196.768 87.072 196.498 87.048 196.138 87C195.79 86.952 195.526 86.928 195.346 86.928C195.094 86.928 194.818 86.952 194.518 87C194.218 87.048 193.954 87.072 193.726 87.072C193.234 87.072 192.988 86.868 192.988 86.46C192.988 86.088 193.168 85.902 193.528 85.902C193.66 85.902 193.762 85.914 193.834 85.938C194.002 85.974 194.128 85.992 194.212 85.992C194.5 85.992 194.65 85.686 194.662 85.074L194.68 84.228C194.692 83.964 194.698 83.706 194.698 83.454C194.71 83.238 194.716 83.124 194.716 83.112V81.618C194.716 80.574 194.572 79.848 194.284 79.44C194.008 79.032 193.51 78.828 192.79 78.828C191.998 78.828 191.392 79.116 190.972 79.692C190.624 80.16 190.45 80.976 190.45 82.14V84.534C190.45 85.014 190.456 85.296 190.468 85.38C190.516 85.788 190.648 85.992 190.864 85.992C190.924 85.992 191.05 85.968 191.242 85.92C191.266 85.92 191.302 85.914 191.35 85.902C191.398 85.902 191.44 85.902 191.476 85.902C191.944 85.902 192.178 86.1 192.178 86.496C192.178 86.88 191.908 87.072 191.368 87.072C191.164 87.072 190.912 87.054 190.612 87.018C190.204 86.97 189.856 86.946 189.568 86.946C189.424 86.946 189.16 86.964 188.776 87C188.26 87.048 187.948 87.072 187.84 87.072C187.36 87.072 187.12 86.868 187.12 86.46C187.12 86.088 187.348 85.902 187.804 85.902C187.828 85.902 187.864 85.902 187.912 85.902C187.96 85.914 187.996 85.92 188.02 85.92L188.47 86.01C188.482 86.022 188.506 86.028 188.542 86.028C188.866 86.028 189.04 85.734 189.064 85.146L189.1 84.12V81.366C189.1 80.346 189.07 79.71 189.01 79.458C188.962 79.206 188.818 79.08 188.578 79.08C188.53 79.08 188.362 79.11 188.074 79.17C187.954 79.194 187.858 79.206 187.786 79.206C187.342 79.206 187.12 79.014 187.12 78.63C187.12 78.222 187.366 78.018 187.858 78.018C187.99 78.018 188.17 78.03 188.398 78.054C188.626 78.078 188.824 78.09 188.992 78.09C189.052 78.09 189.118 78.084 189.19 78.072C189.262 78.072 189.304 78.072 189.316 78.072L189.748 78.018H189.802C190.09 78.018 190.234 78.192 190.234 78.54ZM211.973 87.234C210.989 87.234 210.383 86.808 210.155 85.956C209.543 86.856 208.583 87.306 207.275 87.306C206.303 87.306 205.523 87.066 204.935 86.586C204.359 86.106 204.071 85.464 204.071 84.66C204.071 83.664 204.497 82.932 205.349 82.464C205.673 82.284 205.949 82.17 206.177 82.122C206.417 82.062 206.891 81.99 207.599 81.906C208.607 81.798 209.261 81.648 209.561 81.456C209.873 81.264 210.029 80.91 210.029 80.394C210.029 79.902 209.855 79.518 209.507 79.242C209.171 78.954 208.697 78.81 208.085 78.81C207.545 78.81 207.041 78.96 206.573 79.26C206.393 79.38 206.303 79.506 206.303 79.638C206.303 79.686 206.357 79.746 206.465 79.818C206.633 79.938 206.717 80.142 206.717 80.43C206.717 80.67 206.627 80.868 206.447 81.024C206.279 81.18 206.063 81.258 205.799 81.258C205.487 81.258 205.223 81.15 205.007 80.934C204.803 80.718 204.701 80.454 204.701 80.142C204.701 79.47 205.031 78.894 205.691 78.414C206.363 77.934 207.173 77.694 208.121 77.694C210.305 77.694 211.397 78.744 211.397 80.844V84.48C211.397 85.056 211.409 85.398 211.433 85.506C211.505 85.926 211.709 86.136 212.045 86.136C212.465 86.136 212.675 85.752 212.675 84.984V84.102C212.675 83.718 212.861 83.526 213.233 83.526C213.629 83.526 213.827 83.814 213.827 84.39V84.48L213.809 85.506C213.785 86.658 213.173 87.234 211.973 87.234ZM209.975 83.652L209.993 82.374C209.729 82.614 209.447 82.782 209.147 82.878C208.859 82.974 208.337 83.058 207.581 83.13C206.213 83.262 205.529 83.766 205.529 84.642C205.529 85.098 205.691 85.458 206.015 85.722C206.351 85.986 206.801 86.118 207.365 86.118C208.169 86.118 208.799 85.902 209.255 85.47C209.723 85.026 209.963 84.42 209.975 83.652ZM217.309 81.78V84.12C217.309 84.72 217.315 85.074 217.327 85.182C217.387 85.722 217.549 85.992 217.813 85.992C217.873 85.992 218.023 85.962 218.263 85.902C218.323 85.878 218.413 85.866 218.533 85.866C218.989 85.866 219.217 86.064 219.217 86.46C219.217 86.628 219.139 86.772 218.983 86.892C218.839 87.012 218.653 87.072 218.425 87.072C218.233 87.072 217.939 87.048 217.543 87C217.159 86.94 216.871 86.91 216.679 86.91C216.367 86.91 216.019 86.934 215.635 86.982C215.167 87.042 214.855 87.072 214.699 87.072C214.219 87.072 213.979 86.868 213.979 86.46C213.979 86.064 214.183 85.866 214.591 85.866C214.687 85.866 214.825 85.884 215.005 85.92C215.197 85.956 215.341 85.974 215.437 85.974C215.725 85.974 215.899 85.59 215.959 84.822C215.959 84.774 215.959 84.252 215.959 83.256V81.78C215.959 80.784 215.959 80.262 215.959 80.214C215.899 79.458 215.719 79.08 215.419 79.08C215.323 79.08 215.185 79.104 215.005 79.152C214.837 79.188 214.711 79.206 214.627 79.206C214.195 79.206 213.979 79.014 213.979 78.63C213.979 78.222 214.243 78.018 214.771 78.018C214.999 78.018 215.161 78.024 215.257 78.036C215.641 78.084 215.887 78.108 215.995 78.108C216.091 78.108 216.235 78.096 216.427 78.072C216.631 78.036 216.781 78.018 216.877 78.018C217.225 78.018 217.399 78.252 217.399 78.72C217.399 78.768 217.393 78.84 217.381 78.936C217.369 79.032 217.363 79.104 217.363 79.152C217.351 79.248 217.339 79.62 217.327 80.268C217.315 80.76 217.309 81.264 217.309 81.78ZM216.373 77.064C216.097 77.064 215.857 76.968 215.653 76.776C215.461 76.572 215.365 76.332 215.365 76.056C215.365 75.78 215.461 75.546 215.653 75.354C215.857 75.162 216.097 75.066 216.373 75.066C216.649 75.066 216.883 75.162 217.075 75.354C217.279 75.546 217.381 75.78 217.381 76.056C217.381 76.332 217.279 76.572 217.075 76.776C216.883 76.968 216.649 77.064 216.373 77.064ZM222.774 79.476L222.792 85.074C222.804 85.686 222.966 85.992 223.278 85.992C223.35 85.992 223.5 85.962 223.728 85.902C223.872 85.878 223.968 85.866 224.016 85.866C224.412 85.866 224.61 86.07 224.61 86.478C224.61 86.874 224.364 87.072 223.872 87.072C223.68 87.072 223.374 87.048 222.954 87C222.534 86.952 222.21 86.928 221.982 86.928C221.79 86.928 221.502 86.952 221.118 87C220.734 87.048 220.452 87.072 220.272 87.072H220.182C219.678 87.072 219.426 86.856 219.426 86.424C219.426 86.052 219.63 85.866 220.038 85.866C220.062 85.866 220.104 85.866 220.164 85.866C220.236 85.878 220.29 85.884 220.326 85.884C220.626 85.932 220.8 85.956 220.848 85.956C221.064 85.956 221.196 85.866 221.244 85.686C221.304 85.494 221.34 85.008 221.352 84.228L221.37 82.968L221.424 80.178L221.406 76.974C221.394 76.614 221.376 76.374 221.352 76.254C221.268 75.978 221.1 75.84 220.848 75.84C220.812 75.84 220.656 75.864 220.38 75.912C220.248 75.936 220.14 75.948 220.056 75.948C219.648 75.948 219.444 75.756 219.444 75.372C219.444 74.976 219.684 74.778 220.164 74.778C220.296 74.778 220.41 74.784 220.506 74.796L220.938 74.85C221.13 74.874 221.292 74.886 221.424 74.886C221.544 74.886 221.724 74.868 221.964 74.832C222.204 74.784 222.384 74.76 222.504 74.76C222.78 74.76 222.918 74.934 222.918 75.282C222.918 75.402 222.912 75.492 222.9 75.552C222.816 76.476 222.774 77.784 222.774 79.476ZM228.22 78.54V79.062C228.652 78.546 229.06 78.192 229.444 78C229.828 77.796 230.308 77.694 230.884 77.694C232.06 77.694 232.924 78.15 233.476 79.062C233.884 78.558 234.298 78.204 234.718 78C235.138 77.796 235.678 77.694 236.338 77.694C237.022 77.694 237.634 77.838 238.174 78.126C238.774 78.45 239.188 78.906 239.416 79.494C239.572 79.89 239.65 80.514 239.65 81.366V83.112L239.632 84.462C239.632 84.954 239.638 85.254 239.65 85.362C239.71 85.794 239.866 86.01 240.118 86.01C240.202 86.01 240.328 85.992 240.496 85.956C240.664 85.92 240.79 85.902 240.874 85.902C241.294 85.902 241.504 86.082 241.504 86.442C241.504 86.862 241.264 87.072 240.784 87.072C240.604 87.072 240.328 87.048 239.956 87C239.596 86.964 239.32 86.946 239.128 86.946C238.924 86.946 238.624 86.964 238.228 87C237.844 87.048 237.55 87.072 237.346 87.072C236.842 87.072 236.59 86.862 236.59 86.442C236.59 86.082 236.782 85.902 237.166 85.902C237.214 85.902 237.334 85.914 237.526 85.938C237.598 85.962 237.694 85.974 237.814 85.974C238.018 85.974 238.144 85.872 238.192 85.668C238.252 85.464 238.288 84.954 238.3 84.138L238.318 83.04V81.852C238.318 81.024 238.252 80.424 238.12 80.052C238 79.668 237.766 79.368 237.418 79.152C237.07 78.936 236.674 78.828 236.23 78.828C235.378 78.828 234.784 79.122 234.448 79.71C234.184 80.178 234.052 80.994 234.052 82.158V83.436C234.052 84.564 234.076 85.272 234.124 85.56C234.184 85.836 234.328 85.974 234.556 85.974C234.628 85.974 234.73 85.962 234.862 85.938C235.006 85.902 235.114 85.884 235.186 85.884C235.354 85.884 235.492 85.944 235.6 86.064C235.72 86.172 235.78 86.31 235.78 86.478C235.78 86.874 235.498 87.072 234.934 87.072C234.754 87.072 234.484 87.048 234.124 87C233.776 86.952 233.512 86.928 233.332 86.928C233.08 86.928 232.804 86.952 232.504 87C232.204 87.048 231.94 87.072 231.712 87.072C231.22 87.072 230.974 86.868 230.974 86.46C230.974 86.088 231.154 85.902 231.514 85.902C231.646 85.902 231.748 85.914 231.82 85.938C231.988 85.974 232.114 85.992 232.198 85.992C232.486 85.992 232.636 85.686 232.648 85.074L232.666 84.228C232.678 83.964 232.684 83.706 232.684 83.454C232.696 83.238 232.702 83.124 232.702 83.112V81.618C232.702 80.574 232.558 79.848 232.27 79.44C231.994 79.032 231.496 78.828 230.776 78.828C229.984 78.828 229.378 79.116 228.958 79.692C228.61 80.16 228.436 80.976 228.436 82.14V84.534C228.436 85.014 228.442 85.296 228.454 85.38C228.502 85.788 228.634 85.992 228.85 85.992C228.91 85.992 229.036 85.968 229.228 85.92C229.252 85.92 229.288 85.914 229.336 85.902C229.384 85.902 229.426 85.902 229.462 85.902C229.93 85.902 230.164 86.1 230.164 86.496C230.164 86.88 229.894 87.072 229.354 87.072C229.15 87.072 228.898 87.054 228.598 87.018C228.19 86.97 227.842 86.946 227.554 86.946C227.41 86.946 227.146 86.964 226.762 87C226.246 87.048 225.934 87.072 225.826 87.072C225.346 87.072 225.106 86.868 225.106 86.46C225.106 86.088 225.334 85.902 225.79 85.902C225.814 85.902 225.85 85.902 225.898 85.902C225.946 85.914 225.982 85.92 226.006 85.92L226.456 86.01C226.468 86.022 226.492 86.028 226.528 86.028C226.852 86.028 227.026 85.734 227.05 85.146L227.086 84.12V81.366C227.086 80.346 227.056 79.71 226.996 79.458C226.948 79.206 226.804 79.08 226.564 79.08C226.516 79.08 226.348 79.11 226.06 79.17C225.94 79.194 225.844 79.206 225.772 79.206C225.328 79.206 225.106 79.014 225.106 78.63C225.106 78.222 225.352 78.018 225.844 78.018C225.976 78.018 226.156 78.03 226.384 78.054C226.612 78.078 226.81 78.09 226.978 78.09C227.038 78.09 227.104 78.084 227.176 78.072C227.248 78.072 227.29 78.072 227.302 78.072L227.734 78.018H227.788C228.076 78.018 228.22 78.192 228.22 78.54ZM249.96 87.234C248.976 87.234 248.37 86.808 248.142 85.956C247.53 86.856 246.57 87.306 245.262 87.306C244.29 87.306 243.51 87.066 242.922 86.586C242.346 86.106 242.058 85.464 242.058 84.66C242.058 83.664 242.484 82.932 243.336 82.464C243.66 82.284 243.936 82.17 244.164 82.122C244.404 82.062 244.878 81.99 245.586 81.906C246.594 81.798 247.248 81.648 247.548 81.456C247.86 81.264 248.016 80.91 248.016 80.394C248.016 79.902 247.842 79.518 247.494 79.242C247.158 78.954 246.684 78.81 246.072 78.81C245.532 78.81 245.028 78.96 244.56 79.26C244.38 79.38 244.29 79.506 244.29 79.638C244.29 79.686 244.344 79.746 244.452 79.818C244.62 79.938 244.704 80.142 244.704 80.43C244.704 80.67 244.614 80.868 244.434 81.024C244.266 81.18 244.05 81.258 243.786 81.258C243.474 81.258 243.21 81.15 242.994 80.934C242.79 80.718 242.688 80.454 242.688 80.142C242.688 79.47 243.018 78.894 243.678 78.414C244.35 77.934 245.16 77.694 246.108 77.694C248.292 77.694 249.384 78.744 249.384 80.844V84.48C249.384 85.056 249.396 85.398 249.42 85.506C249.492 85.926 249.696 86.136 250.032 86.136C250.452 86.136 250.662 85.752 250.662 84.984V84.102C250.662 83.718 250.848 83.526 251.22 83.526C251.616 83.526 251.814 83.814 251.814 84.39V84.48L251.796 85.506C251.772 86.658 251.16 87.234 249.96 87.234ZM247.962 83.652L247.98 82.374C247.716 82.614 247.434 82.782 247.134 82.878C246.846 82.974 246.324 83.058 245.568 83.13C244.2 83.262 243.516 83.766 243.516 84.642C243.516 85.098 243.678 85.458 244.002 85.722C244.338 85.986 244.788 86.118 245.352 86.118C246.156 86.118 246.786 85.902 247.242 85.47C247.71 85.026 247.95 84.42 247.962 83.652ZM256.178 77.694C256.982 77.694 257.654 77.904 258.194 78.324V78.252C258.194 77.808 258.386 77.586 258.77 77.586C259.166 77.586 259.364 77.778 259.364 78.162C259.364 78.234 259.352 78.414 259.328 78.702C259.28 78.942 259.256 79.182 259.256 79.422C259.256 79.566 259.274 79.776 259.31 80.052C259.358 80.328 259.382 80.538 259.382 80.682C259.382 81.138 259.184 81.366 258.788 81.366C258.404 81.366 258.206 81.174 258.194 80.79L258.176 80.196C258.164 79.836 257.954 79.53 257.546 79.278C257.15 79.014 256.682 78.882 256.142 78.882C255.59 78.882 255.128 79.026 254.756 79.314C254.384 79.59 254.198 79.938 254.198 80.358C254.198 81.126 254.726 81.582 255.782 81.726L256.826 81.87C258.866 82.146 259.886 82.992 259.886 84.408C259.886 85.272 259.556 85.974 258.896 86.514C258.236 87.042 257.372 87.306 256.304 87.306C255.308 87.306 254.444 87.024 253.712 86.46C253.724 86.58 253.73 86.694 253.73 86.802C253.73 87.234 253.526 87.45 253.118 87.45C252.674 87.45 252.452 87.204 252.452 86.712C252.452 86.796 252.488 86.484 252.56 85.776C252.584 85.608 252.596 85.44 252.596 85.272C252.596 84.984 252.572 84.714 252.524 84.462C252.476 84.21 252.452 84.012 252.452 83.868C252.452 83.448 252.644 83.238 253.028 83.238C253.28 83.238 253.436 83.298 253.496 83.418C253.568 83.538 253.61 83.856 253.622 84.372C253.634 84.888 253.904 85.308 254.432 85.632C254.96 85.956 255.632 86.118 256.448 86.118C257.036 86.118 257.522 85.968 257.906 85.668C258.29 85.368 258.482 84.99 258.482 84.534C258.482 83.718 257.834 83.244 256.538 83.112C255.302 82.98 254.36 82.74 253.712 82.392C253.064 82.032 252.74 81.408 252.74 80.52C252.74 79.68 253.058 79.002 253.694 78.486C254.33 77.958 255.158 77.694 256.178 77.694ZM264.047 82.446L267.125 79.566C267.233 79.47 267.287 79.362 267.287 79.242C267.287 79.122 267.209 79.062 267.053 79.062C266.933 79.062 266.759 79.086 266.531 79.134C266.303 79.182 266.129 79.206 266.009 79.206C265.589 79.206 265.379 79.014 265.379 78.63C265.379 78.21 265.643 78 266.171 78C266.303 78 266.471 78.012 266.675 78.036C267.503 78.132 268.133 78.18 268.565 78.18C268.805 78.18 269.009 78.168 269.177 78.144L269.915 78.036C270.083 78.012 270.221 78 270.329 78C270.917 78 271.211 78.204 271.211 78.612C271.211 78.996 271.007 79.188 270.599 79.188C270.503 79.188 270.365 79.176 270.185 79.152C270.017 79.128 269.885 79.116 269.789 79.116C269.489 79.116 269.177 79.266 268.853 79.566L266.963 81.294C266.831 81.414 266.765 81.51 266.765 81.582C266.765 81.642 266.813 81.732 266.909 81.852L269.213 84.84C269.801 85.596 270.221 85.974 270.473 85.974C270.533 85.974 270.629 85.962 270.761 85.938C270.905 85.902 271.019 85.884 271.103 85.884C271.535 85.884 271.751 86.076 271.751 86.46C271.751 86.868 271.475 87.072 270.923 87.072C270.707 87.072 270.383 87.048 269.951 87C269.531 86.952 269.213 86.928 268.997 86.928C268.805 86.928 268.523 86.952 268.151 87C267.791 87.048 267.521 87.072 267.341 87.072C266.885 87.072 266.657 86.868 266.657 86.46C266.657 86.076 266.873 85.884 267.305 85.884C267.425 85.884 267.521 85.89 267.593 85.902C267.809 85.962 267.947 85.992 268.007 85.992C268.115 85.992 268.169 85.95 268.169 85.866C268.169 85.854 268.169 85.836 268.169 85.812C268.157 85.8 268.151 85.788 268.151 85.776L267.971 85.524L267.737 85.182L265.937 82.788C265.817 82.632 265.721 82.554 265.649 82.554C265.601 82.554 265.511 82.614 265.379 82.734L264.047 83.922V84.336C264.047 84.912 264.053 85.236 264.065 85.308C264.125 85.728 264.293 85.938 264.569 85.938C264.689 85.938 264.791 85.932 264.875 85.92C264.959 85.896 265.073 85.884 265.217 85.884C265.625 85.884 265.829 86.082 265.829 86.478C265.829 86.874 265.601 87.072 265.145 87.072C264.941 87.072 264.629 87.048 264.209 87C263.801 86.94 263.489 86.91 263.273 86.91C262.997 86.91 262.679 86.934 262.319 86.982C261.863 87.042 261.557 87.072 261.401 87.072C260.933 87.072 260.699 86.874 260.699 86.478C260.699 86.082 260.927 85.884 261.383 85.884C261.479 85.884 261.593 85.896 261.725 85.92C261.917 85.956 262.049 85.974 262.121 85.974C262.409 85.974 262.571 85.746 262.607 85.29L262.661 84.588V77.316C262.637 76.668 262.595 76.26 262.535 76.092C262.475 75.912 262.349 75.822 262.157 75.822C262.097 75.822 261.983 75.834 261.815 75.858C261.647 75.918 261.479 75.948 261.311 75.948C260.915 75.948 260.717 75.762 260.717 75.39C260.717 74.982 260.951 74.778 261.419 74.778C261.659 74.778 261.827 74.784 261.923 74.796C262.223 74.832 262.421 74.85 262.517 74.85C262.613 74.85 262.751 74.838 262.931 74.814C263.123 74.778 263.261 74.76 263.345 74.76H263.471C263.855 74.76 264.047 75.006 264.047 75.498V82.446ZM280.274 81.708C280.274 82.164 280.244 82.446 280.184 82.554C280.124 82.65 279.95 82.698 279.662 82.698H273.938C273.782 82.698 273.68 82.722 273.632 82.77C273.584 82.806 273.56 82.872 273.56 82.968C273.56 83.868 273.83 84.618 274.37 85.218C274.91 85.818 275.582 86.118 276.386 86.118C276.914 86.118 277.394 85.974 277.826 85.686C278.27 85.398 278.558 85.032 278.69 84.588L278.852 84.066C278.936 83.778 279.134 83.634 279.446 83.634C279.89 83.634 280.112 83.862 280.112 84.318C280.112 85.098 279.716 85.794 278.924 86.406C278.132 87.006 277.232 87.306 276.224 87.306C274.964 87.306 273.962 86.886 273.218 86.046C272.474 85.194 272.102 84.054 272.102 82.626C272.102 81.162 272.498 79.974 273.29 79.062C274.082 78.15 275.114 77.694 276.386 77.694C277.514 77.694 278.444 78.072 279.176 78.828C279.908 79.584 280.274 80.544 280.274 81.708ZM273.74 81.24C273.74 81.408 273.872 81.492 274.136 81.492H278.438C278.69 81.492 278.816 81.408 278.816 81.24C278.816 80.604 278.576 80.052 278.096 79.584C277.616 79.116 277.052 78.882 276.404 78.882C275.732 78.882 275.12 79.128 274.568 79.62C274.016 80.1 273.74 80.64 273.74 81.24ZM284.33 78.522V79.008C284.954 78.132 285.788 77.694 286.832 77.694C287.672 77.694 288.35 77.934 288.866 78.414C289.394 78.882 289.658 79.488 289.658 80.232C289.658 80.76 289.526 81.192 289.262 81.528C288.998 81.852 288.65 82.014 288.218 82.014C287.942 82.014 287.708 81.93 287.516 81.762C287.324 81.594 287.228 81.39 287.228 81.15C287.228 80.958 287.3 80.79 287.444 80.646C287.588 80.49 287.756 80.412 287.948 80.412C287.984 80.412 288.062 80.43 288.182 80.466C288.254 80.322 288.29 80.19 288.29 80.07C288.29 79.722 288.134 79.428 287.822 79.188C287.522 78.948 287.144 78.828 286.688 78.828C285.752 78.828 285.128 79.248 284.816 80.088C284.624 80.604 284.528 81.384 284.528 82.428V83.616C284.528 84.42 284.534 84.87 284.546 84.966C284.606 85.65 284.792 85.992 285.104 85.992C285.26 85.992 285.422 85.968 285.59 85.92C285.722 85.884 285.836 85.866 285.932 85.866C286.316 85.866 286.508 86.058 286.508 86.442C286.508 86.862 286.262 87.072 285.77 87.072H285.698C285.518 87.072 285.242 87.048 284.87 87C284.51 86.964 284.24 86.946 284.06 86.946C283.58 86.946 283.202 86.958 282.926 86.982L281.918 87.072C281.426 87.072 281.18 86.862 281.18 86.442C281.18 86.07 281.408 85.884 281.864 85.884C281.984 85.884 282.074 85.89 282.134 85.902L282.404 85.956C282.524 85.98 282.608 85.992 282.656 85.992C282.956 85.992 283.118 85.716 283.142 85.164L283.178 84.246L283.124 80.16C283.088 79.452 282.908 79.098 282.584 79.098C282.488 79.098 282.356 79.116 282.188 79.152C282.02 79.188 281.888 79.206 281.792 79.206C281.396 79.206 281.198 79.014 281.198 78.63C281.198 78.21 281.456 78 281.972 78C282.092 78 282.272 78.018 282.512 78.054C282.752 78.078 282.932 78.09 283.052 78.09C283.148 78.09 283.304 78.078 283.52 78.054C283.616 78.03 283.73 78.018 283.862 78.018C284.174 78.018 284.33 78.186 284.33 78.522ZM290.548 87.306C290.236 87.306 289.972 87.198 289.756 86.982C289.54 86.754 289.432 86.484 289.432 86.172C289.432 85.86 289.54 85.596 289.756 85.38C289.972 85.152 290.236 85.038 290.548 85.038C290.86 85.038 291.124 85.152 291.34 85.38C291.556 85.596 291.664 85.86 291.664 86.172C291.664 86.484 291.556 86.754 291.34 86.982C291.124 87.198 290.86 87.306 290.548 87.306ZM298.961 81.06C298.961 80.58 299.261 80.304 299.861 80.232C299.801 79.812 299.597 79.482 299.249 79.242C298.913 79.002 298.475 78.882 297.935 78.882C297.107 78.882 296.441 79.212 295.937 79.872C295.433 80.532 295.181 81.408 295.181 82.5C295.181 83.628 295.415 84.516 295.883 85.164C296.363 85.8 297.023 86.118 297.863 86.118C298.391 86.118 298.847 85.968 299.231 85.668C299.627 85.368 299.897 84.954 300.041 84.426C300.161 84.006 300.233 83.766 300.257 83.706C300.389 83.466 300.581 83.346 300.833 83.346C301.037 83.346 301.205 83.412 301.337 83.544C301.469 83.676 301.535 83.844 301.535 84.048C301.535 84.348 301.439 84.708 301.247 85.128C301.055 85.548 300.827 85.896 300.563 86.172C299.855 86.928 298.937 87.306 297.809 87.306C296.585 87.306 295.595 86.874 294.839 86.01C294.095 85.146 293.723 84.012 293.723 82.608C293.723 81.12 294.107 79.932 294.875 79.044C295.655 78.144 296.687 77.694 297.971 77.694C298.931 77.694 299.729 77.958 300.365 78.486C301.001 79.002 301.319 79.662 301.319 80.466C301.319 80.91 301.193 81.276 300.941 81.564C300.701 81.852 300.389 81.996 300.005 81.996C299.705 81.996 299.453 81.906 299.249 81.726C299.057 81.546 298.961 81.324 298.961 81.06ZM307.039 87.306C305.779 87.306 304.771 86.874 304.015 86.01C303.259 85.134 302.881 83.964 302.881 82.5C302.881 81.036 303.259 79.872 304.015 79.008C304.783 78.132 305.809 77.694 307.093 77.694C308.401 77.694 309.433 78.12 310.189 78.972C310.945 79.824 311.323 80.982 311.323 82.446C311.323 83.91 310.933 85.086 310.153 85.974C309.373 86.862 308.335 87.306 307.039 87.306ZM307.129 78.882C306.289 78.882 305.629 79.176 305.149 79.764C304.669 80.352 304.405 81.186 304.357 82.266C304.357 82.266 304.357 82.344 304.357 82.5C304.357 83.628 304.591 84.516 305.059 85.164C305.539 85.8 306.205 86.118 307.057 86.118C307.933 86.118 308.617 85.8 309.109 85.164C309.613 84.516 309.865 83.622 309.865 82.482C309.865 80.082 308.953 78.882 307.129 78.882ZM315.425 78.54V79.062C315.857 78.546 316.265 78.192 316.649 78C317.033 77.796 317.513 77.694 318.089 77.694C319.265 77.694 320.129 78.15 320.681 79.062C321.089 78.558 321.503 78.204 321.923 78C322.343 77.796 322.883 77.694 323.543 77.694C324.227 77.694 324.839 77.838 325.379 78.126C325.979 78.45 326.393 78.906 326.621 79.494C326.777 79.89 326.855 80.514 326.855 81.366V83.112L326.837 84.462C326.837 84.954 326.843 85.254 326.855 85.362C326.915 85.794 327.071 86.01 327.323 86.01C327.407 86.01 327.533 85.992 327.701 85.956C327.869 85.92 327.995 85.902 328.079 85.902C328.499 85.902 328.709 86.082 328.709 86.442C328.709 86.862 328.469 87.072 327.989 87.072C327.809 87.072 327.533 87.048 327.161 87C326.801 86.964 326.525 86.946 326.333 86.946C326.129 86.946 325.829 86.964 325.433 87C325.049 87.048 324.755 87.072 324.551 87.072C324.047 87.072 323.795 86.862 323.795 86.442C323.795 86.082 323.987 85.902 324.371 85.902C324.419 85.902 324.539 85.914 324.731 85.938C324.803 85.962 324.899 85.974 325.019 85.974C325.223 85.974 325.349 85.872 325.397 85.668C325.457 85.464 325.493 84.954 325.505 84.138L325.523 83.04V81.852C325.523 81.024 325.457 80.424 325.325 80.052C325.205 79.668 324.971 79.368 324.623 79.152C324.275 78.936 323.879 78.828 323.435 78.828C322.583 78.828 321.989 79.122 321.653 79.71C321.389 80.178 321.257 80.994 321.257 82.158V83.436C321.257 84.564 321.281 85.272 321.329 85.56C321.389 85.836 321.533 85.974 321.761 85.974C321.833 85.974 321.935 85.962 322.067 85.938C322.211 85.902 322.319 85.884 322.391 85.884C322.559 85.884 322.697 85.944 322.805 86.064C322.925 86.172 322.985 86.31 322.985 86.478C322.985 86.874 322.703 87.072 322.139 87.072C321.959 87.072 321.689 87.048 321.329 87C320.981 86.952 320.717 86.928 320.537 86.928C320.285 86.928 320.009 86.952 319.709 87C319.409 87.048 319.145 87.072 318.917 87.072C318.425 87.072 318.179 86.868 318.179 86.46C318.179 86.088 318.359 85.902 318.719 85.902C318.851 85.902 318.953 85.914 319.025 85.938C319.193 85.974 319.319 85.992 319.403 85.992C319.691 85.992 319.841 85.686 319.853 85.074L319.871 84.228C319.883 83.964 319.889 83.706 319.889 83.454C319.901 83.238 319.907 83.124 319.907 83.112V81.618C319.907 80.574 319.763 79.848 319.475 79.44C319.199 79.032 318.701 78.828 317.981 78.828C317.189 78.828 316.583 79.116 316.163 79.692C315.815 80.16 315.641 80.976 315.641 82.14V84.534C315.641 85.014 315.647 85.296 315.659 85.38C315.707 85.788 315.839 85.992 316.055 85.992C316.115 85.992 316.241 85.968 316.433 85.92C316.457 85.92 316.493 85.914 316.541 85.902C316.589 85.902 316.631 85.902 316.667 85.902C317.135 85.902 317.369 86.1 317.369 86.496C317.369 86.88 317.099 87.072 316.559 87.072C316.355 87.072 316.103 87.054 315.803 87.018C315.395 86.97 315.047 86.946 314.759 86.946C314.615 86.946 314.351 86.964 313.967 87C313.451 87.048 313.139 87.072 313.031 87.072C312.551 87.072 312.311 86.868 312.311 86.46C312.311 86.088 312.539 85.902 312.995 85.902C313.019 85.902 313.055 85.902 313.103 85.902C313.151 85.914 313.187 85.92 313.211 85.92L313.661 86.01C313.673 86.022 313.697 86.028 313.733 86.028C314.057 86.028 314.231 85.734 314.255 85.146L314.291 84.12V81.366C314.291 80.346 314.261 79.71 314.201 79.458C314.153 79.206 314.009 79.08 313.769 79.08C313.721 79.08 313.553 79.11 313.265 79.17C313.145 79.194 313.049 79.206 312.977 79.206C312.533 79.206 312.311 79.014 312.311 78.63C312.311 78.222 312.557 78.018 313.049 78.018C313.181 78.018 313.361 78.03 313.589 78.054C313.817 78.078 314.015 78.09 314.183 78.09C314.243 78.09 314.309 78.084 314.381 78.072C314.453 78.072 314.495 78.072 314.507 78.072L314.939 78.018H314.993C315.281 78.018 315.425 78.192 315.425 78.54Z" fill="black"/>
<path d="M21.9688 87H30.0898V85.8574H23.1729V81.3223H29.3955V80.2061H23.1729V75.6973H30.0898V74.5811H21.9688V87ZM32.5684 87H33.7285V81.7969C33.7285 80.2676 34.6514 79.1689 36.1191 79.1689C37.5605 79.1689 38.1846 80.1357 38.1846 81.6914V87H39.3447V81.7969C39.3447 80.2676 40.2676 79.1689 41.7266 79.1689C43.2207 79.1689 43.8008 80.1885 43.8008 82.0078V87H44.9609V81.8672C44.9609 79.6172 44.0469 78.0791 41.9375 78.0791C40.6367 78.0791 39.5557 78.7383 39.0371 80.0215C38.6416 78.6768 37.6221 78.0791 36.3301 78.0791C35.1523 78.0791 34.168 78.624 33.6846 79.749V78.2197H32.5596L32.5684 87ZM50.8496 78.0791C49.2939 78.0791 48.2744 78.7119 47.4219 79.8896L48.3096 80.54C48.916 79.6348 49.6895 79.1074 50.8584 79.1074C52.6162 79.1074 53.293 79.9863 53.293 81.8408V81.9463H50.7617C48.4941 81.9463 47.0791 82.667 47.0791 84.4512C47.0791 86.1387 48.3271 87.1318 50.1113 87.1318C51.4209 87.1318 52.6426 86.4902 53.3018 85.2158L53.3809 87H54.3477V81.6387C54.3477 79.4326 53.0996 78.0791 50.8496 78.0791ZM50.3311 86.1387C49.0127 86.1387 48.2656 85.4883 48.2656 84.4863C48.2656 83.4316 49.0918 82.8076 50.8232 82.8076H53.293V83.7041C52.8887 85.1455 51.8604 86.1387 50.3311 86.1387ZM57.2305 76.3828H58.4434V74.5811H57.2305V76.3828ZM57.2568 87H58.4082V78.2197H57.2568V87ZM63.1367 87.1318C63.5146 87.1318 63.9893 87.0703 64.376 86.9912L64.3584 85.998C64.0947 86.0508 63.8311 86.0859 63.6465 86.0859C62.7676 86.0859 62.6797 85.5234 62.6797 84.8467V74.5811H61.5195V85.1455C61.5195 86.3848 61.8887 87.1318 63.1367 87.1318ZM73.6133 87.1318C75.3271 87.1318 76.7334 86.2441 76.7334 84.4863C76.7334 81.1201 71.6094 82.5264 71.6094 80.3467C71.6094 79.5645 72.3301 79.0195 73.4639 79.0195C74.5361 79.0195 75.2656 79.6084 75.6875 80.3994L76.584 79.916C75.9688 78.7559 74.8877 78.0791 73.499 78.0791C71.8203 78.0791 70.4932 78.9316 70.4932 80.4961C70.4932 83.6689 75.5908 82.1572 75.5908 84.5391C75.5908 85.4619 74.8877 86.1562 73.5605 86.1562C72.1982 86.1562 71.3281 85.3477 70.9941 84.4072L70.0537 84.8203C70.502 86.1562 71.8818 87.1318 73.6133 87.1318ZM82.4727 87.1318C83.8877 87.1318 84.8809 86.7012 85.8652 85.6729L85.0566 84.9609C84.2656 85.7871 83.5361 86.0771 82.4814 86.0771C80.7148 86.0771 79.6953 84.8818 79.6074 82.9219H86.0762C86.1113 82.79 86.1377 82.4385 86.1377 82.1396C86.1377 80.3994 85.1973 78.0791 82.332 78.0791C79.7744 78.0791 78.377 80.1709 78.377 82.6494C78.377 85.1719 79.8271 87.1318 82.4727 87.1318ZM79.6074 82.0605C79.7568 80.3027 80.7236 79.0723 82.3232 79.0723C84.0635 79.0723 84.8545 80.3203 84.96 81.5068C84.9863 81.6826 84.9863 81.876 84.9775 82.0605H79.6074ZM88.5283 87H89.6885V81.8057C89.6885 80.1006 90.6465 79.1602 92.1318 79.1602C93.5732 79.1602 94.3291 80.1094 94.3291 81.709V87H95.4893V81.4365C95.4541 79.5381 94.4873 78.0791 92.4395 78.0791C91.2793 78.0791 90.2422 78.6416 89.6885 79.7139V78.2197H88.5283V87ZM101.079 87.1318C101.571 87.1318 102.046 87.0439 102.318 86.9561L102.301 85.8926C102.055 85.9893 101.659 86.1035 101.272 86.1035C100.341 86.1035 99.8486 85.5938 99.8486 84.3545V79.2041H102.31V78.2197H99.8486V74.8271L98.7061 75.6797V78.2197H97.2295V79.2041H98.6885V84.5391C98.6885 86.2178 99.5234 87.1318 101.079 87.1318ZM111.854 87.1318C112.347 87.1318 112.821 87.0439 113.094 86.9561L113.076 85.8926C112.83 85.9893 112.435 86.1035 112.048 86.1035C111.116 86.1035 110.624 85.5938 110.624 84.3545V79.2041H113.085V78.2197H110.624V74.8271L109.481 75.6797V78.2197H108.005V79.2041H109.464V84.5391C109.464 86.2178 110.299 87.1318 111.854 87.1318ZM118.745 87.1318C121.25 87.1318 123.017 85.1104 123.017 82.5879C123.017 80.083 121.25 78.0791 118.745 78.0791C116.249 78.0791 114.509 80.083 114.509 82.5879C114.509 85.1191 116.249 87.1318 118.745 87.1318ZM118.745 86.1211C116.847 86.1211 115.713 84.5391 115.713 82.5879C115.713 80.6455 116.847 79.0986 118.745 79.0986C120.661 79.0986 121.812 80.6543 121.812 82.5879C121.812 84.5303 120.661 86.1211 118.745 86.1211Z" fill="#071435"/>
<path d="M76.8076 179.132C78.4248 179.132 79.6992 178.244 80.2354 176.715L79.1719 176.311C78.8203 177.4 77.9414 178.077 76.7988 178.077C74.9004 178.077 74.0303 176.434 74.0303 174.623C74.0303 172.839 74.9004 171.143 76.79 171.143C77.915 171.143 78.8027 171.828 79.2158 172.927L80.3232 172.496C79.6729 170.914 78.3896 170.079 76.79 170.079C74.1533 170.079 72.8525 172.32 72.8525 174.623C72.8525 177.11 74.2852 179.132 76.8076 179.132ZM85.3945 170.079C83.8389 170.079 82.8193 170.712 81.9668 171.89L82.8545 172.54C83.4609 171.635 84.2344 171.107 85.4033 171.107C87.1611 171.107 87.8379 171.986 87.8379 173.841V173.946H85.3066C83.0391 173.946 81.624 174.667 81.624 176.451C81.624 178.139 82.8721 179.132 84.6562 179.132C85.9658 179.132 87.1875 178.49 87.8467 177.216L87.9258 179H88.8926V173.639C88.8926 171.433 87.6445 170.079 85.3945 170.079ZM84.876 178.139C83.5576 178.139 82.8105 177.488 82.8105 176.486C82.8105 175.432 83.6367 174.808 85.3682 174.808H87.8379V175.704C87.4336 177.146 86.4053 178.139 84.876 178.139ZM91.8018 179H92.9619V173.806C92.9619 172.101 93.9199 171.16 95.4053 171.16C96.8467 171.16 97.6025 172.109 97.6025 173.709V179H98.7627V173.437C98.7275 171.538 97.7607 170.079 95.7129 170.079C94.5527 170.079 93.5156 170.642 92.9619 171.714V170.22H91.8018V179ZM110.654 179.132C113.01 179.132 114.372 177.093 114.372 174.597C114.372 172.109 113.01 170.079 110.637 170.079C109.239 170.079 108.053 170.861 107.499 172.153V166.581H106.304V179H107.499V177.058C108.053 178.35 109.266 179.132 110.654 179.132ZM110.382 178.051C108.554 178.051 107.402 176.574 107.402 174.597C107.402 172.637 108.554 171.143 110.382 171.143C112.219 171.143 113.203 172.654 113.203 174.597C113.203 176.548 112.219 178.051 110.382 178.051ZM120.217 179.132C121.632 179.132 122.625 178.701 123.609 177.673L122.801 176.961C122.01 177.787 121.28 178.077 120.226 178.077C118.459 178.077 117.439 176.882 117.352 174.922H123.82C123.855 174.79 123.882 174.438 123.882 174.14C123.882 172.399 122.941 170.079 120.076 170.079C117.519 170.079 116.121 172.171 116.121 174.649C116.121 177.172 117.571 179.132 120.217 179.132ZM117.352 174.061C117.501 172.303 118.468 171.072 120.067 171.072C121.808 171.072 122.599 172.32 122.704 173.507C122.73 173.683 122.73 173.876 122.722 174.061H117.352ZM133.55 179.132C134.042 179.132 134.517 179.044 134.789 178.956L134.771 177.893C134.525 177.989 134.13 178.104 133.743 178.104C132.812 178.104 132.319 177.594 132.319 176.354V171.204H134.78V170.22H132.319V166.827L131.177 167.68V170.22H129.7V171.204H131.159V176.539C131.159 178.218 131.994 179.132 133.55 179.132ZM139.922 179.132C141.082 179.132 142.128 178.578 142.673 177.506V179H143.824V170.22H142.673V175.405C142.673 177.119 141.706 178.051 140.229 178.051C138.788 178.051 138.032 177.11 138.032 175.511V170.22H136.881V175.774C136.916 177.673 137.865 179.132 139.922 179.132ZM146.979 179H148.104V174.518C148.104 172.136 149.493 171.213 150.662 171.213C151.014 171.213 151.356 171.301 151.664 171.468L152.191 170.501C151.813 170.22 151.312 170.079 150.82 170.079C149.774 170.079 148.553 170.703 148.113 172.057V170.22H146.979V179ZM153.993 179H155.153V173.806C155.153 172.101 156.111 171.16 157.597 171.16C159.038 171.16 159.794 172.109 159.794 173.709V179H160.954V173.437C160.919 171.538 159.952 170.079 157.904 170.079C156.744 170.079 155.707 170.642 155.153 171.714V170.22H153.993V179ZM167.256 179.132C168.671 179.132 169.664 178.701 170.648 177.673L169.84 176.961C169.049 177.787 168.319 178.077 167.265 178.077C165.498 178.077 164.479 176.882 164.391 174.922H170.859C170.895 174.79 170.921 174.438 170.921 174.14C170.921 172.399 169.98 170.079 167.115 170.079C164.558 170.079 163.16 172.171 163.16 174.649C163.16 177.172 164.61 179.132 167.256 179.132ZM164.391 174.061C164.54 172.303 165.507 171.072 167.106 171.072C168.847 171.072 169.638 172.32 169.743 173.507C169.77 173.683 169.77 173.876 169.761 174.061H164.391ZM176.511 179.132C177.917 179.132 179.139 178.332 179.684 177.005L179.728 179H180.817V166.581H179.64V172.153C179.095 170.861 177.873 170.079 176.493 170.079C174.129 170.079 172.591 172.118 172.591 174.597C172.591 177.102 174.129 179.132 176.511 179.132ZM176.766 178.077C174.938 178.077 173.769 176.557 173.769 174.597C173.769 172.654 174.938 171.143 176.766 171.143C178.594 171.143 179.728 172.637 179.728 174.597C179.728 176.583 178.594 178.077 176.766 178.077ZM183.902 173.981H188.648V173.076H183.902V173.981ZM195.179 179.132C197.684 179.132 199.45 177.11 199.45 174.588C199.45 172.083 197.684 170.079 195.179 170.079C192.683 170.079 190.942 172.083 190.942 174.588C190.942 177.119 192.683 179.132 195.179 179.132ZM195.179 178.121C193.28 178.121 192.146 176.539 192.146 174.588C192.146 172.646 193.28 171.099 195.179 171.099C197.095 171.099 198.246 172.654 198.246 174.588C198.246 176.53 197.095 178.121 195.179 178.121ZM202.148 179H203.3V171.204H206.798V179H208.002V171.204H210.735V170.22H208.002V168.963C208.002 167.952 208.538 167.486 209.514 167.486C209.795 167.486 210.076 167.583 210.375 167.732L210.762 166.774C210.34 166.572 209.892 166.449 209.408 166.449C208.661 166.449 208.046 166.643 207.589 167.021C206.947 166.625 206.227 166.449 205.462 166.449C203.607 166.449 202.148 167.583 202.148 169.394V170.22H200.619V171.204H202.148V179ZM203.3 170.22V169.411C203.3 168.207 204.108 167.398 205.515 167.398C206.112 167.398 206.631 167.53 207.079 167.785C206.903 168.066 206.807 168.427 206.807 168.857V170.22H203.3ZM220.148 170.079C218.593 170.079 217.573 170.712 216.721 171.89L217.608 172.54C218.215 171.635 218.988 171.107 220.157 171.107C221.915 171.107 222.592 171.986 222.592 173.841V173.946H220.061C217.793 173.946 216.378 174.667 216.378 176.451C216.378 178.139 217.626 179.132 219.41 179.132C220.72 179.132 221.941 178.49 222.601 177.216L222.68 179H223.646V173.639C223.646 171.433 222.398 170.079 220.148 170.079ZM219.63 178.139C218.312 178.139 217.564 177.488 217.564 176.486C217.564 175.432 218.391 174.808 220.122 174.808H222.592V175.704C222.188 177.146 221.159 178.139 219.63 178.139ZM226.556 179H227.716V173.806C227.716 172.101 228.674 171.16 230.159 171.16C231.601 171.16 232.356 172.109 232.356 173.709V179H233.517V173.437C233.481 171.538 232.515 170.079 230.467 170.079C229.307 170.079 228.27 170.642 227.716 171.714V170.22H226.556V179ZM237.322 182.762H238.588L243.404 170.22H242.139L239.432 177.532L236.355 170.22H235.081L238.816 178.895L237.322 182.762ZM252.589 179.132C253.081 179.132 253.556 179.044 253.828 178.956L253.811 177.893C253.564 177.989 253.169 178.104 252.782 178.104C251.851 178.104 251.358 177.594 251.358 176.354V171.204H253.819V170.22H251.358V166.827L250.216 167.68V170.22H248.739V171.204H250.198V176.539C250.198 178.218 251.033 179.132 252.589 179.132ZM256.096 168.383H257.309V166.581H256.096V168.383ZM256.122 179H257.273V170.22H256.122V179ZM260.438 179H261.598V173.797C261.598 172.268 262.521 171.169 263.988 171.169C265.43 171.169 266.054 172.136 266.054 173.691V179H267.214V173.797C267.214 172.268 268.137 171.169 269.596 171.169C271.09 171.169 271.67 172.188 271.67 174.008V179H272.83V173.867C272.83 171.617 271.916 170.079 269.807 170.079C268.506 170.079 267.425 170.738 266.906 172.021C266.511 170.677 265.491 170.079 264.199 170.079C263.021 170.079 262.037 170.624 261.554 171.749V170.22H260.429L260.438 179ZM279.141 179.132C280.556 179.132 281.549 178.701 282.533 177.673L281.725 176.961C280.934 177.787 280.204 178.077 279.149 178.077C277.383 178.077 276.363 176.882 276.275 174.922H282.744C282.779 174.79 282.806 174.438 282.806 174.14C282.806 172.399 281.865 170.079 279 170.079C276.442 170.079 275.045 172.171 275.045 174.649C275.045 177.172 276.495 179.132 279.141 179.132ZM276.275 174.061C276.425 172.303 277.392 171.072 278.991 171.072C280.731 171.072 281.522 172.32 281.628 173.507C281.654 173.683 281.654 173.876 281.646 174.061H276.275Z" fill="#071435"/>
<rect x="116" y="112" width="150" height="36" rx="4" fill="#C4C4C4" fill-opacity="0.1"/>
<rect x="116.5" y="112.5" width="149" height="35" rx="3.5" stroke="#071435" stroke-opacity="0.1" stroke-linecap="round"/>
<path d="M123.712 137.476C123.712 137.728 123.604 137.962 123.388 138.178C123.712 138.418 124.042 138.538 124.378 138.538C125.05 138.538 125.53 138.34 125.818 137.944C126.118 137.548 126.268 136.912 126.268 136.036L126.286 130.384C126.286 129.328 126.256 128.68 126.196 128.44C126.136 128.188 125.974 128.062 125.71 128.062C125.578 128.062 125.41 128.086 125.206 128.134C125.098 128.17 124.99 128.188 124.882 128.188C124.498 128.188 124.306 127.996 124.306 127.612C124.306 127.216 124.558 127.018 125.062 127.018C125.242 127.018 125.398 127.024 125.53 127.036C125.914 127.072 126.184 127.09 126.34 127.09C126.436 127.09 126.586 127.078 126.79 127.054C126.994 127.018 127.144 127 127.24 127C127.588 127 127.762 127.192 127.762 127.576C127.762 127.636 127.756 127.756 127.744 127.936C127.732 128.152 127.726 128.326 127.726 128.458C127.714 128.65 127.696 129.082 127.672 129.754C127.648 130.51 127.636 131.092 127.636 131.5V135.568C127.636 136.288 127.606 136.822 127.546 137.17C127.438 137.734 127.222 138.214 126.898 138.61C126.322 139.306 125.518 139.654 124.486 139.654C123.766 139.654 123.166 139.474 122.686 139.114C122.206 138.754 121.966 138.304 121.966 137.764C121.966 137.464 122.056 137.212 122.236 137.008C122.404 136.816 122.62 136.72 122.884 136.72C123.112 136.72 123.31 136.792 123.478 136.936C123.634 137.092 123.712 137.272 123.712 137.476ZM126.736 126.064C126.46 126.064 126.22 125.968 126.016 125.776C125.824 125.572 125.728 125.332 125.728 125.056C125.728 124.78 125.824 124.546 126.016 124.354C126.22 124.162 126.46 124.066 126.736 124.066C127.012 124.066 127.252 124.168 127.456 124.372C127.66 124.564 127.762 124.792 127.762 125.056C127.762 125.332 127.66 125.572 127.456 125.776C127.252 125.968 127.012 126.064 126.736 126.064ZM137.68 136.234C136.696 136.234 136.09 135.808 135.862 134.956C135.25 135.856 134.29 136.306 132.982 136.306C132.01 136.306 131.23 136.066 130.642 135.586C130.066 135.106 129.778 134.464 129.778 133.66C129.778 132.664 130.204 131.932 131.056 131.464C131.38 131.284 131.656 131.17 131.884 131.122C132.124 131.062 132.598 130.99 133.306 130.906C134.314 130.798 134.968 130.648 135.268 130.456C135.58 130.264 135.736 129.91 135.736 129.394C135.736 128.902 135.562 128.518 135.214 128.242C134.878 127.954 134.404 127.81 133.792 127.81C133.252 127.81 132.748 127.96 132.28 128.26C132.1 128.38 132.01 128.506 132.01 128.638C132.01 128.686 132.064 128.746 132.172 128.818C132.34 128.938 132.424 129.142 132.424 129.43C132.424 129.67 132.334 129.868 132.154 130.024C131.986 130.18 131.77 130.258 131.506 130.258C131.194 130.258 130.93 130.15 130.714 129.934C130.51 129.718 130.408 129.454 130.408 129.142C130.408 128.47 130.738 127.894 131.398 127.414C132.07 126.934 132.88 126.694 133.828 126.694C136.012 126.694 137.104 127.744 137.104 129.844V133.48C137.104 134.056 137.116 134.398 137.14 134.506C137.212 134.926 137.416 135.136 137.752 135.136C138.172 135.136 138.382 134.752 138.382 133.984V133.102C138.382 132.718 138.568 132.526 138.94 132.526C139.336 132.526 139.534 132.814 139.534 133.39V133.48L139.516 134.506C139.492 135.658 138.88 136.234 137.68 136.234ZM135.682 132.652L135.7 131.374C135.436 131.614 135.154 131.782 134.854 131.878C134.566 131.974 134.044 132.058 133.288 132.13C131.92 132.262 131.236 132.766 131.236 133.642C131.236 134.098 131.398 134.458 131.722 134.722C132.058 134.986 132.508 135.118 133.072 135.118C133.876 135.118 134.506 134.902 134.962 134.47C135.43 134.026 135.67 133.42 135.682 132.652ZM142.854 127.558V128.062C143.574 127.15 144.534 126.694 145.734 126.694C146.382 126.694 146.994 126.862 147.57 127.198C148.146 127.522 148.536 127.93 148.74 128.422C148.908 128.83 148.992 129.364 148.992 130.024V133.444C148.992 133.96 148.998 134.266 149.01 134.362C149.07 134.77 149.232 134.974 149.496 134.974C149.604 134.974 149.742 134.962 149.91 134.938C150.09 134.902 150.216 134.884 150.288 134.884C150.444 134.884 150.576 134.938 150.684 135.046C150.804 135.154 150.864 135.286 150.864 135.442C150.864 135.622 150.792 135.772 150.648 135.892C150.504 136.012 150.33 136.072 150.126 136.072C149.958 136.072 149.682 136.048 149.298 136C148.914 135.952 148.554 135.928 148.218 135.928C147.906 135.928 147.648 135.94 147.444 135.964C146.844 136.036 146.526 136.072 146.49 136.072C146.01 136.072 145.77 135.862 145.77 135.442C145.77 135.07 145.974 134.884 146.382 134.884C146.478 134.884 146.586 134.896 146.706 134.92C146.934 134.968 147.078 134.992 147.138 134.992C147.426 134.992 147.582 134.662 147.606 134.002L147.642 133.084L147.66 131.986V130.618C147.66 129.982 147.63 129.544 147.57 129.304C147.462 128.848 147.228 128.494 146.868 128.242C146.472 127.966 146.022 127.828 145.518 127.828C144.558 127.828 143.868 128.17 143.448 128.854C143.16 129.322 143.016 130.12 143.016 131.248V133.642C143.016 134.17 143.052 134.53 143.124 134.722C143.196 134.914 143.328 135.01 143.52 135.01C143.616 135.01 143.748 134.986 143.916 134.938C144.084 134.89 144.222 134.866 144.33 134.866C144.702 134.866 144.888 135.07 144.888 135.478C144.888 135.874 144.648 136.072 144.168 136.072C144.072 136.072 143.76 136.036 143.232 135.964C142.968 135.928 142.674 135.91 142.35 135.91C142.098 135.91 141.762 135.934 141.342 135.982C140.814 136.042 140.514 136.072 140.442 136.072C139.938 136.072 139.686 135.868 139.686 135.46C139.686 135.076 139.878 134.884 140.262 134.884C140.322 134.884 140.43 134.902 140.586 134.938C140.754 134.974 140.916 134.992 141.072 134.992C141.432 134.992 141.618 134.644 141.63 133.948L141.666 131.95V129.772L141.63 129.142C141.606 128.734 141.552 128.458 141.468 128.314C141.396 128.158 141.264 128.08 141.072 128.08C140.988 128.08 140.862 128.098 140.694 128.134C140.538 128.158 140.418 128.17 140.334 128.17C139.902 128.17 139.686 127.978 139.686 127.594C139.686 127.198 139.956 127 140.496 127C140.568 127 140.628 127.006 140.676 127.018L141.342 127.09C141.534 127.09 141.702 127.078 141.846 127.054C142.158 127.03 142.32 127.018 142.332 127.018C142.68 127.018 142.854 127.198 142.854 127.558ZM159.733 130.708C159.733 131.164 159.703 131.446 159.643 131.554C159.583 131.65 159.409 131.698 159.121 131.698H153.397C153.241 131.698 153.139 131.722 153.091 131.77C153.043 131.806 153.019 131.872 153.019 131.968C153.019 132.868 153.289 133.618 153.829 134.218C154.369 134.818 155.041 135.118 155.845 135.118C156.373 135.118 156.853 134.974 157.285 134.686C157.729 134.398 158.017 134.032 158.149 133.588L158.311 133.066C158.395 132.778 158.593 132.634 158.905 132.634C159.349 132.634 159.571 132.862 159.571 133.318C159.571 134.098 159.175 134.794 158.383 135.406C157.591 136.006 156.691 136.306 155.683 136.306C154.423 136.306 153.421 135.886 152.677 135.046C151.933 134.194 151.561 133.054 151.561 131.626C151.561 130.162 151.957 128.974 152.749 128.062C153.541 127.15 154.573 126.694 155.845 126.694C156.973 126.694 157.903 127.072 158.635 127.828C159.367 128.584 159.733 129.544 159.733 130.708ZM153.199 130.24C153.199 130.408 153.331 130.492 153.595 130.492H157.897C158.149 130.492 158.275 130.408 158.275 130.24C158.275 129.604 158.035 129.052 157.555 128.584C157.075 128.116 156.511 127.882 155.863 127.882C155.191 127.882 154.579 128.128 154.027 128.62C153.475 129.1 153.199 129.64 153.199 130.24ZM167.515 132.382C167.515 132.286 167.521 132.202 167.533 132.13C167.077 132.838 166.375 133.192 165.427 133.192C164.851 133.192 164.383 133 164.023 132.616C163.675 132.22 163.501 131.71 163.501 131.086C163.501 129.994 163.897 129.034 164.689 128.206C165.481 127.366 166.399 126.946 167.443 126.946C167.683 126.946 167.947 126.982 168.235 127.054L168.595 127.144C168.643 127.168 168.703 127.18 168.775 127.18C168.835 127.18 168.937 127.15 169.081 127.09C169.273 127.006 169.411 126.964 169.495 126.964C169.675 126.964 169.765 127.042 169.765 127.198C169.765 127.234 169.753 127.3 169.729 127.396L169.639 127.738L168.613 131.572C168.577 131.716 168.559 131.83 168.559 131.914C168.559 132.13 168.673 132.238 168.901 132.238C169.345 132.238 169.759 131.95 170.143 131.374C170.683 130.57 170.953 129.64 170.953 128.584C170.953 127.588 170.623 126.76 169.963 126.1C169.315 125.44 168.493 125.11 167.497 125.11C166.093 125.11 164.869 125.674 163.825 126.802C162.793 127.918 162.277 129.232 162.277 130.744C162.277 131.92 162.655 132.904 163.411 133.696C164.167 134.476 165.115 134.866 166.255 134.866C166.927 134.866 167.479 134.788 167.911 134.632C168.355 134.464 168.907 134.14 169.567 133.66C169.807 133.48 170.005 133.39 170.161 133.39C170.389 133.39 170.503 133.498 170.503 133.714C170.503 133.942 170.347 134.176 170.035 134.416C168.847 135.352 167.539 135.82 166.111 135.82C164.659 135.82 163.447 135.34 162.475 134.38C161.515 133.408 161.035 132.196 161.035 130.744C161.035 128.992 161.683 127.468 162.979 126.172C164.287 124.864 165.829 124.21 167.605 124.21C168.949 124.21 170.041 124.606 170.881 125.398C171.733 126.19 172.159 127.222 172.159 128.494C172.159 129.922 171.637 131.17 170.593 132.238C169.957 132.886 169.291 133.21 168.595 133.21C168.283 133.21 168.025 133.132 167.821 132.976C167.617 132.82 167.515 132.622 167.515 132.382ZM167.893 129.934L168.379 128.134C168.019 127.954 167.671 127.864 167.335 127.864C166.639 127.864 166.027 128.17 165.499 128.782C164.983 129.394 164.725 130.108 164.725 130.924C164.725 131.752 165.085 132.166 165.805 132.166C166.801 132.166 167.497 131.422 167.893 129.934ZM177.8 126.694C178.112 126.694 178.466 126.742 178.862 126.838C178.922 125.662 179.606 125.074 180.914 125.074C181.466 125.074 181.928 125.218 182.3 125.506C182.672 125.794 182.858 126.16 182.858 126.604C182.858 126.892 182.762 127.138 182.57 127.342C182.39 127.546 182.174 127.648 181.922 127.648C181.73 127.648 181.562 127.582 181.418 127.45C181.274 127.318 181.202 127.162 181.202 126.982C181.202 126.79 181.334 126.592 181.598 126.388C181.406 126.148 181.16 126.028 180.86 126.028C180.224 126.028 179.9 126.424 179.888 127.216C180.8 127.828 181.256 128.65 181.256 129.682C181.256 130.51 180.944 131.2 180.32 131.752C179.696 132.304 178.916 132.58 177.98 132.58C177.32 132.58 176.636 132.424 175.928 132.112C175.736 132.028 175.574 131.986 175.442 131.986C175.274 131.986 175.124 132.064 174.992 132.22C174.86 132.364 174.794 132.538 174.794 132.742C174.794 133.366 175.424 133.678 176.684 133.678H176.792C176.888 133.678 176.996 133.672 177.116 133.66C177.236 133.66 177.308 133.66 177.332 133.66C178.472 133.66 179.396 133.768 180.104 133.984C180.764 134.188 181.286 134.506 181.67 134.938C182.054 135.37 182.246 135.856 182.246 136.396C182.246 137.272 181.838 137.962 181.022 138.466C180.218 138.982 179.126 139.24 177.746 139.24C176.366 139.24 175.28 139 174.488 138.52C173.708 138.04 173.318 137.38 173.318 136.54C173.318 135.568 173.864 134.878 174.956 134.47C173.984 134.086 173.498 133.51 173.498 132.742C173.498 131.902 173.984 131.326 174.956 131.014C174.644 130.594 174.488 130.102 174.488 129.538C174.488 128.722 174.8 128.044 175.424 127.504C176.06 126.964 176.852 126.694 177.8 126.694ZM177.854 127.882C177.326 127.882 176.876 128.038 176.504 128.35C176.132 128.662 175.928 129.052 175.892 129.52C175.892 129.52 175.892 129.556 175.892 129.628C175.892 130.156 176.072 130.582 176.432 130.906C176.792 131.23 177.26 131.392 177.836 131.392C178.436 131.392 178.922 131.23 179.294 130.906C179.678 130.582 179.87 130.168 179.87 129.664C179.87 129.148 179.678 128.722 179.294 128.386C178.91 128.05 178.43 127.882 177.854 127.882ZM177.872 134.866C176.912 134.866 176.156 135.01 175.604 135.298C175.052 135.586 174.776 135.976 174.776 136.468C174.776 136.96 175.046 137.344 175.586 137.62C176.126 137.908 176.852 138.052 177.764 138.052C178.724 138.052 179.48 137.908 180.032 137.62C180.596 137.332 180.878 136.948 180.878 136.468C180.878 135.964 180.614 135.574 180.086 135.298C179.558 135.01 178.82 134.866 177.872 134.866ZM186.06 127.54V128.062C186.492 127.546 186.9 127.192 187.284 127C187.668 126.796 188.148 126.694 188.724 126.694C189.9 126.694 190.764 127.15 191.316 128.062C191.724 127.558 192.138 127.204 192.558 127C192.978 126.796 193.518 126.694 194.178 126.694C194.862 126.694 195.474 126.838 196.014 127.126C196.614 127.45 197.028 127.906 197.256 128.494C197.412 128.89 197.49 129.514 197.49 130.366V132.112L197.472 133.462C197.472 133.954 197.478 134.254 197.49 134.362C197.55 134.794 197.706 135.01 197.958 135.01C198.042 135.01 198.168 134.992 198.336 134.956C198.504 134.92 198.63 134.902 198.714 134.902C199.134 134.902 199.344 135.082 199.344 135.442C199.344 135.862 199.104 136.072 198.624 136.072C198.444 136.072 198.168 136.048 197.796 136C197.436 135.964 197.16 135.946 196.968 135.946C196.764 135.946 196.464 135.964 196.068 136C195.684 136.048 195.39 136.072 195.186 136.072C194.682 136.072 194.43 135.862 194.43 135.442C194.43 135.082 194.622 134.902 195.006 134.902C195.054 134.902 195.174 134.914 195.366 134.938C195.438 134.962 195.534 134.974 195.654 134.974C195.858 134.974 195.984 134.872 196.032 134.668C196.092 134.464 196.128 133.954 196.14 133.138L196.158 132.04V130.852C196.158 130.024 196.092 129.424 195.96 129.052C195.84 128.668 195.606 128.368 195.258 128.152C194.91 127.936 194.514 127.828 194.07 127.828C193.218 127.828 192.624 128.122 192.288 128.71C192.024 129.178 191.892 129.994 191.892 131.158V132.436C191.892 133.564 191.916 134.272 191.964 134.56C192.024 134.836 192.168 134.974 192.396 134.974C192.468 134.974 192.57 134.962 192.702 134.938C192.846 134.902 192.954 134.884 193.026 134.884C193.194 134.884 193.332 134.944 193.44 135.064C193.56 135.172 193.62 135.31 193.62 135.478C193.62 135.874 193.338 136.072 192.774 136.072C192.594 136.072 192.324 136.048 191.964 136C191.616 135.952 191.352 135.928 191.172 135.928C190.92 135.928 190.644 135.952 190.344 136C190.044 136.048 189.78 136.072 189.552 136.072C189.06 136.072 188.814 135.868 188.814 135.46C188.814 135.088 188.994 134.902 189.354 134.902C189.486 134.902 189.588 134.914 189.66 134.938C189.828 134.974 189.954 134.992 190.038 134.992C190.326 134.992 190.476 134.686 190.488 134.074L190.506 133.228C190.518 132.964 190.524 132.706 190.524 132.454C190.536 132.238 190.542 132.124 190.542 132.112V130.618C190.542 129.574 190.398 128.848 190.11 128.44C189.834 128.032 189.336 127.828 188.616 127.828C187.824 127.828 187.218 128.116 186.798 128.692C186.45 129.16 186.276 129.976 186.276 131.14V133.534C186.276 134.014 186.282 134.296 186.294 134.38C186.342 134.788 186.474 134.992 186.69 134.992C186.75 134.992 186.876 134.968 187.068 134.92C187.092 134.92 187.128 134.914 187.176 134.902C187.224 134.902 187.266 134.902 187.302 134.902C187.77 134.902 188.004 135.1 188.004 135.496C188.004 135.88 187.734 136.072 187.194 136.072C186.99 136.072 186.738 136.054 186.438 136.018C186.03 135.97 185.682 135.946 185.394 135.946C185.25 135.946 184.986 135.964 184.602 136C184.086 136.048 183.774 136.072 183.666 136.072C183.186 136.072 182.946 135.868 182.946 135.46C182.946 135.088 183.174 134.902 183.63 134.902C183.654 134.902 183.69 134.902 183.738 134.902C183.786 134.914 183.822 134.92 183.846 134.92L184.296 135.01C184.308 135.022 184.332 135.028 184.368 135.028C184.692 135.028 184.866 134.734 184.89 134.146L184.926 133.12V130.366C184.926 129.346 184.896 128.71 184.836 128.458C184.788 128.206 184.644 128.08 184.404 128.08C184.356 128.08 184.188 128.11 183.9 128.17C183.78 128.194 183.684 128.206 183.612 128.206C183.168 128.206 182.946 128.014 182.946 127.63C182.946 127.222 183.192 127.018 183.684 127.018C183.816 127.018 183.996 127.03 184.224 127.054C184.452 127.078 184.65 127.09 184.818 127.09C184.878 127.09 184.944 127.084 185.016 127.072C185.088 127.072 185.13 127.072 185.142 127.072L185.574 127.018H185.628C185.916 127.018 186.06 127.192 186.06 127.54ZM207.799 136.234C206.815 136.234 206.209 135.808 205.981 134.956C205.369 135.856 204.409 136.306 203.101 136.306C202.129 136.306 201.349 136.066 200.761 135.586C200.185 135.106 199.897 134.464 199.897 133.66C199.897 132.664 200.323 131.932 201.175 131.464C201.499 131.284 201.775 131.17 202.003 131.122C202.243 131.062 202.717 130.99 203.425 130.906C204.433 130.798 205.087 130.648 205.387 130.456C205.699 130.264 205.855 129.91 205.855 129.394C205.855 128.902 205.681 128.518 205.333 128.242C204.997 127.954 204.523 127.81 203.911 127.81C203.371 127.81 202.867 127.96 202.399 128.26C202.219 128.38 202.129 128.506 202.129 128.638C202.129 128.686 202.183 128.746 202.291 128.818C202.459 128.938 202.543 129.142 202.543 129.43C202.543 129.67 202.453 129.868 202.273 130.024C202.105 130.18 201.889 130.258 201.625 130.258C201.313 130.258 201.049 130.15 200.833 129.934C200.629 129.718 200.527 129.454 200.527 129.142C200.527 128.47 200.857 127.894 201.517 127.414C202.189 126.934 202.999 126.694 203.947 126.694C206.131 126.694 207.223 127.744 207.223 129.844V133.48C207.223 134.056 207.235 134.398 207.259 134.506C207.331 134.926 207.535 135.136 207.871 135.136C208.291 135.136 208.501 134.752 208.501 133.984V133.102C208.501 132.718 208.687 132.526 209.059 132.526C209.455 132.526 209.653 132.814 209.653 133.39V133.48L209.635 134.506C209.611 135.658 208.999 136.234 207.799 136.234ZM205.801 132.652L205.819 131.374C205.555 131.614 205.273 131.782 204.973 131.878C204.685 131.974 204.163 132.058 203.407 132.13C202.039 132.262 201.355 132.766 201.355 133.642C201.355 134.098 201.517 134.458 201.841 134.722C202.177 134.986 202.627 135.118 203.191 135.118C203.995 135.118 204.625 134.902 205.081 134.47C205.549 134.026 205.789 133.42 205.801 132.652ZM213.136 130.78V133.12C213.136 133.72 213.142 134.074 213.154 134.182C213.214 134.722 213.376 134.992 213.64 134.992C213.7 134.992 213.85 134.962 214.09 134.902C214.15 134.878 214.24 134.866 214.36 134.866C214.816 134.866 215.044 135.064 215.044 135.46C215.044 135.628 214.966 135.772 214.81 135.892C214.666 136.012 214.48 136.072 214.252 136.072C214.06 136.072 213.766 136.048 213.37 136C212.986 135.94 212.698 135.91 212.506 135.91C212.194 135.91 211.846 135.934 211.462 135.982C210.994 136.042 210.682 136.072 210.526 136.072C210.046 136.072 209.806 135.868 209.806 135.46C209.806 135.064 210.01 134.866 210.418 134.866C210.514 134.866 210.652 134.884 210.832 134.92C211.024 134.956 211.168 134.974 211.264 134.974C211.552 134.974 211.726 134.59 211.786 133.822C211.786 133.774 211.786 133.252 211.786 132.256V130.78C211.786 129.784 211.786 129.262 211.786 129.214C211.726 128.458 211.546 128.08 211.246 128.08C211.15 128.08 211.012 128.104 210.832 128.152C210.664 128.188 210.538 128.206 210.454 128.206C210.022 128.206 209.806 128.014 209.806 127.63C209.806 127.222 210.07 127.018 210.598 127.018C210.826 127.018 210.988 127.024 211.084 127.036C211.468 127.084 211.714 127.108 211.822 127.108C211.918 127.108 212.062 127.096 212.254 127.072C212.458 127.036 212.608 127.018 212.704 127.018C213.052 127.018 213.226 127.252 213.226 127.72C213.226 127.768 213.22 127.84 213.208 127.936C213.196 128.032 213.19 128.104 213.19 128.152C213.178 128.248 213.166 128.62 213.154 129.268C213.142 129.76 213.136 130.264 213.136 130.78ZM212.2 126.064C211.924 126.064 211.684 125.968 211.48 125.776C211.288 125.572 211.192 125.332 211.192 125.056C211.192 124.78 211.288 124.546 211.48 124.354C211.684 124.162 211.924 124.066 212.2 124.066C212.476 124.066 212.71 124.162 212.902 124.354C213.106 124.546 213.208 124.78 213.208 125.056C213.208 125.332 213.106 125.572 212.902 125.776C212.71 125.968 212.476 126.064 212.2 126.064ZM218.6 128.476L218.618 134.074C218.63 134.686 218.792 134.992 219.104 134.992C219.176 134.992 219.326 134.962 219.554 134.902C219.698 134.878 219.794 134.866 219.842 134.866C220.238 134.866 220.436 135.07 220.436 135.478C220.436 135.874 220.19 136.072 219.698 136.072C219.506 136.072 219.2 136.048 218.78 136C218.36 135.952 218.036 135.928 217.808 135.928C217.616 135.928 217.328 135.952 216.944 136C216.56 136.048 216.278 136.072 216.098 136.072H216.008C215.504 136.072 215.252 135.856 215.252 135.424C215.252 135.052 215.456 134.866 215.864 134.866C215.888 134.866 215.93 134.866 215.99 134.866C216.062 134.878 216.116 134.884 216.152 134.884C216.452 134.932 216.626 134.956 216.674 134.956C216.89 134.956 217.022 134.866 217.07 134.686C217.13 134.494 217.166 134.008 217.178 133.228L217.196 131.968L217.25 129.178L217.232 125.974C217.22 125.614 217.202 125.374 217.178 125.254C217.094 124.978 216.926 124.84 216.674 124.84C216.638 124.84 216.482 124.864 216.206 124.912C216.074 124.936 215.966 124.948 215.882 124.948C215.474 124.948 215.27 124.756 215.27 124.372C215.27 123.976 215.51 123.778 215.99 123.778C216.122 123.778 216.236 123.784 216.332 123.796L216.764 123.85C216.956 123.874 217.118 123.886 217.25 123.886C217.37 123.886 217.55 123.868 217.79 123.832C218.03 123.784 218.21 123.76 218.33 123.76C218.606 123.76 218.744 123.934 218.744 124.282C218.744 124.402 218.738 124.492 218.726 124.552C218.642 125.476 218.6 126.784 218.6 128.476ZM223.093 136.306C222.781 136.306 222.517 136.198 222.301 135.982C222.085 135.754 221.977 135.484 221.977 135.172C221.977 134.86 222.085 134.596 222.301 134.38C222.517 134.152 222.781 134.038 223.093 134.038C223.405 134.038 223.669 134.152 223.885 134.38C224.101 134.596 224.209 134.86 224.209 135.172C224.209 135.484 224.101 135.754 223.885 135.982C223.669 136.198 223.405 136.306 223.093 136.306ZM231.506 130.06C231.506 129.58 231.806 129.304 232.406 129.232C232.346 128.812 232.142 128.482 231.794 128.242C231.458 128.002 231.02 127.882 230.48 127.882C229.652 127.882 228.986 128.212 228.482 128.872C227.978 129.532 227.726 130.408 227.726 131.5C227.726 132.628 227.96 133.516 228.428 134.164C228.908 134.8 229.568 135.118 230.408 135.118C230.936 135.118 231.392 134.968 231.776 134.668C232.172 134.368 232.442 133.954 232.586 133.426C232.706 133.006 232.778 132.766 232.802 132.706C232.934 132.466 233.126 132.346 233.378 132.346C233.582 132.346 233.75 132.412 233.882 132.544C234.014 132.676 234.08 132.844 234.08 133.048C234.08 133.348 233.984 133.708 233.792 134.128C233.6 134.548 233.372 134.896 233.108 135.172C232.4 135.928 231.482 136.306 230.354 136.306C229.13 136.306 228.14 135.874 227.384 135.01C226.64 134.146 226.268 133.012 226.268 131.608C226.268 130.12 226.652 128.932 227.42 128.044C228.2 127.144 229.232 126.694 230.516 126.694C231.476 126.694 232.274 126.958 232.91 127.486C233.546 128.002 233.864 128.662 233.864 129.466C233.864 129.91 233.738 130.276 233.486 130.564C233.246 130.852 232.934 130.996 232.55 130.996C232.25 130.996 231.998 130.906 231.794 130.726C231.602 130.546 231.506 130.324 231.506 130.06ZM239.584 136.306C238.324 136.306 237.316 135.874 236.56 135.01C235.804 134.134 235.426 132.964 235.426 131.5C235.426 130.036 235.804 128.872 236.56 128.008C237.328 127.132 238.354 126.694 239.638 126.694C240.946 126.694 241.978 127.12 242.734 127.972C243.49 128.824 243.868 129.982 243.868 131.446C243.868 132.91 243.478 134.086 242.698 134.974C241.918 135.862 240.88 136.306 239.584 136.306ZM239.674 127.882C238.834 127.882 238.174 128.176 237.694 128.764C237.214 129.352 236.95 130.186 236.902 131.266C236.902 131.266 236.902 131.344 236.902 131.5C236.902 132.628 237.136 133.516 237.604 134.164C238.084 134.8 238.75 135.118 239.602 135.118C240.478 135.118 241.162 134.8 241.654 134.164C242.158 133.516 242.41 132.622 242.41 131.482C242.41 129.082 241.498 127.882 239.674 127.882ZM247.97 127.54V128.062C248.402 127.546 248.81 127.192 249.194 127C249.578 126.796 250.058 126.694 250.634 126.694C251.81 126.694 252.674 127.15 253.226 128.062C253.634 127.558 254.048 127.204 254.468 127C254.888 126.796 255.428 126.694 256.088 126.694C256.772 126.694 257.384 126.838 257.924 127.126C258.524 127.45 258.938 127.906 259.166 128.494C259.322 128.89 259.4 129.514 259.4 130.366V132.112L259.382 133.462C259.382 133.954 259.388 134.254 259.4 134.362C259.46 134.794 259.616 135.01 259.868 135.01C259.952 135.01 260.078 134.992 260.246 134.956C260.414 134.92 260.54 134.902 260.624 134.902C261.044 134.902 261.254 135.082 261.254 135.442C261.254 135.862 261.014 136.072 260.534 136.072C260.354 136.072 260.078 136.048 259.706 136C259.346 135.964 259.07 135.946 258.878 135.946C258.674 135.946 258.374 135.964 257.978 136C257.594 136.048 257.3 136.072 257.096 136.072C256.592 136.072 256.34 135.862 256.34 135.442C256.34 135.082 256.532 134.902 256.916 134.902C256.964 134.902 257.084 134.914 257.276 134.938C257.348 134.962 257.444 134.974 257.564 134.974C257.768 134.974 257.894 134.872 257.942 134.668C258.002 134.464 258.038 133.954 258.05 133.138L258.068 132.04V130.852C258.068 130.024 258.002 129.424 257.87 129.052C257.75 128.668 257.516 128.368 257.168 128.152C256.82 127.936 256.424 127.828 255.98 127.828C255.128 127.828 254.534 128.122 254.198 128.71C253.934 129.178 253.802 129.994 253.802 131.158V132.436C253.802 133.564 253.826 134.272 253.874 134.56C253.934 134.836 254.078 134.974 254.306 134.974C254.378 134.974 254.48 134.962 254.612 134.938C254.756 134.902 254.864 134.884 254.936 134.884C255.104 134.884 255.242 134.944 255.35 135.064C255.47 135.172 255.53 135.31 255.53 135.478C255.53 135.874 255.248 136.072 254.684 136.072C254.504 136.072 254.234 136.048 253.874 136C253.526 135.952 253.262 135.928 253.082 135.928C252.83 135.928 252.554 135.952 252.254 136C251.954 136.048 251.69 136.072 251.462 136.072C250.97 136.072 250.724 135.868 250.724 135.46C250.724 135.088 250.904 134.902 251.264 134.902C251.396 134.902 251.498 134.914 251.57 134.938C251.738 134.974 251.864 134.992 251.948 134.992C252.236 134.992 252.386 134.686 252.398 134.074L252.416 133.228C252.428 132.964 252.434 132.706 252.434 132.454C252.446 132.238 252.452 132.124 252.452 132.112V130.618C252.452 129.574 252.308 128.848 252.02 128.44C251.744 128.032 251.246 127.828 250.526 127.828C249.734 127.828 249.128 128.116 248.708 128.692C248.36 129.16 248.186 129.976 248.186 131.14V133.534C248.186 134.014 248.192 134.296 248.204 134.38C248.252 134.788 248.384 134.992 248.6 134.992C248.66 134.992 248.786 134.968 248.978 134.92C249.002 134.92 249.038 134.914 249.086 134.902C249.134 134.902 249.176 134.902 249.212 134.902C249.68 134.902 249.914 135.1 249.914 135.496C249.914 135.88 249.644 136.072 249.104 136.072C248.9 136.072 248.648 136.054 248.348 136.018C247.94 135.97 247.592 135.946 247.304 135.946C247.16 135.946 246.896 135.964 246.512 136C245.996 136.048 245.684 136.072 245.576 136.072C245.096 136.072 244.856 135.868 244.856 135.46C244.856 135.088 245.084 134.902 245.54 134.902C245.564 134.902 245.6 134.902 245.648 134.902C245.696 134.914 245.732 134.92 245.756 134.92L246.206 135.01C246.218 135.022 246.242 135.028 246.278 135.028C246.602 135.028 246.776 134.734 246.8 134.146L246.836 133.12V130.366C246.836 129.346 246.806 128.71 246.746 128.458C246.698 128.206 246.554 128.08 246.314 128.08C246.266 128.08 246.098 128.11 245.81 128.17C245.69 128.194 245.594 128.206 245.522 128.206C245.078 128.206 244.856 128.014 244.856 127.63C244.856 127.222 245.102 127.018 245.594 127.018C245.726 127.018 245.906 127.03 246.134 127.054C246.362 127.078 246.56 127.09 246.728 127.09C246.788 127.09 246.854 127.084 246.926 127.072C246.998 127.072 247.04 127.072 247.052 127.072L247.484 127.018H247.538C247.826 127.018 247.97 127.192 247.97 127.54Z" fill="black"/>
<path d="M57.8447 134.84H55.876C54.918 134.84 54.1445 134.576 54.127 133.706C54.1094 133.302 54.2588 132.95 54.707 132.616C55.2256 132.941 55.876 133.117 56.5967 133.117C58.4512 133.117 59.8574 131.939 59.8574 130.146C59.8574 129.575 59.7168 129.039 59.4531 128.591L60.7891 127.431L60.1914 126.675L58.8467 127.861C58.2842 127.369 57.5195 127.079 56.6055 127.079C54.7246 127.079 53.3271 128.327 53.3271 130.103C53.3271 130.85 53.5732 131.509 54.0039 132.019C53.3096 132.528 53.0195 133.144 53.0371 133.812C53.0547 134.717 53.5732 135.279 54.1973 135.569L52.8174 136.519C52.7646 136.703 52.7383 136.896 52.7383 137.107C52.7383 138.988 54.4785 140.017 56.9219 140.017C59.3301 140.017 60.6309 138.918 60.6309 137.23C60.6309 135.631 59.4883 134.84 57.8447 134.84ZM56.623 128.02C57.915 128.02 58.7324 128.907 58.7324 130.129C58.7324 131.333 57.915 132.177 56.6143 132.177C55.3135 132.177 54.4873 131.324 54.4873 130.12C54.4873 128.916 55.3311 128.02 56.623 128.02ZM56.8516 139.103C54.4521 139.103 53.8281 138.074 53.8281 137.09V136.844L54.9268 135.798C55.0586 135.815 55.1904 135.824 55.3135 135.824H57.3965C58.7764 135.824 59.5146 136.343 59.5146 137.327C59.5146 138.584 58.3721 139.103 56.8516 139.103ZM66.3174 136.132C68.8223 136.132 70.5889 134.11 70.5889 131.588C70.5889 129.083 68.8223 127.079 66.3174 127.079C63.8213 127.079 62.0811 129.083 62.0811 131.588C62.0811 134.119 63.8213 136.132 66.3174 136.132ZM66.3174 135.121C64.4189 135.121 63.2852 133.539 63.2852 131.588C63.2852 129.646 64.4189 128.099 66.3174 128.099C68.2334 128.099 69.3848 129.654 69.3848 131.588C69.3848 133.53 68.2334 135.121 66.3174 135.121ZM76.3633 136.132C77.7783 136.132 78.7715 135.701 79.7559 134.673L78.9473 133.961C78.1562 134.787 77.4268 135.077 76.3721 135.077C74.6055 135.077 73.5859 133.882 73.498 131.922H79.9668C80.002 131.79 80.0283 131.438 80.0283 131.14C80.0283 129.399 79.0879 127.079 76.2227 127.079C73.665 127.079 72.2676 129.171 72.2676 131.649C72.2676 134.172 73.7178 136.132 76.3633 136.132ZM73.498 131.061C73.6475 129.303 74.6143 128.072 76.2139 128.072C77.9541 128.072 78.7451 129.32 78.8506 130.507C78.877 130.683 78.877 130.876 78.8682 131.061H73.498ZM85.0293 136.132C86.7432 136.132 88.1494 135.244 88.1494 133.486C88.1494 130.12 83.0254 131.526 83.0254 129.347C83.0254 128.564 83.7461 128.02 84.8799 128.02C85.9521 128.02 86.6816 128.608 87.1035 129.399L88 128.916C87.3848 127.756 86.3037 127.079 84.915 127.079C83.2363 127.079 81.9092 127.932 81.9092 129.496C81.9092 132.669 87.0068 131.157 87.0068 133.539C87.0068 134.462 86.3037 135.156 84.9766 135.156C83.6143 135.156 82.7441 134.348 82.4102 133.407L81.4697 133.82C81.918 135.156 83.2979 136.132 85.0293 136.132ZM97.8525 136.132C98.3447 136.132 98.8193 136.044 99.0918 135.956L99.0742 134.893C98.8281 134.989 98.4326 135.104 98.0459 135.104C97.1143 135.104 96.6221 134.594 96.6221 133.354V128.204H99.083V127.22H96.6221V123.827L95.4795 124.68V127.22H94.0029V128.204H95.4619V133.539C95.4619 135.218 96.2969 136.132 97.8525 136.132ZM104.743 136.132C107.248 136.132 109.015 134.11 109.015 131.588C109.015 129.083 107.248 127.079 104.743 127.079C102.247 127.079 100.507 129.083 100.507 131.588C100.507 134.119 102.247 136.132 104.743 136.132ZM104.743 135.121C102.845 135.121 101.711 133.539 101.711 131.588C101.711 129.646 102.845 128.099 104.743 128.099C106.659 128.099 107.811 129.654 107.811 131.588C107.811 133.53 106.659 135.121 104.743 135.121Z" fill="#071435"/>
<path d="M277.535 127.079C275.979 127.079 274.96 127.712 274.107 128.89L274.995 129.54C275.602 128.635 276.375 128.107 277.544 128.107C279.302 128.107 279.979 128.986 279.979 130.841V130.946H277.447C275.18 130.946 273.765 131.667 273.765 133.451C273.765 135.139 275.013 136.132 276.797 136.132C278.106 136.132 279.328 135.49 279.987 134.216L280.066 136H281.033V130.639C281.033 128.433 279.785 127.079 277.535 127.079ZM277.017 135.139C275.698 135.139 274.951 134.488 274.951 133.486C274.951 132.432 275.777 131.808 277.509 131.808H279.979V132.704C279.574 134.146 278.546 135.139 277.017 135.139ZM283.942 136H285.103V130.806C285.103 129.101 286.061 128.16 287.546 128.16C288.987 128.16 289.743 129.109 289.743 130.709V136H290.903V130.437C290.868 128.538 289.901 127.079 287.854 127.079C286.693 127.079 285.656 127.642 285.103 128.714V127.22H283.942V136ZM297.021 136.132C298.427 136.132 299.648 135.332 300.193 134.005L300.237 136H301.327V123.581H300.149V129.153C299.604 127.861 298.383 127.079 297.003 127.079C294.639 127.079 293.101 129.118 293.101 131.597C293.101 134.102 294.639 136.132 297.021 136.132ZM297.275 135.077C295.447 135.077 294.278 133.557 294.278 131.597C294.278 129.654 295.447 128.143 297.275 128.143C299.104 128.143 300.237 129.637 300.237 131.597C300.237 133.583 299.104 135.077 297.275 135.077Z" fill="#071435"/>
</svg>
